<?xml version="1.0" encoding="UTF-8"?>
<svg width="59px" height="63px" viewBox="0 0 59 63" version="1.1" xmlns="http://www.w3.org/2000/svg" xmlns:xlink="http://www.w3.org/1999/xlink">
    <!-- Generator: Sketch 55.2 (78181) - https://sketchapp.com -->
    <title>airplane icon</title>
    <desc>Created with Sketch.</desc>
    <g id="Page-1" stroke="none" stroke-width="1" fill="none" fill-rule="evenodd">
        <g id="Rokt-Calendar-1440" transform="translate(-223.000000, -3063.000000)" fill="#25211F" fill-rule="nonzero">
            <g id="Power-Calendar-Scheduling" transform="translate(0.000000, 2118.000000)">
                <g id="Publisher-Tile" transform="translate(154.000000, 882.000000)">
                    <g id="airplane-icon" transform="translate(69.000000, 62.000000)">
                        <path d="M58.39,52.07 L42.94,26 C42.8163306,25.7908576 42.6573045,25.6047633 42.47,25.45 L50.53,14.3 C50.8345659,13.857832 51.0989535,13.3892969 51.32,12.9 C52.43,10.9 56.25,3.41 53.45,1.39 C51,-0.39 46.18,4.08 44,6.35 C43.5874404,6.715806 43.2153115,7.1248125 42.89,7.57 L34.19,19.51 C33.9505358,19.3004525 33.6613166,19.1558429 33.35,19.09 L3.77,12.59 C3.01247613,12.435478 2.23373706,12.7313988 1.77,13.35 L0.37,15.29 C0.0423670361,15.77333 -0.0576812282,16.3757038 0.0961184102,16.938995 C0.249918049,17.5022861 0.642204325,17.9702341 1.17,18.22 L6.87,20.73 L6.09,21.82 C5.94478836,21.9956894 5.88141343,22.224978 5.91578518,22.450304 C5.95015693,22.6756299 6.0790113,22.8755954 6.27,23 L8.33,24.49 C8.69504753,24.752842 9.2036953,24.6725292 9.47,24.31 L10.78,22.5 L15,24.3 L14.54,24.93 C14.2781844,25.2918706 14.3587089,25.7973853 14.72,26.06 L16.79,27.55 C17.1518706,27.8118156 17.6573853,27.7312911 17.92,27.37 L18.92,26.02 L23.23,27.91 C23.4651621,28.016868 23.6787027,28.1660075 23.86,28.35 L25.76,30.35 C25.8615123,30.4568263 25.9756908,30.5508556 26.1,30.63 L17,43.09 L6,45.14 C5.73683062,45.1538456 5.4941211,45.2862326 5.34,45.5 L4,47.43 C3.82210356,47.6692152 3.78078071,47.9834965 3.89079403,48.2605671 C4.00080735,48.5376377 4.24646279,48.7379717 4.54,48.79 L14.54,50.63 C13.08,53.5 11.46,57.22 12.46,58.03 C13.46,58.84 16.58,56.09 18.89,53.77 L23.78,62.7 C23.9234844,62.9623709 24.1916634,63.1326621 24.4901467,63.1509365 C24.7886301,63.169211 25.0755802,63.0329074 25.25,62.79 L26.64,60.87 C26.7996439,60.654886 26.851288,60.3782213 26.78,60.12 L25.3,49.22 L34.38,36.66 L34.64,36.8 L37.14,38 C37.3710031,38.1127112 37.5781146,38.2688936 37.75,38.46 L40.9,41.96 L39.9,43.31 C39.7752832,43.4850212 39.7252332,43.7024313 39.7608684,43.9143673 C39.7965037,44.1263032 39.9149028,44.31539 40.09,44.44 L42.15,45.93 C42.3228738,46.0584113 42.5402172,46.1117042 42.7528841,46.0778281 C42.965551,46.0439519 43.1555795,45.9257679 43.28,45.75 L43.74,45.12 L46.81,48.53 L45.5,50.35 C45.2381844,50.7118706 45.3187089,51.2173853 45.68,51.48 L47.77,53 C48.1318706,53.2618156 48.6373853,53.1812911 48.9,52.82 L49.69,51.73 L53.86,56.36 C54.251938,56.7905569 54.8165303,57.0223167 55.3979364,56.9913083 C55.9793426,56.9603 56.5160812,56.6698026 56.86,56.2 L58.26,54.26 C58.751564,53.6269425 58.8032183,52.756766 58.39,52.07 L58.39,52.07 Z" id="Shape"></path>
                    </g>
                </g>
            </g>
        </g>
    </g>
</svg>