<?xml version="1.0" encoding="UTF-8"?> <svg xmlns="http://www.w3.org/2000/svg" xmlns:xlink="http://www.w3.org/1999/xlink" width="99px" height="55px" viewBox="0 0 99 55"><!-- Generator: Sketch 55.2 (78181) - https://sketchapp.com --><title>amc</title><desc>Created with Sketch.</desc><g id="Page-1" stroke="none" stroke-width="1" fill="none" fill-rule="evenodd"><g id="Rokt-Calendar-1440" transform="translate(-775.000000, -4010.000000)" fill="#FFFFFF" fill-rule="nonzero"><g id="Group-7" transform="translate(264.000000, 3747.000000)"><g id="Group-2" transform="translate(30.000000, 262.000000)"><g id="amc" transform="translate(481.510937, 1.380952)"><path d="M97.9578125,0 L97.9578125,53.8571429 L0,53.8571429 L0,0 L97.9578125,0 Z M4.75215779,49.1311903 L93.1422926,49.1311903 L93.1422926,4.67916098 L4.75215779,4.67916098 L4.75215779,49.1311903 Z" id="Shape"></path><path d="M60.6445677,38.6463684 L55.6328824,38.6463684 L55.6328824,22.6321468 L55.6328824,22.6321468 L51.2225992,38.6621928 L50.9912907,38.6621928 C49.6188599,38.6621928 48.2310086,38.6621928 46.8585778,38.6621928 C46.7865638,38.6758388 46.7122704,38.6579517 46.6536852,38.6128624 C46.5951,38.5677731 46.5575644,38.4995923 46.5501664,38.4248278 L42.3403507,22.8062145 C42.3224908,22.7322456 42.2910924,22.6624346 42.2478273,22.6004982 L42.2478273,38.6463684 L37.2515625,38.6463684 L37.2515625,16.6347259 L44.9618477,16.6347259 C46.2880167,21.8884033 47.6296063,27.1420808 48.971196,32.4590555 C49.2487662,31.3988255 49.4800748,30.4018927 49.7422245,29.4049599 C50.7702625,25.1851387 51.8445622,20.9653174 52.9651237,16.7454962 C52.9651237,16.6189016 52.9651237,16.5714286 53.1655911,16.5714286 L60.70625,16.5714286 L60.6445677,38.6463684 Z" id="Shape"></path><path d="M20.0828621,21.9635734 L14.811973,21.9635734 C14.9052631,21.441977 14.9519081,20.9203807 15.0762949,20.4294665 C15.5424315,18.5504737 16.8792658,16.9983596 18.683511,16.2413547 C19.8184624,15.731202 21.0329245,15.4147752 22.2751788,15.3055495 C23.6962022,15.1521184 25.1299504,15.1521184 26.5509738,15.3055495 C28.0967552,15.4315056 29.5895245,15.9207085 30.9045106,16.7322689 C32.1163975,17.5136294 32.8918939,18.8058966 33.0035372,20.2300326 C33.0785879,20.9794349 33.1149144,21.7321219 33.1125,22.4851697 L33.1125,33.3926697 C33.1125,34.4972266 33.1125,35.5864425 33.1125,36.6909995 L33.1125,36.798387 L32.9102471,36.798387 C31.3554126,36.798387 29.7228363,36.798387 28.1213567,36.798387 C27.9503249,36.798387 27.9036799,36.798387 27.9036799,36.583612 C27.9036799,36.1233799 27.8259382,35.6631479 27.7792931,35.2029158 C27.3750361,35.463714 26.9863275,35.7398532 26.5820705,35.9699693 C24.8207785,36.9564306 22.8023751,37.4049176 20.7825377,37.258619 C19.2360197,37.2109439 17.7358429,36.7264253 16.4600976,35.8625818 C14.8933906,34.8270394 13.9181706,33.1189578 13.8324272,31.2602611 C13.5504056,28.6237471 14.965972,26.0937683 17.37745,24.9243997 C18.4900076,24.3281584 19.7102396,23.9528966 20.9691178,23.8198427 C22.4462106,23.6357499 23.9077551,23.4823392 25.3848479,23.3442696 C26.1156202,23.2675642 26.8463924,23.2368821 27.5771646,23.2061999 C27.8881315,23.2061999 27.8881315,23.2061999 27.9036799,22.8686964 C27.930319,22.2554948 27.8460797,21.6425118 27.6549064,21.0584503 C27.3402503,20.0768863 26.5036832,19.3458047 25.478138,19.1561578 C24.1175686,18.837758 22.6868942,19.0006352 21.4355682,19.6163898 C20.6871382,19.9533848 20.161087,20.6396689 20.0362171,21.441977 C20.0213555,21.6171952 20.0371336,21.7936301 20.0828621,21.9635734 Z M28.0125183,27.2715832 L27.9347766,27.2715832 C26.0871316,27.334824 24.2444374,27.4987117 22.4151139,27.7624974 C21.7721924,27.8520227 21.1507736,28.0546688 20.5804092,28.3607991 C19.9693956,28.6823499 19.5206796,29.2392693 19.340967,29.8991205 C19.1612543,30.5589717 19.2666028,31.2627959 19.6319601,31.8432217 C20.0408044,32.4121575 20.6613076,32.7982492 21.3578264,32.9170965 C22.0498321,33.0807372 22.7657235,33.1222871 23.4724014,33.0398251 C24.5849725,32.9733147 25.6589834,32.613019 26.5820705,31.9966324 C27.3736677,31.5051278 27.8990093,30.6881818 28.0125183,29.7721774 C28.0125183,29.2198989 28.0125183,28.6676205 28.0125183,28.1000009 L28.0125183,27.2715832 Z" id="Shape"></path><path d="M82.533343,23.7170145 L77.776627,23.7170145 C77.6371793,23.7170145 77.5906967,23.7170145 77.5442142,23.5418871 C77.0960258,22.2391804 76.2476585,21.1215922 75.1271207,20.3577532 C74.552594,19.9999953 73.9059752,19.7821536 73.2368297,19.7209264 C72.3735818,19.6193031 71.4992845,19.6950686 70.6647943,19.9438158 C69.4584743,20.3802321 68.4605251,21.2746244 67.8758404,22.4433609 C67.3299698,23.473799 67.0125136,24.6154789 66.946189,25.7867015 C66.8325748,27.251985 67.0118498,28.7256622 67.4729914,30.1171236 C67.7953416,31.2525899 68.4498854,32.2586511 69.3477883,32.9987648 C70.125381,33.6198166 71.074856,33.971036 72.0592713,34.001767 C72.7816555,34.0551923 73.5077492,33.99615 74.2129636,33.8266397 C75.3495064,33.4816908 76.3211542,32.7158783 76.9399408,31.6773493 C77.3391398,31.0321406 77.6420534,30.3291421 77.8386038,29.5917416 C77.8386038,29.5917416 77.8386038,29.4802969 77.8386038,29.4166142 L82.78125,29.4166142 C82.6727907,29.8305516 82.6108139,30.244489 82.5023546,30.6265851 C81.9049576,32.9341081 80.6079183,34.986194 78.7992435,36.4853915 C77.5364643,37.5286799 76.0302339,38.2147126 74.4298822,38.4754752 C72.7609921,38.7949403 71.0427903,38.7132043 69.409765,38.2366651 C67.5436861,37.7021731 65.8829301,36.5904672 64.6530491,35.0525312 C63.4911322,33.5688092 62.7034715,31.8134137 62.3599091,29.9419963 C62.0944052,28.5478363 62.0213814,27.1221933 62.1429905,25.7070982 C62.3183952,22.9112568 63.455144,20.2704753 65.3502876,18.2562248 C66.8983827,16.6035843 68.958298,15.5565354 71.1761026,15.2949803 C73.1161436,15.0125924 75.0943217,15.305335 76.8779641,16.1387757 C78.915955,17.1340201 80.5576368,18.8208895 81.5262207,20.9149766 C81.9677254,21.8051669 82.3057569,22.7456456 82.533343,23.7170145 Z" id="Shape"></path></g></g></g></g></g></svg> 