<?xml version="1.0" encoding="UTF-8"?> <!-- Generator: Adobe Illustrator 23.0.0, SVG Export Plug-In . SVG Version: 6.00 Build 0) --> <svg xmlns="http://www.w3.org/2000/svg" xmlns:xlink="http://www.w3.org/1999/xlink" id="Layer_1" x="0px" y="0px" viewBox="0 0 73.6 125.2" style="enable-background:new 0 0 73.6 125.2;" xml:space="preserve"> <style type="text/css"> .st0{fill:#25211F;} </style> <g> <path class="st0" d="M35.5,125.2c-8.3,0-16.6,0-23.8,0c-7.5,0-11.7-4.3-11.8-11.7c0-36.8,0-70,0-101.7C0,4.4,4.5,0,11.9,0 c16.9,0,36.5,0,50,0c7.3,0,11.7,4.4,11.7,11.8v0c0,12.2,0,24.4,0,36.6l0,14.5l0,14.6c0,11.8,0,23.6,0,35.4c0,8.3-4,12.3-12.1,12.3 C53.7,125.2,44.6,125.2,35.5,125.2z M37.3,2c-8.5,0-17.3,0-25.5,0c-6.3,0-9.8,3.5-9.8,9.7c0,31.7,0,64.9,0,101.7 c0,6.3,3.4,9.7,9.7,9.7c14.9,0,34.8,0,49.7,0c7,0,10.1-3.2,10.1-10.3c0-11.8,0-23.6,0-35.4l0-14.6l0-14.5c0-12.2,0-24.4,0-36.6v0 c0-6.3-3.4-9.8-9.7-9.8C54.9,2,46.3,2,37.3,2z M36.4,120.5c-0.1,0-0.2,0-0.3,0c-3.1-0.2-5.6-2.9-5.7-6c0-1.5,0.7-3.1,1.9-4.2 c1.2-1.1,2.7-1.8,4.2-1.7c1.5,0,3,0.7,4.1,1.9c1.1,1.2,1.7,2.7,1.7,4.3c-0.1,1.6-0.8,3.1-2,4.2C39.2,120,37.8,120.5,36.4,120.5z M36.4,110.6c-0.9,0-1.9,0.4-2.7,1.2c-0.8,0.8-1.2,1.8-1.2,2.8c0,1.9,1.8,3.8,3.7,3.9h0c1,0.1,2-0.3,2.7-1c0.8-0.7,1.3-1.7,1.3-2.8 c0-1-0.4-2-1.1-2.8C38.4,111.1,37.4,110.6,36.4,110.6C36.4,110.6,36.4,110.6,36.4,110.6z M67.2,105.4H6.4V21.3h60.9V105.4z M8.4,103.4h56.8v-80H8.4V103.4z M45.6,14H28C26.4,14,25,12.7,25,11c0-1.6,1.3-2.9,2.9-2.9h17.6c1.6,0,2.9,1.3,2.9,2.9 C48.5,12.7,47.2,14,45.6,14z M28,10.1c-0.5,0-0.9,0.4-0.9,0.9s0.4,0.9,0.9,0.9h17.6c0.5,0,0.9-0.4,0.9-0.9s-0.4-0.9-0.9-0.9H28z"></path> </g> <g> <g> <path class="st0" d="M55.9,85.1H17.7c-0.3,0-0.5-0.2-0.5-0.5V83c0-0.3,0.2-0.5,0.5-0.5h38.2c0.3,0,0.5,0.2,0.5,0.5v1.6 C56.3,84.9,56.1,85.1,55.9,85.1z"></path> </g> <g> <g> <g> <path class="st0" d="M32.7,57.3l0,3.5c0,0.2-0.2,0.4-0.4,0.4l-6.6,0c-1.5,0-2.3,1.7-1.4,2.9L35.4,78c0.7,0.9,2.1,0.9,2.8,0 l11.1-13.9c0.9-1.2,0.1-2.9-1.4-2.9l-5.9,0c-0.2,0-0.4-0.2-0.4-0.4l0-3.5"></path> </g> </g> <path class="st0" d="M33.4,41.2h7.5c0.4,0,0.7,0.3,0.7,0.7v17.3c0,0.4-0.3,0.7-0.7,0.7h-7.5c-0.4,0-0.7-0.3-0.7-0.7V41.9 C32.7,41.5,33,41.2,33.4,41.2z"></path> </g> </g> </svg> 