<?xml version="1.0" encoding="utf-8"?>
<!-- Generator: Adobe Illustrator 23.0.0, SVG Export Plug-In . SVG Version: 6.00 Build 0)  -->
<svg version="1.1" id="Layer_1" xmlns="http://www.w3.org/2000/svg" xmlns:xlink="http://www.w3.org/1999/xlink" x="0px" y="0px"
	 viewBox="0 0 30 30" style="enable-background:new 0 0 30 30;" xml:space="preserve">
<style type="text/css">
	.st0{fill:#FFFFFF;}
</style>
<path class="st0" d="M15,0C6.7,0,0,6.7,0,15s6.7,15,15,15s15-6.7,15-15S23.3,0,15,0z M15,29.4C7,29.4,0.6,22.9,0.6,15S7,0.6,15,0.6
	S29.4,7,29.4,15S23,29.4,15,29.4z"/>
<g>
	<path class="st0" d="M19.4,8.8c0-0.8-0.5-1.3-1.3-1.3c-1.8,0-4.3,0-6.1,0c-0.8,0-1.3,0.5-1.3,1.3c0,4.2,0,8.3,0,12.5
		c0,0.8,0.5,1.3,1.3,1.3c1.8,0,4.3,0,6.1,0c0.9,0,1.4-0.4,1.4-1.4c0-2,0-4.1,0-6.1C19.4,13,19.4,10.9,19.4,8.8z M13.9,8.5h2.2
		c0.1,0,0.2,0.1,0.2,0.2c0,0.1-0.1,0.2-0.2,0.2h-2.2c-0.1,0-0.2-0.1-0.2-0.2C13.7,8.6,13.8,8.5,13.9,8.5z M14.9,22
		c-0.3,0-0.6-0.3-0.6-0.6c0-0.3,0.3-0.6,0.6-0.6c0.3,0,0.6,0.3,0.6,0.6C15.5,21.7,15.2,22,14.9,22z M18.6,20.1c-2.2,0-5,0-7.2,0
		c0-3.3,0-6.7,0-10c2.2,0,5,0,7.2,0C18.6,13.4,18.6,16.7,18.6,20.1z"/>
</g>
<g>
	<g>
		<path class="st0" d="M17.8,18.3h-5.6c0,0-0.1,0-0.1-0.1V18c0,0,0-0.1,0.1-0.1h5.6c0,0,0.1,0,0.1,0.1L17.8,18.3
			C17.9,18.3,17.9,18.3,17.8,18.3z"/>
	</g>
	<path class="st0" d="M15,17.6C15,17.6,15,17.6,15,17.6c-0.2,0-0.3-0.1-0.4-0.2l-1.6-2c-0.1-0.2-0.1-0.4-0.1-0.5
		c0.1-0.2,0.3-0.3,0.5-0.3h0.8l0-2.6c0-0.2,0.2-0.3,0.3-0.3h1.1c0.2,0,0.3,0.2,0.3,0.3v2.6l0.7,0c0.2,0,0.4,0.1,0.5,0.3
		c0.1,0.2,0.1,0.4-0.1,0.5l-1.6,2.1C15.3,17.5,15.2,17.6,15,17.6z M13.4,15l1.6,2.1l1.7-2l0,0l-0.9,0c-0.2,0-0.3-0.1-0.3-0.3v-2.6
		h-0.8l0,2.6c0,0.2-0.1,0.3-0.3,0.3H13.4z"/>
</g>
</svg>
