<?xml version="1.0" encoding="UTF-8"?>
<svg width="86px" height="74px" viewBox="0 0 86 74" version="1.1" xmlns="http://www.w3.org/2000/svg" xmlns:xlink="http://www.w3.org/1999/xlink">
    <!-- Generator: Sketch 51.2 (57519) - http://www.bohemiancoding.com/sketch -->
    <title>avocado</title>
    <desc>Created with Sketch.</desc>
    <defs></defs>
    <g id="Page-1" stroke="none" stroke-width="1" fill="none" fill-rule="evenodd">
        <g id="avocado" fill="#000000">
            <g id="Group-3" transform="translate(78.000000, 43.000000)">
                <path d="M3.8003,7.6615 L0.8273,4.6885 C0.6583,4.5195 0.6583,4.2465 0.8273,4.0785 L3.8003,1.1045 C3.9683,0.9365 4.2423,0.9365 4.4103,1.1045 L7.3833,4.0785 C7.5523,4.2465 7.5523,4.5195 7.3833,4.6885 L4.4103,7.6615 C4.2423,7.8295 3.9683,7.8295 3.8003,7.6615" id="Fill-1"></path>
            </g>
            <path d="M52,10.5 C52,11.8801871 50.8804149,13 49.5005084,13 C48.1195851,13 47,11.8801871 47,10.5 C47,9.11879577 48.1195851,8 49.5005084,8 C50.8804149,8 52,9.11879577 52,10.5" id="Fill-4"></path>
            <path d="M0,13.957067 C2.29315496,11.1654618 4.23756332,7.97491886 6.95350045,5.66472411 C12.5207819,0.930215403 18.83329,0.946518147 25.2422393,4.20514901 C28.3994675,5.81048982 30.8971944,5.04426084 32.4899338,1.99085276 C32.6759969,1.63315137 32.8162748,1.17475657 33.1211846,0.972410741 C33.724185,0.571555031 34.4275231,0.315506049 35.0899467,0 C35.1912586,0.747049277 35.5039616,1.53629389 35.3549162,2.23155798 C34.874659,4.47845972 34.2248993,6.68987902 33.5907261,9.10076719 C37.7376932,9.81137504 39.2924406,12.5281794 40.5500714,15.5326793 C42.02299,19.051195 43.4978569,22.5697108 45,26.1563145 C43.3078971,27.3962821 41.5008443,28.5883004 39.844785,29.9567719 C32.4967528,36.0309826 27.5831277,43.4026999 27.4545396,53.2035261 C27.3980387,57.4595013 28.786206,61.3433904 31.1085855,65 C22.0090271,64.9079374 13.9050526,57.2130422 13.0672815,48.1583063 C12.4759709,41.7647536 14.367775,35.9983771 17.242499,30.394069 C19.7519158,25.5013278 22.1083907,20.5309088 24.4590207,15.5614488 C25.7137291,12.9108144 26.9684375,10.4606078 30.0789064,9.28009737 C30.8592025,8.98377102 30.9536953,6.93921511 31.4290817,5.50265565 C28.9537602,5.72801711 27.5285751,6.4232812 26.3781011,8.28275302 C23.3192622,13.2291974 18.4972074,15.6822809 12.7419145,15.8836677 C9.17456813,16.0083358 5.57799714,15.3495131 1.99603845,15.0301711 C1.32776984,14.9707141 0.665346149,14.8537179 0,14.7626143 L0,13.957067 Z" id="Fill-6"></path>
            <path d="M33.7047516,54.184764 C33.7954914,61.0030548 37.0191911,66.2174384 43.343653,69.3684174 C49.7754413,72.5733415 56.0472156,71.8942097 61.7706486,67.6267574 C67.9721727,63.0019179 70.882674,56.4446835 71.8017797,49.0763442 C72.4457391,43.9178323 72.4096384,38.6774393 72.7140555,33.4755787 C72.8457745,31.2175858 73.1336048,28.9672994 73.2321501,26.7093065 C73.3150843,24.7961778 72.4633016,23.2751152 70.8787713,22.1403389 C68.1838988,20.2108339 65.8578394,20.1713383 62.7863482,22.1451554 C57.7829788,25.3597127 52.7825366,28.5790865 47.8299034,31.8687817 C46.1624388,32.975622 44.5466862,34.197096 43.0733851,35.5428366 C37.6348553,40.5135035 33.9272103,46.3771565 33.7047516,54.184764 Z M48.4943524,74 C47.3098574,73.6512827 46.1126784,73.339171 44.9428188,72.9471049 C32.7202743,68.8520845 27.6408007,56.2423889 33.3193517,44.0498055 C36.2259502,37.8094993 40.9492948,33.1538339 46.665898,29.4056043 C51.4633955,26.2613685 56.3106535,23.1913074 61.0886371,20.0191357 C64.4264933,17.8025651 67.7877662,17.1908648 71.422234,19.3024349 C74.4371348,21.053728 76.1514327,23.5804837 75.9894672,27.0503174 C75.816769,30.7446018 75.3386779,34.4244366 75.0830455,38.1167944 C74.7981423,42.2166312 74.9601078,46.3761932 74.3161484,50.4143783 C72.9813962,58.7691446 69.4162029,66.0430798 61.9033433,70.7083782 C59.4953254,72.2034314 56.594581,72.9249488 53.9201982,74 L48.4943524,74 Z" id="Fill-8"></path>
            <path d="M63,47.2636389 C62.8195648,51.4481568 62.1836526,54.6332002 59.9872196,57.3257211 C56.925673,61.0802437 51.9876002,62.0700986 47.8483189,59.7719806 C43.620283,57.4248027 41.9700323,52.9228386 43.6456415,48.3025537 C45.3378312,43.6360947 51.1702774,39.3217124 56.188327,39.0225434 C59.200132,38.8436192 60.773332,39.7045717 61.8091276,42.5106037 C62.4645463,44.2863784 62.7425141,46.1977892 63,47.2636389" id="Fill-10"></path>
        </g>
    </g>
</svg>