<?xml version="1.0" encoding="UTF-8"?> <svg xmlns="http://www.w3.org/2000/svg" xmlns:xlink="http://www.w3.org/1999/xlink" width="78px" height="35px" viewBox="0 0 78 35"><!-- Generator: Sketch 55.2 (78181) - https://sketchapp.com --><title>AXS_1</title><desc>Created with Sketch.</desc><g id="Page-1" stroke="none" stroke-width="1" fill="none" fill-rule="evenodd"><g id="Rokt-Calendar-1440" transform="translate(-301.000000, -3898.000000)" fill="#FFFFFF" fill-rule="nonzero"><g id="Group-7" transform="translate(264.000000, 3747.000000)"><g id="Group-4" transform="translate(37.000000, 133.000000)"><g id="AXS_1" transform="translate(0.000000, 17.781640)"><path d="M3.06582402,8.66934046 C3.06582402,6.99875223 3.06582402,5.45345811 3.06582402,3.90816399 C2.98507405,2.98811791 3.5641679,2.14026969 4.44457878,1.88953654 C9.03407768,0.238104791 13.996877,-0.04699777 18.7422656,1.06816399 C22.4776755,1.82822617 25.1547626,5.15602847 25.1259001,9.00345811 C25.4292262,13.1799287 25.3878635,17.4538503 25.4568013,21.6720856 C25.4568013,23.5236542 25.4568013,25.3613012 25.4568013,27.240713 C25.4568013,29.1201248 25.222413,29.1758111 23.4576069,29.1897326 L20.7000974,29.1897326 C18.3286392,29.1897326 18.3286392,29.1897326 18.0391007,26.6420856 C17.6254743,26.9762032 17.2945731,27.2128699 16.9912471,27.4773797 C13.210508,30.5846212 7.87183643,30.8606272 3.79656404,28.1595365 C0.459977529,25.6397326 0.00498845942,22.0618895 0.446189982,18.3309091 C0.657403666,15.0561909 3.03168835,12.3384158 6.22317242,11.718164 C9.31158307,11.0499287 12.5378692,10.9942424 15.7090051,10.6183601 C16.536258,10.5209091 17.7081995,11.203066 18.1080384,9.8944385 C18.4180224,8.51387977 17.6527529,7.11821288 16.3294448,6.65071301 C14.4294216,6.19643593 12.4677567,6.06470071 10.5248873,6.26090909 C8.32739609,6.76027501 6.17397422,7.44005166 4.08610254,8.29345811 L3.06582402,8.66934046 Z M14.8541772,16.173066 C14.4405508,16.173066 13.6546606,16.173066 12.8825579,16.3122816 C12.203755,16.4099074 11.5315047,16.5493837 10.869576,16.7299287 C8.91576053,17.2305352 7.71563467,19.2151531 8.16721662,21.1987522 C8.25454996,23.1263097 9.81359944,24.6517013 11.7244039,24.6791444 C15.0196278,24.9018895 17.1291225,23.0920856 17.8736501,19.430713 C18.54924,16.1313012 18.5078773,16.075615 14.8403897,16.1591444 L14.8541772,16.173066 Z" id="Shape"></path><path d="M76.1398262,8.30737968 C74.5818333,7.70875223 73.3823167,7.20757576 72.1276498,6.77600713 C69.9971142,5.82522141 67.6263771,5.56735468 65.3441764,6.03816399 C64.8623446,6.14850866 64.3982336,6.32658516 63.9654217,6.5671836 C63.2543565,6.86450578 62.7907109,7.56507901 62.7907109,8.3421836 C62.7907109,9.11928819 63.2543565,9.81986143 63.9654217,10.1171836 C65.6784432,10.8828079 67.4430794,11.5248103 69.2460524,12.0383601 C70.3628437,12.4003209 71.5485728,12.5952228 72.6377891,13.040713 C76.6361779,14.6277718 78.249321,17.5373797 77.8632696,22.3124777 C77.5930995,25.9234755 74.8332908,28.8383659 71.2728219,29.273262 C66.5488215,30.1060772 61.6942119,29.747409 57.1405856,28.2291444 C56.7958969,28.1316934 56.3133328,27.7140463 56.2995452,27.4216934 C56.2995452,25.5979679 56.2995452,23.7603209 56.2995452,21.6999287 C57.099223,21.9505169 57.6783,22.1175758 58.2711645,22.3403209 C61.028674,23.4122816 63.7861836,24.5399287 66.8332316,24.2614973 C67.8087072,24.1998855 68.7656517,23.9642157 69.6596788,23.5654189 C70.5271627,23.1949786 71.0975241,22.3437842 71.1154046,21.3929271 C71.133285,20.44207 70.5953358,19.5696272 69.7424041,19.1662032 C68.2985888,18.5534306 66.8096077,18.0553821 65.2890262,17.6765954 C63.7310334,17.203262 62.1316778,16.883066 60.6288352,16.2844385 C57.5757175,15.2268344 55.5961485,12.2428541 55.789406,8.98953654 C55.6047444,5.68988839 57.5566414,2.64911702 60.6150476,1.47188948 C64.351473,-0.156934046 68.2395614,0.0797326203 72.1000747,0.831497326 C75.9605881,1.58326203 76.1398262,1.70855615 76.1398262,5.74581105 L76.1398262,8.30737968 Z" id="Shape"></path><path d="M40.0716017,21.0038503 L34.060231,28.1595365 C32.876275,29.3618735 31.1367049,29.8156751 29.5241278,29.3428699 C29.275952,29.2175758 29.1794391,28.2987522 29.3724648,27.950713 C30.797178,24.9529352 32.2724456,21.9783601 33.7982676,19.0269875 C35.5492861,15.6301248 35.5768612,15.6440463 33.1778279,12.7483601 C30.3651682,9.28653001 27.5571044,5.84790255 24.7536364,2.43247772 C24.4503103,2.07051693 24.2021345,1.66679144 23.7333578,1.04032086 C24.3204301,0.919206046 24.9144684,0.835511269 25.5119515,0.78973262 C28.9174757,0.78973262 32.323,0.78973262 35.7147367,0.78973262 C36.8197608,0.680276552 37.8679686,1.30518106 38.3067956,2.33502674 C43.5184886,12.7065954 48.7715442,23.0363993 53.9832372,33.4079679 C54.1826755,33.959354 54.3078822,34.5352846 54.355501,35.1203209 C53.6988303,35.2380053 53.0267649,35.2380053 52.3700942,35.1203209 C51.7400937,34.8533936 51.1925428,34.4207101 50.7845262,33.8673797 C47.1859763,29.6769875 43.7115143,25.3752228 40.0716017,21.0038503 Z" id="Shape"></path><path d="M56.7407467,1.12385027 L45.4211702,14.6277718 C44.1665033,10.9803209 42.9256241,7.66698752 41.8639829,4.20051693 C41.6411933,3.42468057 41.7778355,2.58872684 42.235715,1.92632388 C42.6935944,1.26392093 43.4235908,0.846129789 44.2216535,0.78973262 C47.9994416,0.78973262 51.7910172,0.78973262 55.5825927,0.78973262 C55.9785224,0.862655161 56.3664258,0.974562019 56.7407467,1.12385027 Z" id="Shape"></path></g></g></g></g></g></svg> 