<?xml version="1.0" encoding="UTF-8"?>
<svg width="194px" height="90px" viewBox="0 0 194 90" version="1.1" xmlns="http://www.w3.org/2000/svg" xmlns:xlink="http://www.w3.org/1999/xlink">
    <!-- Generator: Sketch 55.2 (78181) - https://sketchapp.com -->
    <title>Braze</title>
    <desc>Created with Sketch.</desc>
    <g id="Page-1" stroke="none" stroke-width="1" fill="none" fill-rule="evenodd">
        <g id="Rokt-Calendar-1440" transform="translate(-364.000000, -1917.000000)" fill="#000000" fill-rule="nonzero">
            <g id="Integrations" transform="translate(0.000000, 1561.000000)">
                <g id="Braze" transform="translate(364.000000, 356.000000)">
                    <path d="M137.617036,90 L136.599076,89.7593199 C132.231378,88.7598466 128.890976,85.2181042 128.132051,80.7819524 C127.425266,76.5477098 128.327143,72.2011656 130.658985,68.6035396 C132.413399,65.7563363 134.728181,63.2992996 137.461348,61.3831368 C139.48529,59.9149882 141.581089,58.5551457 143.652935,57.1592012 L144.335566,56.701909 L144.335566,56.5695349 C143.588243,56.4103504 142.832545,56.293835 142.072104,56.2205488 C138.225118,56.1016559 134.401192,56.8586267 130.886529,58.4348057 C129.042036,59.3153673 127.100434,59.973782 125.102125,60.3963484 C122.646213,60.8200812 120.120396,60.5017775 117.844675,59.4817641 C115.809111,58.5423962 114.249315,56.8008935 113.533318,54.6681622 L113.138111,53.5610338 L112.659071,54.162734 C110.876805,56.7240385 108.375051,58.6932385 105.473476,59.8187162 C99.8442406,61.7686971 93.6192006,59.5773867 90.4316321,54.5237541 C89.8927125,53.6934078 89.4496008,52.8149255 88.9825372,51.9966131 C88.1082899,53.2000136 87.2819465,54.5959582 86.3238673,55.8113926 C84.6633384,58.1224382 82.2104042,59.734214 79.4376726,60.3361784 C77.4292999,60.7534203 75.3423734,60.5521049 73.4496772,59.7585462 C71.3069068,58.8283945 69.6752857,57.0042581 68.9826327,54.7644342 C68.1788764,52.3814777 67.8572084,49.8611311 68.0365294,47.3514873 C68.23105,43.4485051 68.8863377,39.5825653 69.9886159,35.8349448 C70.5993914,33.620688 71.3299268,31.4304991 72.0005823,29.2282762 C72.0724383,28.9996302 72.1442942,28.7709841 72.1921982,28.57844 C70.0963998,28.8191201 68.0245534,29.1560722 65.952707,29.2403102 C63.8808606,29.3245483 61.7730862,29.1560722 59.545552,29.0959022 C59.473696,29.4809903 59.3659121,30.0104866 59.2701042,30.5399828 C58.4466266,35.7743008 56.873435,40.8612739 54.5994678,45.6426587 C50.7312228,53.4406937 44.4677796,58.0136155 36.0845861,59.8427842 C33.3363203,60.4675828 30.5073935,60.6543843 27.7013926,60.3963484 C21.9050131,59.8066822 17.4259925,57.1712352 14.8032506,51.743899 C14.7507341,51.6393578 14.6906947,51.5388073 14.6236107,51.4430489 C14.4559468,51.623559 14.3002589,51.7800011 14.1565471,51.9484771 C11.4393424,55.1574194 7.92204548,57.5828622 3.96497893,58.9763359 C3.21069509,59.3512943 2.29662113,59.045127 1.91708452,58.2903976 L1.91708452,58.2903976 C1.28235701,57.0869971 0.719485443,55.8835967 0.18056586,54.5839242 C0,54.2666682 -0.04759711,53.8900036 0.0490883135,53.5375387 C0.145773737,53.1850738 0.378472871,52.88597 0.695533462,52.7066194 C0.80857166,52.6430674 0.929340244,52.5945259 1.05481318,52.5622114 C6.58772091,50.3479545 9.90507034,46.0758828 11.8332049,40.6004107 C12.4444343,38.5419208 12.888995,36.4371325 13.1625398,34.3066262 C14.0008592,29.4930243 14.7673226,24.6794225 15.557738,19.8658206 C16.2403694,15.738157 16.8990489,11.6225274 17.5577284,7.49486375 C17.569707,7.35874393 17.569707,7.22182741 17.5577284,7.08570759 L8.95896707,7.08570759 C8.65713197,7.0994677 8.35485555,7.07111857 8.06076777,7.00146956 C7.44999224,6.8450275 7.09071252,6.48400735 7.16256846,5.87027311 C7.37813629,4.20958047 7.64160809,2.56092182 7.97693583,0.936331186 C8.14935336,0.325559993 8.73906775,-0.0677845993 9.36615076,0.00971282368 L21.7133972,0.00971282368 C22.3016272,-0.0111524933 22.8727669,0.210584072 23.294228,0.623447064 C24.7396868,1.87009138 25.4150384,3.79591375 25.0666746,5.67772904 C24.1804513,10.659807 23.3780599,15.6539189 22.5397406,20.5998949 C22.5295745,20.7240365 22.5295745,20.8488074 22.5397406,20.972949 L23.5936278,20.4073508 C30.3634155,16.6174065 38.9089163,19.0577229 42.683357,25.8587549 L42.9348528,26.3160471 C44.3403986,28.9903633 45.1572589,31.9370975 45.330051,34.9564625 C45.6629357,39.9619546 44.7448736,44.9716358 42.659405,49.5296422 C42.6123047,49.6351376 42.572295,49.743687 42.5396451,49.8545603 L42.659405,49.9628663 C43.1264687,49.5296422 43.6294603,49.120486 44.0725719,48.6511598 C46.4998661,45.9902809 48.3729316,42.8683852 49.5815277,39.4692142 C51.1106129,35.3068247 52.18283,30.9891099 52.7791172,26.5928292 C53.066541,24.6312864 53.2940848,22.6697437 53.5575566,20.7082009 C53.7252205,19.5048004 54.1803081,19.0475083 55.4497631,19.0234403 C56.7192181,18.9993722 57.7731053,19.0234403 58.9347764,19.0234403 C59.8928557,19.0234403 60.3000394,19.4566644 60.3239914,20.4314188 C60.3239914,21.1414251 60.3239914,21.8514314 60.3239914,22.6577097 C61.0185988,22.6577097 61.8090142,22.7780497 62.5994296,22.8141517 C66.7376454,22.9214606 70.8740079,22.5377308 74.9227241,21.6709213 C75.7154612,21.5392639 76.5152596,21.4548782 77.3179222,21.4182072 C78.0443182,21.3549761 78.74408,21.7088803 79.1262968,22.3327915 C79.4017446,22.7178797 79.6771924,23.1270359 79.9286882,23.536192 C80.5681295,24.4675471 80.6814448,25.6653988 80.228088,26.7011353 C79.1023448,29.6494664 77.9646257,32.6098316 76.9706185,35.6062987 C75.6402122,39.4412302 74.9089919,43.4600965 74.8029642,47.5199634 C74.8373431,48.6810093 74.9735992,49.8367433 75.2101478,50.9737227 C75.2911303,51.3418232 75.4371536,51.6923465 75.6412835,52.0086471 C76.2646607,53.2820324 77.7892099,53.8176738 79.0664169,53.2120476 C80.2080958,52.7175606 81.202566,51.9338869 81.9526306,50.9376207 C83.7274163,48.7511178 85.0506017,46.2310237 85.8448276,43.5246738 C86.7909309,40.5522747 87.6412262,37.5076715 88.5753535,34.5954423 C89.494198,31.2479774 91.0031113,28.0932557 93.0304221,25.2811227 C95.5377275,21.8116962 99.309162,19.4799034 103.52139,18.7947942 C105.268931,18.483406 107.060952,18.5284236 108.790826,18.9271682 C111.221214,19.5329037 113.319015,21.0706798 114.635109,23.2112739 C114.826725,23.50009 115.006365,23.8009401 115.281813,24.2341643 C115.521333,22.8863558 115.724925,21.6949893 115.940492,20.4915888 C115.943656,20.0926328 116.104417,19.7112811 116.387408,19.4314335 C116.670398,19.1515859 117.052435,18.9961678 117.449467,18.9993722 L117.688987,18.9993722 L121.281784,18.9993722 C122.611119,18.9993722 123.185967,19.6973445 122.958423,20.997017 C122.13208,25.7143469 121.245856,30.4196427 120.491369,35.1490066 C119.700116,39.177649 119.271243,43.2696662 119.209938,47.3755553 C119.218153,48.5711801 119.462389,49.7532829 119.928497,50.8533827 C120.889662,53.3902303 123.713324,54.6662258 126.239844,53.7054418 L126.43146,53.6212038 C127.712066,53.1393705 128.861101,52.3600145 129.784738,51.3467769 C130.931321,50.1330596 131.99937,48.8467999 132.982327,47.4958954 C137.173924,41.5631311 141.365521,35.5942647 145.473286,29.6374324 L147.868484,26.147571 L132.838615,26.147571 C132.535484,26.1654365 132.231571,26.1654365 131.92844,26.147571 C131.564167,26.138165 131.218752,25.9828218 130.96908,25.7161188 C130.719407,25.4494158 130.586199,25.0934873 130.599105,24.7275585 C130.593151,24.6635166 130.593151,24.5990563 130.599105,24.5350144 C130.790721,23.1029679 131.018265,21.6709213 131.281736,20.2509087 C131.437424,19.3844604 131.964368,19.0475083 132.934423,19.0475083 L142.934375,19.0475083 C146.670885,19.0475083 150.407394,19.0475083 154.143903,19.0475083 C155.316623,18.9455415 156.42047,19.6168959 156.874429,20.7082009 C157.042093,21.045153 157.173828,21.3941392 157.31754,21.7551593 C157.734262,22.6991063 157.59591,23.7973827 156.958261,24.6072184 C151.121961,33.0791578 145.30163,41.5591197 139.497266,50.0471044 L138.982299,50.8052467 C143.281679,50.2637165 147.365492,50.2757505 151.137929,52.8149255 L160.99417,47.6643715 C160.75465,46.1841889 160.443274,44.7521423 160.287586,43.2960277 C159.281603,34.1020482 163.760623,24.7275585 171.497113,20.5998949 C174.412653,18.9722344 177.769378,18.3229347 181.077906,18.7466581 C185.231043,19.18576 188.622713,22.2773931 189.4611,26.3882511 C190.293034,30.1975683 189.637089,34.182457 187.628773,37.5197055 C185.887975,40.4274934 183.572955,42.9462157 180.82641,44.9206184 C177.963624,47.2111897 174.849606,49.1653649 171.545017,50.7450767 C171.389329,50.8172807 171.257594,50.9255867 171.042026,51.0459268 C172.101054,51.9581778 173.355053,52.6129219 174.706679,52.9593335 C178.858554,54.0806042 183.28885,53.3809174 186.898237,51.0338928 C187.592845,50.6247366 188.275476,50.1794784 188.958108,49.7462543 C190.155707,49.024214 190.574867,49.108452 191.353306,50.2035464 L194,53.7415438 L194,54.8125702 C193.697352,55.1426148 193.373292,55.4521644 193.029945,55.7391886 C187.603135,59.7794439 180.745412,61.3626162 174.107879,60.1075323 C170.270728,59.4969605 166.805379,57.4506684 164.407327,54.3793461 C164.287567,54.222904 164.143855,54.09053 163.964215,53.8979859 L155.221742,58.2542956 C156.106573,60.3471959 156.671824,62.562356 156.898381,64.8248622 C157.45357,69.8498013 156.533546,74.9281711 154.251687,79.4341439 C151.697021,84.6953709 146.888677,88.4941891 141.197857,89.7472859 L140.179898,89.987966 L137.617036,90 Z M38.6953521,37.4715695 C38.6953521,36.8578352 38.6115201,36.0756249 38.5157122,35.2934146 C38.3160889,33.0005209 37.5369806,30.7968518 36.25225,28.8913241 C34.1845058,25.6699056 29.9506828,24.6701374 26.6714574,26.6289312 C24.8458672,27.688991 23.3332298,29.2172617 22.2882448,31.057445 C19.7490442,35.1757608 18.8029624,40.0875291 19.6295748,44.8604484 C19.9002563,46.9371165 20.7282382,48.9006197 22.024773,50.5404986 C23.2520083,52.2219234 25.14272,53.2881327 27.210377,53.4647617 C29.6758992,53.5960125 32.063262,52.574247 33.677412,50.6969406 C36.9890587,47.0981157 38.802022,42.3607157 38.743256,37.4595355 L38.6953521,37.4715695 Z M94.0962852,42.4175454 C94.0962852,42.9951776 94.1801172,43.7292519 94.2639491,44.4633262 C94.4640354,46.8250779 95.3325539,49.0799675 96.7669312,50.9616887 C98.577327,53.3589884 101.792907,54.186723 104.527373,52.9593335 C106.254248,52.2136484 107.757046,51.0271585 108.886634,49.5176082 C112.467169,44.9855837 113.917468,39.1167785 112.862663,33.4281439 C112.579115,31.3773421 111.700165,29.4560513 110.335729,27.9045357 C108.704031,25.8948664 106.002804,25.1131828 103.557318,25.942993 C101.495555,26.6098992 99.6969822,27.9158628 98.4196179,29.6735344 C95.6020073,33.334592 94.0843392,37.8376369 94.1082612,42.4656814 L94.0962852,42.4175454 Z M149.485242,61.5997489 L149.090035,61.780259 C146.898428,63.2243395 144.658918,64.6082501 142.515216,66.1245347 C140.179434,67.7387011 138.191696,69.8097416 136.670932,72.213741 C135.331414,74.1464399 134.743426,76.5055034 135.018246,78.8444776 C135.337101,81.4460428 137.668884,83.3130167 140.26373,83.0443453 C142.143478,82.8336243 143.864742,81.8866671 145.054126,80.4088983 C149.03149,76.1406785 150.906478,70.3119716 150.167874,64.511978 C149.999601,63.5331747 149.775682,62.5648578 149.497218,61.6117829 L149.485242,61.5997489 Z M167.545036,45.2816385 C168.742636,44.6077343 169.784547,44.078238 170.79053,43.4284018 C173.999139,41.6009207 176.914311,39.2964347 179.437195,36.5930871 C181.029108,34.9885588 182.119707,32.9515566 182.574905,30.7325268 C182.99484,28.7807262 182.095359,26.7825116 180.359347,25.8106189 C179.299216,25.3157958 178.100183,25.209361 176.970141,25.5097688 C174.442321,26.1451941 172.239816,27.7021365 170.79053,29.8781125 C168.431135,33.2032062 167.174049,37.1906289 167.197733,41.274315 C167.197733,42.5619535 167.401325,43.837558 167.521084,45.2936725 L167.545036,45.2816385 Z" id="Path_464"></path>
                </g>
            </g>
        </g>
    </g>
</svg>