<svg xmlns="http://www.w3.org/2000/svg" viewBox="0 0 250.86 336.17"><defs><style>.cls-1{fill:#fff;}.cls-2{fill:#04003f;}.cls-3{fill:#0ab9fe;}.cls-4{fill:none;stroke:#000;stroke-miterlimit:10;stroke-width:2px;}</style></defs><title>BUILTINNYC</title><g id="Layer_2" data-name="Layer 2"><g id="Layer_1-2" data-name="Layer 1"><rect class="cls-1" width="250.86" height="336.17"/><rect class="cls-2" width="250.86" height="68.68"/><path class="cls-2" d="M242.86,8V328.17H8V8H242.86m8-8H0V336.17H250.86V0Z"/><g id="MNJBdC.tif"><path class="cls-1" d="M54.73,55V53.78c0-1.28.07-2.56,0-3.83-.13-2,0-4,0-6q0-14.07,0-28.13V14.69a50.49,50.49,0,0,1,7.61-.06,28.14,28.14,0,0,1,.07,3.44c0,1.18,0,2.35,0,3.52v3.62c.42,0,.79.05,1.15.05,3.59,0,7.17,0,10.75,0a6.49,6.49,0,0,1,6.47,5.16,9.31,9.31,0,0,1,.23,2c0,5.13,0,10.27,0,15.41a7.77,7.77,0,0,1-1.76,4.73,5.47,5.47,0,0,1-4.39,2.3c-1.1.06-2.2.16-3.29.16-5.17,0-10.34,0-15.51,0C55.69,55,55.28,55,54.73,55Zm18.61-9V44.05c0-3.06,0-6.13,0-9.2A1.66,1.66,0,0,0,71.64,33c-2.52,0-5,0-7.55,0a1.53,1.53,0,0,0-1.54,1.14,2.79,2.79,0,0,0-.13.91c0,3.79,0,7.58,0,11.37a6.9,6.9,0,0,0,.1.83h1.1c2.45,0,4.89,0,7.34,0A2.43,2.43,0,0,0,73.34,45.93Z"/><path class="cls-1" d="M192.34,55H185c0-.43-.11-.82-.11-1.21q0-5.89,0-11.79c0-2.34,0-4.68,0-7,0-1.08-.09-1.22-1-2-.23,0-.5,0-.78,0-2.41,0-4.82,0-7.23,0-1.09,0-1.48.28-1.76,1.35a5.7,5.7,0,0,0-.16,1.43q0,9,0,18c0,.4,0,.81,0,1.18a42.39,42.39,0,0,1-7.56,0,5.25,5.25,0,0,1-.1-.75c0-7.27,0-14.53,0-21.8a8.9,8.9,0,0,1,1.14-4.23,5.51,5.51,0,0,1,3.46-2.57,6,6,0,0,1,1.83-.25c4.51,0,9,0,13.54,0a6,6,0,0,1,5,2.31,6.1,6.1,0,0,1,1.31,3.09,31.43,31.43,0,0,1,.21,3.49q0,9.72,0,19.43A1.74,1.74,0,0,1,192.34,55Z"/><path class="cls-1" d="M101.91,25.34c2.61-.11,5,0,7.54-.05a7.49,7.49,0,0,1,.09.85q0,10.85,0,21.7a8.46,8.46,0,0,1-.78,3.6,5.44,5.44,0,0,1-4.38,3.19,27,27,0,0,1-3.48.21c-3.38,0-6.75,0-10.13,0a14.81,14.81,0,0,1-2.65-.28c-2.53-.52-3.84-2.27-4.4-4.65a10.55,10.55,0,0,1-.23-2.45q0-10.44,0-20.87V25.35c2.49-.12,4.91,0,7.42-.07,0,.48,0,.84,0,1.21V45.3a1.87,1.87,0,0,0,2,2.08c.72,0,1.44,0,2.17,0,1.55,0,3.1,0,4.65,0a3.83,3.83,0,0,0,1.11-.17,1.23,1.23,0,0,0,1-1.36c0-1.31,0-2.62,0-3.93V25.34Z"/><path class="cls-1" d="M134.27,14.56h7.49c0,.39.07.75.07,1.11,0,2.82,0,5.65,0,8.47,0,.34,0,.67,0,1.12H149c0,2.58,0,5,0,7.48a6.17,6.17,0,0,1-2.37.2c-.79,0-1.58,0-2.38,0h-2.37c0,.48-.09.88-.09,1.27,0,6.48,0,13,0,19.43,0,.4,0,.8,0,1.16a34.47,34.47,0,0,1-7.47.08l-.07-.06a.31.31,0,0,1,0-.1,4.43,4.43,0,0,1-.06-.51q0-19.62,0-39.26A1.91,1.91,0,0,1,134.27,14.56Z"/><path class="cls-1" d="M123.44,14.58h7.27c.23.93.23,39.46,0,40.28a36.07,36.07,0,0,1-7.35,0,.46.46,0,0,1-.07-.07.15.15,0,0,1,0-.09,7.35,7.35,0,0,1-.07-.82q0-19.41,0-38.84a.46.46,0,0,1,0-.2C123.28,14.8,123.33,14.75,123.44,14.58Z"/><path class="cls-1" d="M156,25.31h7.44c.19.79.24,28.32.07,29.55a37,37,0,0,1-7.45,0l-.06-.07a.41.41,0,0,1,0-.09,4.43,4.43,0,0,1-.06-.51q0-14.25,0-28.51A2.44,2.44,0,0,1,156,25.31Z"/><path class="cls-1" d="M119.94,54.81h-7.25c-.12-2.46,0-4.89,0-7.32s0-5,0-7.44V25.33c2.51-.07,4.9,0,7.09,0l.26.23a.31.31,0,0,1,.05.1c0,.27,0,.54,0,.81q0,14.06,0,28.1C120.07,54.6,120,54.66,119.94,54.81Z"/><path class="cls-1" d="M155.93,21.75V14.68a7.61,7.61,0,0,1,2.46-.15c.86,0,1.72,0,2.58,0h2.41a42.66,42.66,0,0,1,.1,7.27A37.39,37.39,0,0,1,155.93,21.75Z"/></g><path class="cls-3" d="M64.37,248.58h3c.52,3.75,1,7.47,1.54,11.19l.26,0c.6-3.67,1.19-7.34,1.8-11.13h2.73l1.74,10.85h.34c.5-3.6,1-7.19,1.52-10.88h2.83c-.17,3.24-1,6.35-1.35,9.51s-1,6.25-1.51,9.42c-.92.63-1.9.42-3,.16-.3-1.83-.61-3.65-.9-5.48a32.88,32.88,0,0,0-1.18-5.31c-.29,1.79-.57,3.58-.86,5.36s-.59,3.56-.88,5.36a4.13,4.13,0,0,1-3,0C66.41,261.42,65.41,255.13,64.37,248.58Z"/><path class="cls-2" d="M100.9,234H94.33c-1.29-8-2.53-15.68-3.78-23.4-2.5,7.56-2.83,15.46-4.67,23.35H79.63c-2.43-13.68-4.61-27.41-6.55-41.3a10.74,10.74,0,0,1,1.78-.42c1.34,0,2.68,0,4.37,0,1.66,8.42,2.48,16.79,4,25.21,1.36-8.29,2.71-16.59,4.09-25h5.81c1.34,8.09,2.67,16.13,4,24.18l.49,0c1.14-8,2.29-16,3.46-24.14h6.11c-.7,7.08-2,13.89-3,20.73S102,227,100.9,234Z"/><path class="cls-3" d="M36.31,257.59v9.84a2.59,2.59,0,0,1-2.71.08V248.6h2.73q1.72,4.8,3.48,9.63l.36-.05c.11-1,0-2.07,0-3.1s0-2.05,0-3.07v-3.37h2.56c.35,1.22.4,17.28,0,19.05H40.41q-1.84-5.08-3.68-10.14Z"/><path class="cls-2" d="M134.46,127.12v-30c3.26-.27,6.35-.56,9.32.75a7.61,7.61,0,0,1,2.09,12.63c-.46.42-1,.79-1.5,1.24.43.33.83.67,1.25,1a7.12,7.12,0,0,1,3,7.5,7.63,7.63,0,0,1-5.38,6.42A16.61,16.61,0,0,1,134.46,127.12Zm4.84-4.53c3.28.21,4.78-1.15,4.73-4.06s-1.65-4.25-4.73-4Zm0-12.87c4.22-.24,5.43-2.83,3.62-7-1.79-1.25-1.79-1.25-3.62-1Z"/><path class="cls-3" d="M127.31,248.48c1.88.07,3.51-.2,5.13.29a4.83,4.83,0,0,1,3.52,3.36,7,7,0,0,1-2,7.75c.7,2.5,1.71,5,2.66,7.58a4.39,4.39,0,0,1-2.94.25c-1.23-2.14-1.6-4.65-2.71-6.84l-.37,0a3.74,3.74,0,0,0-.32,1c0,1.31,0,2.61,0,3.92v1.65a3.29,3.29,0,0,1-3,.08Zm3,9.45c1.75.06,2.65-.49,2.91-1.9a7.16,7.16,0,0,0,0-2.69c-.27-1.42-1-1.88-2.87-1.9C130.21,253.56,130.26,255.68,130.32,257.93Z"/><path class="cls-2" d="M178.68,233.81h-6.76c-1.81-4.91-3.62-9.8-5.62-15.18-2.33,2.56-1.26,5.07-1.43,7.3-.19,2.43,0,4.89,0,7.29a6.85,6.85,0,0,1-6.1.46c-.7-2.87-.8-37.28-.09-41.23,4.17-.32,8.41-.77,12.51,1a9.68,9.68,0,0,1,5.71,5.89c2.35,6.65,1.38,12.52-4.11,17.77C174.62,222.37,176.54,227.77,178.68,233.81Zm-13.85-35.25c.1,4.9-.22,9.5.18,14.07,3.72.25,5.75-1.12,6.33-4.34a15.57,15.57,0,0,0,.09-4.77C171,200.06,169.27,198.77,164.83,198.56Z"/><path class="cls-3" d="M150.22,248.62h3.18c-1.19,2.85-2.3,5.49-3.46,8.25q1.77,5.14,3.64,10.52a3.56,3.56,0,0,1-3.19.18q-1.23-3.37-2.44-6.75c-1.52,2.15-.49,4.55-1.12,6.86h-2.57c-.35-1.32-.43-17-.11-19.05h2.61c.53,1.17.21,2.37.27,3.54a24.15,24.15,0,0,0,.24,3.57C148.27,253.31,149.28,250.89,150.22,248.62Z"/><path class="cls-2" d="M217,233.4a9.2,9.2,0,0,1-7,.15c-1.75-4.84-3.51-9.72-5.28-14.6-3.28,4.65-1.05,9.87-2.42,14.88h-5.58c-.75-2.87-.92-36.75-.23-41.29h5.91c.83,5.13,0,10.28.58,16.11,2.41-5.86,4.53-11,6.63-16.14h6.93l-7.5,17.89C211.63,217.82,214.26,225.45,217,233.4Z"/><path class="cls-2" d="M142.13,213.42A34.6,34.6,0,0,1,140,227.85a10.25,10.25,0,0,1-5.18,5.93A8.31,8.31,0,0,1,124,230.19a21,21,0,0,1-2.87-7.49c-.89-7-1.15-14.15.51-21.14a21.27,21.27,0,0,1,1.75-4.43c1.73-3.45,4.5-5.59,8.45-5.4s6.66,2.7,7.89,6.23a68.57,68.57,0,0,1,2.36,10.69A28.11,28.11,0,0,1,142.13,213.42Zm-10.22-15.88c-2.41.21-3.35,1.82-3.79,3.85a55.16,55.16,0,0,0-.22,22.24,11.54,11.54,0,0,0,.8,2.8c1.29,2.62,3.53,2.75,5,.31a7.91,7.91,0,0,0,1-2.72,62.47,62.47,0,0,0-.07-22.28A6.43,6.43,0,0,0,131.91,197.54Z"/><path class="cls-3" d="M110.5,258c.2-2.29,0-4.88,1.33-7.19a4.53,4.53,0,0,1,2.4-2.28c2.4-.8,4.21.42,5.17,2.59a12.39,12.39,0,0,1,1,3.59,22.25,22.25,0,0,1-.46,9.08,9.19,9.19,0,0,1-1.1,2.45,3.88,3.88,0,0,1-6.65-.16,9.26,9.26,0,0,1-1.45-4.3C110.6,260.57,110.57,259.38,110.5,258Zm5.32-7.07a2.09,2.09,0,0,0-1.79,1.9,25.82,25.82,0,0,0-.1,10.1,5.18,5.18,0,0,0,.44,1.45c.58,1.12,1.56,1.18,2.22.13a4,4,0,0,0,.54-1.41,29.4,29.4,0,0,0,0-10.12A3.52,3.52,0,0,0,115.82,250.9Z"/><path class="cls-2" d="M46.8,213.28c.2-1.36.32-3.17.74-4.91a4.22,4.22,0,0,1,2.82-3.43A3.27,3.27,0,0,1,54,206a6.85,6.85,0,0,1,1.52,3.55,22.67,22.67,0,0,1-.25,8.8,7.62,7.62,0,0,1-1.12,2.44,3.43,3.43,0,0,1-5.63,0,7.63,7.63,0,0,1-1.36-3.46C47,216.12,47,214.92,46.8,213.28Zm4.51-6.16A2.29,2.29,0,0,0,50,208.81a23,23,0,0,0-.16,8.78,3.55,3.55,0,0,0,.46,1.41,1.91,1.91,0,0,0,1,.75c.5.13.83-.27,1-.72a8.13,8.13,0,0,0,.49-1.41,26.7,26.7,0,0,0,.21-7,8.65,8.65,0,0,0-.45-2.05A1.83,1.83,0,0,0,51.31,207.12Z"/><path class="cls-3" d="M56.45,102.54a7.9,7.9,0,0,1,2.35-4.41,5.68,5.68,0,0,1,7.73,0c1.91,1.83,2.54,4.25,2.92,6.74a48.23,48.23,0,0,1,0,14.64,12.84,12.84,0,0,1-1.91,5.5,5.63,5.63,0,0,1-5.13,2.78,5.69,5.69,0,0,1-5.18-3.65,21.2,21.2,0,0,1-1.75-8c0-1.43,0-2.86,0-4.28A77.39,77.39,0,0,1,56.45,102.54Zm6-2a11.45,11.45,0,0,0-1.52,2.22,11,11,0,0,0-.66,3.39q-.12,6,0,12.05a10.06,10.06,0,0,0,.66,3.39,7.54,7.54,0,0,0,1.49,1.9c2.17-.8,2.48-2.49,2.52-4,.11-4.82.12-9.64,0-14.46A4.93,4.93,0,0,0,62.46,100.52Z"/><path class="cls-2" d="M105.72,137.88h5.68c1.39,2.52,8.4,36.68,8.75,42.32-2.68,1-2.68,1-6.11.2q-.9-4.12-1.9-8.75H105c-.68,2.94-1.35,5.85-2.1,9H97.45C97.12,177.4,104.06,141.5,105.72,137.88Zm3.13,14.87-.69.07c-.74,4-1.47,8-2.23,12.16h5.26Z"/><path class="cls-2" d="M40.67,180.21a7.5,7.5,0,0,1-6.7.11V138.7c8-3.43,16.9.44,19.43,8.35,3.12,9.71-1.72,17.64-12.73,20.25Zm.09-36.12c-.22,5.63-.11,10.87-.09,16.1,3.49.07,5-.83,5.92-3.4a13.49,13.49,0,0,0,.27-8.22C46.1,145.75,44.43,144.3,40.76,144.09Z"/><path class="cls-3" d="M101.86,126.72v-4c1,.18,1.87.33,2.71.46a3.35,3.35,0,0,0,3.91-2.06,7.43,7.43,0,0,0,.73-4.9c-.2,0-.38-.13-.51-.08-4,1.51-7-.14-8-4.33a20.46,20.46,0,0,1,.13-9.53A7.83,7.83,0,0,1,103.42,98c3.09-2.58,7.26-1.83,9,2.3A25.62,25.62,0,0,1,114,107.8a38.62,38.62,0,0,1-.85,12.49c-.1.44-.19.87-.32,1.3C111.2,126.76,107.36,128.65,101.86,126.72Zm7.46-14.85c0-2.48,0-4.87,0-7.26a7.91,7.91,0,0,0-.53-2.06c-.27-.89-.68-1.72-1.77-1.71s-1.47.9-1.78,1.74a12.65,12.65,0,0,0-.21,7.88C105.65,112.75,106.61,113,109.32,111.87Z"/><path class="cls-3" d="M50.89,248.67a3,3,0,0,1,.76-.17c2,0,4.06,0,6.23,0v2.71l-3.94.16v5.19l3.5.19v2.6l-3.46.21a43.3,43.3,0,0,0-.12,5.23L58,265c0,.91.08,1.67.12,2.61a28.57,28.57,0,0,1-7.21.05C50.51,266,50.52,250.11,50.89,248.67Z"/><path class="cls-2" d="M181.61,138v5.72l-8.94.49a88,88,0,0,0-.12,11.62l8,.35v6.1h-7.87v11.87l9,.55v5.48c-3.18,1.16-13,1.13-16,0-.77-4.05-.59-39.26.29-42.17Z"/><path class="cls-2" d="M170.89,101.35h-6.16a43.07,43.07,0,0,0-.18,8.42h5.63v4.33l-5.45.28c-.5,2.72-.21,5.36-.22,8.27l6.16.29a4.34,4.34,0,0,1,.46,4.06c-2.39.65-9.08.62-11.34-.07V97.41a37.27,37.27,0,0,1,11.1-.1Z"/><path class="cls-2" d="M196.39,179.24V173c3.46.53,6.5,3.5,10.09.62,2.18-3.2.62-6.11-1.37-8.84s-4.49-5.48-6.51-8.38a13.71,13.71,0,0,1-2.31-11.86c2-7.46,11.52-9.11,16.56-4.78-.09,1.57-.2,3.39-.33,5.67-1.52-.54-2.53-1-3.57-1.25-2-.54-4-.64-5.59,1.17-1.34,1.57-1.39,3.75.19,6,2,2.79,4.33,5.3,6.25,8.12a33.35,33.35,0,0,1,3.91,7.3,10.7,10.7,0,0,1-2.85,11.87c-3.5,3.37-7.77,3.23-12.09,1.77A18.77,18.77,0,0,1,196.39,179.24Z"/><path class="cls-2" d="M193.76,98.44l-.3,3.93c-1.1-.39-1.81-.71-2.55-.9-1.45-.37-2.87-.41-3.91.92a3.11,3.11,0,0,0,.1,4c1.44,2,3.05,3.95,4.58,5.93a14,14,0,0,1,3,6.47,7.92,7.92,0,0,1-4.44,8.39c-2.09.93-5.09.58-8.14-1v-4.29c.67.16,1.24.28,1.78.44a17,17,0,0,0,2.54.81,2.84,2.84,0,0,0,3.4-3.54,11.76,11.76,0,0,0-1.81-3.8c-1.32-1.91-2.91-3.62-4.25-5.51a9.47,9.47,0,0,1-1.69-8.59c1-3.23,3.42-5,7.09-5A5.36,5.36,0,0,1,193.76,98.44Z"/><path class="cls-3" d="M100.91,267.85l-2.86-.17c0-1.48-.09-2.78,0-4.07a17.2,17.2,0,0,0-1.24-7.44c-.74-2-1.36-4.08-2-6.12-.13-.42-.2-.85-.34-1.43h3c.7,2.32,1.37,4.56,2.13,7.1.8-2.61,1.49-4.87,2.19-7.14h2.75a6.59,6.59,0,0,1-.13,1.21c-1,3.17-2.11,6.33-3.11,9.51a8.3,8.3,0,0,0-.32,2.33C100.88,263.6,100.91,265.58,100.91,267.85Z"/><path class="cls-3" d="M33.79,102.34V98.45c4.34-3.28,10.36-1.64,11.39,3.21a10.9,10.9,0,0,1-.74,6.83c-1.78,4-3.51,8-5.25,12-.25.57-.46,1.15-.78,2,2.25.66,4.51-.07,6.77.54v4.23a65.8,65.8,0,0,1-11.91,0c-.78-2.56.17-4.57,1.1-6.61,1.92-4.23,3.78-8.48,5.62-12.75a9.94,9.94,0,0,0,.69-2.58c.4-2.9-1.32-4.46-4.16-3.79C35.68,101.69,34.87,102,33.79,102.34Z"/><path class="cls-3" d="M216.29,248.62c-.56,1.82-1,3.33-1.5,4.83-.57,1.73-1.23,3.42-1.73,5.16a12.07,12.07,0,0,0-.44,3c-.07,2,0,3.95,0,6.08h-2.79a18.17,18.17,0,0,1-.07-1.9,24.79,24.79,0,0,0-1.71-11c-.76-1.94-1.29-4-1.95-6a4.65,4.65,0,0,1,2.78-.18c1.22,2.1,1.19,4.66,2.41,7l2.08-6.94Z"/><path class="cls-2" d="M144.36,174.27c1.21.07,2.33.21,3.45.18s2-.25,3.42-.45c.12,1.83.23,3.51.32,5a9,9,0,0,1-13-1.29,17.85,17.85,0,0,1-3.48-7.51,46.21,46.21,0,0,1,.43-22.89,19.89,19.89,0,0,1,1.54-3.87c2.78-5.27,7.68-7,13.6-4.83a5.93,5.93,0,0,1,0,6,13.28,13.28,0,0,1-1.58-.15c-3.86-.77-5.81.17-7.08,3.75a18.11,18.11,0,0,0-1.07,5.18c-.15,4-.15,8.1,0,12.15A13.73,13.73,0,0,0,144.36,174.27Z"/><path class="cls-3" d="M176.7,248.93v2.58c-.46,0-.79,0-1.1-.09-1.44-.27-2.14,0-2.74,1.32a8.1,8.1,0,0,0-.71,2.76c-.11,1.75-.07,3.51,0,5.27a6.29,6.29,0,0,0,1.53,4h3.11c0,.74.08,1.5.12,2.16a4.05,4.05,0,0,1-5.82-.64,8.08,8.08,0,0,1-1.55-3.36,20.65,20.65,0,0,1,.21-10.24,9.22,9.22,0,0,1,.7-1.73C171.68,248.62,173.92,247.84,176.7,248.93Z"/><path class="cls-2" d="M207.3,101.6l-3.7-.45V97.44c1.75-.59,8.16-.74,12.08-.24v3.93l-3.43.47c-.07,1-.2,1.89-.2,2.83,0,6.51,0,13,0,19.54v2.87a5.07,5.07,0,0,1-4.74.08Z"/><path class="cls-2" d="M41,207.32l-2,.26c0,.57-.09,1.1-.09,1.63q0,5.49,0,11v1.55a3.58,3.58,0,0,1-2.58.24,44.07,44.07,0,0,1-.1-4.85c0-1.56,0-3.11,0-4.67v-4.86l-2.07-.3v-2.09a25.81,25.81,0,0,1,6.82-.09Z"/><path class="cls-3" d="M201.33,248.59v2.52l-2.32.32V267.3a3.05,3.05,0,0,1-3,.25c-.12-1.78,0-3.58-.06-5.37s0-3.51,0-5.26v-5.45l-2.3-.33v-2.55Z"/><path class="cls-2" d="M69,138h6.5c.13,1.45.34,2.78.34,4.1,0,9.26,0,18.52,0,27.78v4.4l8.1.45v6.14a98.5,98.5,0,0,1-15-.07C69,166.31,69,152.31,69,138Z"/><path class="cls-3" d="M88.56,127.06c-2.36.52-2.36.52-4.47-.33V102.41l-2.72.41V98.69a8.39,8.39,0,0,1,7-1.61C89,98.93,89.14,123.63,88.56,127.06Z"/><path class="cls-3" d="M186.89,267.5a3.14,3.14,0,0,1-2.64.11c-.31-1.34-.35-17.23,0-19h2.53C187.1,250,187.21,264.69,186.89,267.5Z"/><line class="cls-4" x1="33.31" y1="278.23" x2="217.05" y2="278.23"/><line class="cls-4" x1="32.82" y1="193.19" x2="56.6" y2="193.19"/><line class="cls-4" x1="32.82" y1="234.41" x2="56.6" y2="234.41"/><path class="cls-2" d="M41.84,297.51a2.71,2.71,0,0,1-1,2.26,4.55,4.55,0,0,1-2.88.82,6.9,6.9,0,0,1-3-.57v-1.67a8.93,8.93,0,0,0,1.58.55,6.8,6.8,0,0,0,1.55.2,2.5,2.5,0,0,0,1.55-.4,1.39,1.39,0,0,0,0-2.1,6.66,6.66,0,0,0-1.89-1,5,5,0,0,1-2.09-1.37,2.88,2.88,0,0,1-.61-1.85,2.6,2.6,0,0,1,1-2.14,4.06,4.06,0,0,1,2.59-.77,7.51,7.51,0,0,1,3.09.68l-.56,1.44a6.85,6.85,0,0,0-2.58-.61,2,2,0,0,0-1.3.38,1.22,1.22,0,0,0-.44,1,1.37,1.37,0,0,0,.17.72,1.78,1.78,0,0,0,.59.56,9.48,9.48,0,0,0,1.46.71,8.2,8.2,0,0,1,1.75.92,2.72,2.72,0,0,1,.81,1A2.84,2.84,0,0,1,41.84,297.51Z"/><path class="cls-2" d="M51.5,300.44l-3.14-9H48.3c.08,1.34.13,2.6.13,3.77v5.26H46.82V289.62h2.49l3,8.61h0l3.1-8.61H58v10.82h-1.7v-5.35c0-.53,0-1.24,0-2.1s.05-1.39.07-1.57h-.06l-3.25,9Z"/><path class="cls-2" d="M70.4,300.44l-1.08-3H65.18l-1.05,3H62.26l4.05-10.86h1.92l4,10.86Zm-1.54-4.53-1-2.94q-.11-.3-.3-.93a9.43,9.43,0,0,1-.27-.94,17.11,17.11,0,0,1-.59,2l-1,2.82Z"/><path class="cls-2" d="M76.59,300.44V289.62h1.77v9.31h4.58v1.51Z"/><path class="cls-2" d="M87.69,300.44V289.62h1.77v9.31H94v1.51Z"/><path class="cls-2" d="M110.21,291a2.94,2.94,0,0,0-2.4,1.08,5.69,5.69,0,0,0,0,6,3,3,0,0,0,2.43,1,6.45,6.45,0,0,0,1.33-.13c.43-.1.88-.21,1.34-.36v1.52a8.13,8.13,0,0,1-2.88.48,4.59,4.59,0,0,1-3.65-1.44,6,6,0,0,1-1.28-4.12,6.67,6.67,0,0,1,.62-2.95,4.43,4.43,0,0,1,1.79-1.94,5.38,5.38,0,0,1,2.74-.67,6.88,6.88,0,0,1,3.07.69l-.64,1.48a8,8,0,0,0-1.16-.46A4.13,4.13,0,0,0,110.21,291Z"/><path class="cls-2" d="M127.7,295a5.94,5.94,0,0,1-1.32,4.11,5.57,5.57,0,0,1-7.51,0,6,6,0,0,1-1.31-4.14,5.87,5.87,0,0,1,1.32-4.11,4.86,4.86,0,0,1,3.77-1.44,4.76,4.76,0,0,1,3.73,1.46A5.9,5.9,0,0,1,127.7,295Zm-8.26,0a4.84,4.84,0,0,0,.81,3,3.29,3.29,0,0,0,4.77,0,6.17,6.17,0,0,0,0-6.06,2.82,2.82,0,0,0-2.38-1,2.86,2.86,0,0,0-2.4,1A4.79,4.79,0,0,0,119.44,295Z"/><path class="cls-2" d="M137.59,300.44l-3.14-9h-.06c.08,1.34.12,2.6.12,3.77v5.26h-1.6V289.62h2.49l3,8.61h0l3.1-8.61h2.5v10.82h-1.7v-5.35c0-.53,0-1.24,0-2.1s.05-1.39.07-1.57h-.06l-3.25,9Z"/><path class="cls-2" d="M156.94,292.89a3.16,3.16,0,0,1-1.11,2.6,4.84,4.84,0,0,1-3.16.91h-1.12v4h-1.77V289.62h3.11a4.71,4.71,0,0,1,3,.83A3,3,0,0,1,156.94,292.89Zm-5.39,2h.94a3.35,3.35,0,0,0,2-.48,1.73,1.73,0,0,0,.63-1.48,1.68,1.68,0,0,0-.57-1.39,2.84,2.84,0,0,0-1.77-.46h-1.23Z"/><path class="cls-2" d="M168.7,300.44l-1.08-3h-4.14l-1.06,3h-1.86l4.05-10.86h1.92l4.05,10.86Zm-1.55-4.53-1-2.94c-.08-.2-.18-.51-.31-.93s-.22-.74-.27-.94a16.94,16.94,0,0,1-.58,2l-1,2.82Z"/><path class="cls-2" d="M183.91,300.44h-2.17l-5.33-8.62h-.06l0,.48c.07.92.1,1.76.1,2.52v5.62h-1.6V289.62H177l5.3,8.58h0c0-.11,0-.52-.06-1.24s-.05-1.27-.05-1.67v-5.67h1.63Z"/><path class="cls-2" d="M189.64,300.44V289.62h1.77v10.82Z"/><path class="cls-2" d="M203.27,300.44h-6.12V289.62h6.12v1.5h-4.35v2.94H203v1.48h-4.08v3.4h4.35Z"/><path class="cls-2" d="M214.73,297.51a2.73,2.73,0,0,1-1,2.26,4.55,4.55,0,0,1-2.88.82,6.87,6.87,0,0,1-3-.57v-1.67a8.82,8.82,0,0,0,1.57.55,7,7,0,0,0,1.56.2,2.52,2.52,0,0,0,1.55-.4,1.33,1.33,0,0,0,.5-1.08,1.35,1.35,0,0,0-.46-1,6.61,6.61,0,0,0-1.9-1,5.07,5.07,0,0,1-2.09-1.37,2.93,2.93,0,0,1-.6-1.85,2.6,2.6,0,0,1,1-2.14,4,4,0,0,1,2.58-.77,7.52,7.52,0,0,1,3.1.68l-.57,1.44a6.84,6.84,0,0,0-2.57-.61,2,2,0,0,0-1.3.38,1.23,1.23,0,0,0-.45,1,1.37,1.37,0,0,0,.18.72,1.74,1.74,0,0,0,.58.56,9.71,9.71,0,0,0,1.47.71,8.45,8.45,0,0,1,1.75.92,2.72,2.72,0,0,1,.81,1A3,3,0,0,1,214.73,297.51Z"/></g></g></svg>