<?xml version="1.0" encoding="utf-8"?>
<!-- Generator: Adobe Illustrator 23.0.0, SVG Export Plug-In . SVG Version: 6.00 Build 0)  -->
<svg version="1.1" id="Layer_1" xmlns="http://www.w3.org/2000/svg" xmlns:xlink="http://www.w3.org/1999/xlink" x="0px" y="0px"
	 viewBox="0 0 30 30" style="enable-background:new 0 0 30 30;" xml:space="preserve">
<style type="text/css">
	.st0{fill:#FFFFFF;}
</style>
<path class="st0" d="M15,0C6.7,0,0,6.7,0,15s6.7,15,15,15s15-6.7,15-15S23.3,0,15,0z M15,29.4C7,29.4,0.6,22.9,0.6,15S7,0.6,15,0.6
	S29.4,7,29.4,15S23,29.4,15,29.4z"/>
<g>
	<g>
		<path class="st0" d="M10,10.2h0.4c0.1,0,0.1,0,0.1-0.1V8.6c0-0.1,0-0.1-0.1-0.1H10c-0.1,0-0.1,0-0.1,0.1L10,10.2
			C10,10.1,10,10.2,10,10.2z"/>
		<path class="st0" d="M20,9.6v1.5H7.8V9.6h1.7v0.7c0,0.3,0.1,0.4,0.4,0.4h0.8c0.3,0,0.4-0.1,0.4-0.4V9.6h5.6v0.7
			c0,0.3,0.1,0.4,0.4,0.4h0.8c0.3,0,0.4-0.1,0.4-0.4V9.6H20 M20.2,9.3h-2.3v1c0,0.1,0,0.1-0.1,0.1h-0.8c-0.1,0-0.1,0-0.1-0.1v-1
			h-6.2v1c0,0.1,0,0.1-0.1,0.1H9.9c-0.1,0-0.1,0-0.1-0.1v-1H7.7c-0.1,0-0.2,0.1-0.2,0.2v1.9h12.8V9.5C20.3,9.4,20.3,9.3,20.2,9.3
			L20.2,9.3z"/>
		<path class="st0" d="M17.2,10.2h0.4c0.1,0,0.1,0,0.1-0.1V8.6c0-0.1,0-0.1-0.1-0.1h-0.4c-0.1,0-0.1,0-0.1,0.1L17.2,10.2
			C17.1,10.1,17.1,10.2,17.2,10.2z"/>
		<path class="st0" d="M7.5,12v9.3c0,0.1,0.1,0.2,0.2,0.2h10.4c-0.5-0.4-0.9-1-1.1-1.5l0,0C17,20,17,19.9,17,19.9v-1.4
			c0-0.1,0-0.1,0.1-0.1c0.1-0.3,0.2-0.5,0.3-0.8h-0.3c-0.1,0-0.1-0.1-0.1-0.1v-1.4c0-0.1,0.1-0.1,0.1-0.1h1.4c0.1,0,0.1,0.1,0.1,0.1
			v0.2c0.4-0.3,1-0.4,1.6-0.4c0.1,0,0.1,0,0.2,0V12L7.5,12z M10.9,19.9C10.9,20,10.8,20,10.9,19.9L9.4,20c-0.1,0-0.1-0.1-0.1-0.1
			v-1.4c0-0.1,0.1-0.1,0.1-0.1h1.4c0.1,0,0.1,0.1,0.1,0.1V19.9z M10.9,17.4C10.9,17.5,10.8,17.5,10.9,17.4l-1.5,0.1
			c-0.1,0-0.1-0.1-0.1-0.1V16c0-0.1,0.1-0.1,0.1-0.1h1.4c0.1,0,0.1,0.1,0.1,0.1V17.4z M10.9,15C10.9,15.1,10.8,15.1,10.9,15
			l-1.5,0.1c-0.1,0-0.1-0.1-0.1-0.1v-1.4c0-0.1,0.1-0.1,0.1-0.1h1.4c0.1,0,0.1,0.1,0.1,0.1V15z M13.5,19.9
			C13.5,20,13.4,20,13.5,19.9L12,20c-0.1,0-0.1-0.1-0.1-0.1v-1.4c0-0.1,0.1-0.1,0.1-0.1h1.4c0.1,0,0.1,0.1,0.1,0.1V19.9z M13.5,17.4
			C13.5,17.5,13.4,17.5,13.5,17.4L12,17.5c-0.1,0-0.1-0.1-0.1-0.1V16c0-0.1,0.1-0.1,0.1-0.1h1.4c0.1,0,0.1,0.1,0.1,0.1V17.4z
			 M13.5,15C13.5,15.1,13.4,15.1,13.5,15L12,15.1c-0.1,0-0.1-0.1-0.1-0.1v-1.4c0-0.1,0.1-0.1,0.1-0.1h1.4c0.1,0,0.1,0.1,0.1,0.1V15z
			 M15.9,19.9C15.9,20,15.8,20,15.9,19.9L14.4,20c-0.1,0-0.1-0.1-0.1-0.1v-1.4c0-0.1,0.1-0.1,0.1-0.1h1.4c0.1,0,0.1,0.1,0.1,0.1
			V19.9z M15.9,17.4C15.9,17.5,15.8,17.5,15.9,17.4l-1.5,0.1c-0.1,0-0.1-0.1-0.1-0.1V16c0-0.1,0.1-0.1,0.1-0.1h1.4
			c0.1,0,0.1,0.1,0.1,0.1V17.4z M15.9,15C15.9,15.1,15.8,15.1,15.9,15l-1.5,0.1c-0.1,0-0.1-0.1-0.1-0.1v-1.4c0-0.1,0.1-0.1,0.1-0.1
			h1.4c0.1,0,0.1,0.1,0.1,0.1V15z M18.6,15C18.6,15.1,18.5,15.1,18.6,15l-1.5,0.1C17,15.1,17,15,17,15v-1.4c0-0.1,0.1-0.1,0.1-0.1
			h1.4c0.1,0,0.1,0.1,0.1,0.1V15z"/>
		<path class="st0" d="M20.2,16.7c-1.3,0-2.3,1.1-2.3,2.3c0,1.2,1.1,2.3,2.3,2.3s2.3-1.1,2.3-2.3C22.5,17.8,21.5,16.7,20.2,16.7z
			 M21.4,19.3h-0.8v0.9H20v-0.9h-0.8v-0.7H20v-0.9h0.7v0.9h0.8V19.3z"/>
	</g>
</g>
</svg>
