<?xml version="1.0" encoding="utf-8"?>
<!-- Generator: Adobe Illustrator 19.0.0, SVG Export Plug-In . SVG Version: 6.00 Build 0)  -->
<svg version="1.1" id="Layer_1" xmlns="http://www.w3.org/2000/svg" xmlns:xlink="http://www.w3.org/1999/xlink" x="0px" y="0px"
	 width="30px" height="30px" viewBox="40 30 30 30" style="enable-background:new 40 30 30 30;" xml:space="preserve">
<style type="text/css">
	.st0{fill:none;}
	.st1{fill:#231E1C;}
</style>
<title>icon</title>
<desc>Created with Sketch.</desc>
<g>
	<path class="st0" d="M41.3,35.2v16.8h18.4l0-4.2l4.4,4.2h4.5V35.2H41.3z M65.5,45.7H45.4c-0.4,0-0.7-0.3-0.7-0.7
		c0-0.4,0.3-0.7,0.7-0.7h20.1c0.4,0,0.7,0.3,0.7,0.7C66.2,45.4,65.9,45.7,65.5,45.7z M65.5,42.1H45.4c-0.4,0-0.7-0.3-0.7-0.7
		c0-0.4,0.3-0.7,0.7-0.7h20.1c0.4,0,0.7,0.3,0.7,0.7C66.2,41.8,65.9,42.1,65.5,42.1z"/>
	<path class="st1" d="M70,30.1H40v23.3h19.7l0,4.3l2.6-1.2l1.5,3.4l2-0.9l-1.5-3.4l2.5-1.1l-1.2-1.1H70L70,30.1L70,30.1z M47.7,32.6
		c0,0.4-0.3,0.7-0.7,0.7s-0.7-0.3-0.7-0.7c0-0.4,0.3-0.7,0.7-0.7S47.7,32.2,47.7,32.6z M45.5,32.6c0,0.4-0.3,0.7-0.7,0.7
		c-0.4,0-0.7-0.3-0.7-0.7c0-0.4,0.3-0.7,0.7-0.7C45.2,31.9,45.5,32.2,45.5,32.6z M43.2,32.6c0,0.4-0.3,0.7-0.7,0.7
		c-0.4,0-0.7-0.3-0.7-0.7c0-0.4,0.3-0.7,0.7-0.7C42.9,31.9,43.2,32.2,43.2,32.6z M64.1,52.1l-4.4-4.2l0,4.2H41.3V35.2h27.3v16.8
		H64.1z"/>
	<path class="st1" d="M65.5,40.8H45.4c-0.4,0-0.7,0.3-0.7,0.7c0,0.4,0.3,0.7,0.7,0.7h20.1c0.4,0,0.7-0.3,0.7-0.7
		S65.9,40.8,65.5,40.8z"/>
	<path class="st1" d="M65.5,44.4H45.4c-0.4,0-0.7,0.3-0.7,0.7c0,0.4,0.3,0.7,0.7,0.7h20.1c0.4,0,0.7-0.3,0.7-0.7
		C66.2,44.7,65.9,44.4,65.5,44.4z"/>
</g>
</svg>
