<?xml version="1.0" encoding="UTF-8"?>
<svg width="190px" height="133px" viewBox="0 0 190 133" version="1.1" xmlns="http://www.w3.org/2000/svg" xmlns:xlink="http://www.w3.org/1999/xlink">
    <!-- Generator: Sketch 55.2 (78181) - https://sketchapp.com -->
    <title>TV (1)</title>
    <desc>Created with Sketch.</desc>
    <g id="Page-1" stroke="none" stroke-width="1" fill="none" fill-rule="evenodd">
        <g id="TV-(1)" transform="translate(0.000000, -1.000000)" fill="#FFFFFF" fill-rule="nonzero">
            <path d="M187.38,1 L1.86,1 C0.944245416,0.905539735 0.119694683,1.5572008 0,2.47 L0,115.09 C0.119694683,116.002799 0.944245416,116.65446 1.86,116.56 L73.72,116.56 L73.72,124.56 L31.65,124.56 C31.5726801,124.56 31.51,124.62268 31.51,124.7 L31.51,133.58 C31.51,133.61713 31.52475,133.65274 31.5510051,133.678995 C31.5772601,133.70525 31.6128697,133.72 31.65,133.72 L157.59,133.72 C157.66732,133.72 157.73,133.65732 157.73,133.58 L157.73,124.7 C157.73,124.62268 157.66732,124.56 157.59,124.56 L115.53,124.56 L115.53,116.56 L187.38,116.56 C188.295755,116.65446 189.120305,116.002799 189.24,115.09 L189.24,2.47 C189.120305,1.5572008 188.295755,0.905539735 187.38,1 Z M181.38,107.15 C181.38,107.917676 180.757676,108.54 179.99,108.54 L9.27,108.54 C8.5023242,108.54 7.87985591,107.917676 7.87985591,107.15 L7.87985591,10.41 C7.87464543,10.0378961 8.01872419,9.67918432 8.27998237,9.41416702 C8.54124056,9.14914972 8.89785755,8.99999999 9.27,8.99999999 L180,8.99999999 C180.767676,8.99999999 181.39,9.6223242 181.39,10.39 L181.38,107.15 Z" id="Shape"></path>
        </g>
    </g>
</svg>