<svg width="65" height="62" viewBox="0 0 65 62" fill="none" xmlns="http://www.w3.org/2000/svg">
<path fill-rule="evenodd" clip-rule="evenodd" d="M55.1804 38.6632L54.0119 33.7072C53.9561 33.4717 54.1022 33.2351 54.3378 33.1803L59.293 32.0116C59.5286 31.9567 59.7641 32.1019 59.8199 32.3375L60.9884 37.2925C61.0433 37.529 60.8981 37.7646 60.6625 37.8204L55.7073 38.9881C55.4718 39.0439 55.2362 38.8977 55.1804 38.6632Z" fill="#24211F"/>
<path fill-rule="evenodd" clip-rule="evenodd" d="M30.5211 5.78803L27.1241 4.66403C26.8981 4.59003 26.7751 4.34603 26.8501 4.11903L27.9741 0.722026C28.0491 0.496026 28.2921 0.373026 28.5191 0.448026L31.9161 1.57203C32.1421 1.64603 32.2651 1.89103 32.1901 2.11703L31.0661 5.51403C30.9911 5.74003 30.7481 5.86303 30.5211 5.78803Z" fill="#24211F"/>
<path fill-rule="evenodd" clip-rule="evenodd" d="M45.75 17.5316C45.215 17.7069 44.8948 18.3891 45.0316 19.0599C45.1481 19.6252 45.5545 20 46.0003 20C46.0824 20 46.1665 19.9886 46.2496 19.9606C47.8061 19.4575 49.3474 19.3686 50.8218 19.7065C51.3549 19.812 51.8848 19.375 51.9842 18.6953C52.0814 18.0144 51.7207 17.3601 51.1775 17.2394C49.4163 16.8418 47.5872 16.9396 45.75 17.5316Z" fill="#B51D6D"/>
<path fill-rule="evenodd" clip-rule="evenodd" d="M45 7C45 8.65507 46.3457 10 47.9995 10C49.6543 10 51 8.65507 51 7C51 5.34595 49.6543 4 47.9995 4C46.3457 4 45 5.34595 45 7Z" fill="#24211F"/>
<mask id="mask0" mask-type="alpha" maskUnits="userSpaceOnUse" x="60" y="15" width="5" height="4">
<path fill-rule="evenodd" clip-rule="evenodd" d="M64.3156 15.4479V18.9719H60.793V15.4479H64.3156V15.4479Z" fill="white"/>
</mask>
<g mask="url(#mask0)">
<path fill-rule="evenodd" clip-rule="evenodd" d="M60.793 17.2099C60.793 18.1819 61.583 18.9719 62.554 18.9719C63.525 18.9719 64.316 18.1819 64.316 17.2099C64.316 16.2389 63.525 15.4479 62.554 15.4479C61.583 15.4479 60.793 16.2389 60.793 17.2099Z" fill="#24211F"/>
</g>
<path fill-rule="evenodd" clip-rule="evenodd" d="M37 52.0006C37 53.103 37.897 54 39.0006 54C40.103 54 41 53.103 41 52.0006C41 50.897 40.103 50 39.0006 50C37.897 50 37 50.897 37 52.0006Z" fill="#24211F"/>
<path fill-rule="evenodd" clip-rule="evenodd" d="M18.8288 21L14.5007 30.0793V30.0823C14.4758 30.2007 12.0963 41.8452 17.9338 54L30 48.3702L29.556 47.856C25.3338 42.9832 18.0795 34.5494 18.8288 21Z" fill="#24211F"/>
<path fill-rule="evenodd" clip-rule="evenodd" d="M11.9203 35L0.092584 60.5876C-0.0815848 60.965 -0.00581646 61.4137 0.284465 61.7099C0.470442 61.8996 0.718411 62 0.9713 62C1.11103 62 1.25371 61.9699 1.3836 61.9056L16 54.8746C12.4202 47.192 11.8013 39.8416 11.9203 35Z" fill="#24211F"/>
<path fill-rule="evenodd" clip-rule="evenodd" d="M46.1089 37.7778L45.7143 37.9623C43.7176 38.2686 38.0637 34.9681 31.9451 28.8952C25.8294 22.8233 22.5263 17.2157 22.8101 15.2248L22.996 14.8331C23.3649 14.6466 24.6683 14.6358 27.6006 16.3351C29.1355 17.2236 30.8147 18.4242 32.5365 19.8242C31.5485 21.6757 30.7554 22.9116 30.7346 22.945C30.4429 23.3946 30.5744 23.9945 31.0273 24.2841C31.1925 24.3881 31.3745 24.4372 31.5564 24.4372C31.8759 24.4372 32.1903 24.2802 32.3773 23.9925C32.4593 23.8659 33.1645 22.7614 34.0605 21.1151C34.8051 21.766 35.5478 22.4532 36.2915 23.1689C35.3075 24.183 34.729 24.9301 34.6815 24.9919C34.3562 25.417 34.4412 26.0266 34.8704 26.3476C35.0455 26.4802 35.2531 26.545 35.4588 26.545C35.7526 26.545 36.0463 26.4124 36.2371 26.1611C36.248 26.1464 36.7732 25.472 37.6751 24.5403C38.4455 25.3276 39.1793 26.115 39.8755 26.9033C38.0539 27.7034 36.9749 28.4043 36.8681 28.476C36.4201 28.7735 36.3014 29.3733 36.6011 29.819C36.788 30.0988 37.0965 30.25 37.413 30.25C37.5979 30.25 37.7868 30.196 37.952 30.087C37.9797 30.0684 39.1684 29.2938 41.2086 28.4544C42.5665 30.1125 43.7265 31.7275 44.5968 33.2069C46.3067 36.1167 46.2958 37.4126 46.1089 37.7778ZM43.1341 27.7456C45.7094 26.8994 49.0975 26.1886 52.9792 26.3732C53.5033 26.4507 53.976 25.9844 53.9988 25.4513C54.0255 24.9153 53.6082 24.4637 53.0711 24.4392C48.5022 24.2271 44.6146 25.1362 41.7872 26.1454C40.9406 25.1617 40.0417 24.179 39.0814 23.1973C39.8755 22.4895 40.7972 21.7444 41.8485 21.0621C42.2994 20.7705 42.426 20.1687 42.1303 19.7221C41.8327 19.2714 41.2235 19.1487 40.7814 19.4423C39.6006 20.209 38.575 21.0395 37.6998 21.8259C36.7949 20.9521 35.89 20.1295 34.9822 19.35C36.606 16.0897 38.3871 11.6739 38.3871 7.96895C38.3871 7.43392 37.95 7 37.411 7C36.8721 7 36.4349 7.43392 36.4349 7.96895C36.4349 11.135 34.9119 15.0226 33.4404 18.0463C31.7512 16.6954 30.1046 15.5439 28.5846 14.6633C25.1401 12.6704 22.7676 12.2846 21.5284 13.5147C21.2525 13.7876 21.0765 14.1538 20.9627 14.571L20.8797 14.7457C17.2739 31.0471 25.6237 40.7838 30.2006 46.0841L30.9858 47L46.3739 39.7972C46.7942 39.6833 47.1631 39.5085 47.439 39.2346C48.6792 38.0045 48.2905 35.6474 46.282 32.2311C45.4542 30.8233 44.3772 29.3026 43.1341 27.7456Z" fill="#24211F"/>
<path fill-rule="evenodd" clip-rule="evenodd" d="M31.4039 26C31.1508 26 30.8946 25.9331 30.664 25.7903C30.0037 25.3841 29.8027 24.524 30.2119 23.8696C30.2711 23.7764 36.0687 14.4416 36.1902 8.36756C36.2055 7.60679 36.8321 7 37.5955 7H37.623C38.3986 7.01621 39.015 7.65238 38.9997 8.42125C38.8619 15.2631 32.8541 24.9343 32.5989 25.3426C32.3326 25.768 31.8723 26 31.4039 26Z" fill="#B51D6D"/>
<path fill-rule="evenodd" clip-rule="evenodd" d="M36.4342 27C36.1433 27 35.8482 26.92 35.5948 26.7525C34.9524 26.3348 34.8074 25.5265 35.2725 24.945C35.429 24.7493 39.1643 20.1293 43.153 19.0547C43.9132 18.8496 44.7141 19.2391 44.9394 19.9241C45.1667 20.6101 44.735 21.3318 43.9748 21.536C41.4418 22.2191 38.5136 25.3251 37.599 26.4637C37.3175 26.8137 36.8785 27 36.4342 27Z" fill="#B51D6D"/>
<path fill-rule="evenodd" clip-rule="evenodd" d="M38.3832 31C37.9339 31 37.4946 30.7849 37.2289 30.3856C36.8096 29.7552 36.9822 28.9057 37.617 28.4894C37.956 28.2654 46.0175 23.0361 55.7771 24.1574C56.5353 24.2441 57.0789 24.9232 56.9906 25.6761C56.9034 26.428 56.2314 26.9827 55.4621 26.8801C46.7437 25.8912 39.2167 30.7261 39.1425 30.7739C38.9078 30.9283 38.643 31 38.3832 31Z" fill="#B51D6D"/>
</svg>
