<svg width="72" height="79" viewBox="0 0 72 79" fill="none" xmlns="http://www.w3.org/2000/svg">
<path fill-rule="evenodd" clip-rule="evenodd" d="M8.24804 73.4575C9.77307 76.9286 13.1505 79 17.0309 79C17.7327 78.9986 18.433 78.9326 19.1229 78.8029C23.4134 77.8879 26.6345 74.2987 27.1073 69.906C27.279 67.9231 27.4626 65.9402 27.6462 63.9654L27.8578 61.7009L28.4287 61.6044C29.1227 61.5189 29.8062 61.3626 30.4687 61.1378C32.0744 60.5363 33.3703 59.3061 34.0617 57.7271C34.7756 56.085 34.7901 54.2198 34.1017 52.5667C33.9819 52.253 34.0058 52.1645 34.0058 52.1645C34.0058 52.1645 34.0498 52.0841 34.3452 51.9514C34.9191 51.6988 35.4813 51.407 36.04 51.1171C36.2819 50.9915 36.5232 50.8663 36.7645 50.7447L37.7505 50.2299C38.0191 50.0793 38.2964 49.9449 38.5809 49.8277C38.7984 50.0393 38.9924 50.2739 39.1598 50.5275C40.3803 52.2095 42.3216 53.2068 44.3896 53.2143C46.4162 53.2091 48.3188 52.2305 49.5116 50.5798C49.6713 50.3626 49.7472 50.3345 49.7472 50.3345C49.8804 50.3609 50.0059 50.4173 50.1145 50.4994C52.0946 51.6899 54.2065 52.9167 56.7615 54.3606C57.4585 54.776 58.2006 55.1094 58.9732 55.3541C63.1451 56.5486 67.5804 55.0765 70.0157 51.6899C72.6346 48.0539 72.6625 43.6176 70.0915 39.8247L68.1952 37.0093L68.0049 36.7281C65.042 32.3509 61.9811 27.8291 58.8973 23.4306C55.5598 18.6725 50.865 16.4804 45.2639 17.1039C39.6628 17.7273 35.6187 20.7238 33.2473 26.0088C33.1131 26.3014 32.8947 26.5466 32.6205 26.7127C28.4527 28.8967 23.9734 31.2255 18.8713 33.8398C18.6488 33.9551 18.397 34 18.1488 33.9685C15.0924 33.2737 11.8971 33.5549 9.00657 34.773C5.44309 36.2888 2.61796 39.1611 1.14589 42.7649C-0.34225 46.3043 -0.382426 50.2927 1.0341 53.8619C1.84348 55.8244 2.55895 57.8664 3.25338 59.8483L3.31765 60.0318C3.67296 61.0695 4.02827 62.0629 4.39954 63.0805C4.74111 64.0167 5.07254 64.963 5.40315 65.9071C5.43191 65.9892 5.46067 66.0713 5.48942 66.1534C6.33178 68.5707 7.20608 71.0684 8.24804 73.4575ZM9.46567 35.8911C11.1511 35.1785 12.9595 34.8081 14.7873 34.8011C15.8296 34.8056 16.8684 34.9243 17.8853 35.1551C18.4048 35.248 18.9403 35.1675 19.4103 34.9258C24.5163 32.3074 29.0196 29.9746 33.1715 27.7906C33.6842 27.5019 34.0915 27.055 34.3332 26.5156C36.5209 21.6448 40.1938 18.8897 45.3917 18.3105C50.5895 17.7313 54.7734 19.6499 57.9153 24.1345C60.8827 28.3702 63.8324 32.7243 66.6969 36.9527C66.8653 37.2013 67.0334 37.4494 67.2012 37.697L69.1015 40.5125C71.373 43.8468 71.3491 47.7523 69.0416 50.97C66.8818 53.9504 62.9814 55.2414 59.2966 54.1877C58.6142 53.9677 57.9591 53.6695 57.3444 53.2988C54.8013 51.8709 52.6974 50.6402 50.7253 49.4577C50.0785 49.0756 49.312 48.8222 48.5455 49.8599C47.5777 51.2047 46.0304 52.0028 44.3816 52.0077C42.6908 51.9996 41.1047 51.1812 40.11 49.8036C39.084 48.424 38.7566 48.3516 37.1956 49.156C36.8643 49.3249 36.5329 49.5019 36.2016 49.6789C35.4351 50.1012 34.6366 50.5195 33.8382 50.8855C32.8481 51.34 32.5886 52.0238 32.9878 53.0333C33.5482 54.3864 33.5381 55.911 32.9599 57.2565C32.4014 58.5362 31.3532 59.5342 30.0535 60.0237C29.4639 60.217 28.8568 60.3517 28.2411 60.4259C28.2107 60.431 28.1803 60.436 28.1497 60.4411C27.8394 60.4925 27.5219 60.545 27.1911 60.611L26.752 60.6994L26.4606 63.8648C26.2743 65.8437 26.0933 67.8253 25.9176 69.8095C25.5045 73.6715 22.6719 76.8273 18.8993 77.6285C14.7354 78.4128 10.8949 76.5465 9.34591 72.991C8.3239 70.626 7.46158 68.1645 6.62321 65.7512C6.37093 65.0362 6.1148 64.3173 5.86016 63.6026C5.74812 63.2881 5.63636 62.9744 5.52535 62.6622L5.42247 62.373C5.09485 61.4518 4.77315 60.5473 4.45144 59.6296C3.74482 57.5743 2.99029 55.4506 2.14793 53.3993C0.85167 50.1269 0.890409 46.4712 2.25572 43.2274C3.60288 39.9185 6.19488 37.2811 9.46567 35.8911Z" fill="#25211F"/>
<path d="M47.6099 44.2048C46.5821 42.2404 44.1886 41.4461 42.1966 42.4083C40.2863 43.4078 39.4406 45.9109 40.3936 47.7506C41.4102 49.7686 43.8638 50.5785 45.8756 49.5601C47.7709 48.5137 48.53 46.1695 47.6099 44.2048Z" fill="#25211F"/>
<path d="M29.8961 58.5573C31.8319 57.4784 32.5596 55.0517 31.5381 53.0821C30.4691 51.1833 28.1024 50.4578 26.1563 51.4322C24.1678 52.5077 23.4204 54.9914 24.4841 56.9893C25.447 58.8115 27.9918 59.5481 29.8961 58.5573Z" fill="#25211F"/>
<path d="M44.3104 23.3073C43.1118 23.9881 42.6574 25.4825 43.2758 26.7102C43.9589 27.8482 45.3828 28.3078 46.6073 27.7856C47.8295 27.1456 48.3376 25.668 47.7654 24.4173C47.4707 23.7995 46.9328 23.3302 46.2788 23.12C45.6247 22.9099 44.9125 22.9777 44.3104 23.3073Z" fill="#B51E6D"/>
<path d="M53.7611 25.4333C53.1707 24.233 51.7544 23.6878 50.509 24.1814C49.884 24.4517 49.3963 24.9643 49.1581 25.6012C48.9199 26.238 48.9519 26.9441 49.2467 27.5569C49.82 28.767 51.2415 29.3185 52.4834 28.8126C53.1084 28.541 53.5968 28.0287 53.8375 27.3922C54.0781 26.7557 54.0506 26.0492 53.7611 25.4333Z" fill="#B51E6D"/>
<path d="M47.2554 34.5733C47.8519 35.8154 49.34 36.3464 50.5907 35.7634C51.8336 35.1553 52.351 33.6601 51.7489 32.4165C51.4515 31.8055 50.9191 31.3405 50.2726 31.1272C49.6262 30.9139 48.9209 30.9706 48.317 31.2843C47.1333 31.9167 46.664 33.3706 47.2554 34.5733Z" fill="#B51E6D"/>
<path d="M41.2731 31.635C41.9131 32.8584 43.4177 33.3481 44.6598 32.7372C45.8974 32.0428 46.3582 30.4957 45.7009 29.2417C44.9791 28.121 43.5443 27.6922 42.322 28.2319C41.1176 28.9067 40.6562 30.4036 41.2731 31.635Z" fill="#B51E6D"/>
<rect x="5.80469" y="48.1912" width="13" height="4" rx="1.6" transform="rotate(-27.19 5.80469 48.1912)" fill="#25211F"/>
<rect x="11.3086" y="40.3044" width="13" height="4" rx="1.6" transform="rotate(62.81 11.3086 40.3044)" fill="#25211F"/>
<path d="M39.709 39.8748L25.6416 46.943C25.5201 47.005 25.3783 47.017 25.2478 46.9761C25.1173 46.9353 25.0088 46.8451 24.9467 46.7255L21.0562 36.7241C20.927 36.4752 21.0282 36.171 21.2824 36.0442L33.1884 30.0552C33.444 29.9285 33.7561 30.0273 33.8873 30.2766L39.9474 39.1909C40.0728 39.4442 39.9665 39.7492 39.709 39.8748Z" fill="#25211F"/>
<path d="M24.4502 61C24.364 61.0008 24.279 60.9771 24.2033 60.9311C23.034 60.2621 22.0978 59.1775 21.5424 57.8487C20.4577 55.2121 21.0341 52.095 22.9654 50.1526C23.073 50.0458 23.2144 49.9913 23.3582 50.0011C23.502 50.011 23.6363 50.0845 23.7314 50.2053C23.8285 50.3244 23.8786 50.4821 23.8704 50.6428C23.8622 50.8036 23.7964 50.9539 23.6878 51.06C22.1147 52.6444 21.6457 55.1851 22.5298 57.3342C22.9846 58.4198 23.7512 59.3051 24.7079 59.8496C24.9699 60.0041 25.0744 60.3629 24.9439 60.6597C24.851 60.869 24.6594 61.001 24.4502 61Z" fill="#25211F"/>
<path d="M49.5104 47H49.4814C49.3528 46.9911 49.2325 46.9217 49.1471 46.8071C49.0616 46.6925 49.0181 46.5422 49.026 46.3894C49.085 45.1422 48.7575 43.9125 48.1057 42.933C48.0255 42.8134 47.9886 42.6607 48.0031 42.5087C48.0176 42.3567 48.0824 42.2178 48.1832 42.1227C48.394 41.9271 48.698 41.9699 48.8646 42.2187C49.6633 43.4147 50.0644 44.9183 49.9916 46.4431C49.9846 46.7532 49.7712 47.0001 49.5104 47Z" fill="#25211F"/>
<path d="M25.0086 30.9921C24.4704 30.9901 24.0322 30.5623 24.0215 30.0283C24.0215 29.9693 23.8312 23.9266 19.5576 19.5678C18.8242 18.8203 18.071 18.1201 17.3455 17.4434C13.4683 13.8359 9.81316 10.4291 10.0074 0.963832C10.0182 0.428356 10.4588 -0.000107107 10.9985 2.00841e-08H11.0223C11.2848 0.00515532 11.5345 0.113889 11.716 0.302151C11.8975 0.490412 11.996 0.742687 11.9896 1.00317C11.8112 9.59505 15.0025 12.5692 18.7013 16.0075C19.4426 16.6999 20.2117 17.4159 20.9768 18.1948C25.8094 23.1241 25.9957 29.7096 25.9997 29.9968C26.0061 30.2573 25.9076 30.5096 25.7261 30.6978C25.5446 30.8861 25.2949 30.9948 25.0324 31L25.0086 30.9921Z" fill="#25211F"/>
</svg>
