<?xml version="1.0" encoding="utf-8"?>
<!-- Generator: Adobe Illustrator 23.0.0, SVG Export Plug-In . SVG Version: 6.00 Build 0)  -->
<svg version="1.1" id="Layer_1" xmlns="http://www.w3.org/2000/svg" xmlns:xlink="http://www.w3.org/1999/xlink" x="0px" y="0px"
	 viewBox="0 0 30 30" style="enable-background:new 0 0 30 30;" xml:space="preserve">
<style type="text/css">
	.st0{fill:#FFFFFF;}
</style>
<path class="st0" d="M15,0C6.7,0,0,6.7,0,15s6.7,15,15,15s15-6.7,15-15S23.3,0,15,0z M15,29.4C7,29.4,0.6,22.9,0.6,15S7,0.6,15,0.6
	S29.4,7,29.4,15S23,29.4,15,29.4z"/>
<g>
	<g>
		<path class="st0" d="M12.4,14.6L12.4,14.6c-0.2,0-0.3-0.1-0.4-0.2l-0.6-0.9c-0.5-0.8-1.5-1.3-2.4-1.3H7.7c-0.2,0-0.4-0.2-0.4-0.4
			v-1.8c0-0.2,0.2-0.4,0.4-0.4h1.4c1.8,0,3.5,0.9,4.6,2.5l0.1,0.2c0,0.1,0,0.1,0,0.2v0.1c0,0.1,0,0.1-0.1,0.2l-1,1.5
			C12.7,14.6,12.6,14.6,12.4,14.6z M8.1,11.6h1c1.2,0,2.4,0.6,3,1.6l0.3,0.5l0.6-1l0-0.1c-0.9-1.3-2.3-2.1-3.9-2.1h-1V11.6z"/>
		<path class="st0" d="M18.8,12h0.8c0.1,0,0.1,0,0.1,0.1v1.4c0,0.3,0.4,0.5,0.6,0.3l3-2.3c0.2-0.2,0.2-0.5,0-0.6l-3-2.3
			c-0.3-0.2-0.6,0-0.6,0.3V10c0,0.1,0,0.1-0.1,0.1h-0.8c-1.7,0-3.4,0.9-4.3,2.3l-2.7,4.1c-0.6,1-1.6,1.4-2.8,1.4H7.7
			c-0.1,0-0.1,0-0.1,0.1v1.7c0,0.1,0,0.1,0.1,0.1H9c1.7,0,3.4-0.9,4.3-2.3l2.7-4.1C16.6,12.4,17.6,12,18.8,12z"/>
		<path class="st0" d="M20.1,22c-0.1,0-0.2,0-0.3-0.1c-0.3-0.1-0.5-0.4-0.5-0.7v-1.1h-0.5c-1.8,0-3.5-0.9-4.6-2.5l-0.1-0.2
			c0-0.1,0-0.1,0-0.2v-0.2c0-0.1,0-0.1,0.1-0.2l1-1.5c0.1-0.1,0.2-0.2,0.3-0.2h0.1c0.1,0,0.2,0.1,0.3,0.2l0.6,0.9
			c0.5,0.8,1.5,1.3,2.4,1.3h0.5v-1c0-0.3,0.1-0.5,0.4-0.6c0.2-0.1,0.5-0.1,0.8,0.1c0,0,0,0,0,0l3,2.4c0.1,0,0.2,0.2,0.3,0.4
			c0,0.2-0.1,0.5-0.2,0.7l-3,2.3C20.4,21.9,20.2,22,20.1,22z M14.8,17.2l0.1,0.1c0.9,1.3,2.3,2.1,3.9,2.1h0.9c0.2,0,0.4,0.2,0.4,0.4
			v1.4l3-2.3l-3-2.4c0,0,0,0,0,0l0,1.4c0,0.2-0.2,0.4-0.4,0.4h-0.9c-1.2,0-2.4-0.6-3-1.6l-0.3-0.5L14.8,17.2z"/>
	</g>
</g>
</svg>
