<?xml version="1.0" encoding="utf-8"?>
<!-- Generator: Adobe Illustrator 19.0.0, SVG Export Plug-In . SVG Version: 6.00 Build 0)  -->
<svg version="1.1" id="Layer_1" xmlns="http://www.w3.org/2000/svg" xmlns:xlink="http://www.w3.org/1999/xlink" x="0px" y="0px"
	 width="30px" height="30px" viewBox="90 30 30 30" style="enable-background:new 90 30 30 30;" xml:space="preserve">
<style type="text/css">
	.st0{fill:#241F1C;}
</style>
<g id="XMLID_2_">
	<path id="XMLID_14_" class="st0" d="M102.8,35.3c-5.4,0-9.8,4.4-9.8,9.8c0,2.3,0.8,4.3,2,6c1.8,2.3,4.6,3.8,7.8,3.8V53
		c-2.5,0-4.8-1.1-6.3-3.1c-1.1-1.4-1.6-3.1-1.6-4.8c0-4.4,3.6-7.9,7.9-7.9c2.8,0,5.3,1.4,6.8,3.8c0.7,1.2,1.1,2.6,1.1,4.1h1.9l0,0
		c0-1.8-0.5-3.6-1.4-5C109.5,37.2,106.4,35.3,102.8,35.3z"/>
	<path id="XMLID_17_" class="st0" d="M102.8,32.2C95.7,32.2,90,37.9,90,45s5.7,12.8,12.8,12.8c3.6,0,6.8-1.5,9.2-3.9v2.3h3.5v-9.3
		c0.1-0.6,0.2-1.3,0.2-1.9C115.6,37.9,109.9,32.2,102.8,32.2z M102.8,57.2c-6.8,0-12.2-5.5-12.2-12.2s5.5-12.2,12.2-12.2
		S115,38.3,115,45C115,51.8,109.5,57.2,102.8,57.2z"/>
	<path id="XMLID_18_" class="st0" d="M119.8,43.7h-3.1c-0.1,0-0.2,0.1-0.2,0.2v12.1c0,0.1,0.1,0.2,0.2,0.2h3.1
		c0.1,0,0.2-0.1,0.2-0.2V43.9C120,43.8,119.9,43.7,119.8,43.7z"/>
</g>
</svg>
