<svg xmlns="http://www.w3.org/2000/svg" viewBox="0 0 263.98 240.06"><defs><style>.cls-1{fill:#fff;}.cls-2{fill:#74bd43;}</style></defs><title>Deloitte Vertical</title><g id="Layer_2" data-name="Layer 2"><g id="Layer_1-2" data-name="Layer 1"><path class="cls-1" d="M9,174.91H6.75V157.47H.59v-2H15.18v2H9Z"/><path class="cls-1" d="M23.93,175.18a6.72,6.72,0,0,1-5.1-2A7.59,7.59,0,0,1,17,167.74a8.43,8.43,0,0,1,1.74-5.6,5.78,5.78,0,0,1,4.66-2.08,5.51,5.51,0,0,1,4.34,1.81,6.88,6.88,0,0,1,1.6,4.75V168h-10a5.78,5.78,0,0,0,1.3,3.9A4.46,4.46,0,0,0,24,173.25a11.85,11.85,0,0,0,4.66-1v2a11.79,11.79,0,0,1-2.21.72A12.27,12.27,0,0,1,23.93,175.18Zm-.59-13.27a3.61,3.61,0,0,0-2.8,1.15,5.29,5.29,0,0,0-1.24,3.17h7.63A4.89,4.89,0,0,0,26,163,3.28,3.28,0,0,0,23.34,161.91Z"/><path class="cls-1" d="M38.89,175.18a6.22,6.22,0,0,1-4.9-2,8,8,0,0,1-1.74-5.51A8.26,8.26,0,0,1,34,162.06a6.34,6.34,0,0,1,5-2,10,10,0,0,1,2.1.23,7.11,7.11,0,0,1,1.65.53l-.68,1.88a10.21,10.21,0,0,0-1.59-.49A7.07,7.07,0,0,0,39,162q-4.45,0-4.45,5.67a6.74,6.74,0,0,0,1.08,4.12,3.79,3.79,0,0,0,3.22,1.44,9.92,9.92,0,0,0,3.74-.78v1.95A8,8,0,0,1,38.89,175.18Z"/><path class="cls-1" d="M56,174.91v-9.43a3.8,3.8,0,0,0-.81-2.66,3.29,3.29,0,0,0-2.54-.88,4.16,4.16,0,0,0-3.36,1.25,6.32,6.32,0,0,0-1.06,4.1v7.62H46v-20.7h2.21v6.27a13.61,13.61,0,0,1-.11,1.87h.13a4.53,4.53,0,0,1,1.86-1.65,6,6,0,0,1,2.75-.61,5.61,5.61,0,0,1,4,1.27,5.37,5.37,0,0,1,1.34,4v9.51Z"/><path class="cls-1" d="M72.75,174.91v-9.43a3.8,3.8,0,0,0-.82-2.66,3.29,3.29,0,0,0-2.54-.88A4.18,4.18,0,0,0,66,163.18,6.23,6.23,0,0,0,65,167.26v7.65H62.76V160.33h1.8l.36,2H65a4.43,4.43,0,0,1,1.9-1.67,6.14,6.14,0,0,1,2.73-.6,5.54,5.54,0,0,1,4,1.27A5.42,5.42,0,0,1,75,165.4v9.51Z"/><path class="cls-1" d="M92.08,167.61a8,8,0,0,1-1.8,5.57,6.33,6.33,0,0,1-5,2,6.59,6.59,0,0,1-3.47-.92,6.06,6.06,0,0,1-2.34-2.63,9.22,9.22,0,0,1-.83-4,8.09,8.09,0,0,1,1.78-5.56,6.33,6.33,0,0,1,5-2,6.17,6.17,0,0,1,4.87,2A8,8,0,0,1,92.08,167.61Zm-11.11,0a6.91,6.91,0,0,0,1.12,4.26,4.44,4.44,0,0,0,6.58,0,8.6,8.6,0,0,0,0-8.49,4,4,0,0,0-3.32-1.44,3.9,3.9,0,0,0-3.28,1.42A6.91,6.91,0,0,0,81,167.61Z"/><path class="cls-1" d="M98.16,174.91H96v-20.7h2.21Z"/><path class="cls-1" d="M115.44,167.61a8,8,0,0,1-1.8,5.57,6.34,6.34,0,0,1-5,2,6.6,6.6,0,0,1-3.48-.92,6.06,6.06,0,0,1-2.34-2.63,9.22,9.22,0,0,1-.82-4,8,8,0,0,1,1.78-5.56,6.33,6.33,0,0,1,5-2,6.15,6.15,0,0,1,4.86,2A8,8,0,0,1,115.44,167.61Zm-11.12,0a7,7,0,0,0,1.12,4.26,4.44,4.44,0,0,0,6.58,0,8.54,8.54,0,0,0,0-8.49,4,4,0,0,0-3.32-1.44,3.89,3.89,0,0,0-3.27,1.42A6.85,6.85,0,0,0,104.32,167.61Z"/><path class="cls-1" d="M131.24,160.33v1.4l-2.7.32a4.69,4.69,0,0,1,.67,1.21,4.81,4.81,0,0,1,.29,1.7,4.32,4.32,0,0,1-1.46,3.42,5.93,5.93,0,0,1-4,1.28,6.86,6.86,0,0,1-1.23-.11,2.18,2.18,0,0,0-1.41,1.88,1,1,0,0,0,.5.88,3.57,3.57,0,0,0,1.69.29h2.58a5.76,5.76,0,0,1,3.64,1,3.48,3.48,0,0,1,1.27,2.9,4.15,4.15,0,0,1-1.94,3.69,10.4,10.4,0,0,1-5.67,1.27A7.73,7.73,0,0,1,119,180.4a3.43,3.43,0,0,1-1.56-3,3.37,3.37,0,0,1,.86-2.3,4.28,4.28,0,0,1,2.39-1.32,2.42,2.42,0,0,1-.94-.78,2.12,2.12,0,0,1-.38-1.24,2.39,2.39,0,0,1,.43-1.4,4.53,4.53,0,0,1,1.34-1.16,4,4,0,0,1-1.84-1.58,5.25,5.25,0,0,1,.73-6.25,5.87,5.87,0,0,1,4.07-1.3,7.29,7.29,0,0,1,2.06.27Zm-11.63,17a2,2,0,0,0,1,1.8,5.5,5.5,0,0,0,2.86.61,8,8,0,0,0,4.12-.83,2.55,2.55,0,0,0,1.34-2.26,1.8,1.8,0,0,0-.73-1.64,5.78,5.78,0,0,0-2.76-.46h-2.65a3.48,3.48,0,0,0-2.34.72A2.57,2.57,0,0,0,119.61,177.36Zm1.2-12.36a3,3,0,0,0,.87,2.32,3.45,3.45,0,0,0,2.4.78c2.16,0,3.24-1,3.24-3.14s-1.09-3.29-3.28-3.29a3.24,3.24,0,0,0-2.39.84A3.38,3.38,0,0,0,120.81,165Z"/><path class="cls-1" d="M131.92,160.33h2.37l3.2,8.32a32,32,0,0,1,1.3,4.11h.11c.11-.45.35-1.23.72-2.32s1.57-4.47,3.61-10.11h2.37l-6.27,16.61a8.28,8.28,0,0,1-2.17,3.49,4.61,4.61,0,0,1-3,1,9,9,0,0,1-2-.22v-1.77a8.14,8.14,0,0,0,1.64.16,3.37,3.37,0,0,0,3.24-2.56l.81-2.08Z"/><path class="cls-1" d="M13.66,206.71H2.27v-2.4l4.09-4.14c1.21-1.24,2-2.1,2.38-2.58a5.92,5.92,0,0,0,.8-1.33A3.45,3.45,0,0,0,9.78,195a1.86,1.86,0,0,0-.54-1.46,2.09,2.09,0,0,0-1.44-.48,4.15,4.15,0,0,0-1.84.44,9.31,9.31,0,0,0-1.86,1.23L2.22,192.5a12.36,12.36,0,0,1,2-1.44A7.3,7.3,0,0,1,6,190.4,8.92,8.92,0,0,1,8,190.17a6.23,6.23,0,0,1,2.7.56,4.29,4.29,0,0,1,1.82,1.56,4.18,4.18,0,0,1,.65,2.3,5.7,5.7,0,0,1-.4,2.11,7.77,7.77,0,0,1-1.23,2,29.27,29.27,0,0,1-2.92,3l-2.1,2v.16h7.1Z"/><path class="cls-1" d="M26.6,198.56q0,4.26-1.39,6.32a4.86,4.86,0,0,1-4.31,2.05,4.82,4.82,0,0,1-4.26-2.12,11.24,11.24,0,0,1-1.43-6.25q0-4.32,1.4-6.36a4.8,4.8,0,0,1,4.29-2,4.82,4.82,0,0,1,4.26,2.14A11.27,11.27,0,0,1,26.6,198.56Zm-8,0a12.74,12.74,0,0,0,.52,4.29,1.82,1.82,0,0,0,3.49,0,12.56,12.56,0,0,0,.53-4.28,12.3,12.3,0,0,0-.54-4.31,1.8,1.8,0,0,0-3.47,0A12.6,12.6,0,0,0,18.63,198.56Z"/><path class="cls-1" d="M36.85,206.71H33.4v-9.43l0-1.55.05-1.7c-.57.57-1,.95-1.19,1.13l-1.87,1.5-1.66-2.07L34,190.41h2.83Z"/><path class="cls-1" d="M47,190.2a6.2,6.2,0,0,1,3.78,1.06,3.41,3.41,0,0,1,1.43,2.87,3.78,3.78,0,0,1-.69,2.23,5.9,5.9,0,0,1-2.23,1.74,7.8,7.8,0,0,1,2.62,2.05,3.8,3.8,0,0,1,.8,2.33,3.89,3.89,0,0,1-1.57,3.23A6.59,6.59,0,0,1,47,206.93a6.89,6.89,0,0,1-4.2-1.14,3.78,3.78,0,0,1-1.53-3.22A4.28,4.28,0,0,1,42,200.1a6.23,6.23,0,0,1,2.38-1.91,6.3,6.3,0,0,1-2-1.88,4.13,4.13,0,0,1-.62-2.2,3.38,3.38,0,0,1,1.45-2.83A6.18,6.18,0,0,1,47,190.2Zm-2.54,12.17a1.78,1.78,0,0,0,.67,1.49,2.85,2.85,0,0,0,1.83.54,2.93,2.93,0,0,0,1.92-.55,1.86,1.86,0,0,0,.63-1.46,2,2,0,0,0-.63-1.4,8.25,8.25,0,0,0-2-1.38C45.23,200.33,44.44,201.26,44.44,202.37ZM47,192.72a2.14,2.14,0,0,0-1.42.45,1.49,1.49,0,0,0-.54,1.21,1.86,1.86,0,0,0,.43,1.2A4.65,4.65,0,0,0,47,196.66a4.29,4.29,0,0,0,1.53-1,1.86,1.86,0,0,0,.43-1.23,1.47,1.47,0,0,0-.55-1.22A2.26,2.26,0,0,0,47,192.72Z"/><path class="cls-1" d="M15,230.59a9.1,9.1,0,0,1-2.43,6.79,9.32,9.32,0,0,1-6.82,2.38H0v-17.6H6.09a9.22,9.22,0,0,1,6.55,2.16A8.2,8.2,0,0,1,15,230.59Zm-4.94.16a5.55,5.55,0,0,0-1-3.58A3.54,3.54,0,0,0,6.14,226H4.76v9.86H5.82A3.85,3.85,0,0,0,9,234.6,6.11,6.11,0,0,0,10,230.75Z"/><path class="cls-1" d="M24.41,240a7.3,7.3,0,0,1-5.29-1.81A6.82,6.82,0,0,1,17.23,233,7.44,7.44,0,0,1,19,227.72a6.51,6.51,0,0,1,5-1.84,6.63,6.63,0,0,1,4.77,1.6,6.13,6.13,0,0,1,1.68,4.63v2.1H22a2.31,2.31,0,0,0,.84,1.79,3.23,3.23,0,0,0,2.15.65,10.24,10.24,0,0,0,2.28-.23,11.44,11.44,0,0,0,2.26-.8V239a8.53,8.53,0,0,1-2.29.79A16.4,16.4,0,0,1,24.41,240Zm-.28-10.92a2,2,0,0,0-1.39.52,2.46,2.46,0,0,0-.65,1.65h4a2.3,2.3,0,0,0-.56-1.58A1.85,1.85,0,0,0,24.13,229.08Z"/><path class="cls-1" d="M37.78,239.76H33.07V221h4.71Z"/><path class="cls-1" d="M54.07,232.91a7.23,7.23,0,0,1-1.8,5.22,6.65,6.65,0,0,1-5,1.87,6.54,6.54,0,0,1-4.94-1.91,8.3,8.3,0,0,1,0-10.37,6.72,6.72,0,0,1,5-1.84,7.24,7.24,0,0,1,3.56.85,5.84,5.84,0,0,1,2.37,2.45A7.92,7.92,0,0,1,54.07,232.91Zm-8.84,0a6.13,6.13,0,0,0,.47,2.68,1.64,1.64,0,0,0,1.58.92,1.59,1.59,0,0,0,1.55-.92,6.32,6.32,0,0,0,.45-2.68,6.07,6.07,0,0,0-.46-2.64,1.81,1.81,0,0,0-3.12,0A5.85,5.85,0,0,0,45.23,232.91Z"/><path class="cls-1" d="M56.66,222.72a2,2,0,0,1,.59-1.58,2.88,2.88,0,0,1,1.9-.51,2.82,2.82,0,0,1,1.92.53,2,2,0,0,1,.6,1.56q0,2.07-2.52,2.07T56.66,222.72Zm4.83,17H56.78V226.12h4.71Z"/><path class="cls-1" d="M71.46,236.28a7.17,7.17,0,0,0,2.28-.47v3.43a9.14,9.14,0,0,1-1.82.59,10.7,10.7,0,0,1-2,.17,4.39,4.39,0,0,1-3.42-1.16,5.18,5.18,0,0,1-1-3.57v-5.62H63.79v-1.92l2.09-1.48,1.22-2.87h3.08v2.74h3.35v3.53H70.18V235A1.15,1.15,0,0,0,71.46,236.28Z"/><path class="cls-1" d="M82.8,236.28a7.06,7.06,0,0,0,2.28-.47v3.43a9.06,9.06,0,0,1-1.81.59,10.89,10.89,0,0,1-2,.17,4.39,4.39,0,0,1-3.42-1.16,5.18,5.18,0,0,1-1-3.57v-5.62H75.13v-1.92l2.1-1.48,1.22-2.87h3.08v2.74h3.35v3.53H81.53V235C81.53,235.84,82,236.28,82.8,236.28Z"/><path class="cls-1" d="M94.05,240a7.32,7.32,0,0,1-5.29-1.81A6.81,6.81,0,0,1,86.88,233a7.48,7.48,0,0,1,1.74-5.31,6.54,6.54,0,0,1,5-1.84,6.62,6.62,0,0,1,4.76,1.6,6.13,6.13,0,0,1,1.68,4.63v2.1H91.63a2.31,2.31,0,0,0,.84,1.79,3.23,3.23,0,0,0,2.15.65,10.18,10.18,0,0,0,2.28-.23,11.44,11.44,0,0,0,2.26-.8V239a8.41,8.41,0,0,1-2.29.79A16.4,16.4,0,0,1,94.05,240Zm-.28-10.92a2,2,0,0,0-1.39.52,2.46,2.46,0,0,0-.65,1.65h4a2.3,2.3,0,0,0-.56-1.58A1.84,1.84,0,0,0,93.77,229.08Z"/><path class="cls-2" d="M102.12,237.76a2.19,2.19,0,0,1,.66-1.71,2.72,2.72,0,0,1,1.91-.6,2.59,2.59,0,0,1,1.83.6,2.25,2.25,0,0,1,.63,1.71,2.16,2.16,0,0,1-.65,1.69,2.54,2.54,0,0,1-1.81.61,2.74,2.74,0,0,1-1.88-.6A2.14,2.14,0,0,1,102.12,237.76Z"/><path class="cls-1" d="M81.48,206.71H79.32L70.42,193h-.09c.12,1.6.17,3.08.17,4.41v9.27H68.75v-16.3h2.14L79.78,204h.09c0-.2-.05-.84-.1-1.93s-.07-1.87-.06-2.34v-9.35h1.77Z"/><path class="cls-1" d="M100.11,198.54a9,9,0,0,1-2,6.15,8,8,0,0,1-11,0,9,9,0,0,1-2-6.22,8.93,8.93,0,0,1,2-6.17,7.1,7.1,0,0,1,5.57-2.19,7,7,0,0,1,5.49,2.23A9,9,0,0,1,100.11,198.54Zm-13,0a7.74,7.74,0,0,0,1.41,5,5,5,0,0,0,4.09,1.71,4.94,4.94,0,0,0,4.09-1.71,9.74,9.74,0,0,0,0-10,4.93,4.93,0,0,0-4.08-1.7,5,5,0,0,0-4.11,1.71A7.66,7.66,0,0,0,87.13,198.54Z"/><path class="cls-1" d="M105.64,199.93v6.78h-1.89v-16.3h4.47a7,7,0,0,1,4.43,1.15,4.15,4.15,0,0,1,1.43,3.45,4.32,4.32,0,0,1-3.28,4.37l4.43,7.33H113L109,199.93Zm0-1.63h2.6a4.42,4.42,0,0,0,2.94-.8,2.94,2.94,0,0,0,.94-2.39,2.75,2.75,0,0,0-1-2.33,5.23,5.23,0,0,0-3.06-.71h-2.47Z"/><path class="cls-1" d="M122.88,206.71H121V192.09h-5.16v-1.68H128v1.68h-5.16Z"/><path class="cls-1" d="M142.86,206.71H141V199h-8.59v7.67h-1.89v-16.3h1.89v6.93H141v-6.93h1.89Z"/><path class="cls-1" d="M163.51,206.71l-2-5.19H155l-2,5.19H151l6.45-16.37h1.59l6.41,16.37Zm-2.62-6.89-1.9-5c-.24-.64-.49-1.43-.75-2.35a22.11,22.11,0,0,1-.71,2.35l-1.91,5Z"/><path class="cls-1" d="M174.92,206.71l-5.53-14.45h-.08q.15,1.71.15,4.08v10.37h-1.75v-16.3h2.86l5.16,13.44h.09l5.2-13.44h2.83v16.3H182v-10.5q0-1.82.15-3.93H182l-5.57,14.43Z"/><path class="cls-1" d="M197.41,206.71h-9.09v-16.3h9.09v1.68h-7.19v5.25H197V199h-6.75v6h7.19Z"/><path class="cls-1" d="M202.92,199.93v6.78H201v-16.3h4.47a7,7,0,0,1,4.43,1.15,4.13,4.13,0,0,1,1.43,3.45,4.33,4.33,0,0,1-3.27,4.37l4.42,7.33h-2.24l-3.94-6.78Zm0-1.63h2.59a4.46,4.46,0,0,0,3-.8,3,3,0,0,0,.93-2.39,2.75,2.75,0,0,0-.95-2.33,5.23,5.23,0,0,0-3.06-.71h-2.46Z"/><path class="cls-1" d="M215.13,206.71v-16.3H217v16.3Z"/><path class="cls-1" d="M228.48,191.87a5.35,5.35,0,0,0-4.25,1.79,7.23,7.23,0,0,0-1.55,4.9,7.35,7.35,0,0,0,1.5,4.94,5.33,5.33,0,0,0,4.27,1.75,14.52,14.52,0,0,0,3.89-.62v1.66a11.82,11.82,0,0,1-4.18.64,7,7,0,0,1-5.55-2.19,8.94,8.94,0,0,1-2-6.2,9.79,9.79,0,0,1,.94-4.42,6.8,6.8,0,0,1,2.72-2.92,8.29,8.29,0,0,1,4.19-1,10.16,10.16,0,0,1,4.48.94l-.8,1.63A8.66,8.66,0,0,0,228.48,191.87Z"/><path class="cls-1" d="M246.14,206.71l-2-5.19h-6.54l-2,5.19h-1.92l6.44-16.37h1.6l6.41,16.37Zm-2.62-6.89-1.89-5c-.25-.64-.5-1.43-.76-2.35a21.89,21.89,0,0,1-.7,2.35l-1.92,5Z"/><path class="cls-2" d="M158.5,174.91h-5.18V155.46h11.5v4.22H158.5v3.71h5.83v4.22H158.5Z"/><path class="cls-2" d="M177.54,174.91l-1-2h-.1a5.9,5.9,0,0,1-2.15,1.78,7,7,0,0,1-2.82.48,4.39,4.39,0,0,1-3.35-1.28,5,5,0,0,1-1.23-3.59,4.09,4.09,0,0,1,1.68-3.59,9.26,9.26,0,0,1,4.86-1.32l2.51-.08v-.21a1.64,1.64,0,0,0-1.83-1.87,11.06,11.06,0,0,0-4.19,1.12l-1.51-3.43a14.43,14.43,0,0,1,6.66-1.36,6.46,6.46,0,0,1,4.49,1.44,5.15,5.15,0,0,1,1.59,4v9.88Zm-3.86-3.4a2.35,2.35,0,0,0,1.62-.6,2,2,0,0,0,.67-1.56v-1.17l-1.2,0c-1.71.07-2.57.7-2.57,1.89C172.2,171.05,172.7,171.51,173.68,171.51Z"/><path class="cls-2" d="M196.33,170.28a4.27,4.27,0,0,1-1.65,3.66,7.76,7.76,0,0,1-4.74,1.24A20.4,20.4,0,0,1,187,175a12.28,12.28,0,0,1-2.53-.66v-4.16a16.14,16.14,0,0,0,2.65.88,11.31,11.31,0,0,0,2.58.34c1.13,0,1.69-.26,1.69-.77a.88.88,0,0,0-.47-.71,20.94,20.94,0,0,0-2.75-1.22,6.83,6.83,0,0,1-2.9-1.94,4.38,4.38,0,0,1-.83-2.74,3.79,3.79,0,0,1,1.63-3.28,7.75,7.75,0,0,1,4.59-1.17,11.43,11.43,0,0,1,2.8.33,16.71,16.71,0,0,1,2.72.95l-1.41,3.35a15.84,15.84,0,0,0-2.2-.79,7.2,7.2,0,0,0-1.89-.33c-.85,0-1.27.21-1.27.63a.76.76,0,0,0,.44.66,25.34,25.34,0,0,0,2.58,1.11,9.73,9.73,0,0,1,2.36,1.28,3.67,3.67,0,0,1,1.14,1.47A5,5,0,0,1,196.33,170.28Z"/><path class="cls-2" d="M206.6,171.07a7.69,7.69,0,0,0,2.52-.52v3.79a10.53,10.53,0,0,1-2,.65,11.31,11.31,0,0,1-2.23.19,4.89,4.89,0,0,1-3.78-1.28,5.72,5.72,0,0,1-1.16-4v-6.21h-1.82v-2.12l2.31-1.64,1.35-3.16h3.4v3h3.7v3.9h-3.7v5.87A1.27,1.27,0,0,0,206.6,171.07Z"/><path class="cls-2" d="M225.87,162.17a6,6,0,0,1,3,.78,5.31,5.31,0,0,1,2.1,2.2,6.93,6.93,0,0,1,.75,3.28,6.34,6.34,0,0,1-2,5q-2,1.74-5.94,1.74a12.7,12.7,0,0,1-5.56-1.05v-4.31a14.25,14.25,0,0,0,2.61.88,11.11,11.11,0,0,0,2.51.34,3.51,3.51,0,0,0,2.25-.62,2.19,2.19,0,0,0,.78-1.83,2.09,2.09,0,0,0-.79-1.74,3.9,3.9,0,0,0-2.43-.62,8.71,8.71,0,0,0-2.67.46l-1.93-1,.73-10.27h11.1v4.38h-6.63l-.24,2.57a10.44,10.44,0,0,1,1.48-.22C225.35,162.17,225.62,162.17,225.87,162.17Z"/><path class="cls-2" d="M248,165.21q0,5.17-1.73,7.57a6.11,6.11,0,0,1-5.3,2.4,6,6,0,0,1-5.26-2.51q-1.77-2.5-1.77-7.46c0-3.46.58-6,1.73-7.61a6.09,6.09,0,0,1,5.3-2.42,6,6,0,0,1,5.25,2.52C247.42,159.38,248,161.89,248,165.21Zm-8.83,0a16.31,16.31,0,0,0,.42,4.54c.27.83.73,1.24,1.38,1.24s1.12-.43,1.39-1.28a24.77,24.77,0,0,0,0-9q-.41-1.29-1.38-1.29c-.65,0-1.11.41-1.38,1.25A16.57,16.57,0,0,0,239.19,165.21Z"/><path class="cls-2" d="M264,165.21c0,3.45-.57,6-1.73,7.57a6.09,6.09,0,0,1-5.29,2.4,6,6,0,0,1-5.26-2.51q-1.77-2.5-1.77-7.46c0-3.46.58-6,1.73-7.61a6.87,6.87,0,0,1,10.55.1C263.39,159.38,264,161.89,264,165.21Zm-8.82,0a16.84,16.84,0,0,0,.41,4.54c.28.83.74,1.24,1.39,1.24s1.12-.43,1.39-1.28a17,17,0,0,0,.4-4.5,16.83,16.83,0,0,0-.41-4.53q-.4-1.29-1.38-1.29c-.65,0-1.11.41-1.39,1.25A17.1,17.1,0,0,0,255.16,165.21Z"/><path class="cls-2" d="M248,8.15h-1.34v-7h-2.39V0h6.12V1.14H248Z"/><path class="cls-2" d="M255.15,8.15l-2.36-6.81h0q.09,1.52.09,2.85v4h-1.21V0h1.88l2.26,6.48h0L258.14,0H260V8.15h-1.28v-4c0-.41,0-.93,0-1.58s0-1,.05-1.19h0l-2.45,6.8Z"/><path class="cls-2" d="M41.88,41.48q15.75,0,25.09,8.84T76.3,74.56q0,18.22-11.23,28T33,112.41q-18.14,0-29.29-5.88V86.68a60.7,60.7,0,0,0,13.68,5.09,60.22,60.22,0,0,0,14.8,2q21,0,21-17.25,0-16.42-21.79-16.43a54.1,54.1,0,0,0-8.7.78A62.35,62.35,0,0,0,15,62.52L5.81,57.61,9.9,2.22h59V21.7H30.05L28.05,43l2.6-.52A50.77,50.77,0,0,1,41.88,41.48Z"/><path class="cls-2" d="M164.63,56.57q0,28.47-9.33,42.16t-28.74,13.68q-18.81,0-28.36-14.13T88.64,56.57q0-28.77,9.3-42.42T126.56.51Q145.37.51,155,14.78T164.63,56.57Zm-53.16,0q0,20,3.46,28.66t11.63,8.66q8,0,11.6-8.77t3.57-28.55q0-20-3.61-28.74T126.56,19.1q-8.1,0-11.6,8.73T111.47,56.57Z"/><path class="cls-2" d="M251.55,56.57q0,28.47-9.34,42.16t-28.73,13.68q-18.81,0-28.37-14.13t-9.55-41.71q0-28.77,9.29-42.42T213.48.51q18.81,0,28.44,14.27T251.55,56.57Zm-53.17,0q0,20,3.46,28.66t11.64,8.66q8,0,11.6-8.77t3.57-28.55q0-20-3.61-28.74T213.48,19.1q-8.11,0-11.6,8.73T198.38,56.57Z"/><rect class="cls-1" x="0.05" y="132.5" width="260.62" height="1.25"/></g></g></svg>