<?xml version="1.0" encoding="UTF-8"?> <svg xmlns="http://www.w3.org/2000/svg" xmlns:xlink="http://www.w3.org/1999/xlink" width="108px" height="35px" viewBox="0 0 108 35"><!-- Generator: Sketch 55.2 (78181) - https://sketchapp.com --><title>dunkin</title><desc>Created with Sketch.</desc><g id="Page-1" stroke="none" stroke-width="1" fill="none" fill-rule="evenodd"><g id="Rokt-Calendar-1440" transform="translate(-520.000000, -4021.000000)" fill="#FFFFFF" fill-rule="nonzero"><g id="Group-7" transform="translate(264.000000, 3747.000000)"><g id="Group-2" transform="translate(30.000000, 262.000000)"><g id="dunkin" transform="translate(225.959366, 12.121693)"><path d="M14.7547126,25.2744974 C13.9978306,25.7507845 13.2096072,26.1752467 12.395447,26.5449735 C9.64301141,27.6007721 6.54034872,27.1511532 4.20010322,25.3573545 C-1.36003741,21.4906878 -0.973724905,11.7273545 5.41422822,8.59259259 C8.05717654,7.15898749 11.2727157,7.29154462 13.7889313,8.93783069 L14.161447,9.17259259 L14.4649782,9.17259259 C14.4649782,8.60640212 14.4649782,8.05402116 14.4649782,7.48783069 C14.4649782,6.10687831 14.4649782,4.80878307 14.4649782,3.46925926 C14.5615563,1.68783069 15.485947,0.583068783 17.1139782,0.541640157 C17.8683116,0.541640157 18.5873145,0.861575327 19.0923728,1.42238803 C19.5974311,1.98320072 19.8411475,2.73210871 19.7629782,3.48306878 C19.680197,7.00449735 19.7629782,10.5397354 19.7629782,14.061164 C19.7629782,17.1360847 19.7629782,20.2156085 19.7629782,23.2997354 C19.7629782,23.7554497 19.7629782,24.1973545 19.7629782,24.6806878 C19.7838113,25.7149419 19.0934805,26.628613 18.0935563,26.8902116 C17.0853773,27.2075411 15.9862468,26.8664983 15.3341813,26.0340212 C15.044447,25.7578307 14.9064782,25.4954497 14.7547126,25.2744974 Z M14.6305407,17.3064021 C14.7332644,15.6925951 13.9359628,14.1542407 12.5587018,13.3088904 C11.1814408,12.4635402 9.45005331,12.4498082 8.05958136,13.273207 C6.66910941,14.0966059 5.84755215,15.6221208 5.92471259,17.2373545 C5.90248517,18.4199857 6.35635085,19.5618797 7.18415797,20.40603 C8.0119651,21.2501804 9.14415871,21.725659 10.3259157,21.7254498 C11.4834104,21.7145622 12.5887406,21.2419402 13.3968235,20.4123774 C14.2049063,19.5828146 14.6489656,18.4648623 14.6305407,17.3064021 Z" id="Shape"></path><path d="M63.7750095,13.743545 L69.9146188,8.88259259 C70.3443613,8.52734373 70.8062556,8.21296766 71.2943063,7.94354497 C72.4463954,7.34879229 73.8602847,7.69669206 74.6055563,8.75830688 C75.0190514,9.23809168 75.2251867,9.8626393 75.178613,10.4945508 C75.1320393,11.1264624 74.8365718,11.7139726 74.3572126,12.1278307 C73.5855845,12.7928149 72.7747045,13.4107555 71.9289626,13.9783069 C70.7700251,14.8344974 69.5972907,15.6768783 68.355572,16.5744974 C68.6453063,16.8921164 68.8798532,17.1821164 69.1557907,17.4444974 C70.7976188,19.0325926 72.4532438,20.6068783 74.0674782,22.2225926 C75.0053533,22.9541438 75.3143271,24.2369878 74.8125095,25.3159259 C74.4955433,26.0978609 73.825642,26.6820868 73.008387,26.8893146 C72.1911321,27.0965423 71.3241292,26.9020224 70.673447,26.3654497 C70.1811197,25.9091907 69.7201729,25.4201391 69.2937595,24.9016402 C67.4863688,23.0097354 65.6927751,21.1040212 63.7750095,19.0602116 C63.7750095,20.5378307 63.7750095,21.8221164 63.7750095,23.0925926 C63.7795109,23.6898197 63.7287051,24.2861793 63.6232438,24.8740212 C63.3976325,26.1859366 62.1843331,27.0906733 60.8638688,26.9316402 C59.5609514,26.8923141 58.4995286,25.8716978 58.4080251,24.5702116 C58.3874963,24.1746053 58.3874963,23.778199 58.4080251,23.3825926 L58.4080251,4.28402116 C58.4080251,3.82830688 58.4080251,3.38640212 58.4080251,2.90306878 C58.4732832,1.6024952 59.5354114,0.575635352 60.8362751,0.555449735 C62.1890134,0.400532425 63.4164144,1.3587829 63.5956501,2.70973545 C63.7083044,3.28305025 63.7683409,3.86547559 63.7750095,4.44973545 C63.7750095,7.51544974 63.7750095,10.5397354 63.7750095,13.743545 Z" id="Shape"></path><path d="M26.8131813,20.8002116 C26.8131813,22.2502116 26.744197,23.6864021 26.8131813,25.1225926 C26.9155306,26.4096199 27.8444287,27.4793921 29.1034626,27.7602116 C30.403427,28.096641 31.7692509,27.5340582 32.4561032,26.3792593 C32.8051826,25.6744975 32.9936711,24.9009858 33.0079782,24.1144974 C33.0769626,21.8773545 33.0079782,19.6402116 33.0079782,17.4030688 C32.9713626,16.9434808 32.9713626,16.4817044 33.0079782,16.0221164 C33.208042,14.7950739 34.2370223,13.8744718 35.4776188,13.8125926 C36.7112006,13.7474657 37.8195096,14.5621263 38.1266188,15.7597354 C38.2069648,15.9959435 38.2534175,16.2423681 38.2645876,16.4916402 C38.2645876,19.571164 38.3473688,22.6644974 38.0576345,25.7164021 C37.5131149,30.0062668 33.7976154,33.1774833 29.4794783,33.0379454 C25.1613412,32.8984075 21.6579424,29.4939169 21.3910095,25.1778307 C21.2668376,22.3054497 21.3910095,19.4192593 21.3910095,16.5330688 C21.3187996,15.5220238 21.8637802,14.5674333 22.770697,14.1164021 C23.6258928,13.6545291 24.6689241,13.7187745 25.4610876,14.2821164 C26.2521793,14.8355251 26.6968935,15.762426 26.633822,16.7264021 C26.633822,18.1073545 26.633822,19.4054497 26.633822,20.7449735 L26.8131813,20.8002116 Z" id="Shape"></path><path d="M101.109358,19.9302116 C101.109358,21.4216402 101.109358,22.9130688 101.109358,24.4044974 C101.110956,25.21764 100.725728,25.9829808 100.071906,26.4656162 C99.4180849,26.9482515 98.5737695,27.0905302 97.7981032,26.8487831 C96.6471565,26.549352 95.8638828,25.4828925 95.9217282,24.2940212 C95.9217282,22.2087831 95.9217282,20.151164 95.9217282,18.0244974 C95.9146593,17.2301256 95.85937,16.4369178 95.7561657,15.6492593 C95.5746663,14.1912449 94.3851943,13.0671218 92.920503,12.9693862 C91.4558117,12.8716506 90.1277828,13.8277864 89.7545251,15.2487831 C89.6033961,15.8207194 89.5337237,16.4111529 89.547572,17.0025926 C89.547572,19.4468783 89.547572,21.8773545 89.547572,24.3078307 C89.6123403,25.7416671 88.503556,26.9565744 87.0710329,27.0214021 C85.6385098,27.0862298 84.4247153,25.976429 84.359947,24.5425926 C84.2909626,23.2997354 84.359947,22.0568783 84.359947,20.8140212 C84.359947,19.1292593 84.359947,17.4306878 84.359947,15.7459259 C84.4537475,11.9811955 87.0722444,8.75329359 90.7341032,7.88830688 C94.3877954,7.10476016 98.136448,8.72309111 100.074588,11.9206878 C100.691852,13.0519529 101.018958,14.3188709 101.026572,15.6078307 C101.026572,17.0578307 101.026572,18.4940212 101.026572,19.9302116 L101.109358,19.9302116 Z" id="Shape"></path><path d="M39.9064157,19.8887831 C39.9064157,18.5078307 39.9064157,17.2097354 39.9064157,15.8702116 C39.9902485,12.1706822 42.4840076,8.96228229 46.0460251,7.97116402 C49.5645777,7.05610563 53.2785559,8.44805298 55.331322,11.451164 C56.1781016,12.6350773 56.6579428,14.042301 56.7110095,15.4973545 C56.766197,18.4433862 56.766197,21.3756085 56.7110095,24.2940212 C56.7548836,24.9988183 56.4971904,25.6890287 56.0022789,26.1922988 C55.5073674,26.6955688 54.8219548,26.9643921 54.117197,26.9316402 C53.4108955,26.9483876 52.7298933,26.6681684 52.2395838,26.1590388 C51.7492744,25.6499091 51.494516,24.9584493 51.5371813,24.2525926 C51.5371813,21.9187831 51.5371813,19.5849735 51.5371813,17.251164 C51.5371813,16.6573545 51.4406032,16.063545 51.3854157,15.483545 C51.1403595,14.0195427 49.8826063,12.9415876 48.3996556,12.9246046 C46.9167049,12.9076216 45.6346395,13.9564904 45.3561813,15.4144974 C45.2343281,16.0470004 45.1742586,16.6898713 45.176822,17.3340212 C45.176822,19.6678307 45.176822,22.0016402 45.176822,24.3354497 C45.2421757,25.6435573 44.2713216,26.7732099 42.969322,26.9040212 C42.2230772,27.0302793 41.4592051,26.8203906 40.8819555,26.3304768 C40.3047059,25.840563 39.9729518,25.1205897 39.9754001,24.3630688 L39.9754001,19.8887831 L39.9064157,19.8887831 Z" id="Shape"></path><path d="M76.9096345,17.4030688 L76.9096345,11.1473545 C76.8676273,10.7525979 76.8676273,10.354492 76.9096345,9.95973545 C77.1409874,8.74263017 78.1835976,7.84814494 79.4206657,7.80540119 C80.6156958,7.79838942 81.6794486,8.56209488 82.0558688,9.6973545 C82.1751111,10.1479631 82.2354014,10.61216 82.2352282,11.0783069 L82.2352282,23.603545 C82.2402121,24.0021994 82.2032162,24.4002699 82.1248532,24.791164 C81.8974656,26.10922 80.715902,27.0450941 79.3820454,26.9636436 C78.0481887,26.8821931 76.9890519,25.8094932 76.9234313,24.473545 C76.9234313,23.3825926 76.9234313,22.2778307 76.9234313,21.1868783 L76.9234313,17.4583069 L76.9096345,17.4030688 Z" id="Shape"></path><path d="M101.633634,8.33021164 C101.771603,6.7421164 101.881978,5.15402116 102.019947,3.57973545 C102.075041,3.11046874 102.176721,2.6478655 102.323478,2.19878307 C102.649061,1.09255298 103.654904,0.326293108 104.806916,0.306878307 C105.936866,0.250373328 106.965029,0.957176766 107.317947,2.03306878 C107.523915,2.69361824 107.608067,3.38617024 107.566291,4.07687831 C107.455916,5.85830688 107.276556,7.63973545 107.069603,9.4073545 C107.000546,9.99658429 106.822772,10.5678557 106.545322,11.0921164 C106.049798,12.1303908 104.91312,12.6992509 103.785947,12.4730688 C102.606615,12.2793966 101.712137,11.3042627 101.619838,10.1116402 C101.585335,9.51833279 101.585335,8.92351906 101.619838,8.33021164 L101.633634,8.33021164 Z" id="Shape"></path><path d="M82.6491345,3.66259259 C82.597093,5.38117253 81.1936347,6.74927199 79.4758532,6.75592593 C77.7630125,6.69121836 76.3935838,5.30845762 76.3439626,3.59354497 C76.3816883,1.82182187 77.8435876,0.414148448 79.613822,0.444973545 C81.3349984,0.505019956 82.6879477,1.9392299 82.6491345,3.66259259 Z" id="Shape"></path><path d="M92.086197,29.2240212 C92.086197,28.5887831 92.086197,28.0502116 92.086197,27.5116402 C92.0671223,27.3092166 92.1314531,27.1077744 92.2642944,26.9539544 C92.3971357,26.8001343 92.5869677,26.7072756 92.7898376,26.6968783 C93.0171994,26.666905 93.2459084,26.7414542 93.4120354,26.8996877 C93.5781623,27.0579212 93.6638857,27.2828642 93.6452438,27.5116402 C93.6452438,29.5968783 93.6452438,31.6544974 93.6452438,33.7673545 C93.6452438,34.4854497 93.2313376,34.7616402 92.5552907,34.5130688 C92.1942361,34.3822679 91.7987985,34.3822679 91.4377438,34.5130688 C90.2699782,34.9531657 88.9541342,34.5083724 88.2920563,33.4497354 C87.6212706,32.421884 87.6212706,31.0942535 88.2920563,30.0664021 C88.9278557,28.9920086 90.2406279,28.5268844 91.4101501,28.9616402 C91.5757126,29.0444974 91.755072,29.113545 92.086197,29.2240212 Z M92.086197,31.7373545 C92.0285301,31.0181242 91.4273875,30.464566 90.7065095,30.4668783 C90.2255279,30.4462128 89.774263,30.6996817 89.541288,31.1213661 C89.3083131,31.5430506 89.3337314,32.0603636 89.6069213,32.4571319 C89.8801111,32.8539002 90.3540468,33.0618258 90.8306813,32.9940212 C91.4986597,32.9361249 92.0283537,32.4059452 92.086197,31.7373545 Z" id="Shape"></path><path d="M66.8379157,29.3068783 C67.7524159,28.8207757 68.8483531,28.8207757 69.7628532,29.3068783 C70.9595744,30.1029541 71.4464083,31.622122 70.9355876,32.9664021 C70.4573432,34.2203543 69.1476493,34.948629 67.8312907,34.6925926 C67.2794157,34.5959259 66.7965251,34.333545 66.148072,34.6925926 C65.4996188,35.0516402 65.265072,34.4164021 65.265072,33.8364021 C65.265072,32.4554497 65.265072,31.1573545 65.265072,29.8178307 C65.265072,29.1273545 65.265072,28.4368783 65.265072,27.7464021 C65.2332836,27.51798 65.3014102,27.2869281 65.4520148,27.1123839 C65.6026195,26.9378398 65.8210844,26.8367446 66.0514938,26.8349735 C66.2817978,26.8243297 66.504818,26.9171848 66.6596364,27.0881754 C66.8144547,27.2591661 66.8848936,27.4904248 66.8517126,27.7187831 L66.8379157,29.3068783 Z M68.1072282,33.0630688 C68.8257997,33.0053491 69.3788509,32.4036553 69.3765479,31.6821164 C69.2733823,31.0012543 68.6848252,30.5005222 67.9968532,30.5083069 C67.6452972,30.5188141 67.3130804,30.6717856 67.0763633,30.9321527 C66.8396463,31.1925198 66.7187312,31.537952 66.7413376,31.8892593 C66.8677012,32.5429349 67.442061,33.0132965 68.1072282,33.0078307 L68.1072282,33.0630688 Z" id="Shape"></path><path d="M81.4350095,31.8064021 C81.4694385,32.4503859 81.4694385,33.0957517 81.4350095,33.7397354 C81.4350095,34.5268783 80.9659157,34.8168783 80.2346813,34.4578307 C79.8983061,34.2786132 79.4949004,34.2786132 79.1585251,34.4578307 C78.0645777,34.9066057 76.8059373,34.5401201 76.1232126,33.5740212 C75.339205,32.5640617 75.2783441,31.1685167 75.971447,30.0940212 C76.5802674,29.0676008 77.809892,28.5889751 78.951572,28.9340212 C79.4438032,29.1272569 79.9907938,29.1272569 80.4830251,28.9340212 C81.0211032,28.7130688 81.4074157,29.0583069 81.4626032,29.7073545 C81.5177907,30.3564021 81.4626032,31.0883069 81.4626032,31.7925926 L81.4350095,31.8064021 Z M78.4410876,30.4254497 C78.1166768,30.4254497 77.80575,30.5553563 77.5776566,30.7862532 C77.3495632,31.01715 77.2232761,31.3298102 77.2269626,31.6544974 C77.2708088,32.3846399 77.875861,32.9539103 78.6066501,32.9525949 C79.2746284,32.8946963 79.8043225,32.3645167 79.8621657,31.6959259 C79.7765096,30.982471 79.1585218,30.4539974 78.4410876,30.4806878 L78.4410876,30.4254497 Z" id="Shape"></path><path d="M87.229697,32.5383069 C87.229697,32.8421164 87.229697,33.1321164 87.229697,33.4359259 C87.229697,34.2230688 86.898572,34.6787831 86.4156813,34.6097354 C85.7120407,34.4992593 85.6154626,33.9606878 85.6154626,33.3806878 L85.6154626,32.0687831 C85.6360702,31.8252508 85.6360702,31.5804106 85.6154626,31.3368783 C85.5581067,30.8684306 85.1481178,30.5244484 84.6772751,30.5497354 C84.4502259,30.5530163 84.2344913,30.6495055 84.0805806,30.8166125 C83.92667,30.9837195 83.8480976,31.2067711 83.8632595,31.433545 C83.8632595,31.9306878 83.8632595,32.4278307 83.8632595,32.9249735 C83.9073215,33.2676557 83.8791213,33.6157774 83.7804782,33.9468783 C83.6145534,34.2727466 83.3189814,34.5134325 82.9664626,34.6097354 C82.7595095,34.6097354 82.2904157,34.2644974 82.262822,34.0297354 C81.9947258,32.7585761 82.0903684,31.4374992 82.5387595,30.2183069 C83.0079337,29.2456604 84.0736629,28.7123073 85.132572,28.9202116 C86.2597779,29.0526114 87.1403438,29.957027 87.2434938,31.0883069 C87.2710805,31.5850663 87.2710805,32.082976 87.2434938,32.5797354 L87.229697,32.5383069 Z" id="Shape"></path><path d="M97.4117907,32.7316402 L95.8527438,32.0687831 C94.8317751,31.6544974 94.3626813,31.0054497 94.4730563,30.2044974 C94.6846283,29.3031011 95.5420594,28.7071169 96.4598063,28.823545 C97.040292,28.8960084 97.5968689,29.0990147 98.0878376,29.4173545 C98.267197,29.5140212 98.3223845,30.0387831 98.2258063,30.301164 C98.1292282,30.563545 97.7429157,30.6049735 97.5083688,30.5773545 C97.1164083,30.4932804 96.7330607,30.3730855 96.3632282,30.2183069 L96.2390563,30.5497354 C96.6667595,30.7154497 97.0944626,30.9087831 97.5359626,31.0468783 C98.2994912,31.216182 98.8608456,31.8679502 98.9156501,32.6487831 C98.8783791,33.4779416 98.3270854,34.1952804 97.5359626,34.4440212 C96.4441293,34.8872419 95.1915848,34.587687 94.4178688,33.6983069 C94.253357,33.5418776 94.1602113,33.3247135 94.1602113,33.0975926 C94.1602113,32.8704717 94.253357,32.6533076 94.4178688,32.4968783 C94.7627907,32.1516402 95.1077126,32.2483069 95.4940251,32.4968783 C95.8803376,32.7454497 96.3770251,33.3668783 97.4117907,32.7316402 Z" id="Shape"></path><path d="M73.3500407,30.4116402 L73.3500407,32.9802116 C73.3864088,33.3230324 73.3583313,33.6696381 73.2672595,34.0021164 C73.1226375,34.2926715 72.8533368,34.5011894 72.5360251,34.5683069 C72.2159279,34.5122083 71.9487711,34.2919951 71.8323845,33.9883069 C71.7634001,32.5106878 71.7634001,31.0330688 71.8323845,29.5554497 C71.8173118,29.348537 71.9063937,29.1477426 72.069855,29.0201814 C72.2333163,28.8926201 72.4495948,28.8551186 72.6464001,28.9202116 C73.1456284,29.0719558 73.6786249,29.0719558 74.1778532,28.9202116 C74.5985953,28.911511 75.0055559,29.0704705 75.309197,29.3621164 C75.4637234,29.6511377 75.4637234,29.9983332 75.309197,30.2873545 C75.2188203,30.4968417 75.0474028,30.6606693 74.8341579,30.7413602 C74.620913,30.8220511 74.3840859,30.8127013 74.1778532,30.7154497 L73.3500407,30.4116402 Z" id="Shape"></path></g></g></g></g></g></svg> 