<svg width="53" height="52" viewBox="0 0 53 52" fill="none" xmlns="http://www.w3.org/2000/svg">
<path fill-rule="evenodd" clip-rule="evenodd" d="M25.756 30.9135C24.3839 30.9135 22.8975 30.2169 21.0207 28.7065L18.6875 31.9595C19.9689 33.0975 21.752 34.0033 23.9029 34.3987V37H27.9748V34.3987C30.9714 33.7941 32.6875 31.7032 32.6875 29.1939C32.6875 26.5926 31.4298 24.804 27.8152 24.0613L25.9857 23.6889C25.1616 23.5268 24.8413 23.2245 24.8413 22.7831C24.8413 22.2727 25.2296 21.9934 26.2824 21.9934C27.5401 21.9934 28.9586 22.597 30.171 23.5728L32.4135 20.46C31.1547 19.4381 29.6219 18.8116 27.9748 18.5323V16H23.9029V18.6484C20.8837 19.299 19.5559 21.2738 19.5559 23.6199C19.5559 26.3143 20.8837 27.8938 23.8575 28.4973L25.6643 28.8697C26.8077 29.1019 27.1291 29.4272 27.1291 29.9847C27.1291 30.5652 26.6718 30.9135 25.756 30.9135Z" fill="#D41870"/>
<mask id="mask0" mask-type="alpha" maskUnits="userSpaceOnUse" x="0" y="0" width="53" height="52">
<path fill-rule="evenodd" clip-rule="evenodd" d="M0.6875 26.2547V0.509827H52.1777V26.2547V51.9996H0.6875V26.2547Z" fill="white"/>
</mask>
<g mask="url(#mask0)">
<path fill-rule="evenodd" clip-rule="evenodd" d="M52.1777 26.2545C52.1777 12.0585 40.6286 0.509399 26.4326 0.509399C22.0167 0.509399 17.8577 1.62791 14.2218 3.59473C14.3849 3.66611 14.543 3.75073 14.6908 3.85779C15.3331 4.31967 15.7114 5.03952 15.7298 5.82971C15.7298 5.82971 15.7512 6.76775 15.7828 8.11975C18.9089 6.27732 22.5479 5.21489 26.4326 5.21489C38.0347 5.21489 47.4732 14.6534 47.4732 26.2545C47.4732 37.8556 38.0347 47.2951 26.4326 47.2951C14.8315 47.2951 5.39197 37.8556 5.39197 26.2545C5.39197 23.1681 6.06593 20.2378 7.26499 17.595L3.3395 14.891C1.64389 18.3209 0.6875 22.1771 0.6875 26.2545C0.6875 40.4515 12.2366 51.9996 26.4326 51.9996C40.6286 51.9996 52.1777 40.4515 52.1777 26.2545Z" fill="#231E1C"/>
</g>
<path fill-rule="evenodd" clip-rule="evenodd" d="M6.5331 18.6707C7.04145 17.556 7.86226 16.8761 8.11497 16.6411C8.92403 15.8845 9.48723 16.5821 9.7517 16.7839L12.4551 18.8436C12.9762 19.2399 13.702 18.8363 13.6873 18.1574L13.4189 5.80281C13.4071 5.25841 12.9056 4.8765 12.413 5.03693L1.23602 8.67695C0.622862 8.8767 0.489652 9.73159 1.01074 10.129L3.32331 11.8895C4.63093 12.761 3.42714 14.627 3.12448 14.9893L6.5331 18.6707Z" fill="#231E1C"/>
</svg>
