<?xml version="1.0" encoding="UTF-8"?>
<svg width="61px" height="54px" viewBox="0 0 61 54" version="1.1" xmlns="http://www.w3.org/2000/svg" xmlns:xlink="http://www.w3.org/1999/xlink">
    <!-- Generator: Sketch 51.2 (57519) - http://www.bohemiancoding.com/sketch -->
    <title>employees</title>
    <desc>Created with Sketch.</desc>
    <defs></defs>
    <g id="Page-1" stroke="none" stroke-width="1" fill="none" fill-rule="evenodd">
        <g id="employees" fill="#25221F">
            <path d="M51.1071,42.4587 L46.6411,42.4587 L46.6411,47.1087 L42.6471,47.1087 L42.6471,42.4587 L38.1811,42.4587 L38.1811,38.7807 L42.6471,38.7807 L42.6471,34.1307 L46.6411,34.1307 L46.6411,38.7807 L51.1071,38.7807 L51.1071,42.4587 Z M44.6441,27.8917 C37.6141,27.8917 31.9161,33.5897 31.9161,40.6197 C31.9161,47.6487 37.6141,53.3477 44.6441,53.3477 C51.6731,53.3477 57.3721,47.6487 57.3721,40.6197 C57.3721,33.5897 51.6731,27.8917 44.6441,27.8917 Z" id="Fill-1"></path>
            <path d="M55.0534,16.5686 L58.1204,14.7976 C58.3264,14.6786 58.5904,14.7496 58.7094,14.9556 L60.4804,18.0226 C60.5994,18.2296 60.5294,18.4926 60.3234,18.6116 L57.2554,20.3826 C57.0494,20.5026 56.7854,20.4316 56.6664,20.2256 L54.8954,17.1576 C54.7764,16.9516 54.8464,16.6876 55.0534,16.5686" id="Fill-3"></path>
            <path d="M16.9635,24.9817 L12.0275,24.9817 C5.7155,24.9817 0.5985,30.0997 0.5985,36.4117 L0.5985,42.5287 L0.5985,46.5687 L0.5985,50.9077 C0.5985,51.5577 1.1245,52.0837 1.7745,52.0837 L26.7405,52.0837 C27.3905,52.0837 27.9165,51.5577 27.9165,50.9077 L27.9165,46.5687 L27.9165,42.5287 L27.9165,35.9347 C27.9165,29.8857 23.0125,24.9817 16.9635,24.9817" id="Fill-9"></path>
            <path d="M14.2575,22.0012 C18.9395,22.0012 22.7355,18.2052 22.7355,13.5232 C22.7355,8.8412 18.9395,5.0452 14.2575,5.0452 C9.5755,5.0452 5.7795,8.8412 5.7795,13.5232 C5.7795,18.2052 9.5755,22.0012 14.2575,22.0012" id="Fill-11"></path>
            <path d="M38.36,16.9553 C43.042,16.9553 46.838,13.1603 46.838,8.4773 C46.838,3.7953 43.042,0.0003 38.36,0.0003 C33.678,0.0003 29.882,3.7953 29.882,8.4773 C29.882,13.1603 33.678,16.9553 38.36,16.9553" id="Fill-17"></path>
            <path d="M44.6437,24.1369 C46.9717,24.1369 49.1717,24.6649 51.1537,25.5849 C49.5287,21.5699 45.5997,18.7349 41.0017,18.7349 L36.0667,18.7349 C31.2897,18.7349 27.2027,21.6679 25.4937,25.8289 C28.1887,27.7579 29.9627,30.8739 30.0657,34.4149 C32.2107,28.4279 37.9187,24.1369 44.6437,24.1369" id="Fill-19"></path>
        </g>
    </g>
</svg>