<?xml version="1.0" encoding="utf-8"?>
<!-- Generator: Adobe Illustrator 19.0.0, SVG Export Plug-In . SVG Version: 6.00 Build 0)  -->
<svg version="1.1" id="Layer_1" xmlns="http://www.w3.org/2000/svg" xmlns:xlink="http://www.w3.org/1999/xlink" x="0px" y="0px"
	 width="162px" height="80px" viewBox="0.2 11.9 162 80" style="enable-background:new 0.2 11.9 162 80;" xml:space="preserve">
<style type="text/css">
	.st0{fill:#FFFFFF;}
</style>
<title>ESPN WhiteSVG</title>
<g id="Layer_2">
	<g id="Layer_1-2">
		<path class="st0" d="M120.5,38c-0.3-3-2.6-5.4-5.5-5.7c-0.9-0.1-1.8-0.3-2.7-0.3c-20.3,0-40.4,0-60.6,0c-6.9,0-11.2,4.3-11.2,11.1
			h80.1C120.6,41.4,120.5,39.7,120.5,38z"/>
		<path class="st0" d="M74.7,47.6c-0.9-0.1-1.7-0.1-2.6-0.1H52.3c-3.8,0-7.5,0-11.2,0c-0.4,0-1.3,0.4-1.3,0.7
			c-0.4,4.1,0.6,8.2,6.4,8.1c5.8-0.1,12,0,18,0h1.7l-0.6,4.5H38.6l-1.3,11.1H41c8.5,0,17,0.1,25.4-0.1c6.5-0.1,10.8-3.5,11.9-9.5
			c0.6-3,0.9-6.1,1-9.2C79.5,50.3,77.4,47.9,74.7,47.6z"/>
		<path class="st0" d="M37,56.1l1-8.6H3L0.2,71.7h35l1.3-11.1H14.9l0.4-4.5H37z"/>
		<path class="st0" d="M119.8,47.5H81.9l-2.8,24.2h13.3l1.8-15.6H96c4.8,0,9.5,0,14.3,0c1.7,0,3.4-0.3,5-0.9
			C118.5,54.2,120.3,50.9,119.8,47.5z"/>
		<path class="st0" d="M162.1,38.6c-0.4-4.1-2.1-6.1-6.2-6.4c-4.8-0.3-9.6-0.3-14.5-0.3c-5.5,0-11.1,0-16.6,0
			c-0.7,0-1.4-0.1-1.4,0.9c-0.4,3.4-0.7,6.8-1.1,10.2h39.8C162.1,41.6,162.1,40.1,162.1,38.6z"/>
		<path class="st0" d="M39.8,32.1H6.3c-0.7,0-1.4-0.1-1.4,0.9C4.4,36.3,4,39.7,3.6,43.1h35L39.8,32.1z"/>
		<path class="st0" d="M118.8,71.7h13.5l3-24.2h-13.6L118.8,71.7z"/>
		<path class="st0" d="M149,47.4c-1,0-1,0.4-1.1,1.3c-0.6,5.4-1.3,10.8-1.8,16.2c-0.3,2.3-0.6,4.7-0.7,6.9h13.3l3-24.1
			c-0.3-0.1-0.4-0.1-0.7-0.1C156.9,47.5,152.9,47.5,149,47.4z"/>
	</g>
</g>
</svg>
