<?xml version="1.0" encoding="UTF-8"?> <!-- Generator: Adobe Illustrator 19.0.0, SVG Export Plug-In . SVG Version: 6.00 Build 0) --> <svg xmlns="http://www.w3.org/2000/svg" xmlns:xlink="http://www.w3.org/1999/xlink" id="Layer_1" x="0px" y="0px" width="30px" height="30px" viewBox="-29 31 30 30" style="enable-background:new -29 31 30 30;" xml:space="preserve"> <style type="text/css"> .st0{fill:none;} .st1{fill:#231E1C;} </style> <g> <path class="st0" d="M-19.5,38.3h7.9c0.3,0,0.6-0.3,0.6-0.6s-0.3-0.6-0.6-0.6h-8c-0.3,0-0.6,0.3-0.6,0.6S-19.8,38.3-19.5,38.3z"></path> <path class="st0" d="M-6.4,32.2H-25c-0.3,0-0.6,0.3-0.6,0.6v20.8c0,0.3,0.3,0.6,0.6,0.6l0,0h15.2l-0.3-5.7c0-0.2,0.2-0.4,0.4-0.4 c0.1,0,0.2,0,0.3,0.1l3.6,3.1V32.8C-5.8,32.5-6.1,32.2-6.4,32.2z M-11.5,46h-8c-0.3,0-0.6-0.3-0.6-0.6s0.3-0.6,0.6-0.6h7.9 c0.3,0,0.6,0.3,0.6,0.6C-10.9,45.8-11.2,46-11.5,46z M-11.5,43.6h-8c-0.3,0-0.6-0.3-0.6-0.6s0.3-0.6,0.6-0.6h7.9 c0.3,0,0.6,0.3,0.6,0.6C-10.9,43.4-11.2,43.6-11.5,43.6z M-8.5,41.2H-23v-6.9h14.5V41.2z"></path> <path class="st1" d="M-1.3,55.1l-3.3-2.8V32.8c0-1-0.8-1.8-1.8-1.8H-25c-1,0-1.8,0.8-1.8,1.8v20.8c0,1,0.8,1.8,1.8,1.8h15.3 l0.2,2.6v0.1c0.1,0.2,0.3,0.3,0.5,0.2l2.6-0.9c0,0,0,0,0,0.1l1.4,3.2c0.1,0.2,0.3,0.3,0.5,0.2l1.9-0.8c0.2-0.1,0.3-0.3,0.2-0.5 l-1.3-3.1l2.2-0.7c0.1,0,0.1-0.1,0.2-0.1C-1.1,55.5-1.1,55.2-1.3,55.1z M-5.8,51.3l-3.6-3.1c-0.1-0.1-0.2-0.1-0.3-0.1 c-0.2,0-0.4,0.2-0.4,0.4l0.3,5.7H-25l0,0c-0.3,0-0.6-0.3-0.6-0.6V32.8c0-0.3,0.3-0.6,0.6-0.6h18.6c0.3,0,0.6,0.3,0.6,0.6 C-5.8,32.8-5.8,51.3-5.8,51.3z"></path> <path class="st1" d="M-11.5,42.4h-7.9c-0.3,0-0.6,0.3-0.6,0.6s0.3,0.6,0.6,0.6h8c0.3,0,0.6-0.3,0.6-0.6 C-10.9,42.7-11.2,42.4-11.5,42.4z"></path> <path class="st1" d="M-11.5,44.8h-7.9c-0.3,0-0.6,0.3-0.6,0.6s0.3,0.6,0.6,0.6h8c0.3,0,0.6-0.3,0.6-0.6 C-10.9,45.1-11.2,44.8-11.5,44.8z"></path> <path class="st1" d="M-23,41.2h14.5v-6.9H-23V41.2z M-19.5,37.1h8c0.3,0,0.6,0.3,0.6,0.6s-0.3,0.6-0.6,0.6h-7.9 c-0.3,0-0.6-0.3-0.6-0.6S-19.8,37.1-19.5,37.1z"></path> </g> </svg> 