<svg width="63" height="48" viewBox="0 0 63 48" fill="none" xmlns="http://www.w3.org/2000/svg">
<path d="M53.154 26C51.922 26 51.4577 26.385 50.3353 27.3125C48.8607 28.5331 46.6323 30.375 42.5747 30.375C38.517 30.375 36.291 28.5331 34.8163 27.3125C33.694 26.385 33.232 26 31.9977 26C30.7633 26 30.3013 26.385 29.179 27.3125C27.7043 28.5331 25.476 30.375 21.4207 30.375C17.3653 30.375 15.137 28.5331 13.6623 27.3125C12.54 26.385 12.0757 26 10.8437 26C9.61167 26 9.14733 26.385 8.025 27.3125C7.09167 28.0912 5.834 29.1216 4 29.7669V31.25C4 32.2165 4.83574 33 5.86667 33H58.1333C59.1643 33 60 32.2165 60 31.25V29.7669C58.166 29.1106 56.9153 28.0912 55.9727 27.3125C54.8527 26.385 54.3883 26 53.154 26Z" fill="#B51E6D"/>
<path d="M52.4985 22.4286C47.2477 22.4286 47.2477 26 41.9969 26C36.7461 26 36.7485 22.4286 31.4977 22.4286C26.2469 22.4286 26.2492 26 20.9985 26C15.7477 26 15.75 22.4286 10.4992 22.4286C5.24846 22.4286 5.24846 26 0 26L3.74062 21.675C4.10489 21.2532 4.71862 20.9999 5.37585 21H57.6242C58.2814 20.9999 58.8951 21.2532 59.2594 21.675L63 26C57.7492 26 57.7492 22.4286 52.4985 22.4286Z" fill="#25211F"/>
<path d="M59.0667 35H4.93333C4.41787 35 4 35.4477 4 36C4 36.5523 4.41787 37 4.93333 37H59.0667C59.5821 37 60 36.5523 60 36C60 35.4477 59.5821 35 59.0667 35Z" fill="#25211F"/>
<path d="M54.4 44.4C49.577 40.5008 38.055 39.6008 35.4883 39H20.8C20.8 39 14.423 39.9 11.4667 42.6C11.4667 42.6 10.3 40.5007 11.4667 39H4L5.267 45.1065C5.61623 46.7891 7.14848 48.0001 8.928 48H55.0697C56.8492 48.0001 58.3814 46.7891 58.7307 45.1065L60 39H52.5333C55.6413 42.3008 54.4 44.4 54.4 44.4Z" fill="#25211F"/>
<path fill-rule="evenodd" clip-rule="evenodd" d="M4 18.5335C4 7.27441 16.5366 0 32 0C47.4634 0 60 7.27441 60 18.5335V18.566C59.9975 19.0665 59.7995 19.5436 59.4531 19.8842L59.5275 20H4.4725L4.54688 19.8842C4.19958 19.5443 4.00146 19.0667 4 18.566V18.5335ZM50.7228 6.6933C45.927 3.66757 39.2783 2 32.0011 2C24.7239 2 18.0752 3.66757 13.2794 6.6933C7.49098 10.3469 6.09969 14.79 6 18H58C57.9025 14.79 56.5112 10.3469 50.7228 6.6933Z" fill="#25211F"/>
<path d="M20.8368 10.7451C20.5463 11.0082 19.958 11.0792 19.5228 10.9036L17.4222 10.0518C16.9861 9.87561 16.8688 9.51903 17.1601 9.25532C17.4514 8.99161 18.0411 8.92064 18.4772 9.0968L20.5778 9.94672C20.788 10.0314 20.9336 10.1634 20.9823 10.3133C21.0309 10.4632 20.9785 10.6186 20.8368 10.7451Z" fill="#25211F"/>
<path d="M24.6744 5.7705L22.748 7.69951C22.3488 8.0995 21.7008 8.10026 21.3006 7.70122C20.9005 7.30218 20.8997 6.65444 21.2989 6.25446L23.2287 4.32545C23.4837 4.05191 23.8678 3.93931 24.2302 4.03182C24.5926 4.12434 24.8756 4.40721 24.9682 4.76948C25.0607 5.13174 24.9481 5.51561 24.6744 5.7705Z" fill="#25211F"/>
<path d="M31.6231 10.7692C31.4051 10.9373 31.1232 11.019 30.8394 10.9963C30.5557 10.9735 30.2935 10.8481 30.1106 10.6478L28.2728 8.63999C28.0123 8.37253 27.9311 7.99626 28.0607 7.65789C28.1903 7.31952 28.5103 7.07263 28.8958 7.01349C29.2814 6.95436 29.6715 7.09234 29.914 7.37363L31.7554 9.39457C32.1274 9.80916 32.0686 10.4208 31.6231 10.7692Z" fill="#25211F"/>
<path d="M34.9674 5.13169L34.4003 7.35016C34.3337 7.66051 34.1331 7.90091 33.8781 7.97587C33.6232 8.05083 33.3552 7.94821 33.1807 7.70877C33.0061 7.46933 32.9533 7.13184 33.0431 6.83039L33.6078 4.61192C33.7251 4.15246 34.1245 3.89635 34.5 4.03988C34.8754 4.18341 35.0847 4.67223 34.9674 5.13169Z" fill="#25211F"/>
<path d="M39.1486 10.9979C38.648 11.0306 38.2138 10.6755 38.1782 10.2042L38.0024 7.92014C37.9664 7.4471 38.3445 7.03614 38.8469 7.00223C39.3493 6.96833 39.7858 7.32433 39.8218 7.79737L39.9976 10.0814C40.0151 10.3092 39.9353 10.5341 39.7758 10.7062C39.6164 10.8783 39.3906 10.9833 39.1486 10.9979Z" fill="#25211F"/>
<path d="M46.7152 8.68191C46.3247 9.09496 45.6798 9.10737 45.2743 8.70963L43.3134 6.79025C42.9071 6.39225 42.8941 5.73379 43.2845 5.31953C43.6749 4.90527 44.3208 4.89209 44.7271 5.29008L46.688 7.21293C47.0931 7.61103 47.1053 8.26851 46.7152 8.68191Z" fill="#25211F"/>
</svg>
