<?xml version="1.0" encoding="utf-8"?>
<!-- Generator: Adobe Illustrator 19.0.0, SVG Export Plug-In . SVG Version: 6.00 Build 0)  -->
<svg version="1.1" id="Layer_1" xmlns="http://www.w3.org/2000/svg" xmlns:xlink="http://www.w3.org/1999/xlink" x="0px" y="0px"
	 width="104.3px" height="80px" viewBox="7 6 104.3 80" style="enable-background:new 7 6 104.3 80;" xml:space="preserve">
<style type="text/css">
	.st0{fill:#FFFFFF;}
</style>
<title>Fox WhiteSVG</title>
<g id="Layer_2">
	<g id="Layer_1-2">
		<path class="st0" d="M73.1,33c-3.6-5.1-9.4-8.3-15.6-8.7c-6-0.6-12,1.6-16.3,5.9c-5.4,5-7.8,12.5-6.4,19.7
			c1.5,9.7,9.5,17.1,19.2,18c6.2,0.6,12.3-1.6,16.7-6c4.5-4.3,6.6-9.7,6.7-16.9C77.2,40.6,75.7,36.4,73.1,33z M57.6,58.4
			c-1.8,0.9-4,0.1-4.9-1.7c-0.3-0.5-0.4-1.1-0.4-1.7c0-3,0-6,0-8.9l0,0c0-2.8,0-5.6,0-8.4c0-0.6,0.1-1.2,0.2-1.8
			c0.5-1.7,2.1-2.8,3.8-2.6c1.7,0.3,3.1,1.6,3.3,3.4c0,0.3,0.1,0.7,0,1c0,5.7,0,11.4,0,17.1C59.9,56.3,59,57.7,57.6,58.4z"/>
		<path class="st0" d="M98.1,45.5c-0.2-0.2-0.2-0.5,0-0.7c3.9-6.9,7.9-13.8,11.8-20.7l0.3-0.5h-0.3H96.6c-0.3,0-0.4,0.1-0.5,0.4
			l-4.9,8.9L91,33.3l-0.2-0.4c-1.6-3-3.2-5.9-4.8-8.9c-0.1-0.2-0.4-0.4-0.6-0.4h-14l1.5,2.6c3.6,6.2,7.2,12.5,10.8,18.7
			c0.2,0.2,0.2,0.5,0,0.7c-0.3,0.5-0.5,0.9-0.8,1.4l-12,21c-0.1,0.1-0.1,0.3-0.2,0.5h0.4h13.1c0.3,0,0.5-0.1,0.6-0.4
			c1.9-3.5,3.8-7,5.7-10.5l0.2-0.4l0.1,0.1c2,3.6,3.9,7.1,5.9,10.7c0.1,0.3,0.5,0.5,0.8,0.5c4.4,0,8.9,0,13.3,0h0.5l-0.3-0.5
			C106.8,60.4,102.4,53,98.1,45.5z"/>
		<path class="st0" d="M19.9,41.4c0-1.7,0-3.4,0-5.1c0-0.4,0.1-0.5,0.5-0.5c4.7,0,9.4,0,14.2,0h0.5c0-0.2,0-0.4,0-0.5
			c-0.3-3.8-0.5-7.6-0.8-11.3c0-0.4-0.1-0.5-0.5-0.5H7.1v45h12.7V53.9h12.5V41.7H19.9C19.9,41.5,19.9,41.5,19.9,41.4z"/>
	</g>
</g>
</svg>
