<?xml version="1.0" encoding="UTF-8"?>
<svg width="75px" height="69px" viewBox="0 0 75 69" version="1.1" xmlns="http://www.w3.org/2000/svg" xmlns:xlink="http://www.w3.org/1999/xlink">
    <!-- Generator: Sketch 51.2 (57519) - http://www.bohemiancoding.com/sketch -->
    <title>global</title>
    <desc>Created with Sketch.</desc>
    <defs>
        <polygon id="path-1" points="6.73750335e-16 6.8405 6.73750335e-16 0.0315 6.80945 0.0315 6.80945 6.8405"></polygon>
        <polygon id="path-3" points="63.3592 63 0.8812 63 0.8812 0.5217 63.3592 0.5217"></polygon>
    </defs>
    <g id="Page-1" stroke="none" stroke-width="1" fill="none" fill-rule="evenodd">
        <g id="global">
            <g id="Group-3" transform="translate(0.000000, 33.868000)">
                <mask id="mask-2" fill="white">
                    <use xlink:href="#path-1"></use>
                </mask>
                <g id="Clip-2"></g>
                <path d="M3.0997,6.7145 L0.1257,3.7415 C-0.0423,3.5725 -0.0423,3.2995 0.1257,3.1315 L3.0997,0.1575 C3.2677,-0.0105 3.5407,-0.0105 3.7097,0.1575 L6.6827,3.1315 C6.8517,3.2995 6.8517,3.5725 6.6827,3.7415 L3.7097,6.7145 C3.5407,6.8825 3.2677,6.8825 3.0997,6.7145" id="Fill-1" fill="#000000" mask="url(#mask-2)"></path>
            </g>
            <path d="M73.9522,64.2471 C73.9522,65.9251 72.5932,67.2851 70.9152,67.2851 C69.2372,67.2851 67.8782,65.9251 67.8782,64.2471 C67.8782,62.5701 69.2372,61.2091 70.9152,61.2091 C72.5932,61.2091 73.9522,62.5701 73.9522,64.2471" id="Fill-4" fill="#000000"></path>
            <path d="M58.0313,2.7563 C58.0313,4.2783 56.7983,5.5123 55.2753,5.5123 C53.7533,5.5123 52.5193,4.2783 52.5193,2.7563 C52.5193,1.2343 53.7533,0.0003 55.2753,0.0003 C56.7983,0.0003 58.0313,1.2343 58.0313,2.7563" id="Fill-6" fill="#000000"></path>
            <g id="Group-10" transform="translate(11.000000, 5.868000)">
                <mask id="mask-4" fill="white">
                    <use xlink:href="#path-3"></use>
                </mask>
                <g id="Clip-9"></g>
                <path d="M32.1202,3.5217 C16.5492,3.5217 3.8812,16.1897 3.8812,31.7607 C3.8812,47.3327 16.5492,60.0007 32.1202,60.0007 C47.6912,60.0007 60.3592,47.3327 60.3592,31.7607 C60.3592,16.1897 47.6912,3.5217 32.1202,3.5217 M32.1202,63.0007 C14.8942,63.0007 0.8812,48.9867 0.8812,31.7607 C0.8812,14.5357 14.8942,0.5217 32.1202,0.5217 C49.3462,0.5217 63.3592,14.5357 63.3592,31.7607 C63.3592,48.9867 49.3462,63.0007 32.1202,63.0007" id="Fill-8" fill="#25211F" mask="url(#mask-4)"></path>
            </g>
            <path d="M61.2032,47.8994 C61.2032,47.8994 59.4262,53.7094 59.3532,54.4854 C59.2822,55.2614 57.9752,56.5534 57.0132,57.7084 C56.0512,58.8624 55.9532,58.9004 55.7002,59.8174 C55.4472,60.7344 53.9452,61.5614 53.9452,61.5614 C53.9452,61.5614 51.8162,62.0554 51.5202,61.6934 C51.2242,61.3314 51.4222,61.1334 51.5202,60.7724 C51.6192,60.4094 52.0472,59.3894 52.4742,57.9414 C52.9032,56.4934 53.3142,56.9924 53.4632,55.6704 C53.6102,54.3484 50.6322,52.7414 50.4042,52.1684 C50.1772,51.5964 49.8422,51.7534 49.3492,50.9314 C48.8542,50.1074 49.5462,49.7784 50.0262,49.0404 C50.5072,48.3014 50.9612,46.6524 50.3682,46.4214 C49.7762,46.1914 49.4142,45.7964 47.9002,44.7304 C46.3872,43.6644 45.4322,44.2164 44.2472,43.5914 C43.0612,42.9664 42.8642,43.3944 42.3712,43.2624 C41.8772,43.1304 42.0752,43.1964 40.4952,42.5054 C38.9152,41.8144 39.4742,42.0774 38.8492,41.2214 C38.2242,40.3664 37.6322,39.6424 37.2122,38.8314 C36.7932,38.0224 35.6242,36.5544 35.4722,36.0784 C35.3182,35.6024 34.6892,34.4874 34.2742,33.4214 C33.8592,32.3554 33.3652,32.2174 33.3862,31.2824 C33.4062,30.3464 33.3862,30.4264 33.3312,29.5244 C33.2762,28.6234 33.8132,27.6474 33.9452,26.9044 C34.0772,26.1614 33.4192,26.0494 33.1282,25.0944 C32.8372,24.1404 32.5962,24.4694 32.3982,24.1404 C32.2012,23.8114 32.5962,22.9224 32.9682,22.0014 C33.3392,21.0794 32.9582,21.0464 32.8922,20.5524 C32.8262,20.0594 33.0912,19.7574 32.8922,18.9734 C32.6942,18.1884 31.6892,18.8544 30.3912,18.8084 C29.0922,18.7634 29.5022,19.8614 28.6132,21.0794 C27.7252,22.2974 25.5772,23.5804 25.4872,23.9094 C25.3962,24.2404 25.0592,24.6334 24.6642,24.7654 C24.2692,24.8974 24.3022,24.6664 24.4332,24.4364 C24.5652,24.2064 27.2712,21.3114 27.1652,20.9814 C27.0592,20.6494 26.7052,20.3884 26.3092,19.7634 C25.9152,19.1374 27.9232,18.6114 28.0872,18.4134 C28.2522,18.2164 29.1402,17.6234 29.1402,17.6234 C29.1402,17.6234 29.0012,17.7174 29.3972,17.1494 C29.7942,16.5804 29.2232,16.8504 29.1072,16.6364 C28.9922,16.4224 29.1072,16.4554 29.1762,16.1124 C29.2452,15.7694 29.3062,15.9944 29.4702,15.9944 C29.6342,15.9954 30.4742,15.7754 30.8352,15.6164 C31.1962,15.4574 31.1812,15.3364 31.5592,14.9904 C31.9372,14.6454 33.6332,14.3814 34.6032,14.2334 C35.5752,14.0854 36.1832,13.6414 36.2322,13.6094 C36.2822,13.5774 36.9892,13.7564 37.5002,13.8224 C38.0102,13.8884 38.7512,13.9864 39.2942,13.8714 C39.8372,13.7564 40.2312,13.5914 40.5772,13.4934 C40.9232,13.3944 41.2682,13.5594 42.5192,13.9704 C43.7692,14.3814 43.6052,14.2334 43.9682,14.3164 C44.3292,14.3984 44.4942,14.3814 44.5462,13.8634 C44.5992,13.3464 44.7902,13.4434 44.5162,13.2564 C44.2422,13.0694 43.1282,12.4724 43.2262,12.3284 C43.3252,12.1824 43.9342,12.2754 44.4942,12.1804 C45.0542,12.0854 45.4462,12.3674 45.8592,12.5104 C46.2722,12.6534 46.5672,12.5714 46.8312,12.5254 C47.0942,12.4794 47.2422,12.5874 48.0982,12.5254 C48.9532,12.4624 48.4542,12.6184 48.5482,12.6024 C48.6412,12.5864 48.5322,12.7864 48.5092,13.0634 C48.4852,13.3394 48.1632,13.5254 48.0812,13.6094 C47.9992,13.6924 47.7682,13.8384 47.4732,14.0524 C47.1762,14.2664 47.0522,14.3954 47.1352,14.5074 C47.2172,14.6194 48.6242,14.7764 48.8712,14.7434 C49.1182,14.7114 49.3812,14.3654 49.6612,13.9544 C49.9402,13.5424 49.7932,13.5094 49.7472,13.3784 C49.7022,13.2464 50.0892,13.0324 50.2372,12.8974 C50.3852,12.7624 50.7302,12.9334 51.0182,12.9004 C51.3072,12.8684 51.6842,13.0804 51.7732,13.1094 C51.8612,13.1374 51.9482,13.2794 52.0302,13.4934 C52.1132,13.7074 51.8992,13.5754 51.7732,13.7564 C51.6472,13.9374 51.5542,14.0684 51.4872,14.5134 C51.4222,14.9574 51.5542,15.0244 51.9322,15.4844 C52.3102,15.9454 52.2332,15.4044 52.2742,15.1884 C52.3152,14.9714 52.2942,14.9244 52.2742,14.6284 C52.2552,14.3324 52.2412,14.3324 52.4072,13.6094 C52.5732,12.8864 52.6602,13.4924 53.1162,13.4264 C53.5712,13.3604 54.0662,13.6704 54.5962,13.8604 C55.1252,14.0514 55.1672,14.1664 55.3392,14.1684 C55.5102,14.1694 56.7862,16.1594 57.2972,17.1464 C57.8072,18.1334 57.7412,18.0674 57.7732,18.2494 C57.8072,18.4304 57.7242,18.6814 57.5272,18.9374 C57.3302,19.1934 57.4942,19.5654 57.4942,19.5654 C57.4942,19.5654 56.5722,19.6154 56.4582,19.5164 C56.3422,19.4174 55.5362,18.6444 55.4902,18.4164 C55.4442,18.1874 54.9602,17.8544 54.9312,17.6044 C54.9012,17.3554 55.4242,17.5874 55.5362,17.5904 C55.6482,17.5944 55.9472,17.4594 55.9312,17.2454 C55.9142,17.0314 55.5382,16.2954 55.4862,15.9284 C55.4352,15.5624 54.1212,14.8584 53.9212,15.1434 C53.7212,15.4274 53.4302,15.7474 52.9352,16.1094 C52.4422,16.4714 52.9692,16.2744 53.2982,16.9654 C53.6272,17.6564 53.8982,17.9614 53.8982,17.9614 C53.8982,17.9614 53.3632,18.0844 52.4602,17.8124 C51.5572,17.5394 52.2072,17.6254 52.1642,17.3944 C52.1202,17.1624 52.2492,16.7264 51.9422,16.7484 C51.6372,16.7704 50.9942,17.6894 49.1212,18.5784 C47.6772,19.2624 48.1242,19.1274 48.2792,19.0734 C48.2802,19.0734 48.2812,19.0724 48.2822,19.0714 C48.3462,19.0494 48.3252,19.0574 48.2792,19.0734 C48.0092,19.1774 48.2292,19.8294 48.2822,19.9604 C48.3362,20.0924 49.3172,20.4574 49.3172,20.4574 C49.3172,20.4574 50.0872,20.9674 50.4692,21.2124 C50.8512,21.4554 50.7302,22.2314 50.7612,22.5604 C50.7902,22.8894 51.4222,23.9094 51.6872,24.4694 C51.9532,25.0284 52.4092,24.4034 52.9872,23.3904 C53.5652,22.3764 53.2662,22.5384 53.6702,22.0954 C54.0752,21.6514 53.6022,21.2444 53.6022,21.2444 C53.6022,21.2444 53.4632,20.5204 53.6022,20.2234 C53.7422,19.9274 53.9232,19.5324 53.9892,19.1704 C54.0552,18.8084 54.2202,18.5784 54.2202,18.5784 C54.2202,18.5784 55.0012,19.0264 55.1452,19.1084 C55.2912,19.1904 55.9982,19.7954 56.1602,19.9034 C56.3212,20.0124 56.9512,20.9154 56.9512,20.9154 C56.9512,20.9154 57.8412,21.6364 58.0572,22.1424 C58.2742,22.6484 58.1692,24.1734 58.1692,24.1734 C58.1692,24.1734 59.8482,26.7074 59.8482,26.9044 L59.8482,28.1484 L59.6972,27.9794 L58.8602,25.9514 C58.8602,25.9514 58.1362,26.0494 57.8732,25.9514 C57.6092,25.8534 57.2152,25.9834 56.9332,26.0224 C56.6532,26.0604 57.2052,26.5284 57.2052,26.5284 L58.2032,27.8584 L58.0702,28.4194 C58.0702,28.4194 56.5792,28.4554 55.9972,28.4844 C55.4142,28.5144 55.0532,29.1744 54.1862,29.3404 C53.3202,29.5064 53.6922,29.8674 52.7712,31.3804 C51.8492,32.8944 52.4092,32.3684 51.5542,33.3884 C50.6982,34.4084 50.3682,34.1784 50.5002,35.3614 C50.6322,36.5444 50.9492,37.6894 50.8002,37.6384 C50.6502,37.5874 49.1182,36.0214 48.2822,35.4614 C47.4472,34.9024 47.6702,35.6924 46.4852,36.3834 C45.3002,37.0744 45.3002,36.4164 44.7402,36.6474 C44.1822,36.8774 44.5112,36.8114 44.0162,37.2834 C43.5232,37.7544 43.5892,37.7664 43.2772,38.1284 C42.9662,38.4904 43.0292,38.8524 43.0272,39.7244 C43.0252,40.5974 43.4902,40.7604 44.2802,41.0244 C45.0692,41.2874 45.6622,40.1354 46.7482,39.4314 C47.8342,38.7264 47.6542,39.9534 47.1762,41.8144 C46.6982,43.6744 47.3742,42.0444 48.7562,42.6704 C50.1392,43.2954 49.3152,44.4474 49.5732,44.4474 C49.8312,44.4474 50.6322,44.4144 51.6872,44.1504 C52.7432,43.8874 52.5082,43.5584 53.2652,42.7684 C54.0222,41.9784 54.7032,43.1454 55.0142,43.2274 C55.3242,43.3084 56.6552,42.8344 56.8522,42.4064 C57.0502,41.9784 57.4122,41.8144 57.4122,41.9134 C57.4122,42.0114 57.7412,43.0654 58.1022,43.6244 C58.4652,44.1844 58.7782,44.2824 59.4692,44.4974 C60.1592,44.7114 60.2092,44.3814 60.2422,44.0524 C60.2752,43.7234 60.8352,43.6574 60.8352,43.6574 C60.8352,43.6574 60.5712,45.1384 61.3902,45.9574 C62.2072,46.7754 61.2032,47.8994 61.2032,47.8994" id="Fill-11" fill="#000000"></path>
        </g>
    </g>
</svg>