<svg width="66" height="67" viewBox="0 0 66 67" fill="none" xmlns="http://www.w3.org/2000/svg">
<path fill-rule="evenodd" clip-rule="evenodd" d="M32.7352 1.76121L35.6852 0.0582125C35.8912 -0.0607875 36.1562 0.00921251 36.2752 0.215213L37.9782 3.16621C38.0972 3.37221 38.0262 3.63621 37.8202 3.75521L34.8702 5.45821C34.6642 5.57721 34.4002 5.50721 34.2812 5.30121L32.5772 2.35021C32.4582 2.14421 32.5292 1.88021 32.7352 1.76121Z" fill="#25221F"/>
<path fill-rule="evenodd" clip-rule="evenodd" d="M65.8772 35.7056C65.8772 36.4106 65.3062 36.9816 64.6012 36.9816C63.8972 36.9816 63.3242 36.4106 63.3242 35.7056C63.3242 35.0006 63.8972 34.4296 64.6012 34.4296C65.3062 34.4296 65.8772 35.0006 65.8772 35.7056Z" fill="#25221F"/>
<mask id="mask0" mask-type="alpha" maskUnits="userSpaceOnUse" x="0" y="35" width="4" height="4">
<path fill-rule="evenodd" clip-rule="evenodd" d="M0 38.5079V35.0419H3.4667V38.5079H0H0Z" fill="white"/>
</mask>
<g mask="url(#mask0)">
<path fill-rule="evenodd" clip-rule="evenodd" d="M3.467 36.7749C3.467 37.7319 2.691 38.5079 1.734 38.5079C0.777 38.5079 0 37.7319 0 36.7749C0 35.8179 0.777 35.0419 1.734 35.0419C2.691 35.0419 3.467 35.8179 3.467 36.7749Z" fill="#25221F"/>
</g>
<path fill-rule="evenodd" clip-rule="evenodd" d="M45.813 5.646C45.126 5.646 44.441 5.905 43.914 6.425L2.66999 47.165C1.60899 48.213 1.59799 49.924 2.64699 50.985L17.194 65.711C17.722 66.247 18.418 66.515 19.116 66.515C19.801 66.515 20.488 66.255 21.014 65.735L62.258 24.996C63.319 23.947 63.33 22.237 62.282 21.175L47.735 6.449C47.207 5.914 46.509 5.646 45.813 5.646ZM45.813 7.646C45.922 7.646 46.132 7.672 46.312 7.854L60.858 22.581C61.13 22.856 61.127 23.301 60.852 23.573L19.609 64.312C19.43 64.489 19.223 64.515 19.116 64.515C19.006 64.515 18.795 64.488 18.617 64.306L4.06999 49.58C3.79799 49.304 3.80099 48.86 4.07699 48.587L45.32 7.848C45.498 7.672 45.705 7.646 45.813 7.646Z" fill="#25221F"/>
<path fill-rule="evenodd" clip-rule="evenodd" d="M32.9776 27.772C32.5286 27.317 31.7946 27.312 31.3396 27.761C30.8856 28.21 30.8806 28.944 31.3306 29.399C31.7796 29.854 32.5126 29.858 32.9676 29.409C33.4226 28.959 33.4266 28.227 32.9776 27.772Z" fill="#B41F6D"/>
<path fill-rule="evenodd" clip-rule="evenodd" d="M36.6961 31.5347C36.2471 31.0797 35.5141 31.0757 35.0591 31.5247C34.6041 31.9737 34.5991 32.7077 35.0501 33.1627C35.4991 33.6167 36.2311 33.6217 36.6861 33.1727C37.1411 32.7227 37.1451 31.9897 36.6961 31.5347Z" fill="#B41F6D"/>
<path fill-rule="evenodd" clip-rule="evenodd" d="M40.4112 35.2983C39.9622 34.8433 39.2282 34.8383 38.7732 35.2883C38.3192 35.7373 38.3142 36.4703 38.7642 36.9253C39.2132 37.3803 39.9462 37.3853 40.4012 36.9353C40.8562 36.4853 40.8602 35.7533 40.4112 35.2983Z" fill="#B41F6D"/>
<path fill-rule="evenodd" clip-rule="evenodd" d="M29.5018 31.2085C29.0518 30.7535 28.3188 30.7485 27.8638 31.1975C27.4088 31.6465 27.4038 32.3805 27.8548 32.8355C28.3038 33.2905 29.0358 33.2945 29.4908 32.8455C29.9458 32.3955 29.9508 31.6625 29.5018 31.2085Z" fill="#B41F6D"/>
<path fill-rule="evenodd" clip-rule="evenodd" d="M33.2159 34.9712C32.7669 34.5162 32.0329 34.5122 31.5779 34.9612C31.1239 35.4102 31.1189 36.1442 31.5689 36.5982C32.0179 37.0532 32.7509 37.0582 33.2059 36.6092C33.6599 36.1582 33.6649 35.4262 33.2159 34.9712Z" fill="#B41F6D"/>
<path fill-rule="evenodd" clip-rule="evenodd" d="M36.9345 38.7349C36.4855 38.2799 35.7525 38.2749 35.2975 38.7239C34.8425 39.1739 34.8375 39.9069 35.2875 40.3619C35.7375 40.8169 36.4695 40.8209 36.9245 40.3719C37.3795 39.9219 37.3845 39.1889 36.9345 38.7349Z" fill="#B41F6D"/>
<path fill-rule="evenodd" clip-rule="evenodd" d="M26.0206 34.6441C25.5716 34.1901 24.8376 34.1851 24.3826 34.6341C23.9286 35.0831 23.9236 35.8171 24.3736 36.2721C24.8226 36.7271 25.5556 36.7311 26.0106 36.2821C26.4656 35.8321 26.4696 35.0991 26.0206 34.6441Z" fill="#B41F6D"/>
<path fill-rule="evenodd" clip-rule="evenodd" d="M29.7401 38.4077C29.2901 37.9527 28.5571 37.9487 28.1021 38.3977C27.6471 38.8467 27.6421 39.5797 28.0931 40.0347C28.5421 40.4897 29.2741 40.4947 29.7291 40.0457C30.1841 39.5947 30.1891 38.8627 29.7401 38.4077Z" fill="#B41F6D"/>
<path fill-rule="evenodd" clip-rule="evenodd" d="M33.4542 42.1714C33.0052 41.7164 32.2712 41.7114 31.8162 42.1604C31.3622 42.6094 31.3572 43.3434 31.8072 43.7984C32.2562 44.2534 32.9892 44.2574 33.4442 43.8084C33.8992 43.3584 33.9032 42.6254 33.4542 42.1714Z" fill="#B41F6D"/>
<path fill-rule="evenodd" clip-rule="evenodd" d="M14.4816 32.6488L32.9386 14.1918L23.3576 4.61085C22.3026 3.55485 20.5916 3.55485 19.5376 4.61085L4.90062 19.2478C3.84563 20.3018 3.84563 22.0128 4.90062 23.0678L14.4816 32.6488Z" fill="#25221F"/>
<path fill-rule="evenodd" clip-rule="evenodd" d="M54.4492 35.7036L35.9922 54.1606L45.8912 64.0596C46.9462 65.1156 48.6572 65.1156 49.7122 64.0596L64.3482 49.4236C65.4042 48.3686 65.4042 46.6576 64.3482 45.6026L54.4492 35.7036Z" fill="#25221F"/>
<path fill-rule="evenodd" clip-rule="evenodd" d="M44.5156 34.2065L34.3906 23.8315L35.8226 22.4355L45.9476 32.8105L44.5156 34.2065Z" fill="#25221F"/>
<path fill-rule="evenodd" clip-rule="evenodd" d="M28.6406 50.0815L18.5156 39.7065L19.9476 38.3105L30.0726 48.6855L28.6406 50.0815Z" fill="#25221F"/>
</svg>
