<?xml version="1.0" encoding="utf-8"?>
<!-- Generator: Adobe Illustrator 19.0.0, SVG Export Plug-In . SVG Version: 6.00 Build 0)  -->
<svg version="1.1" id="Layer_1" xmlns="http://www.w3.org/2000/svg" xmlns:xlink="http://www.w3.org/1999/xlink" x="0px" y="0px"
	 width="50px" height="50px" viewBox="68.3 19.7 50 50" style="enable-background:new 68.3 19.7 50 50;" xml:space="preserve">
<style type="text/css">
	.st0{fill:#FFFFFF;}
</style>
<title>HP WhiteSVG</title>
<g id="Layer_2">
	<g id="Layer_1-2">
		<path class="st0" d="M93.2,19.8c0.7,0,1.5-0.2,2.2,0c12.2,1,21.9,10.8,22.8,23.1c-0.1,1.1-0.1,2.3,0,3.4c-0.2,3.3-1.1,6.5-2.5,9.4
			c-3.8,7.8-11.4,13.1-20.1,13.9c-0.7,0.1-1.4,0.1-2.2,0.1c-0.5,0-1,0.1-1.4-0.1c1.8-4.9,3.5-9.9,5.3-14.8c1.9,0,3.9,0,5.8,0
			c1.3,0,2.4-0.8,2.9-2c1.6-4.6,3.3-9.2,4.9-13.8c0.3-0.7,0.4-1.5,0.2-2.2c-0.3-0.9-1.1-1.6-2-1.8c-0.8-0.2-1.6-0.2-2.4-0.2
			c-2.5,0-5,0-7.4,0L99,35.1c-4,11.3-8,22.5-12,33.8c-9.3-2.4-16.4-10-18.3-19.5c-0.3-1.5-0.4-3-0.5-4.6c0-3.2,0.6-6.4,1.8-9.4
			C73,27.9,79.8,22,87.7,20.3c-4,11.2-8,22.4-12,33.7c0.3,0.1,0.5,0.1,0.8,0.1c1.5,0,2.9,0,4.4,0c0.2,0,0.2-0.3,0.3-0.4
			c1.8-5,3.6-10,5.4-15c0.1-0.3,0.2-0.6,0.4-0.9c0.9,0,1.8,0,2.8,0c-1.9,5.4-3.9,10.9-5.8,16.3c0.2,0.1,0.4,0.1,0.6,0.1
			c1.5,0,3.1,0,4.6,0c1.7-4.9,3.5-9.9,5.3-14.8c0.4-1,0.4-2.2-0.2-3.1c-0.6-0.8-1.5-1.3-2.4-1.3c-1.3,0-2.6,0-3.9,0
			C89.6,29.8,91.5,24.8,93.2,19.8z"/>
		<path class="st0" d="M103.5,37.7c0.2-0.2,0.4-0.1,0.6-0.1c0.7,0,1.4,0,2.1,0c-1.7,4.8-3.4,9.5-5,14.2c-0.9,0.1-1.9,0-2.8,0
			C100.1,47.2,101.8,42.5,103.5,37.7z"/>
	</g>
</g>
</svg>
