<svg width="60" height="85" viewBox="0 0 60 85" fill="none" xmlns="http://www.w3.org/2000/svg">
<mask id="mask0" mask-type="alpha" maskUnits="userSpaceOnUse" x="0" y="0" width="60" height="35">
<path fill-rule="evenodd" clip-rule="evenodd" d="M59.6622 17.2506V0.235779H0V17.2506V34.2654H59.6622V17.2506Z" fill="white"/>
</mask>
<g mask="url(#mask0)">
<path fill-rule="evenodd" clip-rule="evenodd" d="M34.2738 3.65706L34.9385 0.235352C35.5431 0.352325 36.1458 0.48772 36.7458 0.641536L35.8735 4.01811C35.3418 3.87996 34.8092 3.76022 34.2738 3.65706ZM51.6138 15.091C51.3092 14.6397 50.9908 14.1957 50.6575 13.7619L53.4323 11.6426C53.808 12.1335 54.1689 12.6355 54.5123 13.1457L51.6138 15.091ZM15.3046 6.96917L13.5222 3.97114C14.0538 3.65614 14.5948 3.35772 15.1431 3.0768L16.7391 6.17706C16.2545 6.42667 15.7754 6.68917 15.3046 6.96917ZM56.0095 33.7985C56.0825 33.2569 56.1388 32.7154 56.1775 32.1747L59.6622 32.4243C59.6178 33.0386 59.5542 33.6521 59.4702 34.2655L56.0095 33.7985ZM0 20.9489L0.0138462 20.9075C0.196615 20.3382 0.396923 19.7727 0.616615 19.21L3.87231 20.4718C3.67846 20.9701 3.50123 21.4721 3.33969 21.974L0 20.9489Z" fill="#24211F"/>
</g>
<path fill-rule="evenodd" clip-rule="evenodd" d="M5.17722 66.2524L7.26355 65.0476C7.43344 64.9499 7.65012 65.0074 7.74778 65.1764L8.95263 67.2635C9.0503 67.4333 8.99203 67.65 8.82295 67.7477L6.73581 68.9525C6.56674 69.0501 6.35006 68.9927 6.25239 68.8228L5.04755 66.7358C4.94988 66.5667 5.00733 66.35 5.17722 66.2524Z" fill="#24211F"/>
<path fill-rule="evenodd" clip-rule="evenodd" d="M56 49.4995C56 50.3286 55.3291 51 54.5005 51C53.672 51 53 50.3286 53 49.4995C53 48.6714 53.672 48 54.5005 48C55.3291 48 56 48.6714 56 49.4995Z" fill="#24211F"/>
<path fill-rule="evenodd" clip-rule="evenodd" d="M45.6715 30.0489L45.5368 27.627C45.5102 26.0042 45.0952 24.4432 44.3625 23C44.3143 23.117 44.2592 23.2367 44.1973 23.3592C43.6898 24.3534 42.5185 25.1516 41 25.3276C41.0138 25.8745 41.0462 26.2383 41.0541 26.8143L41.1613 33.9275C45.3647 34.3765 45.4571 40.2943 44.8503 43.5171C44.5297 45.2152 43.6947 48.8471 46 50L45.6715 30.0489Z" fill="#B41F6D"/>
<path fill-rule="evenodd" clip-rule="evenodd" d="M19.1628 38.0361C23.2576 38.2649 24.9571 40.8576 25.5751 45.0519C26.0424 48.2258 26.2596 51.9991 31.0492 52C36.0814 52.0009 36.3136 47.8744 35.6178 43.6801C35.0476 40.2381 34.0166 35.524 38 34.7634L37.9064 28.1256L37.8427 25.9475C37.8361 25.9026 37.8277 25.8569 37.8202 25.813C35.1131 25.0598 34.5962 23.2742 34.4886 22.1614C31.9922 21.2462 31.3901 20.8755 31.8545 18.3258C30.5642 18.1565 28.8974 16.5943 29.2242 15.0522C28.815 15.0129 28.3918 14.9955 27.9564 15.001C19.0317 15.1355 11.888 21.2279 12.0013 28.6088L12.1924 31.2647L12.3656 42.5398C13.61 40.8448 16.2235 37.8714 19.1628 38.0361Z" fill="#B41F6D"/>
<path fill-rule="evenodd" clip-rule="evenodd" d="M28.9285 15.8307C20.5119 15.9578 13.7517 21.6413 13.8576 28.4998L14.0462 31.1024L14.4652 58.1643C14.5079 60.9644 16.7876 63.2259 19.4808 63.1701L40.2789 62.8592C41.5971 62.8391 42.8262 62.2977 43.7412 61.3357C44.6656 60.3627 45.1626 59.0742 45.1412 57.7062L44.725 30.6945L44.5996 28.2849C44.5847 27.3512 44.4463 26.4395 44.1853 25.5524C43.6437 26.0527 42.9599 26.4349 42.1982 26.6553C42.2084 26.8848 42.2177 27.1208 42.2214 27.407L42.6153 55.4804C42.6515 59.7619 40.2092 60.1213 39.4595 60.1286C38.5277 60.1204 37.4771 59.6759 37.465 58.7971L37.0293 28.0426L37.033 26.0609C37.0172 26.0581 37.0024 26.0545 36.9875 26.0508C36.6112 25.9685 36.3149 25.9045 36.0892 25.8167L36.0864 25.8231C34.8081 25.3476 34.1262 23.7555 34.1327 22.4981C34.1336 22.4378 34.1346 22.3774 34.1383 22.3189C33.2623 22.2951 32.6603 21.9869 32.2655 21.6605C31.4201 20.96 31.0299 19.7949 31.134 18.3281C30.5598 18.1013 30.0786 17.7374 29.7368 17.2609C29.432 16.8394 29.2555 16.3547 29.2082 15.8307C29.1162 15.8289 29.0224 15.8289 28.9285 15.8307ZM19.4074 65C15.7072 65 12.6657 61.9667 12.6072 58.1927L12.1901 31.181L12.0015 28.5775C11.8779 20.6591 19.4603 14.1426 28.9025 14.0018H28.9044C29.3772 13.9935 29.8352 14.0146 30.2774 14.0575L31.0968 15.1549C31.0058 15.581 31.0578 15.934 31.2529 16.2038C31.4572 16.49 31.8316 16.6866 32.2794 16.7452L33.0709 17.8142C32.8628 18.9509 33.0124 19.8882 33.4611 20.2613C33.9841 20.6948 34.9967 20.4223 35.5541 20.222L36.1904 21.9403H36.1895C36.0446 21.9933 35.9925 22.2796 35.9907 22.5082C35.987 23.2196 36.4004 23.985 36.7422 24.1122L36.7478 24.1186C36.8584 24.1515 37.1241 24.2073 37.3888 24.2658C38.3475 24.4734 38.7851 24.5694 38.8817 25.2159L38.8919 25.3503L38.8873 28.0325L39.3165 58.2951C39.4762 58.3097 39.6918 58.296 39.8952 58.1817C40.4554 57.8653 40.7694 56.8886 40.7573 55.5014L40.3634 27.4317C40.3597 27.118 40.3476 26.8693 40.3374 26.6187C40.3281 26.4066 40.3179 26.1926 40.3123 25.942L41.1243 25.0129C42.1694 24.8831 43.0501 24.3216 43.4216 23.5461C43.47 23.4437 43.5127 23.3422 43.5517 23.2434L45.2592 23.1858C46.0265 24.7989 46.4288 26.4944 46.4557 28.2245L46.5811 30.6332L46.9992 57.6778C47.027 59.5214 46.3526 61.2653 45.0985 62.5849C43.836 63.9136 42.1341 64.6607 40.3077 64.6882L19.5086 64.9991C19.4752 64.9991 19.4417 65 19.4074 65Z" fill="#24211F"/>
<path fill-rule="evenodd" clip-rule="evenodd" d="M24.1562 68.2402L24.3423 80.1742C24.3845 82.8888 26.6578 85.0406 29.4399 84.9995L29.5096 84.9977C32.2908 84.9574 34.4963 82.7394 34.4541 80.0247L34.2689 68.0898L24.1562 68.2402Z" fill="#24211F"/>
</svg>
