<svg xmlns="http://www.w3.org/2000/svg" viewBox="0 0 71.46 71.46"><defs><style>.cls-1{fill:#d41367;}.cls-2{fill:#25211f;}</style></defs><title>Level Up Icon</title><g id="Layer_2" data-name="Layer 2"><g id="Layer_1-2" data-name="Layer 1"><path class="cls-1" d="M46.88,29.23,37,16.83a1.59,1.59,0,0,0-2.49,0l-9.91,12.4a1.59,1.59,0,0,0,1.25,2.58h5.3a.38.38,0,0,1,.37.38v3.13h0V54.65a.58.58,0,0,0,.59.58h6.67a.58.58,0,0,0,.59-.58V35.32h0V32.19a.38.38,0,0,1,.37-.38h5.89A1.59,1.59,0,0,0,46.88,29.23Z"/><path class="cls-2" d="M35.73,71.46A35.73,35.73,0,1,1,71.46,35.73,35.77,35.77,0,0,1,35.73,71.46ZM35.73,5A30.73,30.73,0,1,0,66.46,35.73,30.77,30.77,0,0,0,35.73,5Z"/></g></g></svg>