<?xml version="1.0" encoding="UTF-8"?> <!-- Generator: Adobe Illustrator 19.0.0, SVG Export Plug-In . SVG Version: 6.00 Build 0) --> <svg xmlns="http://www.w3.org/2000/svg" xmlns:xlink="http://www.w3.org/1999/xlink" id="Layer_1" x="0px" y="0px" width="30px" height="30px" viewBox="-29 31 30 30" style="enable-background:new -29 31 30 30;" xml:space="preserve"> <style type="text/css"> .st0{fill:#231E1C;} </style> <title>heart</title> <desc>Created with Sketch.</desc> <g> <path class="st0" d="M-10.2,47.3c0.9-0.9,0.9-2.3,0-3.3c-0.9-0.9-2.3-0.9-3.3,0l-0.9,1l-0.9-1c-0.5-0.4-1-0.7-1.7-0.7 c-0.6,0-1.2,0.2-1.6,0.7c-0.9,0.9-0.9,2.3,0,3.3l4.2,4.2L-10.2,47.3z"></path> <path class="st0" d="M0.3,44.6l-13-13c-0.8-0.8-2.1-0.8-2.8,0l-6.1,6.1V36H-23v2v2.2h2.8h1.4v-1.3h-2.1l6.3-6.3 c0.1-0.1,0.3-0.2,0.5-0.2c0.2,0,0.3,0.1,0.5,0.2l13,13c0.1,0.1,0.2,0.3,0.2,0.5s-0.1,0.3-0.2,0.5l-3.9,4l0.9,0.9l4-4 C0.8,47.1,1,46.6,1,46.1C0.8,45.5,0.6,45,0.3,44.6z"></path> <path class="st0" d="M-9.7,52.1v1.3h2.1l-6,6c-0.3,0.3-0.7,0.3-0.9,0l-13-13c-0.1-0.1-0.2-0.3-0.2-0.5s0.1-0.3,0.2-0.5l3.8-3.8 l-0.9-0.9l-3.8,3.7c-0.8,0.8-0.8,2.1,0,2.8l13,13c0.3,0.6,0.8,0.8,1.3,0.8s1-0.2,1.4-0.6l5.9-5.9v1.8h1.3v-2.7v-1.5h-2.6 C-8.1,52.1-9.7,52.1-9.7,52.1z"></path> </g> </svg> 