<?xml version="1.0" encoding="utf-8"?>
<!-- Generator: Adobe Illustrator 23.0.0, SVG Export Plug-In . SVG Version: 6.00 Build 0)  -->
<svg version="1.1" id="Layer_1" xmlns="http://www.w3.org/2000/svg" xmlns:xlink="http://www.w3.org/1999/xlink" x="0px" y="0px"
	 viewBox="0 0 30 30" style="enable-background:new 0 0 30 30;" xml:space="preserve">
<style type="text/css">
	.st0{fill:#FFFFFF;}
</style>
<path class="st0" d="M15,0C6.7,0,0,6.7,0,15s6.7,15,15,15s15-6.7,15-15S23.3,0,15,0z M15,29.4C7,29.4,0.6,22.9,0.6,15S7,0.6,15,0.6
	S29.4,7,29.4,15S23,29.4,15,29.4z"/>
<g>
	<g id="Layer_1-2_2_">
		<path class="st0" d="M15,18.5c-3.2,0-5.9-2.6-5.9-5.9s2.6-5.9,5.9-5.9c3.2,0,5.9,2.6,5.9,5.9S18.2,18.5,15,18.5z M15,7.3
			c-2.9,0-5.3,2.4-5.3,5.3s2.4,5.3,5.3,5.3c2.9,0,5.3-2.4,5.3-5.3S17.9,7.3,15,7.3z"/>
		<polygon class="st0" points="17.4,23.7 15.8,18 16.4,17.8 17.6,22.1 18.3,20.9 19.8,21.6 18.4,16.8 19,16.6 20.6,22.6 18.5,21.7 
					"/>
		<polygon class="st0" points="13.3,23.4 12.1,21.6 10.1,22.7 11.4,17.1 12,17.3 10.9,21.5 12.3,20.8 13.1,22 14,17.9 14.6,18.1 		
			"/>
	</g>
</g>
<g>
	<path class="st0" d="M15,8.1c-2.5,0-4.5,2-4.5,4.5s2,4.5,4.5,4.5s4.5-2,4.5-4.5S17.5,8.1,15,8.1z M14.7,14.6
		c-0.1,0.1-0.2,0.2-0.4,0.2s-0.3-0.1-0.4-0.2l-1.4-1.4l0.8-0.8l0.9,1l2.3-2.8l0.9,0.7L14.7,14.6z"/>
</g>
</svg>
