<?xml version="1.0" encoding="utf-8"?>
<!-- Generator: Adobe Illustrator 19.0.0, SVG Export Plug-In . SVG Version: 6.00 Build 0)  -->
<svg version="1.1" id="Layer_1" xmlns="http://www.w3.org/2000/svg" xmlns:xlink="http://www.w3.org/1999/xlink" x="0px" y="0px"
	 width="112.1px" height="80px" viewBox="11 6 112.1 80" style="enable-background:new 11 6 112.1 80;" xml:space="preserve">
<style type="text/css">
	.st0{fill:#FFFFFF;}
</style>
<title>MLB WhiteSVG</title>
<g id="Layer_2">
	<g id="Layer_1-2">
		<g id="YfTAA7.tif">
			<path class="st0" d="M17.8,20.6c0.3,0,0.3-0.4,0.4-0.5c0.9-2.5,3.3-4.3,6.1-4h43c3.2,0,6.6,0.1,9.8,0c0.6-0.1,1.2,0.3,1.6,0.8
				c5.4,7.1,10.8,14.2,16.2,21.3c0.9,1.1,0.1,2.2,0.1,3.3c0,0.3-0.3,0.2-0.4,0.1c-3.6-1.7-7.5-1.3-11.2-1.5c-0.9-0.1-1.8-0.1-2.6,0
				c-0.8,0.1-1.5-0.4-1.7-1.1c-0.2-0.5-0.4-1.1-0.5-1.7c-0.2-0.4,0-0.9,0.4-1.1l0,0c1-0.6,1.5-1.7,1.4-2.8
				c-0.1-3.9-1.7-7.6-4.4-10.4c-1.3-1.3-3.1-1.7-4.8-1.8c-1.3-0.1-2.5-0.1-3.9-0.1c-5-0.1-9.1,4-9.2,9c0,0.1,0,0.1,0,0.2
				c0.1,0.9-0.4,1.8-1.2,2.1c-1.1,0.7-2.4,1.4-3.5,2.1c-0.4,0.3-0.9,0.5-0.7,1c0.2,0.4,0.7,0.3,1.1,0.3c1.2,0,2.5-0.2,3.6-0.2
				c1.5,0,1.8,0.4,1.3,1.8c-0.4,1.2-1,2.4-1.5,3.5c-0.4,0.8-0.1,1,0.6,1h0.7c1.7-0.1,1.8,0.1,1.9,1.8s0.1,1.8-1.5,2.6
				c-1.8,1-3.2,2.5-3.9,4.5c-1.5,3.7-2,7.6-2.6,11.5c-0.1,0.6,0.3,0.7,0.7,0.7c1,0,1.9,0.1,2.9,0c0.7-0.1,1.3,0.3,1.7,0.9
				c0.6,1.1,1.1,2.1,1.4,3.2c-0.4,0.2-0.8,0.2-1.2,0.1c-11,0-22,0-33,0c-3.2,0-5.4-1.1-6.5-4.2c0-0.2-0.2-0.3-0.4-0.3v-0.7
				c0.4-0.3,0.2-0.7,0.2-1.1c0-12.9,0-25.9,0-38.8c0-0.3,0.2-0.7-0.2-1L17.8,20.6L17.8,20.6z M33.7,54.9c0-2.2-1.8-4-4-3.9
				c-2.2,0.1-4,1.8-3.9,4c0.1,2.2,1.8,4,4,3.9C32,58.9,33.7,57.1,33.7,54.9L33.7,54.9z"/>
			<path class="st0" d="M18.1,68.9c1.1-0.3,1.7,0,1.8,1.2c0.2,1.1,0.4,2.2,0.7,3.2c0.4-1.4,0.7-2.6,1-3.9c0.2-0.9,0.8-0.7,1.3-0.7
				c0.8,0,0.5,0.6,0.5,1c0,1.7,0,3.3,0,5.1c0,0.4,0.1,0.8-0.5,0.8c-0.6,0-0.5-0.4-0.5-0.9c0-1.3,0-2.6-0.1-4c-0.4,1.3-0.6,2.6-1,4
				c-0.1,0.4,0,0.8-0.6,0.8c-0.6-0.1-0.4-0.4-0.4-0.8c-0.4-1.5-0.7-2.9-1.1-4.3c0,1.3-0.1,2.6,0,3.9c0.1,1-0.3,1.3-1.1,1.3v-0.4
				c0.4-0.3,0.2-0.7,0.3-1.1C18.1,72.5,18.1,70.7,18.1,68.9z"/>
			<path class="st0" d="M17.8,21.3c0.4,0.3,0.2,0.7,0.2,1.1c0,12.9,0,25.9,0,38.8c0,0.4,0.2,0.7-0.2,1.1V21.3z"/>
			<path class="st0" d="M18.1,68.9c0,1.8,0,3.6,0,5.4c0,0.4,0.1,0.7-0.3,1.1v-6.4H18.1z"/>
			<path class="st0" d="M85.7,16c8.1,0,16.2,0,24.4,0c3.2-0.1,6.1,2.4,6.1,5.7c0,0.2,0,0.4,0,0.5c0,12.9,0,25.8,0,38.7
				c0.2,3.2-2.4,6.1-5.6,6.2c-0.2,0-0.4,0-0.5,0c-3.2,0-6.6,0-9.8,0c-0.7,0-0.9-0.2-0.9-0.9c0.1-0.9,0.1-1.8,0.1-2.6
				c0-0.8,0.3-0.9,1-0.9c2.4,0.2,4.7,0,7-0.5c0.5-0.1,1-0.3,1.5-0.4c3.2-1.4,3.8-2.2,2.9-6c-0.7-3.1-2.8-5.4-5.4-7.3
				c-0.5-0.4-1-1-1.1-1.6c-0.1-0.8-0.4-1.6-0.9-2.2c-1.5-1.8-2.7-4-4.7-5.4c-0.2-0.2-0.4-0.4-0.5-0.6L85.7,16.6
				C85.6,16.4,85.6,16.1,85.7,16z"/>
			<path class="st0" d="M97.1,72.1c0-0.5,0-1.1,0-1.7c0-1.8,0-1.8,2.3-1.6c1.6,0.1,2.3,0.9,1.8,2.1c-0.3,0.7-0.2,1.5,0.2,2.2
				c0.4,0.9-0.1,1.9-1.1,2.3c-0.2,0.1-0.3,0.1-0.4,0.1c-2.5,0.5-2.8,0.4-2.8-2.2C97.1,72.9,97.1,72.6,97.1,72.1z M98.4,73.6
				c0.2,0.4-0.4,1.1,0.6,1.1c0.5,0.1,1.1-0.4,1.1-0.9c0-0.1,0-0.2,0-0.3c0-0.7-0.4-1.1-1.1-1.1C98.3,72.6,98.6,73.3,98.4,73.6
				L98.4,73.6z M98.4,70.7c0.2,0.4-0.3,1.1,0.6,1c0.5,0,0.9-0.4,1-0.8c0-0.1,0-0.1,0-0.2c0-0.6-0.4-1-1-1
				C98.2,69.7,98.5,70.3,98.4,70.7L98.4,70.7z"/>
			<path class="st0" d="M78,72.2c0-0.9,0-1.8,0-2.7c0-0.3-0.1-0.6,0.4-0.6c0.9-0.1,1.8,0,2.7,0.2c0.9,0.4,1.3,1.4,0.9,2.3
				c0,0.1-0.1,0.2-0.1,0.3c-0.3,0.4-0.3,0.4,0,0.8c0.7,0.8,0.6,2-0.3,2.6c-0.3,0.3-0.6,0.4-1,0.4c-2.5,0.4-2.6,0.4-2.6-2.1
				C78,73,78,72.6,78,72.2z M79.3,73.6c0.2,0.4-0.4,1.1,0.5,1.1c0.9,0,1.1-0.4,1.1-1.1s-0.4-1-1.1-1C79,72.6,79.5,73.4,79.3,73.6
				L79.3,73.6z M80.8,70.6c0.1-0.4-0.3-0.9-0.8-1H80c-0.7-0.1-0.6,0.4-0.5,0.8c0.1,0.4-0.4,1.1,0.5,1.1c0.5,0,0.9-0.4,0.9-0.8
				C80.8,70.7,80.8,70.7,80.8,70.6L80.8,70.6z"/>
			<path class="st0" d="M42.7,75.6c-0.9,0.4-1.4,0.1-1.7-0.9c-0.2-0.5-0.4-1-0.5-1.5c-0.1-0.3-0.2-0.4-0.4-0.4s-0.3,0.3-0.3,0.5
				c0,0.5,0,1.1,0,1.6s0,0.8-0.6,0.8c-0.6,0-0.7-0.3-0.7-0.8c0-1.8,0-3.6,0-5.4c0-0.4,0-0.7,0.5-0.7c0.8,0,1.6,0,2.5,0.2
				c1,0.4,1.6,1.4,1.2,2.4c-0.1,0.3-0.2,0.4-0.4,0.6c-0.6,0.6-0.4,1.1-0.3,1.7C42.3,74.2,42.5,74.9,42.7,75.6z M41.2,70.9
				c0-0.7-0.2-1.1-0.9-1.1c-0.7,0-0.6,0.5-0.5,0.8c0.1,0.3-0.5,1.2,0.4,1.3c0.4,0.1,0.9-0.3,1-0.7C41.3,71.1,41.3,71,41.2,70.9
				L41.2,70.9z"/>
			<path class="st0" d="M61.2,72.3c0,0.5,0,1.1,0,1.7s0.1,0.8,0.6,0.9c0.4,0.1,0.7-0.1,0.8-0.4c0.1-0.4,0.4-1-0.1-1.2
				C62.1,73,62,72.8,62,72.5c0.1-0.4,0.5-0.2,0.8-0.3c0.9-0.2,1.5,0.1,1.3,1.2c-0.1,0.4,0,0.7,0,1.1c-0.1,0.5,0.4,1.8-1,0.9
				c-0.1-0.1-0.4,0.2-0.7,0.3c-0.9,0.4-1.9,0-2.4-0.9c-0.1-0.3-0.2-0.5-0.2-0.8c-0.2-1.3-0.2-2.6,0-4c0.2-1.1,1-1.5,2.3-1.4
				c1,0,1.8,0.7,1.8,1.7c0,0.4,0.1,0.7-0.4,0.7c-0.4,0-0.9,0.3-0.9-0.4c0-0.5-0.2-1.1-0.9-1.1c-0.7,0-0.7,0.7-0.7,1.3
				C61.2,71.5,61.2,71.9,61.2,72.3L61.2,72.3z"/>
			<path class="st0" d="M66.8,71.7c0,0.6,0,1.2,0,1.8c0,0.6-0.1,1.3,0.7,1.3s0.7-0.8,0.7-1.3c0-1.3,0-2.5,0-3.9c0-0.5,0-0.8,0.7-0.8
				s0.6,0.4,0.6,0.9c0,1.4,0,2.9,0,4.3c-0.1,1.4-0.7,1.8-2.1,1.8c-1.4,0-1.9-0.6-1.9-1.8c-0.1-1.5,0-2.9,0-4.4
				c0-0.4,0.1-0.7,0.6-0.7s0.8,0,0.8,0.6C66.8,70.2,66.8,70.9,66.8,71.7z"/>
			<path class="st0" d="M37.1,72.3c0,0.4,0,0.9,0,1.3c-0.1,1.6-0.7,2.2-2.2,2.1c-1.5,0-2-0.7-2.1-2.2c0-1,0-1.9,0-2.9
				c-0.1-1,0.7-1.8,1.7-1.9c0.2,0,0.3,0,0.4,0c1-0.2,1.9,0.5,2.1,1.5c0,0.2,0,0.3,0,0.4C37,71.2,37,71.8,37.1,72.3L37.1,72.3z
				 M35.7,72.2L35.7,72.2c0-0.6,0-1.2,0-1.8c0-0.4-0.3-0.7-0.6-0.8H35c-0.4,0-0.7,0.3-0.7,0.6c0,0,0,0,0,0.1c0,1.3,0,2.6,0,4
				c0,0.4,0.3,0.7,0.7,0.7c0.1,0,0.1,0,0.2,0c0.5,0,0.7-0.4,0.7-0.8C35.7,73.5,35.7,72.8,35.7,72.2z"/>
			<path class="st0" d="M85,68.9c0.7-0.2,1,0.1,1.1,0.8c0.3,1.8,0.7,3.4,1,5.2c0.1,0.3,0.4,0.8-0.3,0.8c-0.4,0-1,0.2-1.1-0.5
				c-0.1-0.5-0.1-0.9-0.8-0.9s-0.7,0.5-0.8,1c-0.1,0.6-0.5,0.4-1,0.4c-0.6,0-0.4-0.4-0.3-0.7c0.4-1.8,0.7-3.6,1-5.4
				C84.2,69,84.4,68.7,85,68.9z M85,70.3c-0.1,1-0.2,1.8-0.3,2.5c0,0.4,0,0.5,0.4,0.6c0.4,0.1,0.5-0.3,0.4-0.6
				C85.5,71.9,85.3,71.1,85,70.3L85,70.3z"/>
			<path class="st0" d="M56.8,68.9c0.7-0.2,1,0.1,1.1,0.8c0.3,1.8,0.7,3.4,1,5.2c0.1,0.3,0.4,0.8-0.3,0.8c-0.4,0-0.9,0.2-1-0.5
				c-0.1-0.4-0.1-0.9-0.8-0.9c-0.7,0-0.7,0.5-0.8,1c-0.1,0.6-0.5,0.4-1,0.4c-0.6,0-0.4-0.4-0.3-0.7c0.4-1.8,0.7-3.6,1-5.4
				C56,69,56.2,68.7,56.8,68.9z M56.9,70h-0.2c-0.1,0.9-0.3,1.8-0.4,2.7c0,0.4-0.2,0.7,0.4,0.7s0.5-0.4,0.4-0.7
				C57.2,71.8,57,70.9,56.9,70L56.9,70z"/>
			<path class="st0" d="M28,75.7c-0.5,0.1-0.7-0.2-0.8-0.6c0-0.5-0.3-0.8-0.8-0.8s-0.7,0.3-0.7,0.7c0,0.6-0.4,0.7-0.9,0.7
				c-0.8-0.1-0.4-0.6-0.4-0.9c0.4-1.8,0.7-3.5,1-5.3c0.1-0.6,0.4-0.6,0.9-0.6c0.4,0,1-0.1,1.1,0.6c0.4,1.8,0.7,3.8,1.1,5.6
				C28.7,75.6,28.4,75.7,28,75.7z M26.6,70h-0.4c0,1,0,1.8-0.3,2.8c-0.1,0.4,0.1,0.5,0.4,0.5s0.4-0.1,0.4-0.4
				C26.7,72,26.7,71,26.6,70z"/>
			<path class="st0" d="M105.8,75.7c-0.4,0-0.7,0-0.8-0.4c-0.1-0.4,0-1-0.8-1s-0.8,0.4-0.8,0.9c-0.1,0.7-0.6,0.5-1,0.5
				c-0.5-0.1-0.3-0.5-0.3-0.8c0.4-1.8,0.7-3.6,1.1-5.4c0.1-0.7,0.5-0.7,1.1-0.7s0.9,0,1.1,0.7c0.3,1.8,0.7,3.6,1.1,5.4
				C106.4,75.4,106.4,75.8,105.8,75.7z M104.3,70.2l-0.2-0.1c-0.2,0.9-0.3,1.8-0.4,2.7c-0.1,0.4,0,0.5,0.4,0.5
				c0.4,0,0.6-0.2,0.5-0.6C104.5,71.9,104.5,71.1,104.3,70.2z"/>
			<path class="st0" d="M50.6,72.1v-0.8c0-2.8,0.2-2.9,3-2.5c0.4,0,0.5,0.1,0.5,0.5c0,0.4-0.2,0.4-0.4,0.4s-0.5,0-0.8,0
				c-0.6-0.1-1.1,0-1,0.9c0.1,0.9,0.1,1.1,1,1c0.4-0.1,0.8-0.2,0.8,0.4c0,0.6-0.4,0.6-0.9,0.5c-1.1-0.2-0.8,0.6-0.9,1.2
				c-0.1,0.8,0.3,0.9,1,0.9c0.4,0,1.4-0.5,1.4,0.4c0,1-1,0.5-1.5,0.5c-2.2,0.1-2.2,0-2.2-2.2C50.6,73,50.6,72.6,50.6,72.1z"/>
			<path class="st0" d="M71,72.3c0-0.4,0-0.8,0-1.2c0.1-0.7-0.4-1.8,0.2-2.1c0.9-0.5,2-0.2,3-0.2c0.3,0,0.4,0.2,0.4,0.4
				s-0.1,0.5-0.4,0.5c-0.2,0-0.4,0-0.7,0c-0.9-0.2-1.1,0.2-1.1,1.1c0,0.7,0.4,0.7,0.9,0.7c0.4,0,0.9-0.2,0.9,0.5s-0.4,0.5-0.8,0.4
				c-1.1-0.2-0.9,0.5-1,1.2c-0.1,0.9,0.4,0.9,1.1,1c0.4,0,1.4-0.5,1.3,0.5c-0.1,1.1-0.9,0.4-1.3,0.4c-2.4,0.1-2.4,0-2.4-2.4L71,72.3
				z"/>
			<path class="st0" d="M92.6,72.2c0-0.9,0-1.8,0-2.6c0-0.6,0.2-0.9,0.8-0.8c0.6,0.1,1.4,0,2.1,0c0.4,0,0.7,0,0.6,0.5
				c0,0.5-0.3,0.4-0.6,0.4c-0.2,0-0.4,0-0.7,0c-0.7-0.1-1,0.1-1,0.9s0.2,1.1,1,1c0.4-0.1,0.8-0.1,0.8,0.4c0,0.6-0.4,0.5-0.8,0.5
				c-1.2-0.2-0.9,0.7-1,1.3c-0.1,0.9,0.4,0.7,1.1,0.8c0.6,0.1,1.4-0.4,1.3,0.5c-0.1,1-0.9,0.4-1.3,0.4c-2.4,0.1-2.4,0-2.4-2.3
				C92.6,73,92.6,72.6,92.6,72.2z"/>
			<path class="st0" d="M89.6,75.8c-0.8,0.1-1.5-0.4-1.8-1.1c-0.2-0.3-0.4-0.7,0.2-0.9c0.4-0.1,0.8-0.3,1,0.4
				c0.2,0.6,0.4,0.9,1.1,0.6c0.4-0.3,0.4-0.7,0.3-1.1c0-0.1-0.1-0.2-0.2-0.2c-0.5-0.7-1.2-1.2-1.8-1.9c-0.7-0.6-0.7-1.7-0.1-2.4
				c0.7-0.6,1.8-0.7,2.5-0.3c0.4,0.3,0.7,0.7,0.7,1.1c0,0.3-0.2,0.3-0.4,0.3c-0.4,0.2-0.8-0.1-1-0.4c0,0,0-0.1,0-0.2
				c-0.1-0.3-0.4-0.4-0.6-0.3c0,0-0.1,0-0.1,0.1c-0.3,0.2-0.4,0.4-0.3,0.8c0.1,0.4,0.4,0.7,0.7,1c0.4,0.4,1,0.9,1.4,1.4
				c0.7,0.7,0.6,1.8-0.1,2.5C90.7,75.6,90.2,75.8,89.6,75.8L89.6,75.8z"/>
			<path class="st0" d="M107.3,72.2c0-0.9,0-1.8,0-2.7c0-0.6,0.4-0.6,0.8-0.6c0.4,0,0.6,0.3,0.6,0.7c0,1.4,0,2.8,0,4.2
				c0,0.8,0.2,1.1,1.1,1.1c0.4,0,1.4-0.5,1.3,0.5c-0.1,1.1-1,0.4-1.4,0.4c-2.3,0.1-2.3,0-2.3-2.3C107.3,73,107.3,72.6,107.3,72.2z"
				/>
			<path class="st0" d="M111.7,72.2c0-0.7,0-1.5,0-2.2c0-0.4-0.4-1.1,0.6-1.1c1,0,0.7,0.6,0.7,1.1c0,1.3,0.1,2.5,0,3.9
				c0,0.7,0.2,0.9,0.9,1c0.5,0,1.5-0.5,1.4,0.5c-0.1,1.1-1,0.4-1.4,0.4c-2.3,0.1-2.3,0-2.3-2.3C111.7,73,111.7,72.6,111.7,72.2z"/>
			<path class="st0" d="M46.2,72.2c0-0.9,0-1.8,0-2.7c0-0.5,0.2-0.7,0.7-0.7s0.7,0.2,0.7,0.7c0,1.4,0,2.8,0,4.2c0,0.7,0.1,1.1,1,1.1
				c0.4,0,1.5-0.5,1.4,0.5c0,0.9-1,0.4-1.4,0.4c-2.3,0.1-2.3,0-2.3-2.2C46.2,73.1,46.2,72.7,46.2,72.2z"/>
			<path class="st0" d="M31.4,71.9c0.1,0.9,0.1,1.7,0,2.5c-0.1,0.9-0.9,1.5-1.8,1.5c-0.1,0-0.3,0-0.4-0.1c-0.3-0.1-0.4-0.2-0.4-0.4
				s0-0.5,0.4-0.5c0.8,0,0.9-0.6,0.9-1.1c0-1.3,0-2.7,0-4c0-0.5,0-0.8,0.7-0.8c0.7,0,0.7,0.4,0.6,0.9C31.4,70.5,31.4,71.3,31.4,71.9
				L31.4,71.9z"/>
		</g>
	</g>
</g>
</svg>
