<?xml version="1.0" encoding="UTF-8"?> <svg xmlns="http://www.w3.org/2000/svg" xmlns:xlink="http://www.w3.org/1999/xlink" width="62px" height="71px" viewBox="0 0 62 71"><!-- Generator: Sketch 55.2 (78181) - https://sketchapp.com --><title>NHL</title><desc>Created with Sketch.</desc><g id="Page-1" stroke="none" stroke-width="1" fill="none" fill-rule="evenodd"><g id="Rokt-Calendar-1440" transform="translate(-542.000000, -3880.000000)" fill="#FFFFFF" fill-rule="nonzero"><g id="Group-7" transform="translate(264.000000, 3747.000000)"><g id="Group-4" transform="translate(37.000000, 133.000000)"><g id="NHL" transform="translate(241.590397, 0.000000)"><path d="M0,12.3345098 C1.7096559,11.8194118 3.22628613,11.2764706 4.79806656,10.9423529 C6.92722621,10.4772465 8.63507422,8.87559109 9.25144442,6.76588235 C9.84430897,5.03960784 10.4647486,3.36901961 11.0300381,1.6845098 C11.2230637,1.16941176 11.4436645,0.668235294 11.7056279,0.0139215686 C12.1192543,0.30627451 12.4501555,0.501176471 12.7534815,0.751764706 C14.201174,1.94901961 15.7040167,3.09058824 17.0827714,4.35745098 C20.5020832,7.51764706 24.4039592,6.41784314 27.0511683,3.95372549 C28.250685,2.85392157 29.3536888,1.65666667 30.6221432,0.389803922 L31.8630225,1.54529412 C32.8904126,2.62711169 33.9816183,3.64524237 35.1306712,4.59411765 C37.7001021,6.91688614 41.6007032,6.87460145 44.1201522,4.49666667 C45.5816323,3.24372549 47.084475,2.01862745 48.5735301,0.779607843 C48.8768562,0.529019608 49.2077573,0.320196078 49.6489588,0 C49.9936475,0.863137255 50.3107611,1.60098039 50.5865121,2.3527451 C51.138014,3.84235294 51.6481532,5.33196078 52.1996551,6.82156863 C52.8227166,8.8740564 54.49335,10.427895 56.5703077,10.8866667 C58.1420881,11.262549 59.6587184,11.7915686 61.2994365,12.2788235 C61.2194589,12.6418983 61.1181715,12.9998502 60.9961105,13.3507843 C60.3986501,14.7522222 59.791998,16.1443791 59.1761542,17.5272549 C56.9710497,22.1534617 56.8156796,27.5076385 58.7487402,32.2562745 C59.6762317,34.3603428 60.3609184,36.565164 60.7892973,38.8272549 C61.9623932,45.4970307 59.8782067,52.3287044 55.191553,57.1758824 C51.3042917,61.2026927 46.2209645,63.8374989 40.714628,64.6796078 C38.674071,65.0554902 36.661089,65.5288235 34.6894697,65.932549 L30.7048685,70.2482353 L26.7340548,65.9603922 C23.8662449,65.4313725 20.874347,64.8327451 17.9238118,64.0392157 C11.7699059,62.6298717 6.46325547,58.7219871 3.25386123,53.2360784 C-0.114413359,47.6229839 -0.661254697,40.7339238 1.77859364,34.6507843 C2.65771394,32.5838268 3.33199678,30.4340602 3.79157558,28.2329412 C4.31140053,24.8814032 3.88119568,21.4497488 2.5506963,18.3347059 C1.77859364,16.3856863 0.923765688,14.4923529 0,12.3345098 Z M1.64071816,13.1141176 C2.30252045,14.6176471 2.88159744,15.8984314 3.44688689,17.2905882 C5.23132372,21.2102236 5.67744524,25.6168781 4.71534127,29.82 C4.30756184,31.3984603 3.78213662,32.9435201 3.14356085,34.4419608 C1.34931003,38.6102845 1.02804754,43.274552 2.23358271,47.6535294 C4.46716541,55.6862745 9.98218445,60.5031373 17.7721488,62.7584314 C20.5296583,63.5519608 23.2871679,64.0252941 26.0446774,64.5821569 C26.9510665,64.7567112 27.7668609,65.2499593 28.3471978,65.9743137 C29.0641503,66.8235294 29.8500405,67.6031373 30.7048685,68.5219608 C31.4769711,67.6588235 32.2214987,66.9070588 32.9108761,66.0996078 C33.555551,65.3064119 34.4605594,64.7729471 35.4615724,64.5960784 C37.3504664,64.2758824 39.2255729,63.802549 41.1006793,63.4405882 C46.1410289,62.6355344 50.7834762,60.1915438 54.3229375,56.4798039 C59.0376527,51.6634973 60.965158,44.7359296 59.4243301,38.145098 C59.0162268,36.4098907 58.4579844,34.7142259 57.7560368,33.0776471 C56.7428561,30.6156875 56.2227061,27.9754623 56.225619,25.3094118 C56.2759754,22.2838803 56.976933,19.3055412 58.2799636,16.5805882 C58.7901029,15.4947059 59.2450919,14.3670588 59.7965938,13.1141176 C58.4178391,12.682549 57.0390843,12.3205882 55.7844175,11.875098 C55.0199012,11.6153542 54.2886371,11.264861 53.605985,10.8309804 C52.4097833,9.94526208 51.5333665,8.6887509 51.1104389,7.25313725 C50.4762117,5.55470588 49.8419845,3.84235294 49.1526071,1.96294118 L47.5256765,3.25764706 C46.38131,4.19039216 45.2783062,5.1927451 44.0925772,6.04196078 C42.0731778,7.59664965 39.3955273,7.97157382 37.0333528,7.03039216 C35.5139516,6.45394629 34.1392713,5.54601419 33.0073889,4.37137255 C32.2628613,3.63352941 31.5596964,2.78431373 30.6359307,1.85156863 C29.6784492,3.00469364 28.6565057,4.10164426 27.5750952,5.13705882 C24.3625966,7.92137255 20.2676949,8.65921569 16.5450571,5.47117647 C15.5523537,4.60803922 14.5320751,3.7727451 13.5117966,2.93745098 C13.1395328,2.63117647 12.7259064,2.36666667 12.2571298,2.04647059 C12.0089539,2.67294118 11.8297158,3.14627451 11.6642653,3.61960784 C11.1679135,5.01176471 10.6991369,6.32039216 10.1752101,7.64294118 C9.41990806,9.80235027 7.63599909,11.4308054 5.43229375,11.972549 C4.20520201,12.264902 3.01947292,12.6964706 1.64071816,13.1141176 Z" id="Shape"></path><path d="M30.718656,65.7654902 C30.4754171,65.614842 30.25681,65.4269849 30.0706413,65.2086275 C28.9324368,63.6933924 27.1942365,62.757341 25.3139374,62.6470588 C22.5684618,62.1870466 19.8522064,61.5641377 17.1792843,60.7815686 C10.1544714,58.8249742 4.85692969,52.9837618 3.54339973,45.7462745 C2.96933525,42.8027032 3.17382588,39.7583476 4.13626427,36.92 C4.48095296,35.8480392 4.86700429,34.79 5.29441827,33.7598039 C7.63334228,27.9126532 7.41803443,21.3400728 4.70155372,15.6617647 C4.53610315,15.2858824 4.37065258,14.91 4.15005182,14.3809804 C6.38101658,13.8950848 8.42542672,12.768673 10.0373346,11.1372549 C11.5519314,9.37946076 12.5877294,7.2541451 13.04302,4.97 C13.5669468,5.35980392 13.897848,5.65215686 14.2563242,5.9027451 C15.3869031,6.68235294 16.4761194,7.51764706 17.6618484,8.19980392 C20.0785639,9.59934724 23.0225366,9.70867189 25.5345381,8.49215686 C27.1513749,7.74418894 28.629578,6.72245997 29.9051907,5.47117647 L30.7048685,4.7054902 C31.4631836,5.37372549 32.1663485,6.09764706 32.8970885,6.64058824 C34.4944351,8.00268023 36.4300816,8.89807408 38.4948328,9.23 C40.0531544,9.53165268 41.6667242,9.29119043 43.0722986,8.54784314 C44.4510534,7.76823529 45.8298081,6.82156863 47.2085629,5.91666667 C47.5808267,5.68 47.9117278,5.37372549 48.4356546,4.95607843 C49.6351713,9.89823529 52.3926808,13.1837255 57.1769598,14.2556863 C56.50137,16.33 55.798205,18.2372549 55.2467031,20.2001961 C54.0836609,24.5757808 54.3693283,29.2153325 56.0601684,33.4117647 C57.0221875,35.6337945 57.6897467,37.9742393 58.0455753,40.372549 C58.6267991,45.3904254 57.130096,50.427931 53.909311,54.2941176 C50.9153613,57.9630486 46.7454007,60.459798 42.1209578,61.3523529 C39.7586914,61.8999346 37.3872332,62.4011111 35.0065833,62.8558824 C33.6887582,63.0381984 32.5001103,63.7512891 31.7113594,64.8327451 C31.4135298,65.1777171 31.0808229,65.4903288 30.718656,65.7654902 Z M47.1672003,9.09078431 C44.8188375,10.9554031 41.8774528,11.8909456 38.8946717,11.7219608 C35.8719409,11.3909648 33.0298896,10.1047257 30.7738062,8.04666667 C25.4793879,12.3623529 20.0470942,13.2394118 14.2287491,9.03509804 C13.01093,12.1566765 10.549081,14.6171938 7.44527569,15.814902 C7.66587645,16.4970588 7.84511457,17.0121569 8.02435269,17.5411765 C9.57508768,21.9046987 9.79598764,26.6371784 8.65857988,31.1286275 C8.10707798,33.1890196 7.27982512,35.1798039 6.59044774,37.1984314 C4.32511843,43.6679646 6.40661363,50.8754914 11.7607781,55.1015686 C14.7424648,57.3233578 18.1995803,58.806437 21.8532629,59.4311765 C24.9140985,60.0994118 28.2231099,60.0298039 30.8565315,62.2154902 C31.6226537,61.340324 32.6746409,60.7721636 33.8208542,60.6145098 C35.7511109,60.2247059 37.6813675,59.7792157 39.6116242,59.4172549 C43.4457478,58.876187 47.0574944,57.276774 50.0487977,54.7952941 C54.5540706,51.1563533 56.6447166,45.2650292 55.4535164,39.565098 C55.0447596,37.7651183 54.4819513,36.004385 53.7714355,34.3027451 C52.8351475,31.8737411 52.2680419,29.3157341 52.0893547,26.7154902 C51.9459849,23.4407414 52.4522517,20.1700852 53.5784099,17.0956863 C53.7162854,16.6780392 53.8127982,16.2603922 53.9368861,15.8566667 C50.6416622,14.2556863 50.2280358,13.9215686 47.1672003,9.09078431 Z" id="Shape"></path><path d="M46.960387,13.0723529 L51.4137649,17.1235294 C50.1505802,21.0897517 49.8201326,25.2986305 50.4486366,29.4162745 L16.241731,55.3660784 C11.5401773,53.6537255 7.44527569,47.7927451 7.78996438,42.7670588 L46.960387,13.0723529 Z M24.9003109,45.6627451 L24.9003109,32.8131373 L22.7080909,34.5254902 C22.5702154,37.3933333 22.7770286,40.1637255 22.5977905,42.8784314 L22.2806769,42.9480392 L18.6959145,37.5882353 L15.1663023,40.2333333 C15.9764458,40.6855717 16.4344094,41.5883823 16.3244563,42.5164706 C16.3244563,45.3007843 16.3244563,48.085098 16.3244563,50.8694118 C16.3244563,51.2452941 16.3244563,51.6211765 16.4209692,52.2615686 L18.7372772,50.4517647 C18.7372772,49.1431373 18.7372772,47.9180392 18.7372772,46.6929412 C18.6773862,45.4012445 18.7235022,44.1067584 18.8751526,42.8227451 C20.3779953,44.4237255 21.0673727,46.2892157 22.4323399,47.6952941 L24.9003109,45.6627451 Z M30.5394179,41.4862745 C30.5394179,40.1915686 30.5394179,38.9664706 30.5394179,37.7552941 C30.5000387,37.3020211 30.6064067,36.848004 30.8427439,36.4605882 C31.8472242,35.4815327 32.9846158,34.6518379 34.2206931,33.9964706 L34.2206931,38.6462745 L36.509426,36.9060784 L36.509426,24.0147059 L34.1793304,25.7688235 L34.1793304,30.5021569 C33.2006222,31.6538126 31.919822,32.5031112 30.4842677,32.9523529 L30.4842677,28.5809804 L26.8443551,31.3652941 C27.6764112,31.7885831 28.1439561,32.7046617 28.0025091,33.6345098 C28.0025091,36.4188235 28.0025091,39.2031373 28.0025091,41.9178431 C28.0284686,42.3842919 28.0790951,42.8490067 28.1541722,43.31 L30.5394179,41.4862745 Z M39.3910234,34.7482353 L47.1120501,28.9011765 L47.1120501,25.9080392 L42.0795952,29.6668627 C41.9692948,26.2143137 42.0795952,23.1376471 41.9968699,19.9217647 L38.6051332,22.4833333 C39.3230712,23.1686908 39.64534,24.1763856 39.4599612,25.1562745 C39.4737487,28.2329412 39.4599612,31.2956863 39.4599612,34.692549 L39.3910234,34.7482353 Z" id="Shape"></path><path d="M30.5118428,59.6539216 C29.133088,58.4566667 27.1752563,58.4288235 25.3690875,58.0111765 C23.7973071,57.6492157 22.1979516,57.3847059 20.6261712,57.0505882 C20.1022444,56.9531373 19.5921051,56.7582353 19.0268157,56.605098 C19.840281,55.5470588 47.663552,34.3305882 50.862263,32.2562745 C50.9545723,32.3590015 51.0291427,32.4766503 51.0828638,32.6043137 C51.7584536,34.4698039 52.4616185,36.3213725 53.0820582,38.1729412 C54.8833979,43.6852208 53.0824726,49.7466576 48.5735301,53.347451 C45.8962895,55.4681705 42.7165886,56.845517 39.3496608,57.3429412 C37.4056166,57.704902 35.4753599,58.0668627 33.5588908,58.5262745 C32.5234715,58.8453762 31.5062478,59.2218289 30.5118428,59.6539216 Z" id="Shape"></path><path d="M41.721119,13.6570588 C40.9076537,14.7568627 9.56855802,38.5488235 8.06571533,39.1892157 C8.47934176,37.9780392 8.8102429,36.9339216 9.18250669,35.9037255 C10.0459046,33.6536257 10.68333,31.3216641 11.0851883,28.9429412 C11.552128,25.3362174 11.2942194,21.6714606 10.3268731,18.1676471 C10.2441478,17.8752941 10.1614226,17.5829412 10.0924848,17.2766667 C10.0924848,17.1792157 10.0924848,17.0817647 10.0924848,17.1652941 L15.1663023,12.1117647 C17.5549573,13.3792895 20.2545875,13.9254305 22.9424792,13.684902 C25.7614898,13.3783784 28.4519211,12.3320618 30.7462311,10.65 C33.8856032,13.0397575 37.8159965,14.1166636 41.721119,13.6570588 Z" id="Shape"></path></g></g></g></g></g></svg> 