<?xml version="1.0" encoding="utf-8"?>
<!-- Generator: Adobe Illustrator 19.0.0, SVG Export Plug-In . SVG Version: 6.00 Build 0)  -->
<svg version="1.1" id="Layer_1" xmlns="http://www.w3.org/2000/svg" xmlns:xlink="http://www.w3.org/1999/xlink" x="0px" y="0px"
	 width="30px" height="30px" viewBox="-29 31 30 30" style="enable-background:new -29 31 30 30;" xml:space="preserve">
<style type="text/css">
	.st0{fill:none;}
	.st1{fill:#1F1F1F;}
</style>
<g>
	<rect x="-26.1" y="55.8" class="st0" width="24.1" height="2.4"/>
	<polygon class="st0" points="-21.7,46.8 -22.6,45.8 -23.1,46.4 -21.7,47.8 -18.6,44.6 -19.1,44.1 	"/>
	<rect x="-26.1" y="33.9" class="st0" width="24.1" height="4.2"/>
	<path class="st0" d="M-1.4,38.7h-25.4h-1.6v14.5H0.2V38.7H-1.4z M-17.3,42.4v7c0,0.1-0.1,0.2-0.2,0.2h-7c-0.1,0-0.2-0.1-0.2-0.2v-7
		c0-0.1,0.1-0.2,0.2-0.2h7C-17.3,42.2-17.2,42.3-17.3,42.4z M-3.6,46.5h-11v-0.7h11V46.5z"/>
	<path class="st1" d="M-1.6,55.1h-24.9c-0.1,0-0.2,0.1-0.2,0.2v3.3c0,0.1,0.1,0.2,0.2,0.2h25c0.1,0,0.2-0.1,0.2-0.2v-3.3
		C-1.3,55.2-1.4,55.1-1.6,55.1z M-2,58.2h-24.1v-2.4H-2V58.2z"/>
	<rect x="-14.7" y="45.7" class="st1" width="11" height="0.7"/>
	<path class="st1" d="M0.8,38.1h-2.1v-4.7c0-0.1-0.1-0.2-0.2-0.2h-25c-0.1,0-0.2,0.1-0.2,0.2v4.7h-2.1c-0.1,0-0.2,0.1-0.2,0.2v15.5
		c0,0.1,0.1,0.2,0.2,0.2H0.8C0.9,54,1,53.9,1,53.8V38.3C1,38.2,0.9,38.1,0.8,38.1z M-26.1,33.9H-2v4.2h-24.1V33.9z M-28.4,53.3V38.7
		h1.6h25.4h1.6v14.5H-28.4z"/>
	<path class="st1" d="M-17.5,42.2h-7c-0.1,0-0.2,0.1-0.2,0.2v7c0,0.1,0.1,0.2,0.2,0.2h7c0.1,0,0.2-0.1,0.2-0.2v-7
		C-17.2,42.3-17.3,42.2-17.5,42.2z M-21.7,47.8l-1.4-1.4l0.5-0.5l0.9,0.9l2.6-2.6l0.5,0.5L-21.7,47.8z"/>
</g>
</svg>
