<?xml version="1.0" encoding="UTF-8"?>
<svg width="92px" height="71px" viewBox="0 0 92 71" version="1.1" xmlns="http://www.w3.org/2000/svg" xmlns:xlink="http://www.w3.org/1999/xlink">
    <!-- Generator: Sketch 51.2 (57519) - http://www.bohemiancoding.com/sketch -->
    <title>oui</title>
    <desc>Created with Sketch.</desc>
    <defs>
        <polygon id="path-1" points="7.70000383e-16 8.53965 7.70000383e-16 0.879525 7.78222857 0.879525 7.78222857 8.53965 0 8.53965"></polygon>
        <polygon id="path-3" points="0.161 0.4175 3.336 0.4175 3.336 4.384875 0.161 4.384875 0.161 0.4175"></polygon>
        <polygon id="path-5" points="0 71 26.0566406 71 92 71 92 0 0 0"></polygon>
    </defs>
    <g id="Page-1" stroke="none" stroke-width="1" fill="none" fill-rule="evenodd">
        <g id="oui">
            <g id="Group-3" transform="translate(0.000000, 16.000000)">
                <mask id="mask-2" fill="white">
                    <use xlink:href="#path-1"></use>
                </mask>
                <g id="Clip-2"></g>
                <path d="M3.54251429,8.3979 L0.143657143,5.053275 C-0.0483428571,4.86315 -0.0483428571,4.556025 0.143657143,4.367025 L3.54251429,1.021275 C3.73451429,0.832275 4.04651429,0.832275 4.23965714,1.021275 L7.63737143,4.367025 C7.83051429,4.556025 7.83051429,4.86315 7.63737143,5.053275 L4.23965714,8.3979 C4.04651429,8.5869 3.73451429,8.5869 3.54251429,8.3979" id="Fill-1" fill="#000000" mask="url(#mask-2)"></path>
            </g>
            <path d="M16.5747008,11.3022584 C15.7579143,11.3022584 15.0942752,11.9620057 15.0942752,12.7720158 L15.0942752,57.0971751 C15.0942752,58.3626691 16.1616667,59.3910297 17.472702,59.3910297 L57.2295555,59.3910297 L68.5241821,66.6881638 L65.6561474,59.3910297 L76.1397885,59.3910297 C77.451984,59.3910297 78.5193755,58.3626691 78.5193755,57.0971751 L78.5193755,12.7720158 C78.5193755,11.9620057 77.8545762,11.3022584 77.0377896,11.3022584 L16.5747008,11.3022584 Z M71.4757516,68.7754071 L71.4769119,68.7765811 C71.4769119,68.7765811 71.4757516,68.7765811 71.4757516,68.7754071 Z M71.0511155,71 C70.7668645,71 70.480293,70.918999 70.2273677,70.7558231 L57.0624855,62.2507174 L16.7719362,62.2507174 C14.1394239,62.2507174 12,60.1376477 12,57.5385719 L12,11.8622219 C12,9.73271718 13.7252296,8 15.8460901,8 L78.1527497,8 C80.2736102,8 82,9.73271718 82,11.8622219 L82,57.5385719 C82,60.1376477 79.8594159,62.2507174 77.2269036,62.2507174 L69.8433387,62.2507174 L72.4630888,68.9127567 C72.7044121,69.5302426 72.5269003,70.2263817 72.0198893,70.6466478 C71.7391189,70.8814333 71.3956973,71 71.0511155,71 Z" id="Fill-4" fill="#25211F" transform="translate(47.000000, 39.500000) scale(-1, 1) translate(-47.000000, -39.500000) "></path>
            <path d="M92,53 C92,54.6561086 90.6570664,56 88.9993828,56 C87.3441679,56 86,54.6561086 86,53 C86,51.3426573 87.3441679,50 88.9993828,50 C90.6570664,50 92,51.3426573 92,53" id="Fill-6" fill="#000000"></path>
            <g id="Group-10" transform="translate(64.000000, 0.000000)">
                <mask id="mask-4" fill="white">
                    <use xlink:href="#path-3"></use>
                </mask>
                <g id="Clip-9"></g>
                <path d="M3.336,2.401125 C3.336,3.496125 2.625,4.384875 1.748,4.384875 C0.872,4.384875 0.161,3.496125 0.161,2.401125 C0.161,1.306125 0.872,0.417375 1.748,0.417375 C2.625,0.417375 3.336,1.306125 3.336,2.401125" id="Fill-8" fill="#000000" mask="url(#mask-4)"></path>
            </g>
            <path d="M35.0004765,36.8439693 L35.0004765,36.1560307 C35.0004765,33.265954 34.4917798,32.3846091 33.4994043,32.3846091 C32.5094115,32.3846091 31.9995235,33.265954 31.9995235,36.1560307 L31.9995235,36.8439693 C31.9995235,39.734046 32.5094115,40.6141668 33.4994043,40.6141668 C34.4917798,40.6141668 35.0004765,39.734046 35.0004765,36.8439693 Z M41,36.7068712 C41,40.834503 38.0800572,44 33.4994043,44 C28.9199428,44 26,40.834503 26,36.7068712 L26,36.2931288 C26,32.165497 28.9199428,29 33.4994043,29 C38.0800572,29 41,32.165497 41,36.2931288 L41,36.7068712 Z" id="Fill-11" fill="#000000"></path>
            <path d="M52.6214535,45.4636234 C51.8738178,47.2598808 50.6787084,48 48.9840675,48 C46.2205845,48 45,46.0451456 45,43.2185953 L45,34 L50.3796541,34 L50.3796541,42.3468994 C50.3796541,43.2973064 50.7529181,43.7730973 51.4994462,43.7730973 C52.2470819,43.7730973 52.6214535,43.2973064 52.6214535,42.3468994 L52.6214535,34 L58,34 L58,47.6029202 L52.6214535,47.6029202 L52.6214535,45.4636234 Z" id="Fill-13" fill="#000000"></path>
            <mask id="mask-6" fill="white">
                <use xlink:href="#path-5"></use>
            </mask>
            <g id="Clip-16" transform="translate(46.000000, 35.500000) scale(-1, -1) translate(-46.000000, -35.500000) "></g>
            <path d="M63,42 L69,42 L69,28.021601 L63,28.021601 L63,42 Z M63,27.0172808 L69,27.0172808 L69,23 L63,23 L63,27.0172808 Z" id="Fill-15" fill="#000000" mask="url(#mask-6)"></path>
        </g>
    </g>
</svg>