<?xml version="1.0" encoding="utf-8"?>
<!-- Generator: Adobe Illustrator 23.0.0, SVG Export Plug-In . SVG Version: 6.00 Build 0)  -->
<svg version="1.1" id="Layer_1" xmlns="http://www.w3.org/2000/svg" xmlns:xlink="http://www.w3.org/1999/xlink" x="0px" y="0px"
	 viewBox="0 0 30 30" style="enable-background:new 0 0 30 30;" xml:space="preserve">
<style type="text/css">
	.st0{fill:#FFFFFF;}
</style>
<path class="st0" d="M15,0C6.7,0,0,6.7,0,15s6.7,15,15,15s15-6.7,15-15S23.3,0,15,0z M15,29.4C7,29.4,0.6,22.9,0.6,15S7,0.6,15,0.6
	S29.4,7,29.4,15S23,29.4,15,29.4z"/>
<path class="st0" d="M14.4,20.3c-0.1-0.1-0.2-0.1-0.3-0.2H14c-0.1,0-0.3,0.1-0.4,0.2l-0.3,0.3c-0.2,0.2-0.2,0.7,0,0.9
	c0.1,0.1,0.3,0.2,0.4,0.2c0.2,0,0.3-0.1,0.4-0.2l0.3-0.3C14.6,20.9,14.6,20.6,14.4,20.3C14.4,20.4,14.4,20.4,14.4,20.3z"/>
<path class="st0" d="M18.1,9l-0.4-0.4c-0.1-0.1-0.3-0.2-0.4-0.2s-0.3,0-0.4,0.1l-2.5,2.7c-0.2,0.2-0.2,0.7,0,0.9
	c0.1,0.1,0.2,0.2,0.4,0.2c0.1,0,0.3-0.1,0.4-0.2l1.3-1.3l4.3,4.3c0.1,0.2,0.3,0.2,0.5,0.2s0.4-0.1,0.5-0.2l0.5-0.5
	c0.3-0.3,0.3-0.9,0-1.2L18.1,9z"/>
<path class="st0" d="M13.2,16c-0.1-0.1-0.3-0.2-0.4-0.2s-0.3,0.1-0.4,0.2l-1.8,1.8c-0.2,0.2-0.2,0.7,0,0.9c0.1,0.1,0.2,0.2,0.4,0.2
	s0.3-0.1,0.4-0.2l1.8-1.9C13.4,16.5,13.4,16.2,13.2,16z"/>
<path class="st0" d="M10.6,15.8c-0.1-0.1-0.3-0.2-0.4-0.2s-0.3,0.1-0.4,0.1l-0.7,0.7c-0.2,0.2-0.2,0.7,0,0.9
	c0.1,0.1,0.3,0.2,0.4,0.2s0.3-0.1,0.4-0.1l0.7-0.7C10.9,16.4,10.9,16,10.6,15.8z"/>
<path class="st0" d="M20.2,15.5l-3.8-3.8l-0.9,0.8c-0.2,0.2-0.5,0.3-0.9,0.3s-0.7-0.1-0.9-0.3s-0.3-0.5-0.3-0.9
	c0-0.3,0.1-0.7,0.3-0.9l-1.4-1.4C12,9,11.4,9,11.1,9.3l-3.4,3.5c-0.3,0.3-0.3,0.9,0,1.2l1.4,1.5c0.2-0.2,0.5-0.3,0.9-0.3
	s0.7,0.1,0.9,0.3c0.2,0.2,0.3,0.4,0.3,0.7l0.4-0.4c0.2-0.2,0.5-0.3,0.9-0.3s0.7,0.1,0.9,0.3c0.2,0.2,0.3,0.5,0.3,0.9
	c0,0.3-0.1,0.7-0.3,0.9l-0.2,0.2c0.2,0,0.4,0.2,0.7,0.3c0.3,0.3,0.4,0.9,0.2,1.4c0.3,0,0.5,0.1,0.8,0.3c0.3,0.3,0.4,0.9,0.2,1.3
	l0.1,0.1c0.2,0.2,0.7,0.3,1,0.1c0.4-0.2,0.4-0.8,0.1-1.1l-0.5-0.5c-0.1-0.1-0.1-0.3,0-0.4s0.3-0.1,0.4,0l1,1
	c0.2,0.2,0.5,0.3,0.9,0.1c0.4-0.2,0.4-0.8,0.1-1.1L17,18.1c-0.1-0.1-0.1-0.3,0-0.4s0.3-0.1,0.4,0l1.6,1.8c0.2,0.2,0.5,0.3,0.9,0.1
	c0.4-0.2,0.5-0.9,0.1-1.2l-2-2.1c-0.1-0.1-0.1-0.3,0-0.4c0.1-0.1,0.3-0.1,0.4,0l2,2c0.1,0.1,0.7,0.4,1,0.2c0.5-0.3,0.4-0.8,0-1.2
	L20.2,15.5z"/>
<path class="st0" d="M13.4,18.6c-0.1-0.1-0.3-0.2-0.4-0.2s-0.3,0.1-0.4,0.2l-0.7,0.7c-0.2,0.2-0.2,0.7,0,0.9
	c0.1,0.1,0.3,0.2,0.4,0.2c0.2,0,0.3-0.1,0.4-0.2l0.7-0.7C13.6,19.2,13.6,18.8,13.4,18.6z"/>
</svg>
