<?xml version="1.0" encoding="UTF-8"?> <!-- Generator: Adobe Illustrator 19.0.0, SVG Export Plug-In . SVG Version: 6.00 Build 0) --> <svg xmlns="http://www.w3.org/2000/svg" xmlns:xlink="http://www.w3.org/1999/xlink" id="Layer_1" x="0px" y="0px" width="30px" height="30px" viewBox="-29 31 30 30" style="enable-background:new -29 31 30 30;" xml:space="preserve"> <style type="text/css"> .st0{fill:#231E1C;} </style> <g> <ellipse class="st0" cx="-3.4" cy="44.8" rx="3.1" ry="3.2"></ellipse> <path class="st0" d="M-1.4,48.8h-3.9c-1.3,0-2.4,1-2.4,2.4v6.3H1v-6.3C1,49.9-0.1,48.8-1.4,48.8z"></path> <path class="st0" d="M-22.6,43.5c2.5,0,4.5-2.1,4.5-4.5s-2-4.5-4.5-4.5s-4.5,2-4.5,4.5S-25.1,43.5-22.6,43.5z M-22.6,35.6 c1.9,0,3.4,1.5,3.4,3.4s-1.5,3.4-3.4,3.4S-26,40.9-26,39S-24.5,35.6-22.6,35.6z"></path> <path class="st0" d="M-17.4,52.9v3.4h-10.5V48c0-1.2,1-2.2,2.3-2.2h6c1.3,0,2.3,1,2.3,2.2v1.5h1.1V48c0-1.9-1.5-3.4-3.4-3.4h-6 c-1.9,0-3.4,1.5-3.4,3.4v9.4h12.8v-4.5H-17.4L-17.4,52.9z"></path> <path class="st0" d="M-13.3,49.6l1.2,1.1h-4.2l0,0h-1.1l0,0h-1.9c-0.3-1.5-1.6-2.6-3.1-2.6c-1.8,0-3.2,1.4-3.2,3.2s1.4,3.2,3.2,3.2 c1.6,0,2.9-1.1,3.1-2.6h7.2l-1.2,1.1l0.8,0.8l2.7-2.5l-2.7-2.5L-13.3,49.6z"></path> </g> </svg> 