<?xml version="1.0" encoding="UTF-8"?>
<svg width="95px" height="63px" viewBox="0 0 95 63" version="1.1" xmlns="http://www.w3.org/2000/svg" xmlns:xlink="http://www.w3.org/1999/xlink">
    <!-- Generator: Sketch 51.2 (57519) - http://www.bohemiancoding.com/sketch -->
    <title>ping pong</title>
    <desc>Created with Sketch.</desc>
    <defs>
        <polygon id="path-1" points="5.8734 6 0.0402 6 0.0402 0.16608 5.8734 0.16608 5.8734 6"></polygon>
        <polygon id="path-3" points="0.2834 0.4656 3.9804 0.4656 3.9804 4.90296 0.2834 4.90296 0.2834 0.4656"></polygon>
        <polygon id="path-5" points="1.23838927e-16 43.210162 1.23838927e-16 0.275496569 42.9566554 0.275496569 42.9566554 43.210162"></polygon>
        <polygon id="path-7" points="43.7888 0.259608117 43.7888 43.2160354 0.853794451 43.2160354 0.853794451 0.259608117 43.7888 0.259608117"></polygon>
    </defs>
    <g id="Page-1" stroke="none" stroke-width="1" fill="none" fill-rule="evenodd">
        <g id="ping-pong">
            <g id="Group-3" transform="translate(65.000000, 57.000000)">
                <mask id="mask-2" fill="white">
                    <use xlink:href="#path-1"></use>
                </mask>
                <g id="Clip-2"></g>
                <path d="M5.8734,3.08328 C5.8734,4.69368 4.5678,6.00048 2.9562,6.00048 C1.347,6.00048 0.0402,4.69368 0.0402,3.08328 C0.0402,1.47168 1.347,0.16608 2.9562,0.16608 C4.5678,0.16608 5.8734,1.47168 5.8734,3.08328" id="Fill-1" fill="#000000" mask="url(#mask-2)"></path>
            </g>
            <g id="Group-6" transform="translate(44.000000, 0.000000)">
                <mask id="mask-4" fill="white">
                    <use xlink:href="#path-3"></use>
                </mask>
                <g id="Clip-5"></g>
                <path d="M3.9804,2.68416 C3.9804,3.90936 3.1534,4.90296 2.1314,4.90296 C1.1114,4.90296 0.2834,3.90936 0.2834,2.68416 C0.2834,1.45896 1.1114,0.46536 2.1314,0.46536 C3.1534,0.46536 3.9804,1.45896 3.9804,2.68416" id="Fill-4" fill="#000000" mask="url(#mask-4)"></path>
            </g>
            <g id="Group-9" transform="translate(0.000000, 4.000000)">
                <mask id="mask-6" fill="white">
                    <use xlink:href="#path-5"></use>
                </mask>
                <g id="Clip-8"></g>
                <path d="M19.2962,0.27555 C29.8771,0.25245 39.9806,7.72255 42.7603,16.90205 C43.1508,18.19015 42.9935,19.03605 41.9738,20.04035 C34.4542,27.44445 27.0303,34.94315 19.5239,42.35935 C19.008,42.86975 17.9916,43.32735 17.3481,43.18325 C5.4835,40.52675 -5.3889,23.39425 2.9205,10.41425 C6.9212,4.16515 12.5642,0.48345 19.2962,0.27555" id="Fill-7" fill="#000000" mask="url(#mask-6)"></path>
            </g>
            <g id="Group-12" transform="translate(51.000000, 4.000000)">
                <mask id="mask-8" fill="white">
                    <use xlink:href="#path-7"></use>
                </mask>
                <g id="Clip-11"></g>
                <path d="M43.78946,19.55558 C43.81256,30.13648 36.34246,40.23998 27.16296,43.01968 C25.87486,43.41018 25.02786,43.25288 24.02356,42.23318 C16.62056,34.71468 9.12076,27.28968 1.70456,19.78328 C1.19526,19.26738 0.73656,18.25098 0.88066,17.60748 C3.53716,5.74288 20.66966,-5.12952 33.65076,3.18098 C39.89986,7.18058 43.58156,12.82358 43.78946,19.55558" id="Fill-10" fill="#000000" mask="url(#mask-8)"></path>
            </g>
            <path d="M47.9212057,56.7743823 L48.1842234,56.7798885 C48.7213566,56.8547732 49.4149687,56.7534586 50.5314068,55.4396724 L50.882097,55.0267052 C51.4236694,54.4948035 51.8376171,54.0190653 52.184978,53.5367197 L52.2826386,53.3825453 C53.5566653,51.8639273 54.8384605,50.312272 56.0137169,48.681327 C59.1421849,44.3413174 63.2905402,44.9514075 66.1360146,45.7850506 L66.8251876,45.993186 C67.5498735,46.2145364 68.2346074,46.4237731 68.9193412,46.5449102 C69.0280996,46.5647326 69.1357482,46.5823525 69.2456164,46.5988712 L53.4989568,30.9017138 C53.6898389,31.8355702 53.8929285,32.7385918 54.157056,33.6306009 C55.0526479,36.6480143 55.7129667,41.0254663 51.1229192,44.1816367 C50.2461935,44.7862207 49.4016514,45.4447656 48.7657478,45.9513387 L47.3785235,45.9535412 C46.3675145,45.1529355 45.5862299,44.5615665 44.8471168,44.0373735 C40.4745861,40.9329617 41.088294,36.8176062 41.9306166,33.9918095 L42.1425845,33.2980246 C42.3645403,32.5833161 42.5742886,31.9082525 42.6952546,31.2320875 C42.7152306,31.1241655 42.7318773,31.0162434 42.748524,30.90722 L26.9308385,46.5327965 C27.8730412,46.342281 28.7819505,46.140753 29.6808718,45.8786565 C32.7249967,44.9910524 37.1341501,44.3380136 40.3147778,48.8905637 C41.3912638,50.4323078 42.627558,51.9057747 43.9060239,53.4056714 L44.0369778,53.5928832 C44.3454965,54.0245715 44.7250411,54.4639686 45.1545257,54.8835433 L45.5396191,55.3317503 C46.6904603,56.7028013 47.4173658,56.8228371 47.9212057,56.7743823 M48.4317042,59 C48.2929818,59 48.15093,58.9922913 48.0055489,58.9768738 C46.063435,59.0980109 44.695077,57.767706 43.834998,56.7413449 L43.52315,56.3735288 C43.0747991,55.9429417 42.6098016,55.4033313 42.2136103,54.8494046 L42.16478,54.7734187 C40.867448,53.2492945 39.6100679,51.7482965 38.4903005,50.1448826 C36.6181027,47.4644504 34.247614,46.8411453 30.3078972,47.9919471 C28.9495272,48.3883956 27.5567541,48.6582008 26.2105917,48.9191961 C25.6090913,49.0359281 25.0075909,49.1526602 24.40831,49.2793035 L23.0943312,48.4478629 L23,48.0381995 L23.2985307,47.0129396 L43.3733298,27.1828068 L45.2610645,28.0715121 C45.2244418,28.433822 45.1944777,28.7895244 45.1667333,29.1397206 C45.0945976,29.9898823 45.0291206,30.7937917 44.8804102,31.6175236 C44.7361389,32.4269392 44.4953167,33.1989125 44.2633728,33.9466584 L44.0591734,34.6162158 C42.9971146,38.1765435 43.6197008,40.4583247 46.1400098,42.2456466 C46.7315222,42.6652213 47.3452302,43.1244408 48.0699161,43.6882786 C48.6070493,43.2709065 49.2207573,42.8105857 49.8588805,42.3722899 C52.5600835,40.5144883 53.1882186,38.1622273 52.0284991,34.2517035 C51.6300883,32.9081836 51.3581924,31.5294239 51.0951747,30.1958153 C50.9775381,29.5967376 50.8587917,28.9965586 50.7300573,28.3996834 L51.5635016,27.0958084 L51.9807786,27 L53.015093,27.2973364 L73,47.2177714 L72.1021885,49.0909904 C71.7304124,49.0535481 71.3664048,49.0238144 71.0090558,48.995182 C70.157855,48.9258036 69.353265,48.8597288 68.5298087,48.7132631 C67.7096817,48.5678987 66.928397,48.3300296 66.1715275,48.098768 L65.5078794,47.89724 C61.9177432,46.8433478 59.6216096,47.4633492 57.8193279,49.9620758 C56.6007902,51.6535894 55.2879212,53.2437883 54.0482976,54.7117489 C54.0494074,54.7117489 54.0505172,54.7117489 54.0505172,54.7117489 C54.0627247,54.7117489 54.0316509,54.7602037 53.9939184,54.8130635 C53.5688729,55.4044325 53.0694722,55.9792828 52.5057043,56.5243995 L52.2282594,56.8602794 C51.4258889,57.8029458 50.1895947,59 48.4317042,59" id="Fill-13" fill="#000000"></path>
            <path d="M53.5372649,30.9023853 C53.7277829,31.8364024 53.9293774,32.7395794 54.1941087,33.631742 C55.0868846,36.6496747 55.7459437,41.0267786 51.1646522,44.1845937 C49.4455602,45.3708395 47.7918204,46.7641552 46.1923559,48.1112105 C45.6905849,48.5330603 45.1899215,48.95491 44.6859352,49.372354 C42.9258597,50.8284515 42.7896172,51.7712801 44.0811515,53.5798368 C44.7202727,54.4753038 45.5543424,55.3002788 46.4925324,55.9666472 C48.2515002,57.2167762 49.1697523,57.1033284 50.5742682,55.4434654 L51.1768365,54.7341411 C52.8327917,52.785702 54.5463453,50.7700754 56.0472278,48.6839569 C59.169728,44.3443018 63.3090621,44.9533955 66.1502161,45.7882835 L66.8380744,45.9964548 C67.5602702,46.2178433 68.2436979,46.427116 68.9282332,46.5482738 C69.0356765,46.5680997 69.1442274,46.5846212 69.2527783,46.6011427 L53.5372649,30.9023853 Z M48.4730327,59 C47.448445,59 46.3673666,58.5858603 45.2054288,57.7586824 C44.0678596,56.9524318 43.0543485,55.9479228 42.2745542,54.8552989 C40.3018076,52.0928992 40.6086301,49.8790142 43.2681274,47.6783465 C43.7676831,47.2653082 44.2639158,46.8478642 44.7601485,46.4304203 C46.3994888,45.0492204 48.0942122,43.6217602 49.9041325,42.3749355 C52.5990749,40.5168141 53.2271195,38.1630468 52.0696123,34.2529515 C51.6708539,32.908099 51.3994766,31.5302034 51.1380683,30.1963653 C51.0206561,29.596083 50.9021362,28.9969022 50.7736474,28.3999243 L51.6055018,27.0947234 L52.0219829,27 L53.0532165,27.2973875 L73,47.2212508 L72.1050088,49.0947923 C71.7339419,49.0573435 71.3706287,49.0276047 71.0117461,48.997866 C70.1632767,48.9284755 69.3602215,48.8634909 68.5383361,48.717 C67.7208813,48.5716105 66.941087,48.332599 66.1856613,48.1012976 L65.5221715,47.9008364 C61.9399915,46.8467628 59.6482381,47.4668709 57.8493945,49.9660276 C56.2964518,52.1237394 54.554099,54.1735105 52.8682369,56.156094 L52.2678839,56.8632155 C51.0583166,58.2906757 49.8133041,59 48.4730327,59 Z" id="Fill-15" fill="#000000"></path>
        </g>
    </g>
</svg>