<?xml version="1.0" encoding="utf-8"?>
<!-- Generator: Adobe Illustrator 19.0.0, SVG Export Plug-In . SVG Version: 6.00 Build 0)  -->
<svg version="1.1" id="Layer_1" xmlns="http://www.w3.org/2000/svg" xmlns:xlink="http://www.w3.org/1999/xlink" x="0px" y="0px"
	 width="30px" height="30px" viewBox="-29 31 30 30" style="enable-background:new -29 31 30 30;" xml:space="preserve">
<style type="text/css">
	.st0{fill:none;}
	.st1{fill:#231E1C;}
</style>
<g>
	<path class="st0" d="M-28.4,54.7h17.6v-2.6l2.7,2.6h6.3V39.4h-26.6V54.7z M-15.2,41.5c2.9,0,5.2,2.3,5.2,5.2c0,2.9-2.4,5.2-5.2,5.2
		c-2.8,0-5.1-2.3-5.2-5.2C-20.4,43.8-18.1,41.5-15.2,41.5z"/>
	<path class="st0" d="M-28.4,38.7h26.6v-2.9h-26.6V38.7z M-24.9,37.1c0.2,0,0.3,0.1,0.3,0.3c0,0.2-0.1,0.3-0.3,0.3
		c-0.2,0-0.3-0.1-0.3-0.3C-25.2,37.2-25.1,37.1-24.9,37.1z M-26,37.1c0.2,0,0.3,0.1,0.3,0.3c0,0.2-0.1,0.3-0.3,0.3
		c-0.2,0-0.3-0.1-0.3-0.3C-26.3,37.2-26.2,37.1-26,37.1z M-27,37.1c0.2,0,0.3,0.1,0.3,0.3c0,0.2-0.1,0.3-0.3,0.3
		c-0.2,0-0.3-0.1-0.3-0.3C-27.3,37.2-27.2,37.1-27,37.1z"/>
	<path class="st0" d="M-26.3,33.5v1.7l0.1,0.1h24.6c0.3,0,0.5,0.2,0.5,0.5v3v0.6v13h1.4v-19H-26.3z"/>
	<path class="st0" d="M-15.3,47.7c-0.3,0-0.6-0.2-1-0.5l-0.5,0.7c0.3,0.2,0.7,0.4,1.1,0.5v0.5h0.8v-0.5c0.6-0.1,1-0.5,1-1
		c0-0.6-0.2-0.9-1-1.1l-0.4-0.1c-0.1,0-0.2-0.1-0.2-0.2c0-0.1,0.1-0.2,0.3-0.2c0.3,0,0.5,0.1,0.8,0.3l0.5-0.6
		c-0.2-0.2-0.6-0.3-0.9-0.4v-0.5h-0.8v0.5c-0.6,0.1-0.9,0.5-0.9,1c0,0.6,0.3,0.9,0.9,1l0.4,0.1c0.2,0.1,0.3,0.2,0.2,0.3
		C-15,47.6-15.1,47.7-15.3,47.7z"/>
	<circle class="st1" cx="-27" cy="37.4" r="0.3"/>
	<circle class="st1" cx="-26" cy="37.4" r="0.3"/>
	<circle class="st1" cx="-24.9" cy="37.4" r="0.3"/>
	<path class="st1" d="M-15.2,51.9c2.8,0,5.2-2.3,5.2-5.2c0-2.9-2.3-5.2-5.2-5.2c-2.9,0-5.2,2.3-5.2,5.2
		C-20.3,49.6-18,51.9-15.2,51.9z M-15.2,47.2l-0.4-0.1c-0.6-0.1-0.9-0.4-0.9-1c0-0.5,0.3-0.9,0.9-1v-0.5h0.8v0.5
		c0.3,0.1,0.7,0.2,0.9,0.4l-0.5,0.6c-0.3-0.2-0.5-0.3-0.8-0.3c-0.2,0-0.3,0.1-0.3,0.2c0,0.1,0.1,0.2,0.2,0.2l0.4,0.1
		c0.8,0.2,1,0.5,1,1.1c0,0.5-0.4,0.9-1,1v0.5h-0.8v-0.5c-0.4-0.1-0.8-0.3-1.1-0.5l0.5-0.7c0.4,0.3,0.7,0.5,1,0.5
		c0.2,0,0.3-0.1,0.3-0.2C-14.9,47.4-15,47.3-15.2,47.2z"/>
	<path class="st1" d="M-26.9,32.9v2.4h-1.6c-0.3,0-0.5,0.2-0.5,0.5v19.2c0,0.3,0.2,0.5,0.5,0.5h17.7v2.5l1.5-0.7l0.8,1.9l1.2-0.5
		l-0.9-2l1.4-0.6l-0.7-0.7h5.8c0.3,0,0.5-0.2,0.5-0.5V53H1V32.9H-26.9z M-1.8,54.7h-6.3l-2.7-2.6v2.6h-17.6V39.4h26.6V54.7z
		 M-1.8,38.7h-26.6v-2.9h26.6V38.7z M-1.1,52.4v-13v-0.6v-3c0-0.3-0.2-0.5-0.5-0.5h-24.6l-0.1-0.1v-1.7H0.3v19H-1.1z"/>
</g>
</svg>
