<?xml version="1.0" encoding="utf-8"?>
<!-- Generator: Adobe Illustrator 19.0.0, SVG Export Plug-In . SVG Version: 6.00 Build 0)  -->
<svg version="1.1" id="Layer_1" xmlns="http://www.w3.org/2000/svg" xmlns:xlink="http://www.w3.org/1999/xlink" x="0px" y="0px"
	 width="30px" height="30px" viewBox="-29 31 30 30" style="enable-background:new -29 31 30 30;" xml:space="preserve">
<style type="text/css">
	.st0{fill:none;}
	.st1{fill:#231E1C;}
</style>
<g>
	<path class="st0" d="M-14.7,35.8c-5.7,0-10.3,4.6-10.3,10.3s4.6,10.2,10.3,10.2s10.3-4.5,10.3-10.2S-9,35.8-14.7,35.8z M-19.9,48.7
		c-0.1,0-0.3-0.1-0.4-0.2c-0.2-0.2-0.2-0.6,0-0.8l0.6-0.6c0.1,0,0.3-0.1,0.4-0.1s0.3,0.1,0.4,0.2c0.2,0.2,0.2,0.6,0,0.8l-0.6,0.6
		C-19.6,48.6-19.8,48.7-19.9,48.7z M-18.6,50c-0.2,0-0.3-0.1-0.4-0.2c-0.2-0.2-0.2-0.6,0-0.8l1.6-1.6c0.1-0.1,0.3-0.2,0.4-0.2
		s0.3,0.1,0.4,0.2c0.2,0.2,0.2,0.5,0,0.7l-1.6,1.7C-18.3,49.9-18.4,50-18.6,50z M-17.4,51.4c-0.1,0-0.3-0.1-0.4-0.2
		c-0.2-0.2-0.2-0.6,0-0.8l0.6-0.6c0.1-0.1,0.3-0.2,0.4-0.2s0.3,0.1,0.4,0.2c0.2,0.2,0.2,0.5,0,0.8l-0.6,0.6
		C-17.1,51.3-17.2,51.4-17.4,51.4z M-15.5,52.1l-0.3,0.3c-0.1,0.1-0.2,0.2-0.4,0.2c-0.1,0-0.3-0.1-0.4-0.2c-0.2-0.2-0.2-0.6,0-0.8
		l0.3-0.3c0.1-0.1,0.3-0.2,0.4-0.2h0.1c0.1,0.1,0.2,0.1,0.3,0.2c0,0.1,0,0.1,0.1,0.1C-15.3,51.6-15.3,51.9-15.5,52.1z M-9.1,49.2
		c-0.3,0.2-0.8-0.1-0.9-0.2l-1.8-1.8c-0.1-0.1-0.3-0.1-0.4,0c-0.1,0.1-0.1,0.3,0,0.4l1.8,1.9c0.4,0.3,0.3,0.9-0.1,1.1
		c-0.3,0.2-0.6,0.1-0.8-0.1l-1.5-1.6c-0.1-0.1-0.3-0.1-0.4,0c-0.1,0.1-0.1,0.3,0,0.4l1.1,1.1c0.3,0.3,0.3,0.8-0.1,1
		c-0.3,0.2-0.6,0.1-0.8-0.1l-0.9-0.9c-0.1-0.1-0.3-0.1-0.4,0c-0.1,0.1-0.1,0.3,0,0.4l0.5,0.5c0.3,0.3,0.3,0.8-0.1,1
		c-0.3,0.2-0.7,0.1-0.9-0.1l-0.1-0.1c0.2-0.4,0.1-0.9-0.2-1.2c-0.2-0.2-0.4-0.3-0.7-0.3c0.2-0.5,0.1-1-0.2-1.3
		c-0.2-0.1-0.4-0.3-0.6-0.3l0.2-0.2c0.2-0.2,0.3-0.5,0.3-0.8s-0.1-0.6-0.3-0.8c-0.2-0.2-0.5-0.3-0.8-0.3s-0.6,0.1-0.8,0.3l-0.4,0.4
		c0-0.2-0.1-0.4-0.3-0.6s-0.5-0.3-0.8-0.3s-0.6,0.1-0.8,0.3l-1.3-1.4c-0.3-0.3-0.3-0.8,0-1.1l3.1-3.2c0.3-0.3,0.8-0.3,1.1,0l1.3,1.3
		c-0.2,0.2-0.3,0.5-0.3,0.8s0.1,0.6,0.3,0.8c0.2,0.2,0.5,0.3,0.8,0.3s0.6-0.1,0.8-0.3l0.8-0.7l3.5,3.5l1.1,1.1
		C-8.7,48.5-8.6,48.9-9.1,49.2z M-8.2,46l-0.5,0.5c-0.1,0.1-0.3,0.2-0.5,0.2s-0.4,0-0.5-0.2l-3.9-3.9l-1.2,1.2
		c-0.1,0.1-0.3,0.2-0.4,0.2c-0.2,0-0.3-0.1-0.4-0.2c-0.2-0.2-0.2-0.6,0-0.8l2.3-2.5c0.1-0.1,0.3-0.1,0.4-0.1c0.1,0,0.3,0.1,0.4,0.2
		l0.4,0.4l3.9,3.9C-7.9,45.2-7.9,45.7-8.2,46z"/>
	<path class="st1" d="M-14.7,35.2c-6.1,0-11,4.9-11,10.9s4.9,10.9,11,10.9s10.9-4.9,11-10.9C-3.8,40.1-8.7,35.2-14.7,35.2z
		 M-14.7,56.3c-5.7,0-10.3-4.5-10.3-10.2s4.6-10.3,10.3-10.3s10.3,4.6,10.3,10.3S-9,56.3-14.7,56.3z"/>
	<path class="st1" d="M-0.1,44.4c-0.3,0-0.5,0.1-0.7,0.3c-0.2-0.2-0.5-0.3-0.8-0.3c-0.6,0-1.1,0.5-1.1,1.1c0,0.3,0.1,0.6,0.3,0.8
		l1.5,1.5l1.5-1.5C0.9,46,1,45.8,1,45.5C1,44.9,0.5,44.4-0.1,44.4z"/>
	<path class="st1" d="M-14.7,59.6c-7.5,0-13.6-6.1-13.6-13.6s6.1-13.7,13.7-13.7c6.1,0,11.3,4.1,13.1,9.7h0.7
		C-2.5,36-8,31.7-14.6,31.7c-8,0-14.4,6.4-14.4,14.3s6.4,14.3,14.3,14.3C-8.2,60.3-2.8,56-1,50.1h-0.7C-3.4,55.6-8.5,59.6-14.7,59.6
		z"/>
	<path class="st1" d="M-15.5,51.3c-0.1-0.1-0.2-0.1-0.3-0.2h-0.1c-0.1,0-0.3,0.1-0.4,0.2l-0.3,0.3c-0.2,0.2-0.2,0.6,0,0.8
		c0.1,0.1,0.3,0.2,0.4,0.2c0.2,0,0.3-0.1,0.4-0.2l0.3-0.3C-15.3,51.9-15.3,51.6-15.5,51.3C-15.5,51.4-15.5,51.4-15.5,51.3z"/>
	<path class="st1" d="M-12.1,41l-0.4-0.4c-0.1-0.1-0.3-0.2-0.4-0.2c-0.1,0-0.3,0-0.4,0.1l-2.3,2.5c-0.2,0.2-0.2,0.6,0,0.8
		c0.1,0.1,0.2,0.2,0.4,0.2c0.1,0,0.3-0.1,0.4-0.2l1.2-1.2l3.9,3.9c0.1,0.2,0.3,0.2,0.5,0.2s0.4-0.1,0.5-0.2l0.5-0.5
		c0.3-0.3,0.3-0.8,0-1.1L-12.1,41z"/>
	<path class="st1" d="M-16.6,47.4c-0.1-0.1-0.3-0.2-0.4-0.2s-0.3,0.1-0.4,0.2L-19,49c-0.2,0.2-0.2,0.6,0,0.8
		c0.1,0.1,0.2,0.2,0.4,0.2c0.2,0,0.3-0.1,0.4-0.2l1.6-1.7C-16.4,47.9-16.4,47.6-16.6,47.4z"/>
	<path class="st1" d="M-18.9,47.2c-0.1-0.1-0.3-0.2-0.4-0.2s-0.3,0.1-0.4,0.1l-0.6,0.6c-0.2,0.2-0.2,0.6,0,0.8
		c0.1,0.1,0.3,0.2,0.4,0.2s0.3-0.1,0.4-0.1l0.6-0.6C-18.7,47.8-18.7,47.4-18.9,47.2z"/>
	<path class="st1" d="M-10.2,47l-3.5-3.5l-0.8,0.7c-0.2,0.2-0.5,0.3-0.8,0.3s-0.6-0.1-0.8-0.3c-0.2-0.2-0.3-0.5-0.3-0.8
		s0.1-0.6,0.3-0.8l-1.3-1.3c-0.3-0.3-0.8-0.3-1.1,0l-3.1,3.2c-0.3,0.3-0.3,0.8,0,1.1l1.3,1.4c0.2-0.2,0.5-0.3,0.8-0.3
		s0.6,0.1,0.8,0.3s0.3,0.4,0.3,0.6l0.4-0.4c0.2-0.2,0.5-0.3,0.8-0.3s0.6,0.1,0.8,0.3c0.2,0.2,0.3,0.5,0.3,0.8s-0.1,0.6-0.3,0.8
		l-0.2,0.2c0.2,0,0.4,0.2,0.6,0.3c0.3,0.3,0.4,0.8,0.2,1.3c0.3,0,0.5,0.1,0.7,0.3c0.3,0.3,0.4,0.8,0.2,1.2l0.1,0.1
		c0.2,0.2,0.6,0.3,0.9,0.1c0.4-0.2,0.4-0.7,0.1-1l-0.5-0.5c-0.1-0.1-0.1-0.3,0-0.4c0.1-0.1,0.3-0.1,0.4,0l0.9,0.9
		c0.2,0.2,0.5,0.3,0.8,0.1c0.4-0.2,0.4-0.7,0.1-1l-1.1-1.1c-0.1-0.1-0.1-0.3,0-0.4c0.1-0.1,0.3-0.1,0.4,0l1.5,1.6
		c0.2,0.2,0.5,0.3,0.8,0.1c0.4-0.2,0.5-0.8,0.1-1.1l-1.8-1.9c-0.1-0.1-0.1-0.3,0-0.4c0.1-0.1,0.3-0.1,0.4,0L-10,49
		c0.1,0.1,0.6,0.4,0.9,0.2c0.5-0.3,0.4-0.7,0-1.1L-10.2,47z"/>
	<path class="st1" d="M-16.4,49.8c-0.1-0.1-0.3-0.2-0.4-0.2s-0.3,0.1-0.4,0.2l-0.6,0.6c-0.2,0.2-0.2,0.6,0,0.8
		c0.1,0.1,0.3,0.2,0.4,0.2c0.2,0,0.3-0.1,0.4-0.2l0.6-0.6C-16.2,50.3-16.2,50-16.4,49.8z"/>
</g>
</svg>
