<?xml version="1.0" encoding="utf-8"?>
<!-- Generator: Adobe Illustrator 23.0.0, SVG Export Plug-In . SVG Version: 6.00 Build 0)  -->
<svg version="1.1" id="Layer_1" xmlns="http://www.w3.org/2000/svg" xmlns:xlink="http://www.w3.org/1999/xlink" x="0px" y="0px"
	 viewBox="0 0 30 30" style="enable-background:new 0 0 30 30;" xml:space="preserve">
<style type="text/css">
	.st0{fill:#FFFFFF;}
</style>
<path class="st0" d="M15,0C6.7,0,0,6.7,0,15s6.7,15,15,15s15-6.7,15-15S23.3,0,15,0z M15,29.4C7,29.4,0.6,22.9,0.6,15S7,0.6,15,0.6
	S29.4,7,29.4,15S23,29.4,15,29.4z"/>
<g>
	<path class="st0" d="M12.1,19.4c-0.5,0-0.9,0.4-0.9,0.9c0,0.5,0.4,0.9,0.9,0.9c0.5,0,0.9-0.4,0.9-0.9
		C13.1,19.8,12.7,19.4,12.1,19.4z"/>
	<path class="st0" d="M18.8,19.4c-0.5,0-0.9,0.4-0.9,0.9c0,0.5,0.4,0.9,0.9,0.9c0.5,0,0.9-0.4,0.9-0.9
		C19.8,19.8,19.3,19.4,18.8,19.4z"/>
	<path class="st0" d="M21.9,10.3h-0.5h-8.8h-2l-0.1-0.9c-0.1-0.4-0.4-0.6-0.7-0.6c0,0,0,0,0,0H5.8c0,0-0.1,0-0.1,0.1v1
		c0,0,0,0.1,0.1,0.1H9l1.8,9.2l0.1,0.4c0,0.1,0.1,0.2,0.3,0.2c0.2-0.4,0.6-0.6,1-0.6c0.4,0,0.8,0.2,1,0.6h4.6c0.2-0.4,0.6-0.6,1-0.6
		c0.4,0,0.8,0.2,1,0.6c0.1,0,0.1-0.1,0.1-0.1v-1.2c0-0.1-0.1-0.2-0.2-0.2h-7.3c-0.2,0-0.3-0.1-0.4-0.3c0-0.2,0.1-0.4,0.4-0.4h8.1
		c0.1,0,0.1,0,0.1-0.1l1.3-6.1c0-0.1,0-0.1,0-0.2l0.1-0.4C22.3,10.5,22.1,10.3,21.9,10.3z M14,15.8c0,0.1,0,0.1-0.1,0.1L12,16
		c0,0-0.1,0-0.1-0.1l-0.2-1.3c0-0.1,0-0.1,0.2-0.1h2.1c0,0,0,0,0,0.1V15.8z M14,13.3c0,0.1-0.1,0.1-0.1,0.1l-2.3,0
		c-0.1,0-0.1,0-0.1-0.1l-0.2-1.4c0-0.1,0-0.1,0.1-0.1h2.5c0.1,0,0.1,0.1,0.1,0.1V13.3z M17.4,15.9c0,0.1-0.1,0.1-0.1,0.1H15
		c-0.1,0-0.1-0.1-0.1-0.1v-1.3c0-0.1,0.1-0.1,0.1-0.1h2.3c0.1,0,0.1,0.1,0.1,0.1V15.9z M17.4,13.3c0,0.1-0.1,0.1-0.1,0.1H15
		c-0.1,0-0.1-0.1-0.1-0.1v-1.5c0-0.1,0.1-0.1,0.1-0.1h2.3c0.1,0,0.1,0.1,0.1,0.1V13.3z M20.5,15.9c0,0.1-0.1,0.1-0.1,0.1l-2.1,0
		c-0.1,0-0.1-0.1-0.1-0.1v-1.3c0-0.1,0-0.1,0.1-0.1h2.3c0.1,0,0.1,0.1,0.1,0.1L20.5,15.9z M20.9,13.3c0,0.1-0.1,0.1-0.1,0.1l-2.4,0
		c-0.1,0-0.1-0.1-0.1-0.1v-1.4c0-0.1,0.1-0.1,0.1-0.1H21c0.1,0,0.1,0.1,0.1,0.1L20.9,13.3z"/>
</g>
</svg>
