<?xml version="1.0" encoding="UTF-8"?> <!-- Generator: Adobe Illustrator 23.0.0, SVG Export Plug-In . SVG Version: 6.00 Build 0) --> <svg xmlns="http://www.w3.org/2000/svg" xmlns:xlink="http://www.w3.org/1999/xlink" id="Layer_1" x="0px" y="0px" viewBox="0 0 73.2 85.3" style="enable-background:new 0 0 73.2 85.3;" xml:space="preserve"> <style type="text/css"> .st0{fill:#25211F;} </style> <title>Publishing IconSVG</title> <g> <g> <path class="st0" d="M27.4,76.6c-2.2,0-4.1,1.8-4.1,4.1c0,2.2,1.8,4.1,4.1,4.1c2.2,0,4.1-1.8,4.1-4.1 C31.5,78.4,29.7,76.6,27.4,76.6z"></path> <path class="st0" d="M56.1,76.6c-2.2,0-4.1,1.8-4.1,4.1c0,2.2,1.8,4.1,4.1,4.1c2.2,0,4.1-1.8,4.1-4.1 C60.2,78.4,58.4,76.6,56.1,76.6z"></path> <path class="st0" d="M69.5,37.6h-2.1H29.3h-8.4l-0.6-3.9c-0.3-1.5-1.5-2.6-3-2.7c0,0,0,0-0.1,0h-17C0.1,31,0,31.1,0,31.2v4.4 c0,0.1,0.1,0.2,0.2,0.2h13.6l7.7,39.7l0.3,1.7c0.1,0.6,0.6,1,1.2,1.1c0.9-1.6,2.5-2.6,4.4-2.6c1.9,0,3.5,1.1,4.4,2.6h19.7 c0.9-1.6,2.5-2.6,4.4-2.6c1.9,0,3.5,1.1,4.4,2.6c0.3,0,0.6-0.3,0.6-0.6v-5.3c0-0.4-0.3-0.7-0.7-0.7H29c-0.8,0-1.5-0.6-1.6-1.4 c-0.2-1,0.6-1.9,1.6-1.9h35c0.3,0,0.6-0.2,0.6-0.5l5.7-26.2c0.1-0.2,0.1-0.5,0.1-0.7l0.3-1.6C71,38.4,70.3,37.6,69.5,37.6z M35.3,61.5c0,0.3-0.2,0.5-0.4,0.5l-8,0.1c-0.2,0-0.4-0.2-0.4-0.4l-0.8-5.5c0-0.3,0.2-0.6,0.6-0.6h8.9c0,0,0.2,0.2,0.2,0.5V61.5z M35.3,50.3c0,0.3-0.2,0.5-0.5,0.5L25.1,51c-0.3,0-0.5-0.2-0.5-0.5l-1-6.2c-0.1-0.3,0.2-0.6,0.5-0.6h10.7c0.3,0,0.5,0.2,0.5,0.5 V50.3z M49.9,61.6c0,0.3-0.2,0.5-0.5,0.5h-9.9c-0.3,0-0.5-0.2-0.5-0.5v-5.5c0-0.3,0.2-0.5,0.5-0.5h9.9c0.3,0,0.5,0.2,0.5,0.5V61.6 z M49.9,50.5c0,0.3-0.2,0.5-0.5,0.5h-9.9c-0.3,0-0.5-0.2-0.5-0.5v-6.3c0-0.3,0.2-0.5,0.5-0.5h9.9c0.3,0,0.5,0.2,0.5,0.5V50.5z M63.4,61.6c0,0.2-0.2,0.4-0.5,0.4l-8.8-0.1c-0.3,0-0.5-0.2-0.5-0.5v-5.4c0-0.3,0.2-0.5,0.5-0.5h9.7c0.3,0,0.5,0.3,0.5,0.6 L63.4,61.6z M65.2,50.5c0,0.3-0.3,0.5-0.5,0.5l-10.5-0.1c-0.3,0-0.5-0.2-0.5-0.5v-6.1c0-0.3,0.2-0.5,0.6-0.5h11.5 c0.3,0,0.6,0.3,0.5,0.6L65.2,50.5z"></path> </g> </g> <g> <path class="st0" d="M69.2,24.9c-0.2,0-0.5-0.1-0.7-0.2l-4.7-2.5c-0.4-0.2-0.6-0.5-0.8-0.9c-0.1-0.4-0.1-0.8,0.1-1.2l2.5-4.7 c0.4-0.8,1.3-1.1,2.1-0.7l4.7,2.5c0.4,0.2,0.6,0.5,0.8,0.9s0.1,0.8-0.1,1.2l-2.5,4.7C70.3,24.6,69.7,24.9,69.2,24.9z M65.1,20.7 l3.9,2.1l2.1-3.9l-3.9-2.1L65.1,20.7z M71.4,19.1C71.4,19.1,71.4,19.1,71.4,19.1L71.4,19.1z"></path> <path class="st0" d="M19.2,24.4c-0.5,0-1.1-0.3-1.3-0.8L16,20.4c-0.4-0.7-0.2-1.7,0.5-2.1l3.2-1.9c0.4-0.2,0.8-0.3,1.2-0.2 c0.4,0.1,0.7,0.4,1,0.7l1.9,3.2c0.2,0.4,0.3,0.8,0.2,1.2s-0.4,0.7-0.7,1L20,24.2C19.8,24.3,19.5,24.4,19.2,24.4z M17.9,19.8 l1.5,2.5l2.5-1.5l-1.5-2.5L17.9,19.8z"></path> <path class="st0" d="M44,12.8c-0.3,0.6-0.1,1.4,0.6,1.7c0.5,0.3,1.1,0.1,1.5-0.3c0.1-0.1,0.1-0.2,0.2-0.3c0.9-1.8,2.1-3.3,3.5-4.5 c0.5-0.4,0.6-1.2,0.2-1.8c-0.4-0.5-1.2-0.6-1.8-0.2C46.4,8.9,45,10.7,44,12.8z"></path> <path class="st0" d="M36.7,11.2c-1,0-2-0.3-2.8-1l0,0c-1.8-1.5-2-4.2-0.4-6c1.5-1.8,4.2-2,6-0.4c1.8,1.5,2,4.2,0.4,6 C39.1,10.7,37.9,11.2,36.7,11.2z M35.2,8.6c0.9,0.8,2.4,0.7,3.2-0.2c0.8-0.9,0.7-2.4-0.2-3.2c-0.9-0.8-2.4-0.7-3.2,0.2 C34.2,6.4,34.3,7.8,35.2,8.6L35.2,8.6z"></path> <path class="st0" d="M56.7,5.9c-0.7,0-1.4-0.2-1.9-0.7c-1.2-1.1-1.4-2.9-0.3-4.1c1.1-1.2,2.9-1.4,4.1-0.3c1.2,1.1,1.4,2.9,0.3,4.1 C58.4,5.5,57.6,5.9,56.7,5.9z M56.7,2c-0.3,0-0.5,0.1-0.7,0.3c-0.3,0.4-0.3,1,0.1,1.3s1,0.3,1.3-0.1c0.3-0.4,0.3-1-0.1-1.3 C57.2,2.1,57,2,56.7,2z"></path> <g> <path class="st0" d="M37.4,32.4c-0.2,0.2-0.5,0.4-0.8,0.5c-0.9,0.3-1.9-0.2-2.2-1.1c0-0.1-4.2-13.2-9.8-18.3 c-0.7-0.6-0.8-1.7-0.2-2.4c0,0,0,0,0,0c0.6-0.7,1.7-0.8,2.5-0.1c6.4,5.7,10.6,19.3,10.8,19.9C38,31.4,37.8,32,37.4,32.4z"></path> </g> <g> <path class="st0" d="M44.5,31.2c-0.2,0.3-0.5,0.5-0.9,0.6c-0.9,0.2-1.9-0.4-2.1-1.3c-0.1-0.3-1.8-7.8,0.3-12.4 c0.4-0.9,1.4-1.3,2.3-0.9c0.9,0.4,1.3,1.4,0.9,2.3c-1.3,2.9-0.5,8.4-0.1,10.2C45,30.2,44.8,30.8,44.5,31.2z"></path> </g> <g> <path class="st0" d="M51.9,32.1c-0.4,0.4-0.9,0.7-1.5,0.6c-1-0.1-1.6-1-1.5-2c0.1-0.5,1.7-12.6,10.8-20.9c0.7-0.7,1.8-0.6,2.5,0.1 c0.7,0.7,0.6,1.8-0.1,2.5c-8.2,7.5-9.7,18.7-9.7,18.8C52.3,31.5,52.1,31.8,51.9,32.1z"></path> </g> </g> </svg> 