<?xml version="1.0" encoding="UTF-8"?> <svg xmlns="http://www.w3.org/2000/svg" xmlns:xlink="http://www.w3.org/1999/xlink" width="208px" height="52px" viewBox="0 0 208 52"><!-- Generator: Sketch 55.2 (78181) - https://sketchapp.com --><title>RUGBY CUP</title><desc>Created with Sketch.</desc><g id="Page-1" stroke="none" stroke-width="1" fill="none" fill-rule="evenodd"><g id="Rokt-Calendar-1440" transform="translate(-252.000000, -4897.000000)" fill="#FFFFFF" fill-rule="nonzero"><g id="Rugby" transform="translate(188.000000, 4755.000000)"><g id="RUGBY-CUP" transform="translate(63.000000, 142.000000)"><path d="M48.56,7.54 C48.2798725,7.70495999 47.9645299,7.80093384 47.64,7.82 C46.5,7.82 45.36,7.82 44.17,7.82 L44.17,2.6 C45.4,2.66 46.62,2.68 47.83,2.8 C48.3999863,2.82346821 48.8776114,3.2387944 48.98,3.8 C49.1509573,4.35324295 48.8800035,4.94676088 48.35,5.18 L48.65,5.38 C49.0187096,5.63312931 49.2314148,6.05801464 49.213134,6.50487821 C49.1948532,6.95174178 48.9481536,7.35783328 48.56,7.58 L48.56,7.54 Z M41.56,7.91 C41.42,7.91 41.25,7.73 41.16,7.59 C40.856215,7.02908276 40.5223968,6.48495909 40.16,5.96 L40.16,7.85 L38.16,7.85 L38.16,2.69 C39.44,2.69 40.71,2.63 41.98,2.69 C42.6754029,2.75749202 43.2272218,3.30513048 43.3,4 C43.41,4.74 43.14,5.23 42.3,5.69 L43.9,7.89 C43.04,7.89 42.3,7.89 41.56,7.89 L41.56,7.91 Z M37.22,7.89 L35.22,7.89 L35.22,2.69 L37.22,2.69 L37.22,7.89 Z M49.34,0.1 C49.3305549,0.067335743 49.3305549,0.032664257 49.34,0 L16.6,0 L17,0.21 C34,6.21 45.55,17.77 51.86,34.74 L51.86,3.17 C51.9146529,1.65751009 50.8341386,0.341169219 49.34,0.1 L49.34,0.1 Z" id="Shape"></path><path d="M24.82,8.88 L26.92,10.78 C26.22,11.53 25.63,12.2 25,12.83 C19.8733333,17.9633333 14.7466667,23.09 9.62,28.21 C8.99,28.83 7.85,29.42 9.15,30.8 C9.93,30.04 10.6,29.32 11.34,28.68 C12.08,28.04 12.63,26.68 14.16,27 C14.52,27.07 15.07,26.34 15.48,25.94 C17.64,23.8 19.78,21.66 22,19.43 L24.13,19.75 L31.92,11.39 L33.09,12.3 C32.9082923,12.592625 32.7078752,12.8732089 32.49,13.14 L14.26,31.38 C13.5189315,32.0691697 12.8146252,32.7968416 12.15,33.56 C11.94,33.83 12.07,34.37 12.02,35.16 C12.5551448,34.8782015 13.0727564,34.5642951 13.57,34.22 C15,33.07 15.9,31.12 18.14,31 C18.52,31 18.87,30.35 19.23,30 L25.77,23.31 L27.7,23.65 L36.06,14.9 C36.56,15.37 36.92,15.7 37.38,16.11 L15.07,38.46 C16.07,38.54 16.58,38.73 16.87,38.56 C17.4171683,38.1684133 17.9321432,37.7336942 18.41,37.26 C19.51,36.39 20.14,34.84 21.97,34.96 C22.37,34.96 22.84,34.23 23.25,33.81 L29.72,27.28 L31.42,27.61 L39.69,19.18 L40.92,20.47 L19.57,41.34 C19.67,41.57 19.77,41.8 19.86,42.04 C20.31,42.04 20.86,42.28 21.18,42.04 C21.93,41.51 22.53,40.77 23.23,40.16 C23.93,39.55 24.5,38.1 26.07,38.56 C26.33,38.64 26.84,37.99 27.19,37.64 C28.87,35.98 30.51,34.27 32.19,32.64 C32.93,31.94 33.46,30.89 34.88,31.19 C35.3,31.27 35.96,30.49 36.43,30.03 C38.05,28.45 39.63,26.84 41.32,25.16 L42.68,26.4 L24.59,44.64 L24.83,45.18 C25.29,45.12 25.83,45.18 26.18,44.95 C26.98,44.33 27.59,43.49 28.38,42.87 C29.0607457,42.4676937 29.7616653,42.1005454 30.48,41.77 C31.123656,41.4101413 31.7213439,40.9736277 32.26,40.47 C35.74,37 39.18,33.56 42.64,30.1 C43.22,29.52 43.84,28.96 44.64,28.26 L46.64,30.44 C41,36 35.49,41.55 29.56,47.49 C30.66,47.49 31.2,47.66 31.47,47.49 C32.174734,46.8979831 32.8426446,46.2634681 33.47,45.59 C33.83,45.24 34.2,44.59 34.58,44.59 C36.84,44.51 37.84,42.69 39.16,41.37 C41.96,38.57 44.68,35.7 47.68,32.61 C48.21,33.91 48.57,34.8 49.06,35.99 L36,49.05 C37.11,49.76 37.75,49.11 38.42,48.5 C39.42,47.5 40.19,46.27 41.9,46.26 C42.4,46.26 42.9,45.46 43.4,44.99 L49.69,38.7 L50.54,42.22 L43.4,48.93 C43.52,49.12 43.63,49.32 43.75,49.52 C44.5442119,49.3001226 45.3146514,49.0019961 46.05,48.63 C47.58,47.63 49.05,46.57 50.49,45.53 C50.79,45.96 50.94,46.08 50.95,46.21 C51.27,50.41 50.82,50.9 46.6,50.9 L5.6,50.9 C1.85,50.9 1,50.09 1,46.37 C1,32.55 1,18.7266667 1,4.9 C1,3.54 0.9,2.16 2.36,1 L5.17,1 C4.17,2.44 3.26,3.82 2.07,5.56 L5.14,5.2 L8.66,1.29 L12.22,1.92 L3.25,11 C2.56,11.7 1.66,12.31 2.08,13.64 C3.67,13.82 3.95,11.04 6.22,12.18 L15.22,2.75 L18.22,3.6 C17.67,4.26 17.22,4.83 16.76,5.32 C12.76,9.38 8.65,13.42 4.6,17.48 C3.91,18.17 2.97,18.78 3.79,20.4 L6.87,17.4 C8.15,17.51 8.17,17.53 9.12,16.59 C12.7333333,13.0633333 16.3266667,9.51333333 19.9,5.94 C20.2,5.65 20.52,5.37 20.96,4.94 L22.89,6.76 C22.41,7.34 22.03,7.87 21.58,8.32 C16.5933333,13.34 11.5933333,18.34 6.58,23.32 C6,24 5,24.52 6.1,25.79 C6.77,25.21 7.36,24.67 7.98,24.16 C8.83,23.46 9.28,22.16 10.84,22.49 C11.23,22.56 11.84,21.67 12.31,21.2 L23.46,10.2 C23.87,9.79 24.3,9.4 24.82,8.9" id="Shape"></path><path d="M159.79,11.58 C162.36,11.58 164.62,11.72 166.86,11.58 C168.5,11.44 169.25,10.26 169.22,8.58 C169.310973,7.85226235 169.072498,7.12188579 168.569609,6.58804983 C168.06672,6.05421387 167.351868,5.77259759 166.62,5.82 C164.39,5.7 162.15,5.82 159.79,5.82 L159.79,11.58 Z M159.79,16.85 L159.79,23.28 C162.27,23.28 164.6,23.39 166.91,23.28 C169.22,23.17 169.91,22.11 169.91,20.03 C169.91,17.95 169.01,17.03 166.79,16.91 C164.57,16.79 162.3,16.91 159.79,16.91 L159.79,16.85 Z M151.3,0.62 C157.75,0.62 163.97,0.62 170.19,0.62 C171.11502,0.665371876 172.02824,0.847341757 172.9,1.16 C174.867664,1.75784753 176.472896,3.19069272 177.289488,5.07809893 C178.10608,6.96550514 178.051413,9.11651097 177.14,10.96 C176.55,12.16 175.29,13.02 174.29,14.09 C177.61,15.34 178.8,18.01 178.47,21.43 C178.40407,23.7732048 177.011816,25.8751585 174.88,26.85 C173.320533,27.6533774 171.624844,28.1586929 169.88,28.34 C163.75,28.51 157.62,28.4 151.31,28.4 L151.3,0.62 Z" id="Shape"></path><path d="M65.37,13.33 C67.8967474,13.7935787 70.4905115,13.7493862 73,13.2 C74.62,12.86 75.36,11.54 75.33,9.5 C75.3,7.46 74.66,6.56 72.94,6.17 C70.4415584,5.71313167 67.8864323,5.65575103 65.37,6 L65.37,13.33 Z M56.7,0.58 C57.53,0.52 58.27,0.44 59,0.44 C63.55,0.44 68.1,0.37 72.65,0.44 C74.4996499,0.460965116 76.341131,0.689053859 78.14,1.12 C81.1466905,1.70007412 83.4273674,4.16709408 83.77,7.21 C84.29,10.76 83.98,14.15 80.71,16.5 C80.04,16.98 79.31,17.41 78.82,17.72 L84.51,28.31 L75.36,28.31 L72.71,23 C70.63,18.78 70.49,18.7 65.4,19.08 C65.05,22.08 65.4,25.16 65.18,28.38 L56.7,28.38 L56.7,0.58 Z" id="Shape"></path><path d="M144.53,0.79 L144.53,6.71 C142.47,6.57 140.53,6.33 138.66,6.33 C136.476592,6.29419548 134.293625,6.42457179 132.13,6.72 C129.835368,6.87914052 128.009141,8.7053682 127.85,11 C127.648347,13.4976138 127.681827,16.0086506 127.95,18.5 C128.136015,20.6273342 129.822666,22.3139852 131.95,22.5 C133.95,22.79 135.95,22.77 138.15,22.89 L138.15,17.89 L133.3,17.89 L133.3,12.41 L146.3,12.41 L146.3,27.92 C145.979051,28.0597121 145.643698,28.1636715 145.3,28.23 C140.18,28.52 135.07,29.15 129.93,28.47 C123.15,27.58 119.17,23.47 118.78,16.62 C118.620112,14.6191551 118.683839,12.60672 118.97,10.62 C119.9,5.09 123.63,1.7 129.57,0.62 C134.51,-0.26 139.43,0.17 144.57,0.81" id="Shape"></path><path d="M106.16,0.59 L114.8,0.59 C114.86,1.59 114.94,2.38 114.94,3.2 C114.94,7.75 115.01,12.3 114.94,16.85 C114.935713,18.5355702 114.727534,20.2144325 114.32,21.85 C113.627431,24.811513 111.384635,27.1653006 108.46,28 C103.94477,29.480039 99.0858592,29.5498008 94.53,28.2 C90.9954491,27.2476286 88.4045242,24.2281893 88,20.59 C87.7551741,19.092092 87.624797,17.5777118 87.61,16.06 C87.61,11.68 87.61,7.3 87.61,2.92 C87.61,2.18 87.69,1.44 87.74,0.57 L96.46,0.57 L96.46,3.17 C96.46,7.17 96.46,11.25 96.46,15.3 C96.46,16.23 96.53,17.15 96.53,18.08 C96.53,23.28 100.35,23.46 103.72,22.56 C104.638729,22.168221 105.360046,21.4216578 105.72,20.49 C106.091233,19.37579 106.257255,18.2034756 106.21,17.03 C106.21,12.4 106.21,7.76 106.21,3.13 L106.21,0.59" id="Shape"></path><path d="M198.24,28.46 L189.67,28.46 C189.67,26.52 189.48,24.62 189.59,22.73 C189.756105,20.2960426 189.143187,17.872388 187.84,15.81 C185.22,11.49 182.84,7.03 180.39,2.62 C180.07,2.05 179.78,1.46 179.39,0.62 L188.87,0.62 L194.25,11.26 L199.47,0.6 L208.07,0.6 C207.57,1.6 207.2,2.43 206.77,3.2 C204.22,7.85 201.62,12.47 199.14,17.2 C198.61734,18.2322578 198.320749,19.3640788 198.27,20.52 C198.15,23.1 198.27,25.7 198.27,28.52" id="Shape"></path><path d="M81.24,34.33 L76.72,50.69 L71.39,50.69 C70.59,47.69 69.8,44.77 68.85,41.23 C67.85,44.68 67.06,47.64 66.21,50.68 L60.84,50.68 C59.44,45.32 58.02,39.91 56.55,34.32 L62,34.32 C62.64,37.07 63.29,39.9 63.95,42.73 L64.42,42.83 L66.85,34.29 L71.48,34.29 L73.6,42.87 L74,43 C74.7,40.17 75.41,37.35 76.15,34.38 L81.24,34.33 Z" id="Shape"></path><path d="M107.4,37.18 L107.4,41.93 L112.71,41.48 L112.71,37.77 L107.4,37.18 L107.4,37.18 Z M102.23,34.25 C105.92,34.25 109.45,34.13 112.96,34.25 C115.74,34.38 117.4,35.6 117.78,37.57 C118.26,40.07 118.23,42.49 115.62,43.99 L115.14,44.28 C116.23,46.41 117.22,48.28 118.37,50.55 L113.12,50.55 L110.25,45.23 L107.25,44.97 L107.25,50.57 L102.25,50.57 L102.23,34.25 Z" id="Shape"></path><path d="M140.87,47.05 C142.93,47.21 144.81,47.56 146.13,45.81 C147.06,44.58 146.98,40.26 146.05,39.02 C144.69,37.2 142.8,37.84 140.87,37.9 L140.87,47.05 Z M135.64,50.79 C135.58,49.86 135.51,49.21 135.51,48.55 C135.51,43.85 135.51,39.15 135.51,34.28 C139.07,34.28 142.43,34.05 145.75,34.34 C149.3,34.64 151.34,36.81 151.75,40.34 C151.962016,42.0046123 151.908009,43.6923485 151.59,45.34 C151.149918,47.8342834 149.209658,49.7944634 146.72,50.26 C143.08,51.09 139.39,50.68 135.61,50.74 L135.64,50.79 Z" id="Shape"></path><path d="M87.06,42.53 C87.1291993,43.3605371 87.2527979,44.1856414 87.43,45 C87.9,46.78 88.83,47.43 90.75,47.43 C92.67,47.43 93.69,46.77 94,44.94 C94.2448659,43.452006 94.2751741,41.9365948 94.09,40.44 C93.83,38.32 92.72,37.49 90.69,37.4999108 C88.66,37.51 87.69,38.3 87.34,40.5 C87.21,41.16 87.16,41.83 87.06,42.57 M90.71,51.13 C89.63,50.97 88.55,50.86 87.49,50.61 C84.731197,50.1721862 82.590089,47.97002 82.23,45.2 C81.9346024,43.5492707 81.8941319,41.8629996 82.11,40.2 C82.66,36.65 84.65,34.72 88.24,34.2 C89.8103183,33.9115745 91.4154446,33.8643649 93,34.06 C96.92,34.64 99.06,36.77 99.45,40.67 C99.6267796,42.5903531 99.4436449,44.5268324 98.91,46.38 C98.04,49.38 94.91,51 90.73,51.09" id="Shape"></path><path d="M173.91,34.31 L178.91,34.31 C178.91,36.1 178.91,37.77 178.91,39.43 C178.91,41.09 178.91,42.8 179.03,44.43 C179.2,46.74 179.96,47.43 181.94,47.34 C183.92,47.25 184.55,46.48 184.59,44.15 C184.63,41.82 184.59,39.27 184.59,36.83 L184.59,34.29 L189.44,34.29 C189.568496,34.7440644 189.652228,35.2096183 189.69,35.68 C189.69,38.68 189.76,41.74 189.69,44.77 C189.62,48.12 188.22,50.01 184.89,50.57 C182.658654,50.8758101 180.394491,50.8522251 178.17,50.5 C175.784005,50.2431388 173.981075,48.2197062 174,45.82 C173.8,42.06 173.94,38.29 173.94,34.31" id="Shape"></path><path d="M197.93,43 C199.7,43.06 201.44,43.63 202.67,42.06 C203.429159,41.0872533 203.429159,39.7227467 202.67,38.75 C201.37,37.02 199.57,37.82 197.9,37.95 L197.93,43 Z M197.93,46.67 L197.69,50.61 L192.8,50.61 L192.8,34.17 C196.45,34.26 200.05,33.81 203.6,34.47 C206.96,35.09 208.35,37.08 208.24,40.61 C208.13,43.91 206.36,45.96 203.08,46.39 C201.44,46.6 199.76,46.6 197.91,46.71 L197.93,46.67 Z" id="Shape"></path><path d="M171.7,34.08 L171.7,37.64 C170.49,37.64 169.35,37.64 168.21,37.64 C166.52,37.69 164.74,37.69 163.9,39.56 C162.978836,41.4967582 163.042054,43.75774 164.07,45.64 C164.73,46.89 166.07,47.12 167.33,47.18 C168.59,47.24 170.14,47.18 171.67,47.18 L171.67,50.41 C168.576821,51.2351124 165.302547,51.0672009 162.31,49.93 C160.061618,49.0420868 158.49575,46.9748323 158.25,44.57 C158.181452,44.0691563 158.138064,43.56519 158.12,43.06 C157.82,37.36 160.46,34.37 166.12,34.06 C167.87,33.97 169.64,34.06 171.67,34.06" id="Shape"></path><path d="M125.66,47 L133.19,47 L133.19,50.59 L120.6,50.59 C120.29,45.23 120.54,39.83 120.43,34.29 L125.66,34.29 L125.66,47 Z" id="Shape"></path></g></g></g></g></svg> 