<?xml version="1.0" encoding="UTF-8"?>
<svg width="86px" height="73px" viewBox="0 0 86 73" version="1.1" xmlns="http://www.w3.org/2000/svg" xmlns:xlink="http://www.w3.org/1999/xlink">
    <!-- Generator: Sketch 55.2 (78181) - https://sketchapp.com -->
    <title>Sale Hanger</title>
    <desc>Created with Sketch.</desc>
    <g id="Page-1" stroke="none" stroke-width="1" fill="none" fill-rule="evenodd">
        <g id="Rokt-Calendar-1440" transform="translate(-223.000000, -2623.000000)" fill="#25211F" fill-rule="nonzero">
            <g id="Power-Calendar-Scheduling" transform="translate(0.000000, 2118.000000)">
                <g id="Television-Tile" transform="translate(154.000000, 422.000000)">
                    <g id="Sale-Hanger" transform="translate(69.000000, 83.000000)">
                        <polygon id="Shape" points="27 44 28 44 27.5 42"></polygon>
                        <path d="M85.0288615,41.9157117 L44.8980724,15.8619102 L44.8980724,13.9304092 C48.4451568,12.9622649 50.6664272,9.45544176 50.0198615,5.84440189 C49.3732959,2.23336203 46.072361,-0.289692092 42.4085898,0.026761998 C38.7448186,0.343216088 35.9278231,3.39469953 35.913182,7.06285038 C35.9171065,7.64158583 35.9893219,8.21784831 36.1283375,8.77974009 C36.2820727,9.37472416 36.7423551,9.84270278 37.3358006,10.0073929 C37.9292462,10.1720831 38.5656964,10.0084644 39.0054067,9.57817049 C39.445117,9.14787657 39.6212849,8.51627929 39.4675496,7.92129523 C39.3946359,7.64089654 39.3570524,7.35252445 39.3556688,7.06285038 C39.3564669,5.05674604 40.9773499,3.42578699 42.9884577,3.40747876 C44.9995655,3.38917053 46.6500219,4.99034875 46.6875277,6.99610438 C46.7250334,9.00186001 45.1355852,10.6633153 43.1251917,10.7198255 C42.1948,10.7476791 41.4551667,11.508259 41.4555857,12.4367152 L41.4555857,16.3598082 L36.7307726,19.3386119 L36.7307726,19.3386119 L36.0853064,19.7764187 L0.997760374,41.8985428 C0.190302742,42.4103661 -0.181346775,43.3925278 0.0856882751,44.3088844 C0.352723325,45.225241 1.1942902,45.8556462 2.15099343,45.8559736 L18.726567,45.8559736 L18.726567,73 L36.7996224,73 L36.7996224,45.8559736 L83.858416,45.8559736 C84.807506,45.8515122 85.6415544,45.2272648 85.9111828,44.3195707 C86.1808112,43.4118765 85.8223201,42.4351778 85.0288615,41.9157117 Z M28.0470999,34.4644103 L27.1864782,34.2927213 C25.8180897,34.018019 25.034924,33.2711719 25.034924,32.0006735 C25.034924,30.7301751 26.1451259,29.5197679 28.3569237,29.5197679 C29.4379234,29.5041462 30.4938195,29.8451619 31.3604933,30.4898106 L30.27611,31.9835046 C29.7472882,31.5376226 29.0905276,31.2701737 28.3999547,31.2194887 C27.892188,31.2194887 27.6684263,31.3825932 27.6684263,31.6229578 C27.6684263,31.8633224 27.8491569,31.9577513 28.2794677,32.0435958 L29.1400894,32.2152847 C30.9387887,32.5758316 31.5670425,33.425692 31.5670425,34.6618526 C31.5670425,36.0782866 30.3191411,37.2371872 28.3397112,37.2371872 C27.0094136,37.2694938 25.7116221,36.8247919 24.6820691,35.9838577 L25.8094835,34.4300725 C26.4522341,35.029091 27.2749438,35.4001841 28.1503745,35.4859597 C28.6323226,35.4859597 28.8646905,35.2713484 28.8646905,35.0052305 C28.8646905,34.7391126 28.6237164,34.5760081 28.0470999,34.4644103 Z M18.726567,41.5637493 L9.57815855,41.5637493 L18.7351733,35.7949998 L18.726567,41.5637493 Z M31.0937006,62.9046885 L28.0212812,62.9046885 L28.0212812,63.9262378 L30.6031463,63.9262378 L30.6031463,65.6431276 L28.0212812,65.6431276 L28.0212812,66.8363659 L31.0937006,66.8363659 L31.0937006,68.5532556 L25.5168721,68.5532556 L25.5168721,61.1706298 L31.0937006,61.1706298 L31.0937006,62.9046885 Z M31.0937006,56.1658963 L31.0937006,58.0630595 L25.5857218,58.0630595 L25.5857218,50.6546803 L28.0987372,50.6546803 L28.0987372,56.1487274 L31.0937006,56.1658963 Z M29.5187629,47.5814477 L29.1917267,46.3281182 L27.0057476,46.3281182 L26.6787114,47.5642788 L24.4583074,47.5642788 L26.6787114,40.1730686 L29.8113743,40.1730686 L32.100628,47.5642788 L29.5187629,47.5814477 Z M36.7565913,41.5723337 L36.7565913,24.4549432 L43.6415647,20.1627189 L76.594769,41.5637493 L36.7565913,41.5723337 Z" id="Shape"></path>
                    </g>
                </g>
            </g>
        </g>
    </g>
</svg>