<?xml version="1.0" encoding="UTF-8"?>
<svg width="238px" height="167px" viewBox="0 0 238 167" version="1.1" xmlns="http://www.w3.org/2000/svg" xmlns:xlink="http://www.w3.org/1999/xlink">
    <!-- Generator: Sketch 55.2 (78181) - https://sketchapp.com -->
    <title>SalesForce</title>
    <desc>Created with Sketch.</desc>
    <g id="Page-1" stroke="none" stroke-width="1" fill="none" fill-rule="evenodd">
        <g id="Rokt-Calendar-1440" transform="translate(-913.000000, -1878.000000)" fill-rule="nonzero">
            <g id="Integrations" transform="translate(0.000000, 1561.000000)">
                <g id="SalesForce" transform="translate(913.000000, 317.000000)">
                    <path d="M238,70.1917713 L238,78.6531589 C237.799266,80.0159874 237.622147,81.3669653 237.385989,82.7179431 C234.162432,100.991696 224.22018,114.205208 207.488385,122.109613 C199.99926,125.615598 191.732698,127.114033 183.494731,126.458814 C181.203998,126.292904 178.925073,125.972936 176.575301,125.712221 C166.757618,142.948231 145.355768,149.667001 127.501666,141.118109 C127.324547,141.48548 127.182852,141.734344 127.064773,141.995059 C123.659652,149.52439 118.156215,155.903849 111.218571,160.363618 C105.390248,164.17159 98.7041142,166.453194 91.7709582,167 L84.3910203,167 C83.0685354,166.83409 81.7342426,166.762986 80.4353735,166.490421 C65.0851027,163.338139 54.4579921,154.49753 48.3060758,140.09895 C48.1552839,139.508991 47.5834603,139.12981 46.983591,139.221999 L46.7946646,139.221999 C41.7832231,140.178786 36.6312371,140.114304 31.645128,139.032388 C10.0613259,134.334015 -3.6879764,113.021101 0.873738881,91.3333896 C0.932778384,91.0608239 0.991817887,90.7882582 1.06266529,90.5275431 C3.38905401,80.0391536 9.84627115,70.9423567 18.9634427,65.3092899 C19.2350244,65.1433803 19.4829903,64.9537694 19.7899957,64.7404571 C15.391133,54.482765 14.8416554,42.9734921 18.2431608,32.34069 C21.5249133,21.6731355 28.6138365,12.5963139 38.1512813,6.84987109 C46.2874386,1.7268274 55.8531854,-0.625479697 65.4275318,0.142384557 C79.2073519,1.18524465 90.3776259,7.30019704 99.0564329,18.1317212 C109.045917,8.35490782 120.877433,3.80424558 134.728101,5.6648028 C148.578768,7.52536001 158.839834,15.1453491 166.00723,26.996032 L167.388754,26.4271993 C180.672642,21.2128988 194.027378,21.0825413 207.039684,26.9486293 C224.102101,34.6397225 234.138816,48.0665463 237.397797,66.5654623 C237.610339,67.7860826 237.799266,68.9948523 238,70.1917713 Z" id="Path_452" fill="#FFFFFF"></path>
                    <path d="M84,165 C83.9660949,165.056194 83.9660949,165.123806 84,165.18 L77,165.18 C77.0222243,165.121635 77.0222243,165.058365 77,165 L84,165 Z" id="Path_453" fill="#0097DC"></path>
                    <path d="M238,70.1917713 L238,78.6531589 C237.799266,80.0159874 237.622147,81.3669653 237.385989,82.7179431 C234.162432,100.991696 224.22018,114.205208 207.488385,122.109613 C199.99926,125.615598 191.732698,127.114033 183.494731,126.458814 C181.203998,126.292904 178.925073,125.972936 176.575301,125.712221 C166.757618,142.948231 145.355768,149.667001 127.501666,141.118109 C127.324547,141.48548 127.182852,141.734344 127.064773,141.995059 C123.659652,149.52439 118.156215,155.903849 111.218571,160.363618 C105.390248,164.17159 98.7041142,166.453194 91.7709582,167 L84.3910203,167 C83.0685354,166.83409 81.7342426,166.762986 80.4353735,166.490421 C65.0851027,163.338139 54.4579921,154.49753 48.3060758,140.09895 C48.1552839,139.508991 47.5834603,139.12981 46.983591,139.221999 L46.7946646,139.221999 C41.7832231,140.178786 36.6312371,140.114304 31.645128,139.032388 C10.0613259,134.334015 -3.6879764,113.021101 0.873738881,91.3333896 C0.932778384,91.0608239 0.991817887,90.7882582 1.06266529,90.5275431 C3.38905401,80.0391536 9.84627115,70.9423567 18.9634427,65.3092899 C19.2350244,65.1433803 19.4829903,64.9537694 19.7899957,64.7404571 C15.391133,54.482765 14.8416554,42.9734921 18.2431608,32.34069 C21.5249133,21.6731355 28.6138365,12.5963139 38.1512813,6.84987109 C46.2874386,1.7268274 55.8531854,-0.625479697 65.4275318,0.142384557 C79.2073519,1.18524465 90.3776259,7.30019704 99.0564329,18.1317212 C109.045917,8.35490782 120.877433,3.80424558 134.728101,5.6648028 C148.578768,7.52536001 158.839834,15.1453491 166.00723,26.996032 L167.388754,26.4271993 C180.672642,21.2128988 194.027378,21.0825413 207.039684,26.9486293 C224.102101,34.6397225 234.138816,48.0665463 237.397797,66.5654623 C237.610339,67.7860826 237.799266,68.9948523 238,70.1917713 Z M129.131156,71.4953464 C129.131156,71.9693737 129.048501,72.2893421 128.989461,72.5974599 C128.092061,77.6458508 127.241892,82.7060924 126.273644,87.7426327 C125.94239,89.5883825 125.460581,91.4036943 124.83308,93.1702454 C124.344007,94.7465183 122.729601,95.6804875 121.125399,95.315219 C120.724455,95.2790623 120.328568,95.199598 119.944609,95.0782054 C119.436869,94.9004451 119.118056,94.9952506 118.940938,95.5285313 C118.681164,96.286975 118.409582,97.0335681 118.114385,97.7683104 C117.901842,98.3015911 118.114385,98.5978582 118.610316,98.7519171 C122.010992,99.7473745 126.934886,99.4866594 128.954037,94.5804767 C129.538098,93.1795864 129.977293,91.7222106 130.264714,90.2312761 C131.445504,84.3059346 132.42556,78.3805932 133.452848,72.4552517 C133.582734,71.7205094 133.854316,71.4834957 134.633638,71.5071971 C135.672733,71.5071971 136.723636,71.5071971 137.762731,71.5071971 C138.376742,71.5071971 138.695555,71.3057355 138.778211,70.6776493 C138.860866,70.0495631 139.014369,69.3266714 139.144256,68.6511825 C139.274143,67.9756936 139.144256,67.6557251 138.400358,67.6912772 L134.291208,67.6912772 C134.62183,66.5062089 134.798948,65.4870502 135.153185,64.5508462 C135.738229,62.9087058 137.423717,61.9349092 139.132448,62.2518137 C139.532162,62.2898709 139.92747,62.3652515 140.313238,62.4769767 C140.856401,62.6547369 141.127983,62.4769767 141.293294,61.9555466 C141.529452,61.268207 141.741994,60.5690167 142.025383,59.9172292 C142.308773,59.2654416 142.025383,58.7321609 141.352333,58.7321609 C139.751312,58.5742136 138.140187,58.5464716 136.53471,58.6492061 C134.329137,58.9034823 132.4167,60.296933 131.492736,62.3229178 C131.033904,63.2434127 130.647015,64.1982902 130.335562,65.1789324 C130.075788,65.9610775 130.170251,67.098743 129.662511,67.4898156 C129.154772,67.8808881 128.021213,67.6794265 127.159236,67.7268292 C127.018503,67.7034009 126.874885,67.7034009 126.734152,67.7268292 C126.557034,67.8216347 126.29726,67.9519922 126.261836,68.1060511 C126.025678,69.1726125 125.84856,70.2510247 125.612401,71.5190478 L129.131156,71.4953464 Z M66.7382088,75.7378909 C65.8171925,75.6549361 64.9670237,75.5601306 64.1050469,75.5008772 C61.4379726,75.1904581 58.7422564,75.751503 56.4181036,77.1007194 C54.7522828,78.2509072 53.6654262,80.0696892 53.4389054,82.0862089 C53.2123846,84.1027285 53.8684711,86.1187211 55.2373135,87.6122752 C56.4807367,88.6691319 58.0102294,89.3293617 59.6298526,89.5083844 C63.3493413,90.0772172 66.9389431,89.3424749 70.5403528,88.5484791 C71.3196742,88.3825695 71.3314828,87.8611395 71.3314828,87.244904 C71.3314828,83.6264955 71.3314828,80.0120372 71.3314828,76.4015291 C71.3316863,75.459578 71.2843943,74.51822 71.1897873,73.5810666 C71.056077,70.6024445 68.9010709,68.1061353 65.9825031,67.549069 C63.8229183,67.0811505 61.5887031,67.0811505 59.4291183,67.549069 C58.0821053,67.8411745 56.7596145,68.2373782 55.4734715,68.7341373 C55.1546582,68.8526441 54.6823422,69.3977755 54.7413817,69.6229385 C55.0467719,70.6173529 55.4054676,71.594483 55.8159007,72.5500572 C55.9491465,72.5676962 56.0841235,72.5676962 56.2173693,72.5500572 L57.0084986,72.1945367 C59.0960672,71.2724685 61.3905911,70.9247932 63.6563467,71.1872286 C66.1832374,71.5071971 67.1987169,73.0359352 66.7972483,75.7141895 L66.7382088,75.7378909 Z M199.52986,79.7078696 L200.87596,79.7078696 C204.725336,79.7078696 208.586519,79.7078696 212.447703,79.7078696 C213.274256,79.7078696 213.628493,79.4471546 213.628493,78.6176068 C213.648295,77.2472654 213.573332,75.8771963 213.404143,74.5172705 C212.911093,70.4521868 209.513297,67.3704603 205.43381,67.288354 C200.837862,66.7026665 196.496968,69.548524 195.184552,74.0076912 C194.331849,76.7540325 194.262313,79.6851205 194.983818,82.4690788 C195.598101,85.4639965 197.752069,87.9055806 200.639802,88.8802982 C204.325142,90.14816 208.337085,90.0768578 211.975387,88.6788366 C212.731093,88.4181216 213.038098,88.0270491 212.660245,87.2212026 C212.43205,86.7297529 212.250202,86.2179401 212.117082,85.6924645 C211.90454,84.8984688 211.514879,84.7562606 210.770981,85.0643783 C208.801531,85.8051407 206.684761,86.0651104 204.595449,85.822822 C201.690013,85.6945343 199.429892,83.241164 199.52986,80.3241052 C199.531943,80.1173768 199.551695,79.9112089 199.588899,79.7078696 L199.52986,79.7078696 Z M89.0315252,79.7078696 L94.3686963,79.7078696 C96.9664345,79.7078696 99.5641726,79.7078696 102.150103,79.7078696 C102.846769,79.7078696 103.165582,79.4471546 103.17739,78.7835164 C103.189198,78.1198781 103.260046,77.3377331 103.17739,76.6148414 C103.213859,73.9536511 102.179396,71.3901659 100.30807,69.5044317 C95.6675654,65.2144844 87.4610744,67.1342951 85.0404548,73.1781434 C84.1077399,75.6230465 83.8229461,78.2689755 84.2139018,80.8573859 C84.7098336,84.8392154 86.6699451,87.8137368 90.601976,89.0580585 C94.0815428,90.1209254 97.8109065,90.0211154 101.229087,88.7736421 C102.409877,88.3470175 102.480724,88.2285107 102.032024,86.9486369 L101.642363,85.822822 C101.240895,84.7562606 101.240895,84.7325592 100.178183,85.1236317 C98.1993129,85.8244954 96.0864457,86.0596585 94.0026514,85.8109713 C92.5917745,85.7404442 91.2666253,85.1102076 90.3188177,84.0589522 C89.3710102,83.0076969 88.8782124,81.6215678 88.9488699,80.2055983 C88.9488699,80.0396888 88.9488699,79.8856299 88.9488699,79.731571 L89.0315252,79.7078696 Z M139.486685,78.6531589 C139.486685,79.1034848 139.486685,79.6841683 139.581148,80.2648517 C139.970809,85.562107 143.123518,89.0343571 148.212723,89.6505926 C152.855524,90.464003 157.377153,87.6873898 158.768987,83.1682691 C159.703274,80.2180729 159.72386,77.0528313 158.828026,74.0906459 C158.0282,70.7554772 155.359458,68.1975477 152.003059,67.549069 C148.259955,66.7669239 144.812048,67.3713087 142.119847,70.3695315 C140.053464,72.6804147 139.545724,75.5364293 139.474877,78.6650096 L139.486685,78.6531589 Z M114.005235,89.7572488 C116.229111,89.9779664 118.455353,89.3613141 120.251615,88.0270491 C121.924345,86.6939956 122.768336,84.571415 122.469668,82.4487935 C122.171,80.326172 120.774368,78.5211521 118.799243,77.7051042 C117.370487,77.0296153 115.823652,76.6148414 114.347664,76.0460086 C113.470234,75.7405508 112.627238,75.3433443 111.832581,74.8609403 C111.250216,74.4990632 110.906843,73.8507489 110.933731,73.1638442 C110.960619,72.4769395 111.353611,71.8576587 111.962468,71.5427491 C112.525339,71.2337917 113.151673,71.0594049 113.792693,71.0331698 C115.89393,70.9540388 117.980066,71.4193043 119.850146,72.3841476 C120.475965,72.6922654 120.853818,72.6448626 121.030936,71.9338217 C121.208055,71.2227807 121.45602,70.7487534 121.715794,70.1088165 C121.950027,69.7344706 121.845427,69.2410711 121.479636,68.9948523 C121.402645,68.9472778 121.319094,68.9113403 121.23167,68.8881961 C119.996,68.3454718 118.721009,67.8978064 117.417718,67.549069 C114.884346,66.8457241 112.181635,67.1030533 109.825238,68.2719606 C107.675059,69.3787137 106.381844,71.6581801 106.530834,74.0787953 C106.506281,76.3251639 107.884017,78.3471674 109.978741,79.1390369 C111.088684,79.6486162 112.340321,79.9804354 113.426648,80.3952093 C114.512975,80.8099832 115.681957,81.1773543 116.768284,81.6513816 C117.563691,81.9541229 118.080421,82.7296477 118.055345,83.583043 C118.079433,84.4828068 117.535116,85.2998658 116.697436,85.6213604 C115.858115,85.9324415 114.970805,86.0928963 114.076083,86.0953877 C111.907836,86.0423068 109.80073,85.3634502 108.006822,84.1400251 C107.215692,83.6304457 107.085805,83.6896991 106.755184,84.5429483 C106.542642,85.076229 106.400947,85.6450618 106.152981,86.1664918 C105.786936,86.9486369 105.987671,87.3515601 106.731568,87.8255874 C108.936137,89.1276333 111.447262,89.8149669 114.005235,89.8165022 L114.005235,89.7572488 Z M35.6716221,83.5474909 C35.2937693,84.5429483 35.0103797,85.4317495 34.620719,86.2612973 C34.2310583,87.0908451 34.5616795,87.3041574 35.1402666,87.6596779 C38.0412428,89.4487665 41.4809513,90.1459203 44.846361,89.6268912 C46.098992,89.4361011 47.3023616,89.0013184 48.3887311,88.3470175 C51.494209,86.5457137 52.7104228,80.478164 48.1289573,78.0961768 C46.9481673,77.4443892 45.5430271,77.0059139 44.244158,76.4726332 C42.9876055,76.0408225 41.7608487,75.5261723 40.5719009,74.9320444 C39.905536,74.5952893 39.4950615,73.9004306 39.5204235,73.1520845 C39.5457856,72.4037384 40.0023557,71.7384779 40.6899799,71.4479437 C41.1852776,71.1525097 41.755638,71.0083734 42.3312781,71.0331698 C43.9371526,71.1990793 45.5194113,71.4953464 47.0544384,71.8034641 C47.8337598,71.957523 48.8138156,72.6567133 49.2861316,72.3841476 C49.7584476,72.1115819 49.9355661,70.9265136 50.2898032,70.1799206 C50.6440402,69.4333276 50.2898032,69.1252098 49.7348318,68.817092 C46.8747052,67.2843885 43.56975,66.8063481 40.3947824,67.4661142 C37.5976276,67.9605959 35.4560878,70.2400095 35.1284587,73.0714872 C34.856877,76.1882168 36.1557461,78.1909822 39.3438792,79.4590053 C40.5246693,79.9330326 41.7054594,80.2292997 42.8862494,80.6440736 C43.7788743,80.9245213 44.6443805,81.2854639 45.4721797,81.7224857 C46.5022294,82.2725259 46.8933435,83.5562089 46.3459643,84.590351 C46.1838593,84.8925538 45.9533236,85.1523387 45.672914,85.3487947 C44.8780476,85.9294133 43.9012274,86.2029042 42.9216731,86.1190891 C40.8293775,86.0755395 38.7883875,85.461024 37.0177228,84.3414867 L35.68343,83.5474909 L35.6716221,83.5474909 Z M187.355914,67.063191 L187.355914,67.2528019 L186.541169,67.2528019 C182.054683,67.2028228 178.132101,70.2784434 177.094848,74.6594787 C176.386673,77.2181897 176.386673,79.9222185 177.094848,82.4809295 C177.658008,85.1179628 179.400362,87.3475135 181.818009,88.5247777 C185.360379,90.2194254 189.091675,89.9468597 192.77574,88.8091941 C193.127408,88.7600323 193.377617,88.4409067 193.34252,88.0863025 C193.328994,87.9901462 193.296907,87.8975617 193.248056,87.8137368 C193.011898,87.2093519 192.763933,86.6286685 192.586814,85.9768809 C192.409696,85.3250934 192.031843,85.0999304 191.240713,85.2658399 C189.847398,85.5930635 188.420817,85.7561238 186.989869,85.7517179 C184.856924,85.8327073 182.900253,84.5692754 182.08959,82.5875856 C180.831049,79.762198 180.962122,76.5085735 182.443827,73.7943789 C183.16253,72.2811057 184.670443,71.30429 186.340435,71.2701834 C187.953158,71.2836245 189.562967,71.4103414 191.158058,71.6494053 C191.748453,71.7205094 192.126306,71.6494053 192.338848,71.0687218 C192.55139,70.4880383 192.77574,69.7651467 193.035514,69.1252098 C193.295288,68.4852729 193.035514,68.0942004 192.397888,67.9401415 L187.426761,67.0513403 L187.355914,67.063191 Z M80.2700629,74.1024966 L80.2700629,63.5790902 C80.2700629,62.3229178 80.2700629,61.0548947 80.2700629,59.7868717 C80.2700629,59.0758307 80.022097,58.8151157 79.313623,58.8506677 C78.6051489,58.8862198 77.884867,58.8506677 77.1645851,58.8506677 C75.747637,58.8506677 75.747637,58.8506677 75.747637,60.2846004 L75.747637,87.6952299 C75.747637,87.9440943 75.747637,88.2048093 75.747637,88.4536736 C75.747637,88.9988051 75.9956029,89.2476694 76.5269584,89.2476694 L78.6878043,89.2476694 C80.258255,89.2476694 80.258255,89.2476694 80.258255,87.7189313 L80.258255,74.1024966 L80.2700629,74.1024966 Z M167.495025,69.6110878 L167.495025,68.4260195 C167.495025,67.9164401 167.235251,67.7031279 166.762935,67.7031279 L163.846384,67.7031279 C163.673896,67.679669 163.499245,67.7266846 163.361608,67.8336282 C163.223972,67.9405717 163.134871,68.0984907 163.114294,68.2719606 C163.108453,68.3310691 163.108453,68.3906124 163.114294,68.4497209 L163.114294,88.4892257 C163.0576,88.8618029 163.310433,89.2107083 163.681073,89.2713708 C163.754825,89.2890013 163.831672,89.2890013 163.905423,89.2713708 C164.731976,89.2713708 165.558529,89.2713708 166.385082,89.2713708 C167.565873,89.2713708 167.648528,89.2713708 167.660336,87.9677956 C167.660336,84.6496044 167.660336,81.3195625 167.660336,78.0013713 C167.657989,77.0964011 167.75701,76.194034 167.955533,75.3112663 C168.326427,73.1612508 170.197721,71.5995372 172.371688,71.6257039 C173.198241,71.6257039 174.260952,71.7916135 174.792308,71.3649889 C175.323663,70.9383643 175.465358,69.8244001 175.760556,68.9948523 C175.804987,68.8982097 175.8444,68.7993214 175.878635,68.6985852 C176.043945,68.2245579 175.878635,67.8927388 175.394511,67.8216347 C174.366032,67.6597396 173.329188,67.5568665 172.289033,67.5135169 C170.485858,67.6012708 168.776764,68.3472307 167.483217,69.6110878 L167.495025,69.6110878 Z" id="Path_452-2" fill="#0097DC"></path>
                    <path d="M67,82.5123654 C67,83.3105501 67,84.1087347 67,84.8950061 C67,85.4311003 66.7986477,85.7408436 66.2775007,85.7765832 C64.5978521,85.9552682 62.9086466,86.0268904 61.2200059,85.9910209 C59.5360655,86.0719471 58.1050839,84.7659044 58.0220584,83.072286 C57.9926472,82.8469017 57.9926472,82.6186177 58.0220584,82.3932334 C58.0369922,81.200063 58.7530596,80.1290627 59.8460729,79.6651098 C61.4019881,79.0601492 63.0853634,78.8633637 64.7377482,79.093276 C66.9407787,79.2362344 66.9407787,79.2481476 66.9407787,81.4759167 L67,82.5123654 Z" id="Path_454" fill="#0097DC"></path>
                    <path d="M209.971995,76 L200.01883,76 C199.78184,73.4727282 201.809369,71.2466196 204.54752,71.0277631 L204.634611,71.0277631 C205.910472,70.8957215 207.190764,71.2382183 208.192376,71.9795171 C209.193987,72.7208159 209.834399,73.7998429 209.971995,74.9779929 C210.009335,75.3177903 210.009335,75.6602026 209.971995,76 Z" id="Path_455" fill="#0097DC"></path>
                    <path d="M98.9637307,76 L89,76 C89.2719629,72.7156719 91.4723898,70.7404816 94.8224779,71.0275732 C97.4372914,71.3494778 99.2849409,73.5679615 98.9637307,76 Z" id="Path_456" fill="#0097DC"></path>
                    <path d="M145.005474,78.5035356 C144.963454,76.7934124 145.307543,75.0950258 146.013704,73.52702 C146.806916,71.910548 148.533524,70.9215669 150.378603,71.0268566 C152.23083,70.8244917 154.012227,71.7801149 154.817274,73.4079646 C156.428098,76.6713667 156.391793,80.4722606 154.71891,83.7062564 C153.882391,85.281346 152.12034,86.1843313 150.30483,85.968309 C148.569622,86.0494864 146.943429,85.148377 146.136659,83.6586343 C145.336584,82.0534731 144.94853,80.2850134 145.005474,78.5035356 L145.005474,78.5035356 Z" id="Path_457" fill="#0097DC"></path>
                </g>
            </g>
        </g>
    </g>
</svg>