<?xml version="1.0" encoding="UTF-8"?> <svg xmlns="http://www.w3.org/2000/svg" xmlns:xlink="http://www.w3.org/1999/xlink" width="114px" height="43px" viewBox="0 0 114 43"><!-- Generator: Sketch 55.2 (78181) - https://sketchapp.com --><title>SHOWTIME</title><desc>Created with Sketch.</desc><g id="Page-1" stroke="none" stroke-width="1" fill="none" fill-rule="evenodd"><g id="Rokt-Calendar-1440" transform="translate(-1037.000000, -3895.000000)" fill="#FFFFFF" fill-rule="nonzero"><g id="Group-7" transform="translate(264.000000, 3747.000000)"><g id="Group-4" transform="translate(37.000000, 133.000000)"><g id="SHOWTIME" transform="translate(736.563355, 14.997326)"><path d="M44.6578666,8.23777184 L47.5946142,8.23777184 C48.5597426,14.0987522 48.973369,20.0154189 49.9384973,25.9042424 C51.1104389,20.1128699 51.7446661,14.2240463 52.6960068,8.27953654 L56.3910696,8.27953654 C57.3148353,14.2240463 58.0042127,20.1128699 59.3140297,25.918164 C59.9896195,20.0850267 60.6927844,14.2379679 61.3821618,8.29345811 L64.48436,8.29345811 C63.4227189,17.2589483 62.2369898,26.113066 61.0788358,35.1203209 C59.9210608,35.3498992 58.7350359,35.3968621 57.5630111,35.2595365 C56.6254579,28.855615 55.6741171,22.5352228 54.8055016,16.2148307 L54.4332378,16.2148307 C53.5094721,22.4934581 52.599494,28.7442424 51.6757283,35.1760071 L48.3667169,35.1760071 C47.7462773,33.5054189 45.2645187,15.6301248 44.6578666,8.23777184 Z" id="Shape"></path><path d="M95.5614923,15.3238503 C94.6515141,21.8669875 93.7277484,28.4101248 92.8039827,35.1063993 L89.9361728,35.1063993 C89.017003,28.5261378 88.0978332,21.9365954 87.1786633,15.3377718 L86.8615497,15.3377718 L86.8615497,35.1203209 L84.1040402,35.1203209 L84.1040402,8.32130125 C85.6227573,8.11103991 87.1627889,8.11103991 88.681506,8.32130125 L91.2046272,25.6258111 L91.576891,25.6258111 L94.0862247,8.2516934 L98.4155146,8.2516934 C98.7877784,9.97796791 98.9256539,29.565615 98.6223278,35.0228699 C97.7306318,35.3032412 96.7865029,35.3699727 95.8648183,35.2177718 C95.7269428,28.5493405 95.8923934,21.9365954 95.5614923,15.3238503 Z" id="Shape"></path><path d="M32.2352862,17.4260071 C32.4276189,16.5600972 32.7884913,15.7414247 33.2969274,15.0175758 C33.9294312,13.9635768 35.0685874,13.3279043 36.2889538,13.3479638 C37.5093201,13.3680233 38.6273811,14.0407984 39.2255729,15.1150267 C40.0793136,16.5168404 40.5546617,18.1199359 40.6043276,19.7648307 C40.8787265,22.0127156 40.7714849,24.2913879 40.287214,26.5028699 C40.0748487,27.3600921 39.7696853,28.1911087 39.3772359,28.9809091 C38.8695636,30.2972798 37.6188943,31.1685748 36.2198875,31.1805169 C34.8619898,31.1242254 33.6513323,30.3002998 33.0901142,29.0505169 C32.343464,27.6663076 31.9190904,26.1284733 31.8491606,24.5538503 C31.8491606,23.7324777 31.8491606,22.9111052 31.8491606,22.0897326 C31.8456086,20.5268712 31.9747659,18.9665761 32.2352862,17.4260071 L32.2352862,17.4260071 Z" id="Shape"></path><path d="M0,22.5909091 C1.95783176,23.4679679 3.6812752,24.2197326 5.3909311,25.0271836 C6.85858191,25.5752409 7.61074048,27.2186839 7.07301191,28.7024777 C6.81783942,30.3362897 5.31904212,31.4666817 3.69506275,31.2501248 C2.80396126,31.238937 2.00587278,30.6907423 1.66829326,29.8579679 C0.694254946,27.5532039 0.129543638,25.0933304 0,22.5909091 L0,22.5909091 Z" id="Shape"></path><path d="M30.3326047,12.6787522 C31.4173225,10.2146637 33.9145196,8.70066791 36.5783637,8.89208556 C36.9614367,8.88331429 37.3436132,8.85076923 37.7227302,8.79463458 C27.8922087,-4.16634581 10.147635,-0.72771836 4.5498907,8.79463458 C8.82403045,9.8944385 9.88567161,12.7901248 10.0649097,16.785615 L6.89377379,17.0222816 C6.7343618,16.3019999 6.53645073,15.5909596 6.30090924,14.8922816 C5.77559182,13.5756236 4.32263287,12.9032108 2.99189782,13.3609091 C2.34967738,13.5056939 1.79322675,13.9076244 1.45009519,14.4745703 C1.10696362,15.0415163 1.00657543,15.7248607 1.17194154,16.3679679 C1.32325656,17.2576342 1.92482141,18.0023746 2.75750952,18.3309091 C3.80536313,18.8320856 4.89457939,19.2079679 5.94243301,19.723066 C8.04870806,20.5893804 9.59628412,22.4488972 10.0786973,24.693066 C10.5058371,26.5007026 10.5058371,28.3844489 10.0786973,30.1920856 C9.81502658,32.4900732 8.33678374,34.4624533 6.21818396,35.343066 C5.98839235,35.4720172 5.7673081,35.6161887 5.55638167,35.7746346 C13.0292325,44.8514973 28.3058352,45.0603209 36.082012,35.7746346 C32.4145244,35.5518895 30.566993,33.213066 29.2985386,30.0946346 C29.2296009,29.8997326 29.1882382,29.6909091 29.133088,29.4960071 C27.9936074,25.4686434 27.832803,21.22321 28.6643114,17.1197326 C28.9968375,15.5633482 29.5592208,14.0662893 30.3326047,12.6787522 Z M25.658626,35.3848307 L22.308252,35.3848307 L22.308252,24.1222816 L15.9108299,24.1222816 L15.9108299,35.3848307 L12.5604558,35.3848307 L12.5604558,8.94777184 L15.9108299,8.94777184 L15.9108299,19.4724777 L22.308252,19.4724777 L22.308252,8.94777184 L25.658626,8.94777184 L25.658626,35.3848307 Z" id="Shape"></path><polygon id="Shape" points="113.099253 12.6787522 113.099253 8.08463458 101.614226 8.08463458 101.614226 8.54404635 101.600438 8.54404635 101.600438 33.5054189 101.614226 33.5054189 101.614226 35.1203209 113.099253 35.1203209 113.099253 30.5401248 104.592336 30.5401248 104.592336 23.3287522 113.099253 23.3287522 113.099253 18.7485561 104.592336 18.7485561 104.592336 12.6787522"></polygon><polygon id="Shape" points="77.099966 8.16816399 64.8290487 8.16816399 64.8290487 12.6787522 69.2410639 12.6787522 69.2410639 35.3152228 72.743101 35.3152228 72.743101 12.6787522 77.099966 12.6787522"></polygon><polygon id="Rectangle-path" points="78.230545 8.12639929 81.732582 8.12639929 81.732582 35.3152228 78.230545 35.3152228"></polygon></g></g></g></g></g></svg> 