<?xml version="1.0" encoding="utf-8"?>
<!-- Generator: Adobe Illustrator 19.0.0, SVG Export Plug-In . SVG Version: 6.00 Build 0)  -->
<svg version="1.1" id="Layer_1" xmlns="http://www.w3.org/2000/svg" xmlns:xlink="http://www.w3.org/1999/xlink" x="0px" y="0px"
	 width="215px" height="80px" viewBox="11.1 6 215 80" style="enable-background:new 11.1 6 215 80;" xml:space="preserve">
<style type="text/css">
	.st0{fill:#FFFFFF;}
</style>
<title>SiriusXM WhiteSVG</title>
<g id="Layer_2">
	<g id="Layer_1-2">
		<path class="st0" d="M17.5,48c-0.3-3.3,0.1-6.6,0.9-9.8c0.9-3.2,2.2-6.3,4.1-9.1c0.4-0.5,0.5-1.2,0.3-1.8c-0.3-0.6-0.6-1-1.3-1.3
			h-1c-0.9,0.4-1.3,1.2-1.8,1.9c-2.4,3.9-4,8.1-4.8,12.6c-0.1,0.9-0.3,1.8-0.3,2.6c0,0.1,0,0.1-0.1,0.3v5.1c0.1,0,0.1,0.1,0.1,0.3
			c0.1,1,0.3,2.2,0.4,3.2c0.8,4,2.2,7.9,4.2,11.5c0.4,0.6,0.8,1.4,1.3,1.9c0.5,0.6,1.4,0.8,2.1,0.4c0.8-0.3,1.2-1,1.2-1.8
			c0-0.6-0.3-1.2-0.6-1.5C19.5,58.2,17.8,53.2,17.5,48z"/>
		<path class="st0" d="M223.4,41.2c-0.5-3.5-1.5-6.8-3-9.9c-0.6-1.4-1.5-2.8-2.3-4.1c-0.3-0.5-0.8-1-1.4-1.2h-1
			c-1,0.3-1.7,1.4-1.4,2.4c0.1,0.3,0.3,0.5,0.5,0.8c0.8,1.2,1.4,2.3,2.1,3.5c4.6,9.7,3.9,21.1-2.2,29.9c-0.4,0.5-0.5,1.3-0.3,1.9
			c0.3,0.6,0.8,1.2,1.5,1.3s1.4-0.3,1.9-0.8c3-4.4,4.9-9.3,5.5-14.5c0.1-0.6,0.1-1.3,0.3-1.9v-5.7C223.5,42.4,223.4,41.8,223.4,41.2
			z"/>
		<path class="st0" d="M197.1,40c-0.5-2.4-2.3-4.5-4.6-5.3c-1.2-0.4-2.4-0.5-3.6-0.5c-1.7,0-3.3,0.6-4.6,1.9
			c-0.6,0.6-1.3,1.4-1.8,2.2c-1.2-2.4-3.7-4-6.4-4c-3-0.1-5,1.4-6.7,3.9c0-1,0-1.9,0-2.8c0-0.4-0.1-0.4-0.4-0.4c-2.4,0-4.9,0-7.2,0
			c-0.4,0-0.4,0-0.4,0.4c0,7.1,0,14.3,0,21.4c0,0.4,0.1,0.4,0.4,0.4c2.6,0,5.3,0,8,0c0.4,0,0.5-0.1,0.5-0.5c0-3.9,0-7.9,0-11.7
			c0-0.6,0.1-1.4,0.3-2.1c0.3-1.2,1.4-1.8,2.4-1.5c1,0,1.9,0.8,2.1,1.8c0.1,0.6,0.1,1.4,0.1,2.1c0,3.9,0,7.6,0,11.5
			c0,0.4,0.1,0.5,0.4,0.4c2.6,0,5.3,0,7.9,0c0.5,0,0.5-0.1,0.5-0.5c0-3.6,0-7.1,0-10.7c0-1,0-2.1,0.3-3.1c0.1-0.9,0.9-1.5,1.9-1.7
			c0.4,0,0.8,0,1.2,0c0.6,0.1,1.3,0.6,1.4,1.3c0.3,0.8,0.3,1.5,0.3,2.3c0,3.9,0,7.9,0,11.8c0,0.4,0.1,0.5,0.5,0.5c2.6,0,5.3,0,7.9,0
			c0.4,0,0.5-0.1,0.5-0.5c0-4.2,0-8.5,0-12.9C197.7,42.5,197.5,41.2,197.1,40z"/>
		<path class="st0" d="M58.9,44.4c-1.9-0.8-4.1-1.4-6.2-1.8c-1-0.1-2.1-0.5-3-0.9c-0.8-0.4-1-0.8-1-1.3c0.1-0.6,0.6-1.2,1.3-1.3
			c0.5-0.1,1.2-0.1,1.7-0.1c1,0,1.8,0.8,2.1,1.7c0.1,0.4,0.3,0.4,0.5,0.4h7c0.6,0,0.6,0,0.5-0.6c-0.4-2.6-2.3-4.8-4.8-5.5
			c-2.4-0.8-5-1-7.6-0.8c-1.7,0.1-3.5,0.5-5,1.2c-3,1.2-4.6,4.2-4,7.3c0.4,1.9,1.7,3.6,3.5,4.2c1.7,0.8,3.5,1.2,5.3,1.5
			c1.3,0.1,2.4,0.5,3.6,0.9c0.6,0.1,1.2,0.8,1.2,1.4c0,0.8-0.5,1.4-1.3,1.7c-0.6,0.3-1.4,0.3-2.2,0.1c-1.3-0.1-2.3-1.2-2.3-2.4
			c0-0.4-0.3-0.3-0.4-0.3h-3.9c-1.3,0-2.6,0-3.7,0c-0.4,0-0.5,0-0.4,0.4c0.3,1.7,1,3.2,2.3,4.4c1.7,1.4,3.9,2.3,6.1,2.6
			c2.1,0.3,4.1,0.3,6.3,0c1.8-0.1,3.6-0.8,5.1-1.7c2.6-1.4,4-4.5,3.3-7.5C62.1,46.6,60.7,45.1,58.9,44.4z"/>
		<path class="st0" d="M153.2,45.8c-0.3-0.3-0.3-0.5,0-0.8c2.3-3.2,4.6-6.4,7-9.7c0.1-0.1,0.3-0.3,0.3-0.5h-0.1h-9.1
			c-0.3,0-0.4,0.1-0.5,0.3c-0.5,1-1,2.1-1.7,3.1l-1.2,2.1c-0.9-1.7-1.7-3.5-2.6-5.1c-0.1-0.3-0.4-0.4-0.6-0.4c-3,0-5.9,0-8.9,0h-0.5
			l0.3,0.3c2.3,3.2,4.5,6.6,6.8,9.8c0.3,0.3,0.3,0.6,0,0.9c-2.4,3.6-5,7.2-7.5,10.8c-0.1,0.1-0.3,0.3-0.1,0.4h9.4
			c0.1,0,0.4-0.1,0.4-0.3l1.4-3l1.5-3.1l0.1,0.4c0.9,1.8,1.8,3.6,2.7,5.5c0.1,0.3,0.4,0.4,0.6,0.4h8.9c0.1,0,0.3,0,0.4,0
			s-0.1-0.3-0.1-0.4C158,53,155.7,49.4,153.2,45.8z"/>
		<path class="st0" d="M115.9,39.1c-2.1,0-4.2,0-6.3,0c-0.4,0-0.5,0.1-0.5,0.5c0,2.7,0,5.4,0,8.1c0,0.6,0,1.4-0.1,2.1
			c-0.1,1.4-1.3,2.6-2.7,2.4c-0.3,0-0.4,0-0.6-0.1c-0.8-0.1-1.3-0.6-1.5-1.3c-0.3-0.5-0.3-1.2-0.3-1.8c0-3.1,0-6.3,0-9.4
			c0-0.4-0.1-0.5-0.5-0.5c-2.1,0-4.1,0-6.2,0c-0.4,0-0.5,0.1-0.5,0.5c0,3.6,0,7.2,0,10.8c0,0.9,0.1,1.7,0.4,2.6
			c0.4,1.9,1.8,3.6,3.6,4.2c1,0.4,2.1,0.5,3.2,0.4c2.1,0,4-0.9,5.4-2.4l0.5-0.5c0,0.8,0,1.4,0,2.1c0,0.4,0.1,0.5,0.5,0.5
			c1.9,0,3.9,0,5.7,0c0.4,0,0.5-0.1,0.5-0.5c0-5.7,0-11.5,0-17.1C116.3,39.3,116.3,39.1,115.9,39.1z"/>
		<path class="st0" d="M135.7,50.5c-0.3-1.7-1.5-3.1-3.1-3.6c-1.4-0.6-3-1-4.5-1.3c-1-0.1-2.1-0.5-3.1-0.9c-0.4-0.1-0.6-0.5-0.6-0.9
			c0-0.4,0.3-0.8,0.6-0.9c0.6-0.3,1.4-0.3,2.1-0.1c0.6,0.1,1.2,0.6,1.3,1.3c0,0.3,0.1,0.4,0.4,0.4c1.9,0,3.9,0,5.8,0
			c0.4,0,0.4-0.1,0.4-0.4c-0.3-2.2-1.8-4-4-4.6c-1.9-0.6-3.9-0.8-5.8-0.6c-1.8,0-3.6,0.5-5.1,1.4c-1.8,1-2.8,3-2.6,4.9
			c0,1.9,1.3,3.6,3.2,4.2c1.4,0.5,3,0.9,4.4,1.2c0.9,0.1,1.8,0.4,2.7,0.8c0.4,0.1,0.8,0.6,0.8,1c0,0.5-0.3,1-0.8,1.3
			c-0.3,0.1-0.6,0.3-1,0.3c-1.3,0.4-2.6-0.5-3-1.8c0-0.1,0-0.1,0-0.3c0-0.3-0.3-0.3-0.4-0.3h-5.8c-0.8,0-0.6,0-0.5,0.8
			c0.3,1.9,1.7,3.6,3.5,4.4c1.7,0.8,3.6,1.2,5.4,1c2.2,0.1,4.4-0.4,6.4-1.2C134.8,55.5,136.1,53,135.7,50.5z"/>
		<path class="st0" d="M86,38.6c-1.9-0.4-3.9,0.4-5,1.8c-0.5,0.6-0.9,1.3-1.2,2.1c0-1,0-2.1,0-3.1c0-0.4-0.1-0.4-0.5-0.4
			c-1.9,0-3.9,0-5.7,0c-0.3,0-0.4,0-0.4,0.4c0,5.8,0,11.6,0,17.3c0,0.4,0.1,0.4,0.4,0.4c2.1,0,4.2,0,6.3,0c0.4,0,0.4-0.1,0.4-0.4
			c0-1.9,0-3.9,0-5.7c0-0.8,0.1-1.4,0.3-2.2c0.1-1.7,1.4-3,3.1-3.1c0.8-0.1,1.5-0.1,2.3,0.1c0.3,0,0.4,0,0.4-0.3c0-2.2,0-4.4,0-6.6
			C86.3,38.9,86.2,38.7,86,38.6z"/>
		<path class="st0" d="M94.9,39.5c0-0.4-0.1-0.4-0.4-0.4c-2.1,0-4.2,0-6.3,0c-0.4,0-0.5,0.1-0.5,0.5c0,5.7,0,11.5,0,17.1
			c0,0.4,0,0.5,0.4,0.5c2.1,0,4.2,0,6.3,0c0.4,0,0.5-0.1,0.5-0.5c0-2.8,0-5.8,0-8.6S94.9,42.4,94.9,39.5z"/>
		<path class="st0" d="M71,39.1c-2.2,0-4.2,0-6.4,0c-0.4,0-0.4,0.1-0.4,0.4c0,2.8,0,5.8,0,8.6s0,5.8,0,8.6c0,0.4,0.1,0.4,0.4,0.4
			c2.1,0,4.2,0,6.3,0c0.3,0,0.4,0,0.4-0.4c0-5.8,0-11.5,0-17.3C71.3,39.3,71.2,39.1,71,39.1z"/>
		<path class="st0" d="M25.6,42.2c0.5-2.8,1.8-5.5,3.5-7.9c0.8-0.8,0.6-2.1-0.1-2.7c-0.8-0.8-2.1-0.6-2.7,0.1
			c-0.1,0.1-0.1,0.1-0.3,0.3c-2.8,3.6-4.4,8-4.6,12.5c-0.1,3.9,0.5,7.6,2.1,11.1c0.6,1.4,1.5,2.8,2.4,4.1c0.4,0.6,1.2,1,1.9,0.9
			c1-0.1,1.8-1,1.7-2.2c0-0.4-0.3-0.8-0.5-1.2C25.8,53,24.5,47.5,25.6,42.2z"/>
		<path class="st0" d="M215.8,43.8c-0.3-2.7-1-5.4-2.2-7.9c-0.6-1.4-1.5-2.7-2.4-4c-0.5-0.6-1.4-0.9-2.2-0.5c-0.8,0.3-1.3,1-1.3,1.8
			c0,0.6,0.4,1.3,0.8,1.7c3.1,4.4,4.2,9.8,3.1,15.1c-0.5,2.8-1.7,5.4-3.5,7.7c-0.6,0.9-0.4,2.1,0.4,2.7s2.1,0.4,2.7-0.4
			c3.1-4.1,4.6-9,4.6-14.2C215.9,45.3,215.8,44.5,215.8,43.8z"/>
		<path class="st0" d="M33.8,43.1c0.4-1.4,1-2.8,1.9-4c0.5-0.5,0.6-1.3,0.4-2.1c-0.3-0.8-0.9-1.3-1.7-1.3c-0.8-0.1-1.5,0.3-1.9,0.9
			c-2.3,3-3.3,6.7-3,10.4c0.3,3,1.4,5.7,3.2,8c0.4,0.5,0.9,0.8,1.5,0.8c0.1,0,0.4,0,0.5-0.1c1-0.3,1.5-1.4,1.3-2.4
			c-0.1-0.3-0.3-0.5-0.4-0.8C33.6,50.1,32.9,46.5,33.8,43.1z"/>
		<path class="st0" d="M204.7,36.8c-0.6-0.9-1.8-1.2-2.7-0.6l0,0c-0.9,0.6-1,1.9-0.4,2.8l0,0c1.9,2.4,2.7,5.7,2.1,8.8
			c-0.4,1.8-1.2,3.5-2.3,5c-0.6,0.9-0.5,2.1,0.4,2.7c0.9,0.6,2.1,0.4,2.7-0.4c2.2-2.7,3.3-5.9,3.2-9.4c0-0.5,0-1,0-1.4
			C207.4,41.6,206.4,39,204.7,36.8z"/>
		<path class="st0" d="M88.1,37.7h6.4c0.3,0,0.4,0,0.4-0.4c0-0.9,0-1.8,0-2.7c0-0.4-0.1-0.4-0.4-0.4c-1,0-2.2,0-3.2,0h-3.2
			c-0.3,0-0.4,0-0.4,0.4c0,0.9,0,1.8,0,2.8C87.7,37.6,87.8,37.7,88.1,37.7z"/>
		<path class="st0" d="M64.5,37.7c1,0,2.2,0,3.2,0H71c0.3,0,0.4,0,0.4-0.4c0-0.9,0-1.9,0-2.8c0-0.3-0.1-0.3-0.3-0.3h-6.6
			c-0.3,0-0.3,0.1-0.3,0.4c0,0.9,0,1.8,0,2.8C64.1,37.6,64.3,37.7,64.5,37.7z"/>
	</g>
</g>
</svg>
