<?xml version="1.0" encoding="utf-8"?>
<!-- Generator: Adobe Illustrator 19.0.0, SVG Export Plug-In . SVG Version: 6.00 Build 0)  -->
<svg version="1.1" id="Layer_1" xmlns="http://www.w3.org/2000/svg" xmlns:xlink="http://www.w3.org/1999/xlink" x="0px" y="0px"
	 width="75px" height="75px" viewBox="11 8.7 75 75" style="enable-background:new 11 8.7 75 75;" xml:space="preserve">
<style type="text/css">
	.st0{fill:#25211F;}
</style>
<title>Publishing IconSVG</title>
<g id="Layer_2_1_">
	<g id="Layer_1-2_1_">
		<path class="st0" d="M48.5,8.7C27.9,8.7,11,25.9,11,46.4C11.1,67,27.9,83.7,48.5,83.7C68.7,83.7,86,67.2,86,46.4
			C86,26.2,69.4,8.7,48.5,8.7z M51.1,21.4l9.6-7c6.1,2.3,11.5,6.2,15.5,11.4L72.2,37l-11,3.4l-10.1-7.7V21.4z M37,14.4l9.6,7.1v11.2
			L36,39.8l-10.2-3.5l-3.6-11.4C26.1,20.1,31.2,16.5,37,14.4z M20.1,65.2c-3.5-5.3-5.5-11.5-5.7-17.9l9.9-6.8l10.3,3.5l3.9,12.4
			l-6.6,8.8L20.1,65.2z M57.6,79.7c-6,1.6-12.4,1.6-18.4-0.2L35.7,68l6.5-8.8H55l6.5,9.1L57.6,79.7z M65.3,65.8l-6.6-9.4l3.8-11.8
			l11.1-3.4l9.6,7C82.8,54.7,80.7,60.8,77,66L65.3,65.8z"/>
	</g>
</g>
</svg>
