<?xml version="1.0" encoding="utf-8"?>
<!-- Generator: Adobe Illustrator 19.0.0, SVG Export Plug-In . SVG Version: 6.00 Build 0)  -->
<svg version="1.1" id="Layer_1" xmlns="http://www.w3.org/2000/svg" xmlns:xlink="http://www.w3.org/1999/xlink" x="0px" y="0px"
	 width="72.4px" height="80px" viewBox="-8 6 72.4 80" style="enable-background:new -8 6 72.4 80;" xml:space="preserve">
<style type="text/css">
	.st0{fill:#FFFFFF;}
</style>
<title>Starbucks WhiteSVG</title>
<g id="Layer_2">
	<g id="Layer_1-2">
		<path class="st0" d="M24.7,25.4h7.1l-3.6-2.7L24.7,25.4z"/>
		<path class="st0" d="M57.6,46.9c-1.4-0.9-2.8-1.3-4.4-1.3c-0.2,0-0.4-0.1-0.6-0.2c-0.5-0.9-0.9-1.8-1.3-2.7c2-0.3,3.9,0,5.6,1
			c1,0.5,2,1,2.9,1.4c1.2,0.5,2.3,0.6,3.6,0.3C62.6,32.2,56.8,22,45.2,15.8C31.7,8.4,18.4,9.6,6.1,19C-2.5,25.5-6.6,34.6-7.2,45.3
			c1.7,0.3,3.3-0.1,4.8-0.9c1-0.5,2-1,3-1.5c1.4-0.6,2.8-0.7,4.3-0.4c-0.4,1-0.8,1.8-1.2,2.5c-0.1,0.2-0.5,0.3-0.8,0.4
			c-1,0.2-2,0.4-3,0.7c-2.2,1-4.3,2.5-7,2.2l0.3,2.2c1.3,0.2,2.5,0,3.6-0.6c0.9-0.5,1.7-1,2.5-1.4c1-0.6,2.1-0.8,3.3-0.6
			c-0.2,0.8-0.3,1.6-0.5,2.2c-0.1,0.2-0.4,0.3-0.6,0.5c-1.1,0.4-2,0.8-3,1.3c-1.5,0.8-2.9,1.7-4.9,1.5c0.2,0.7,0.3,1.3,0.4,1.9
			c0.1,0.9,0.6,1.1,1.4,0.8c1-0.4,1.9-0.9,2.7-1.4c1.1-0.7,2.2-1.1,3.5-1.1v2.1l-6.4,3.1c0-0.1,0,0,0,0.1c0.9,2.7,1,2.7,3.3,1.1
			c0.9-0.5,1.8-1,2.7-1.3c0.3,0,0.6,0.1,0.8,0.4c0.2,0.6,0.2,1.2,0.3,1.8c-2.2-0.2-3.2,2-5.1,2.5l1.4,2.2l4.1-2.7l-0.4-1.7
			c1.8-0.2,3.6-0.9,5.1-2c0.3-0.2,0.6-0.5,0.6-0.8c0.1-1.5,0.7-2.8,1.6-3.9c0.8-1.1,1.6-2.1,2.3-3.2c0.7-0.8,0.9-2,0.6-2.9
			c-0.3-1-0.5-2-0.8-2.9c-1.4-4.2-0.1-8.8,3.2-11.7c0.2-0.1,0.4-0.3,0.6-0.4c-0.1,0.3-0.2,0.6-0.4,0.8c-1.8,2.2-2.6,5-2.4,7.8
			c0.3,1.7,0.7,3.3,1.2,5c0.7,2,0.3,4.2-1.1,5.9c-0.9,1.1-1.8,2.2-2.4,3.4c-0.7,1-0.9,2.1-0.5,3.3c0.4,1.2,0.8,2.2,1.4,3.3
			c0.2,0.3,0.2,0.8-0.2,1l0,0c-1.3,1.2-2.8,2-4.5,2.5c-2,0.5-2.2,0.4-3.1-1.4l-0.1-0.1C1.8,65.3,1,66.6,0,67.5l1.6,2
			c0.9-0.7,1.6-1.4,2.3-2c0.4-0.4,0.8-0.3,1.1,0.3C5,68,5.1,68.3,5.3,68.5L2.8,71l2,1.9l2-2.1l1,1.3l-1.6,2l2.2,1.7
			c0.9-1.5,1.8-2.8,2.6-4.2c1.1-1.7,2.2-3.2,1.8-5.5c0.1,0,0.2,0.1,0.3,0.1c0.1,0.1,0.1,0.1,0.2,0.2c0.8,1.3,0.8,2.9,0.1,4.3
			s-1.6,2.7-2.3,4.1c-1,2-0.9,2.1,1.1,3c0,0,0.1,0,0,0c0.4-1.1,0.7-2.1,1.1-3.1c0.6-1.3,1.2-2.4,1.9-3.6c1-1.8,0.9-3.8-0.2-5.5
			c-0.6-1-1.3-2-1.9-3c-1.8-2.9-1.6-5,0.5-7.7c0.8-1,1.6-2,2.2-3.1c0.7-0.9,0.9-2,0.6-3.2c-0.3-1.3-0.7-2.4-1.1-3.7
			c-0.9-2.3-1-4.8-0.3-7.2c0.7-2.2,2.1-4.2,4.2-5.5c-0.1,0.3-0.3,0.5-0.5,0.8c-2.5,3-3.1,7.2-1.7,10.9c0.4,1.2,0.8,2.2,1.2,3.4
			c0.7,2,0.4,4.2-1,5.9c-0.6,0.8-1.2,1.6-1.8,2.2c-1.8,1.9-1.9,4.7-0.4,6.7c0.7,1.2,1.5,2.3,2.1,3.5c1.2,1.8,1.3,4.1,0.2,5.9
			c-0.6,1.2-1.3,2.2-1.8,3.4c-0.4,1-0.8,2-1.1,3.1c0,0.3,0.1,0.7,0.4,0.9c0.6,0.3,1.2,0.6,1.9,0.8c0-1.7,0.4-3.3,1.3-4.8
			c0.6-1.2,1.2-2.2,1.8-3.4c1.1-1.9,0.9-4.2-0.4-5.9c-0.8-1.3-1.6-2.4-2.3-3.7c-1.4-2-1.3-4.8,0.4-6.7l1.6-2
			c1.4-1.7,1.9-3.8,1.1-5.9c-0.5-1.5-1.2-2.9-1.7-4.3c-1.6-4.1-0.3-8.8,3.2-11.5c0.2-0.1,0.4-0.2,0.6-0.3c0,0.3,0,0.6-0.2,0.8
			c-2.4,3.1-2.9,7.3-1.3,10.9c0.5,1.3,1.1,2.5,1.6,3.9c0.7,1.5,0.8,3.2,0.2,4.7c-0.6,1.3-1.4,2.5-2.2,3.7c-1.9,2.4-2,4.2-0.5,6.9
			c0.7,1.2,1.5,2.3,2.2,3.5c1.4,2,1.5,4.5,0.4,6.5c-0.7,1.4-1.4,2.8-2,4.3c-0.7,1.3-0.9,2.8-0.7,4.3L22,81c-0.4-3.3,1.1-5.9,2.3-8.6
			c0.2-0.3,0.3-0.7,0.5-1.1c0.8-1.7,0.7-3.5-0.3-5.1c-0.4-0.8-1-1.5-1.4-2.2c-0.6-1-1.3-2-1.9-3.1c-1-1.7-0.8-3.8,0.5-5.3
			c1.2-1.6,2.4-2.9,2.7-5c0.1-0.6,0.6-0.8,1.2-0.6c1.7,0.7,3.6,0.7,5.3,0c0.4-0.2,0.9-0.1,1.1,0.4c0.1,0.1,0.1,0.2,0.1,0.3
			c0.4,1.6,1.2,3.1,2.3,4.3c0.6,0.7,1,1.5,1.3,2.2c0.7,2-0.3,3.6-1.3,5.2c-0.8,1.3-1.7,2.4-2.3,3.8c-0.9,1.5-1,3.3-0.3,4.9
			c0.5,1.1,1,2.1,1.5,3.1c1.1,2,1.7,4.3,1.5,6.6c0.6-0.1,1.1-0.2,1.6-0.3c0.8-0.1,1.1-0.5,1-1.2c-0.2-1.2-0.5-2.3-0.9-3.5
			c-0.6-1.6-1.4-3-2.1-4.6c-0.9-1.8-0.8-3.8,0.3-5.5c0.4-0.7,0.8-1.4,1.3-2c0.7-1.1,1.4-2,1.9-3.2c0.9-1.7,0.7-3.6-0.5-5.1
			c-0.5-0.8-1.1-1.5-1.7-2.2c-1.6-1.9-2-4.4-1.2-6.6c0.5-1.4,1.1-2.6,1.7-3.9c1.9-3.6,1.4-8-1.2-11.2c-0.2-0.3-0.4-0.6-0.5-0.9
			c3,1.5,5.3,6.1,4.6,9.5c-0.5,1.9-1.1,3.7-1.9,5.5c-1.2,2.8-1,5.5,1.2,7.8c0.4,0.5,0.8,1,1.2,1.5c1.6,1.8,1.8,4.4,0.5,6.4
			c-0.8,1.3-1.6,2.5-2.3,3.8c-1.3,1.8-1.5,4.1-0.4,6c0.5,0.9,1,1.9,1.5,2.7c1,1.7,1.5,3.4,1.6,5.3c0.1,0,0.2,0,0.3-0.1
			c2.1-0.9,2.3-0.3,1.4-3c-0.6-1.6-1.4-3.1-2.2-4.5c-1.4-2.1-1.3-4.8,0.1-6.9c0.8-1.2,1.5-2.2,2.1-3.4c1.3-2,1.1-4.5-0.4-6.1
			c-0.9-0.4-1.6-1.3-2.2-2.2c-1-1.2-1.4-2.7-1.1-4.3c0.3-1.5,0.7-2.8,1.3-4.3c1.7-3.9,1-8.5-1.9-11.6c-0.1-0.2-0.2-0.4-0.3-0.6
			c3.3,2.1,5.2,5.9,4.7,9.9c-0.4,1.8-0.9,3.5-1.5,5.2c-0.8,2-0.4,4.2,1,5.8c0.6,0.7,1.1,1.5,1.7,2.1c1.9,2,2,5.1,0.5,7.3
			c-0.7,1.2-1.5,2.3-2.1,3.6c-0.9,1.5-1,3.2-0.2,4.7c1.1,2.3,2.6,4.5,3,7.2l0.8-0.4c1.2-0.7,1.3-0.8,0.8-2c-0.3-0.7-0.7-1.4-1-2
			c-0.6-1.2-1.3-2.2-1.8-3.4c-0.6-1.4-0.4-2.9,0.6-4c-0.4,2.3,0.9,4,2,5.8c0.9,1.3,1.6,2.5,2.4,3.9l2.2-1.7l-1.7-2l1-1.3l2,2
			l1.9-1.9l-2.4-2.3c0.6-1.6,0.9-1.7,2.1-0.5c0.5,0.5,1,1,1.6,1.5l1.7-2.1c-1-0.8-1.9-1.5-2.8-2.1c-0.5-0.4-1-0.2-1.2,0.5
			c-0.1,0.7-0.8,1.2-1.5,1.1c-2.4-0.3-4.7-1.5-6.3-3.2c0.4-0.8,0.7-1.5,1.1-2.1c1.1-1.9,0.9-4.2-0.5-5.9c-0.9-1.2-1.8-2.3-2.5-3.5
			c-0.8-1.1-1.1-2.4-0.8-3.7c0.3-1.2,0.6-2.4,1-3.6c1.1-3.3,0.5-6.8-1.4-9.7c-0.3-0.5-0.7-1-1.1-1.6c0.3,0.1,0.3,0.1,0.4,0.1
			c2.8,2.5,4.4,5.7,3.9,9.6c-0.2,1.4-0.6,2.7-1,4.1c-0.4,1.6-0.6,3.1,0.6,4.5c0.6,0.7,1.1,1.4,1.6,2c0.9,1.3,2,2.4,2.1,4.1
			c0,0.8,0.5,1.5,1.2,1.8c0.5,0.3,1.1,0.6,1.6,0.8c1.1,0.3,2.1,0.6,3.2,0.9l-0.4,1.6l4.1,2.8l1.4-2.2c-1.8-0.7-2.7-2.7-5-2.5
			c0.3-2.2,0.9-2.6,2.8-1.5c0.3,0.2,0.6,0.4,0.9,0.6c0.4,0.3,0.9,0.7,1.3,1c0.9,0.6,1.1,0.5,1.6-0.5c0.2-0.6,0.5-1.1,0.6-1.5
			L55,55.8v-2c1.4,0,2.7,0.5,3.9,1.3c0.8,0.5,1.7,0.9,2.5,1.3c0.6,0.3,1.1,0.1,1.3-0.7c0.1-0.6,0.3-1.2,0.5-2c-1.8,0-3.5-0.5-5-1.6
			c-0.5-0.4-1.1-0.7-1.7-0.8c-1.9-0.1-2.3-1.3-2.5-2.8c0-0.1,0-0.2,0-0.3c1.5-0.2,2.3,0.1,4.1,1.1c1,0.6,2,1.1,3.2,1.5
			c1.9,0.6,2.2,0.2,2.2-1.7c0-0.2,0-0.4-0.1-0.6C61.2,48.5,59.3,47.9,57.6,46.9z M11.9,34.5c-2,1.6-3.8,3.4-5.4,5.6
			c-0.2,0.3-0.6,0.5-1,0.5c-1.9-0.4-3.7-0.1-5.4,0.7c-1.5,0.6-2.9,1.2-4.4,1.7c-0.7,0.1-1.3,0.1-2-0.1c3.6-4.2,6.8-8.5,6.4-14.3
			c1.7,0.3,3.5,2.8,4.3,5.8c1.4-0.4,2.7-0.9,4.1-1.2c1.5-0.2,3,0,4.4,0.6L11.9,34.5z M34.9,34.9c-2-0.5-4-0.9-5.3,1
			c-0.8,1.1-0.5,2.6,0,4c0.2,0,0.3,0,0.3-0.1c0.2-0.9,1.1-1.4,2-1.2c0.2,0,0.4,0.1,0.5,0.2c0.5,0.1,1,0,1.5-0.2
			c0.8-0.4,1.2,0,1.3,0.7c0.1,0.6,0.1,1.3,0,1.9c-0.5,2.7-2,5.1-4.2,6.6c-1.6,1.4-3.9,1.4-5.5,0.1c-2.6-1.9-4.2-4.8-4.3-7.9
			c0-1.4,0.5-1.7,1.8-1.3c0.5,0.2,0.9,0.2,1.4,0.1c0.8-0.4,1.8-0.3,2.4,0.3c0.8-2.9,0-5.4-5.4-4.3c0.1-2,3-4.3,5.9-4.5
			C31.1,30.1,34.5,32.1,34.9,34.9L34.9,34.9z M34.8,36.8c-0.2,0.6-0.6,0.2-1,0.2c-0.9-0.1-1.8,0-2.9,0c0.1-0.3,0.3-0.6,0.5-0.9
			c0.8-0.6,1.9-0.8,2.7-0.5c0.5,0.1,0.7,0.5,0.7,1C34.9,36.7,34.8,36.8,34.8,36.8L34.8,36.8z M21.6,35.9c0.8-0.2,1.5-0.3,2.2-0.3
			c0.7,0,1.4,0.5,1.6,1.2c-1.2,0.1-2.2,0.3-3.4,0.3c-0.2,0-0.4-0.2-0.5-0.4C21.4,36.5,21.5,36,21.6,35.9z M40.6,31.3
			c-0.3,0.6-0.7,0.3-1.2,0.1c-7.2-3.4-15.5-3.4-22.6,0c-0.8,0.4-1.1,0.2-1.5-0.5c-1.1-2-2.3-4-3.5-6c2.2,0.2,4.5,0.9,6.4,2.1
			l-2.7-5.4c1.8-0.3,5,1,7.9,3.3c0.5-1.3,1-2.4,1.4-3.7c0.1-0.2-0.2-0.5-0.4-0.7c-1-0.9-2-1.8-3-2.7c1.4-0.1,2.5-0.3,3.6-0.3
			c0.8,0.1,1.5-0.4,1.7-1.1c0.4-1.1,0.9-2.1,1.5-3.4c0.6,1.4,1.1,2.5,1.6,3.6c0.2,0.6,0.7,1,1.3,0.9c1.2,0,2.3,0.1,3.9,0.3
			c-1.1,1-2,1.9-2.9,2.5c-0.5,0.3-0.7,0.9-0.4,1.5c0,0,0,0.1,0.1,0.1c0.5,1,0.8,2,1.2,3.1c2.1-2,5-3.3,8-3.5L38.1,27l0.2,0.2
			c1.9-1.3,3.9-2,6.1-2.2C43.1,27.1,41.8,29.2,40.6,31.3z M50.6,40.4c-0.3,0-0.5-0.1-0.7-0.3c-1.8-2.5-3.9-4.7-6.4-6.4
			c0,0,0-0.1-0.1-0.3c2.2-0.9,4.9-1.1,8.3,0.8c0.2-0.5,0.3-1.1,0.5-1.6c0.6-1.7,1.7-3.1,3.1-4.1c0.5-0.4,0.9-0.3,0.9,0.4
			c-0.3,5.4,2.5,9.4,5.9,13.2l0.6,0.7c-0.7,0.1-1.4,0.2-2,0.1c-1.4-0.4-2.6-0.9-3.9-1.5C54.7,40.5,52.7,39.8,50.6,40.4L50.6,40.4z"
			/>
		<path class="st0" d="M30.7,44.1h-5.1C27.3,46.6,29.1,46.6,30.7,44.1z"/>
		<path class="st0" d="M26.5,42.1c1,0.8,2.4,0.7,3.2-0.3h-3.2V42.1z"/>
	</g>
</g>
</svg>
