<?xml version="1.0" encoding="utf-8"?>
<!-- Generator: Adobe Illustrator 19.0.0, SVG Export Plug-In . SVG Version: 6.00 Build 0)  -->
<svg version="1.1" id="Layer_1" xmlns="http://www.w3.org/2000/svg" xmlns:xlink="http://www.w3.org/1999/xlink" x="0px" y="0px"
	 width="30px" height="30px" viewBox="40 30 30 30" style="enable-background:new 40 30 30 30;" xml:space="preserve">
<title>icon</title>
<desc>Created with Sketch.</desc>
<g>
	<path d="M55,30c-8.3,0-15,6.7-15,15s6.7,15,15,15s15-6.7,15-15S63.3,30,55,30z M55,58.7c-7.5,0-13.7-6.1-13.7-13.7
		c0-7.5,6.1-13.7,13.7-13.7S68.7,37.4,68.7,45C68.7,52.5,62.6,58.7,55,58.7z"/>
	<path d="M55,35.1c-5.4,0-9.9,4.4-9.9,9.9s4.4,9.9,9.9,9.9s9.9-4.4,9.9-9.9S60.4,35.1,55,35.1z M55,53.6c-4.7,0-8.6-3.8-8.6-8.6
		s3.8-8.6,8.6-8.6s8.6,3.8,8.6,8.6S59.7,53.6,55,53.6z"/>
	<circle cx="55" cy="45" r="4.3"/>
</g>
</svg>
