<svg width="60" height="74" viewBox="0 0 60 74" fill="none" xmlns="http://www.w3.org/2000/svg">
<mask id="mask0" mask-type="alpha" maskUnits="userSpaceOnUse" x="20" y="0" width="33" height="29">
<path fill-rule="evenodd" clip-rule="evenodd" d="M20.2227 0.436646H52.8437V28.4693H20.2227L20.2227 0.436646Z" fill="white"/>
</mask>
<g mask="url(#mask0)">
<path fill-rule="evenodd" clip-rule="evenodd" d="M36.4965 4.14268C36.1762 4.14433 35.851 4.15925 35.5298 4.18659C35.4856 4.1899 35.4477 4.15759 35.4437 4.11202L35.1419 0.583961C35.1387 0.53839 35.1717 0.49779 35.2159 0.494476C35.6417 0.458019 36.0723 0.438133 36.4973 0.436476C36.5424 0.435647 36.5786 0.473761 36.5786 0.520161L36.5762 4.06065C36.5762 4.10622 36.5408 4.14268 36.4965 4.14268ZM26.6553 8.87548L23.9975 6.62756C23.9629 6.59773 23.9573 6.5447 23.9863 6.50908C24.2583 6.17185 24.5457 5.8429 24.8427 5.52805C24.8741 5.4949 24.9256 5.4949 24.957 5.52722L27.4126 8.00713C27.444 8.03862 27.4448 8.08999 27.4143 8.1223C27.1897 8.3601 26.9732 8.6095 26.7663 8.86388C26.739 8.89868 26.6891 8.90365 26.6553 8.87548ZM45.6109 8.04276C45.384 7.80745 45.1473 7.57793 44.9035 7.36085C44.8705 7.33102 44.8664 7.27965 44.8962 7.24568L47.1362 4.55779C47.1652 4.52299 47.2159 4.51885 47.2497 4.54868C47.5724 4.83619 47.8855 5.13862 48.1841 5.45099C48.2163 5.48413 48.2155 5.53716 48.1841 5.56948L45.7228 8.04359C45.6914 8.07508 45.6415 8.07508 45.6109 8.04276ZM23.8156 18.6708L20.3957 19.0545C20.3506 19.0603 20.3112 19.0271 20.3064 18.9807C20.2621 18.5457 20.2347 18.1041 20.2227 17.6658C20.2219 17.6202 20.2573 17.5821 20.3024 17.5813L23.7416 17.5059C23.7859 17.5042 23.8213 17.5398 23.8229 17.5854C23.8317 17.9168 23.8527 18.2508 23.8857 18.5814C23.8905 18.6261 23.8591 18.6659 23.8156 18.6708ZM52.7679 16.2017L49.3343 16.4254C49.2908 16.4287 49.2538 16.3948 49.2506 16.3492C49.2281 16.0202 49.1926 15.688 49.1468 15.3574C49.1403 15.3126 49.1693 15.272 49.2136 15.2646L52.6134 14.7318C52.6576 14.7244 52.7003 14.7567 52.7067 14.8022C52.7687 15.2372 52.8146 15.6772 52.8436 16.1122C52.846 16.1586 52.8122 16.1984 52.7679 16.2017ZM48.6204 28.448L46.0649 26.0783C46.0319 26.0476 46.0295 25.9971 46.0585 25.9631C46.2725 25.7154 46.4786 25.4577 46.675 25.1934C46.7007 25.1569 46.7498 25.1503 46.7853 25.1776L49.5339 27.307C49.5693 27.3344 49.5774 27.3874 49.55 27.4239C49.2916 27.7735 49.0188 28.1149 48.7355 28.4414C48.7057 28.4762 48.6534 28.4786 48.6204 28.448Z" fill="#25221F"/>
</g>
<mask id="mask1" mask-type="alpha" maskUnits="userSpaceOnUse" x="0" y="71" width="60" height="4">
<path fill-rule="evenodd" clip-rule="evenodd" d="M0 71.4226V74H59.3368V71.4226H0Z" fill="white"/>
</mask>
<g mask="url(#mask1)">
<path fill-rule="evenodd" clip-rule="evenodd" d="M59.0636 72.064L33.095 71.7802C33.0869 72.1744 32.572 72.4882 31.9444 72.481L27.3885 72.4312C26.7601 72.4252 26.2582 72.1 26.2663 71.7058L0.296859 71.4226C0.144426 71.4214 0.0187508 71.4976 0.0163183 71.5936L0.00010212 72.3916C-0.00962761 72.9304 0.677129 73.3756 1.53659 73.3846L57.9147 74.0002C58.6801 74.008 59.3101 73.6252 59.319 73.144L59.3377 72.241C59.3393 72.145 59.216 72.0658 59.0636 72.064Z" fill="#25221F"/>
</g>
<path fill-rule="evenodd" clip-rule="evenodd" d="M31.1824 35.3752H44.5832C44.9277 35.3752 45.1222 35.7716 44.9147 36.0476C38.607 44.4229 32.3634 52.7151 26.1254 61C25.644 60.7362 25.7769 60.8095 25.2954 60.5465C27.4288 54.6707 29.5654 48.7844 31.732 42.8182C31.8333 42.5373 31.6169 42.241 31.3202 42.254C27.0114 42.4478 22.7909 42.6366 18.4382 42.8312C18.0929 42.8467 17.8773 42.4559 18.0759 42.1718C24.4492 33.0344 30.7439 24.0127 37.0305 15C37.5331 15.2638 37.3791 15.1824 37.8816 15.4462C35.5253 21.8805 33.1675 28.3213 30.7918 34.8109C30.6921 35.0845 30.8931 35.3752 31.1824 35.3752Z" fill="#B41F6D"/>
<path fill-rule="evenodd" clip-rule="evenodd" d="M5.86625 70.3388L51.6465 70.9999C52.1313 71.0071 52.5314 70.6267 52.5379 70.1522L52.9999 39.5345C53.0064 39.0584 52.6194 38.6676 52.133 38.6604L46.1278 38.5743L44.9137 40.1453L50.2947 40.2227C50.7812 40.2299 51.169 40.6206 51.1617 41.0959L50.7486 68.5381C50.7404 69.0134 50.3412 69.3922 49.8556 69.3858L7.70365 68.7773C7.21802 68.7701 6.83099 68.3794 6.83751 67.9041L7.25062 40.4619C7.25795 39.9866 7.65802 39.607 8.14365 39.6142L16.075 39.7282L17.2003 38.1572L6.35351 38.0001C5.86788 37.9929 5.46862 38.3725 5.46129 38.8486L5.0001 69.4655C4.99277 69.9408 5.37981 70.3316 5.86625 70.3388Z" fill="#25221F"/>
</svg>
