<?xml version="1.0" encoding="UTF-8"?> <svg xmlns="http://www.w3.org/2000/svg" xmlns:xlink="http://www.w3.org/1999/xlink" width="151px" height="27px" viewBox="0 0 151 27"><!-- Generator: Sketch 55.2 (78181) - https://sketchapp.com --><title>The Skimm</title><desc>Created with Sketch.</desc><g id="Page-1" stroke="none" stroke-width="1" fill="none" fill-rule="evenodd"><g id="Rokt-Calendar-1440" transform="translate(-264.000000, -3770.000000)" fill="#FFFFFF" fill-rule="nonzero"><g id="Group-7" transform="translate(264.000000, 3747.000000)"><g id="Group-6"><g id="The-Skimm" transform="translate(0.000000, 23.611111)"><path d="M138.51932,25.9861111 C137.706203,26.0555556 137.141155,26.1388889 136.686361,26.1388889 C136.231566,26.1388889 135.818117,26.0416667 135.308196,25.9861111 C135.308196,25.3055556 135.142816,24.7222222 135.129035,24.125 C135.129035,21.9861111 135.129035,19.8472222 135.129035,17.7083333 C135.129035,17.0833333 135.129035,16.4722222 135.129035,15.8611111 C134.991218,13.2638889 133.66818,11.6944444 131.545807,11.6944444 C130.382554,11.5906518 129.226304,11.959029 128.333643,12.7178286 C127.440981,13.4766282 126.885742,14.5630887 126.791139,15.7361111 C126.625759,17.4722222 126.791139,19.25 126.708449,21 L126.708449,25.9722222 L123.497326,25.9722222 L123.497326,8.98611111 L126.487943,8.98611111 L126.915174,10.5 C128.361935,9.02385049 130.373428,8.25353521 132.427832,8.38888889 C134.580614,8.47677999 136.533052,9.68682062 137.582168,11.5833333 C137.926709,11.2083333 138.174778,10.9583333 138.395285,10.6805556 C140.189806,8.47828057 143.174879,7.66899695 145.823592,8.66666667 C148.276032,9.30469502 149.981497,11.5447817 149.958085,14.0972222 C150.192373,17.75 150.123465,21.4305556 150.151028,25.0972222 C150.099367,25.4225662 150.006742,25.7399416 149.875396,26.0416667 L147.008813,26.0416667 C147.008813,25.4027778 146.81587,24.8333333 146.802089,24.25 C146.802089,21.9444444 146.802089,19.6527778 146.802089,17.3055556 C146.802089,16.6944444 146.802089,16.0833333 146.802089,15.4722222 C146.770385,13.5569105 145.373252,11.9435709 143.494494,11.6527778 C141.477741,11.3300991 139.517578,12.4955363 138.822516,14.4305556 C138.587501,15.2327429 138.475951,16.0665088 138.491756,16.9027778 C138.491756,19.9166667 138.51932,22.8194444 138.51932,25.9861111 Z" id="Shape"></path><path d="M92.970981,8.93055556 L96.044288,8.93055556 L96.3750475,10.4027778 C100.302816,7.625 103.996297,7.375 107.400364,11.5 C108.726742,9.31817523 111.171187,8.08913735 113.698576,8.33333333 C116.278177,8.33122908 118.538296,10.0736744 119.211234,12.5833333 C119.412792,13.079846 119.538261,13.6043597 119.583339,14.1388889 C119.583339,18.0277778 119.583339,21.9027778 119.583339,25.9722222 L116.551377,25.9722222 C116.443255,25.4827002 116.36957,24.9860947 116.33087,24.4861111 C116.33087,22.0277778 116.33087,19.5833333 116.33087,17.1388889 C116.33087,16.75 116.33087,16.375 116.33087,15.9861111 C116.193054,13.3055556 114.814889,11.7222222 112.596044,11.6527778 C110.200657,11.557575 108.168504,13.4081473 108.020538,15.8194444 C107.882722,17.5694444 108.020538,19.3333333 108.020538,21.0972222 L108.020538,25.9861111 L104.961013,25.9861111 C104.853074,25.4310641 104.779431,24.8697995 104.740506,24.3055556 C104.740506,22.0138889 104.740506,19.7222222 104.740506,17.4305556 C104.743036,16.6630158 104.683115,15.8965592 104.561345,15.1388889 C104.476007,13.302616 103.045107,11.8188699 101.226187,11.6805556 C99.3561637,11.4849608 97.5706819,12.5131755 96.7884968,14.2361111 C96.4469738,15.1650043 96.2742432,16.1482912 96.2785759,17.1388889 C96.2785759,20.0277778 96.2785759,22.9305556 96.2785759,25.9861111 L93.0123259,25.9861111 C92.8469462,20.3194444 92.9020728,14.7083333 92.970981,8.93055556 Z" id="Shape"></path><path d="M49.4347627,18.75 L52.6183228,18.75 C52.8663924,19.2777778 53.0868987,19.8333333 53.3763133,20.3472222 C54.2086973,21.6914153 55.5445461,22.6397869 57.0807328,22.9771351 C58.6169194,23.3144834 60.2231876,23.0122038 61.5350475,22.1388889 C62.6744597,21.4522868 63.3438118,20.1870863 63.2744913,18.8510152 C63.2051708,17.5149441 62.4085398,16.3269929 61.204288,15.7638889 C59.9515863,15.2211739 58.6562338,14.7844812 57.3316456,14.4583333 C55.9233834,14.0918919 54.5419288,13.6278237 53.1971519,13.0694444 C51.4160003,12.2472547 50.1172085,10.634988 49.6847816,8.70933264 C49.2523547,6.78367724 49.735766,4.76494462 50.9920886,3.25 C54.2823091,-0.465220364 59.9160984,-0.847843202 63.6712025,2.38888889 C65.1256331,3.71678794 65.905843,5.63653943 65.7935759,7.61111111 L62.7064873,7.61111111 C61.4110127,4.34722222 59.5918354,3.15277778 56.6563449,3.73611111 C55.7695568,3.91953154 54.9412378,4.3202186 54.244557,4.90277778 C53.3969802,5.5353914 52.9406402,6.56958109 53.0422351,7.62756381 C53.1438299,8.68554653 53.7884791,9.61235977 54.7406962,10.0694444 C55.6208199,10.5024058 56.5450204,10.837707 57.4970253,11.0694444 C59.0130063,11.5416667 60.5978956,11.8472222 62.0725316,12.4583333 C65.3112184,13.75 66.7858544,15.9583333 66.6756013,19.0694444 C66.599464,22.2318149 64.5050481,24.9824792 61.4937025,25.875 C56.2980222,27.5972222 50.4683861,24.9166667 49.4347627,19.6944444 C49.4018909,19.3805011 49.4018909,19.0639433 49.4347627,18.75 Z" id="Shape"></path><path d="M27.9078323,25.8055556 L24.806962,25.8055556 C24.7079095,25.2406428 24.6434732,24.6701184 24.614019,24.0972222 C24.614019,21.875 24.614019,19.6527778 24.614019,17.4305556 C24.614019,16.9722222 24.614019,16.5138889 24.614019,16.0416667 C24.4072943,13.2638889 22.7397152,11.5555556 20.3554905,11.625 C17.7991014,11.5773341 15.6711819,13.5924041 15.5594778,16.1666667 C15.476788,18.5416667 15.5594778,20.9166667 15.5594778,23.2777778 L15.5594778,25.7222222 L12.0865032,25.7222222 L12.0865032,0.180555556 C12.6239873,0.111111111 13.1339082,0 13.6300475,0 C14.1261867,0 14.5258544,0 15.008212,0.0694444444 C15.7386392,1.79166667 15.2976266,3.55555556 15.3803165,5.26388889 C15.4630063,6.97222222 15.3803165,8.61111111 15.3803165,10.3055556 C16.5843864,9.63977999 17.837643,9.0686399 19.1289241,8.59722222 C21.114284,7.90661636 23.3083576,8.22455432 25.020208,9.45091409 C26.7320583,10.6772739 27.7510285,12.6611421 27.7562342,14.7777778 C27.9353956,17.8333333 27.7562342,20.9027778 27.8389241,23.9583333 L27.9078323,25.8055556 Z" id="Shape"></path><path d="M47.243481,18.5555556 L33.8615032,18.5555556 C33.7774018,20.4493886 34.972441,22.1617183 36.7694304,22.7222222 C39.3924415,23.851793 42.4420087,22.9910386 44.1012658,20.6527778 L46.6508703,21.6666667 C44.9143829,25.625 39.9805538,27.4027778 35.6255538,25.7361111 C31.2304268,23.8486921 29.0376999,18.8523818 30.6090348,14.3055556 C32.0261676,9.95787234 36.515778,7.43282491 40.9314873,8.5 C45.4794304,9.5 48.0290348,13.4722222 47.243481,18.5555556 Z M44.1012658,15.875 C43.1365506,12.0694444 40.7247627,11.1111111 37.7892722,11.5833333 C35.5834461,11.8293605 33.941125,13.7512177 34.0268829,15.9861111 C37.3206962,15.9583333 40.6282911,16.0972222 44.1012658,15.875 Z" id="Shape"></path><path d="M83.0895411,8.91666667 L75.9230854,16.3055556 L84.8122468,26.0277778 L80.374557,26.0277778 L72.7946519,17.8333333 C72.6442862,19.1841767 72.5982089,20.544746 72.6568354,21.9027778 C72.6568354,23.1944444 72.6568354,24.5 72.6568354,25.7638889 C71.7546168,26.2273735 70.7149837,26.3410415 69.7351266,26.0833333 C69.252769,24.3611111 69.1838608,2.56944444 69.6662184,0.152777778 L72.5741456,0.152777778 C72.5741456,1.63888889 72.6430538,3.125 72.6568354,4.61111111 C72.6706171,6.09722222 72.6568354,7.83333333 72.6568354,9.43055556 L72.6568354,14.3472222 C75.0134968,12.6805556 76.6121677,10.5555556 78.5967247,8.94444444 L83.0895411,8.91666667 Z" id="Shape"></path><path d="M6.51871835,25.8194444 L3.14221519,25.8194444 C3.00439873,21.125 3.14221519,16.4861111 3.05952532,11.7638889 L0.137816456,11.4444444 L0,8.94444444 L2.94927215,8.56944444 C3.34893987,5.86111111 2.86658228,3.01388889 3.22490506,0.138888889 L6.40846519,0.138888889 C6.40846519,1.52777778 6.40846519,2.91666667 6.40846519,4.23611111 C6.40846519,5.55555556 6.40846519,7.01388889 6.40846519,8.55555556 L9.89522152,8.86111111 L9.89522152,11.4722222 L6.43602848,11.7222222 L6.51871835,25.8194444 Z" id="Shape"></path><path d="M89.1534652,26.0277778 L86.1352848,26.0277778 C85.9561234,20.3194444 86.0525949,14.7083333 86.1352848,8.95833333 L89.0294304,8.95833333 C89.4428797,10.4583333 89.5806962,22.1111111 89.1534652,26.0277778 Z" id="Shape"></path><path d="M87.5823576,1.51388889 C88.6768672,1.52594887 89.5946773,2.350105 89.7322943,3.44444444 C89.7586745,4.0173081 89.551126,4.57606988 89.1579617,4.99066161 C88.7647974,5.40525334 88.2203176,5.63950545 87.6512658,5.6388901 C86.5569833,5.60916812 85.6811045,4.71421388 85.6667089,3.61111111 C85.6443185,3.07687341 85.833668,2.55559343 86.1930162,2.16218467 C86.5523644,1.76877591 87.0522075,1.53553867 87.5823576,1.51388889 L87.5823576,1.51388889 Z" id="Shape"></path></g></g></g></g></g></svg> 