<?xml version="1.0" encoding="utf-8"?>
<!-- Generator: Adobe Illustrator 19.0.0, SVG Export Plug-In . SVG Version: 6.00 Build 0)  -->
<svg version="1.1" id="Layer_1" xmlns="http://www.w3.org/2000/svg" xmlns:xlink="http://www.w3.org/1999/xlink" x="0px" y="0px"
	 width="87px" height="75px" viewBox="5 8.7 87 75" style="enable-background:new 5 8.7 87 75;" xml:space="preserve">
<style type="text/css">
	.st0{fill:#25211F;}
</style>
<title>Publishing IconSVG</title>
<g id="Layer_2_2_">
	<g id="Layer_1-2_2_">
		<path class="st0" d="M86.5,37L86.5,37c-0.5-0.8-1.4-1.2-2.3-1c-4.9,1.1-9.7-2.1-10.8-7c-0.6-2.9,0.2-5.9,2.2-8.1
			c0.6-0.7,0.8-1.7,0.3-2.5l-5.5-9.6L5.1,45.8l5.5,9.7c0.5,0.8,1.4,1.2,2.2,1c4.9-0.9,9.7,2.4,10.5,7.4c0.5,2.7-0.3,5.5-2.1,7.5
			c-0.6,0.7-0.7,1.7-0.3,2.5l5.5,9.7L92,46.6L86.5,37z M23.6,73c4.1-5.1,3.4-12.5-1.7-16.6c-2.6-2.1-5.9-3-9.1-2.5l-4-7l60.7-34.4
			l3.9,6.9c-4.3,4.9-3.7,12.4,1.2,16.7c2.7,2.3,6.3,3.3,9.8,2.7l3.9,6.9L27.6,80L23.6,73z"/>
		
			<rect x="62.4" y="29.2" transform="matrix(-0.8698 0.4935 -0.4935 -0.8698 134.0074 27.965)" class="st0" width="1.9" height="4.9"/>
		
			<rect x="57.5" y="20.6" transform="matrix(-0.8698 0.4935 -0.4935 -0.8698 120.6432 14.2843)" class="st0" width="1.9" height="4.9"/>
		
			<rect x="28.1" y="51.3" transform="matrix(-0.8698 0.4935 -0.4935 -0.8698 112.4884 74.9671)" class="st0" width="36.5" height="2.1"/>
		
			<rect x="31.7" y="57.5" transform="matrix(-0.8698 0.4935 -0.4935 -0.8698 122.2573 84.9611)" class="st0" width="36.5" height="2.1"/>
		
			<rect x="67.2" y="37.8" transform="matrix(-0.8698 0.4935 -0.4935 -0.8698 147.363 41.6087)" class="st0" width="1.9" height="4.9"/>
		
			<rect x="72.1" y="46.4" transform="matrix(-0.8698 0.4935 -0.4935 -0.8698 160.7289 55.2879)" class="st0" width="1.9" height="4.9"/>
		
			<rect x="22.5" y="37.8" transform="matrix(-0.8688 0.4952 -0.4952 -0.8688 97.2354 59.2915)" class="st0" width="36.5" height="9.5"/>
	</g>
</g>
</svg>
