<?xml version="1.0" encoding="UTF-8"?>
<svg width="86px" height="65px" viewBox="0 0 86 65" version="1.1" xmlns="http://www.w3.org/2000/svg" xmlns:xlink="http://www.w3.org/1999/xlink">
    <!-- Generator: Sketch 51.2 (57519) - http://www.bohemiancoding.com/sketch -->
    <title>trns moment icon</title>
    <desc>Created with Sketch.</desc>
    <defs>
        <polygon id="path-1" points="61.5924571 61 0.170742857 61 0.170742857 0.0455317073 61.5924571 0.0455317073 61.5924571 61"></polygon>
    </defs>
    <g id="Page-1" stroke="none" stroke-width="1" fill="none" fill-rule="evenodd">
        <g id="trns-moment-icon">
            <g id="Group-5" transform="translate(60.000000, 4.000000)" fill="#25221F">
                <path d="M5.54355,11.9132308 L14.99505,11.9424615 L14.99205,12.5670769 L14.97405,17.6301538 C14.97405,17.7224615 15.05805,17.7793846 15.12255,17.7286154 L25.91355,9.15476923 C25.97205,9.10861538 25.97205,9.004 25.91505,8.95784615 L15.18405,0.302461538 C15.12105,0.251692308 15.03555,0.307076923 15.03555,0.400923077 L15.01455,5.99476923 L15.01455,6.08861538 L0.41505,6.044 C2.34855,7.77784615 4.07355,9.74707692 5.54355,11.9132308" id="Fill-3"></path>
            </g>
            <g id="Group-8" transform="translate(8.000000, 4.000000)">
                <mask id="mask-2" fill="white">
                    <use xlink:href="#path-1"></use>
                </mask>
                <g id="Clip-7"></g>
                <path d="M30.8816,3.06992195 C15.6267429,3.06992195 3.2183619,15.385239 3.2183619,30.5223122 C3.2183619,45.6608976 15.6267429,57.9762146 30.8816,57.9762146 C46.1364571,57.9762146 58.5448381,45.6608976 58.5448381,30.5223122 C58.5448381,15.385239 46.1364571,3.06992195 30.8816,3.06992195 M30.8816,61.0006049 C13.9475048,61.0006049 0.170742857,47.3288488 0.170742857,30.5223122 C0.170742857,13.7172878 13.9475048,0.0455317073 30.8816,0.0455317073 C47.8156952,0.0455317073 61.5924571,13.7172878 61.5924571,30.5223122 C61.5924571,47.3288488 47.8156952,61.0006049 30.8816,61.0006049" id="Fill-6" fill="#25221F" mask="url(#mask-2)"></path>
            </g>
            <path d="M41.8213857,45.2169285 L41.8213857,49 L35.9090909,49 L35.9090909,45.3157628 C33.220024,44.8854536 30.8931518,43.9564116 29,42.4298023 L32.221706,37.7511404 C34.3811774,39.4769387 36.574129,40.3071465 38.1020425,40.3071465 C39.2981978,40.3071465 39.9282339,39.7415104 39.9282339,38.9782058 C39.9282339,38.1814496 39.4640769,37.7511404 37.7702843,37.3193107 L35.8421306,36.8220983 C32.0238686,35.8261531 30.2631157,33.6350735 30.2631157,29.8854536 C30.2631157,26.5342119 32.3221466,23.9113026 35.9090909,22.8834263 L35.9090909,19 L41.8213857,19 L41.8213857,22.6507856 C43.8819383,23.0157121 45.8070485,23.8443994 47.7002002,25.1718196 L44.5789347,29.6862646 C42.6842611,28.1596553 41.0254706,27.5620882 39.6969163,27.5620882 C38.4992391,27.5620882 37.9346416,27.9604663 37.9346416,28.6903193 C37.9346416,29.3532691 38.4003204,29.7866194 39.2312375,29.9842879 L41.5900681,30.549924 C46.3396876,31.6781551 48,33.9680689 48,37.8499747 C48,41.6345666 45.40833,44.3547897 41.8213857,45.2169285" id="Fill-9" fill="#25221F"></path>
            <path d="M71,54.5 C71,55.327699 70.3289689,56 69.4991817,56 C68.6710311,56 68,55.327699 68,54.5 C68,53.672301 68.6710311,53 69.4991817,53 C70.3289689,53 71,53.672301 71,54.5" id="Fill-11" fill="#25221F"></path>
            <path d="M3,24.5008183 C3,25.3289689 2.3289689,26 1.50081833,26 C0.671031097,26 0,25.3289689 0,24.5008183 C0,23.6710311 0.671031097,23 1.50081833,23 C2.3289689,23 3,23.6710311 3,24.5008183" id="Fill-13" fill="#25221F"></path>
            <path d="M65.3534942,4.93889063 L63.0611094,2.6465058 C62.9796302,2.56502664 62.9796302,2.43340646 63.0611094,2.3534942 L65.3534942,0.0611093701 C65.4349734,-0.02036979 65.5665935,-0.02036979 65.6465058,0.0611093701 L67.9388906,2.3534942 C68.0203698,2.43340646 68.0203698,2.56502664 67.9388906,2.6465058 L65.6465058,4.93889063 C65.5665935,5.02036979 65.4349734,5.02036979 65.3534942,4.93889063" id="Fill-15" fill="#25221F"></path>
        </g>
    </g>
</svg>