<?xml version="1.0" encoding="UTF-8"?> <svg xmlns="http://www.w3.org/2000/svg" xmlns:xlink="http://www.w3.org/1999/xlink" width="166px" height="56px" viewBox="0 0 166 56"><!-- Generator: Sketch 55.2 (78181) - https://sketchapp.com --><title>UFC</title><desc>Created with Sketch.</desc><g id="Page-1" stroke="none" stroke-width="1" fill="none" fill-rule="evenodd"><g id="Rokt-Calendar-1440" transform="translate(-1026.000000, -4895.000000)" fill="#FFFFFF" fill-rule="nonzero"><g id="UFC" transform="translate(941.000000, 4755.000000)"><g transform="translate(85.000000, 140.000000)" id="Shape"><path d="M0,48.3287747 C0.393545029,46.8083014 0.762493493,45.2797405 1.18063509,43.7673548 C5.00676731,29.6355801 8.84929724,15.5145889 12.7082249,1.40438119 C12.7820146,1.13748961 12.872202,1 13.2001562,1 L33.7710828,1 L34.1400312,1 C33.7874805,2.18079308 33.4349297,3.32923566 33.0905778,4.47767825 C29.7290474,15.6385991 26.364784,26.7941283 22.9977876,37.9442657 C22.7336175,38.7143653 22.7051028,39.5441362 22.9157991,40.3301147 C23.4108163,41.8204434 24.8441542,42.8091793 26.4331078,42.7564018 C29.4642112,42.687322 32.1085453,40.7081535 32.9921916,37.8472142 C36.6488808,25.7211702 40.3110359,13.5735592 43.9786569,1.40438119 C44.0606455,1.14557723 44.1344352,1 44.4705882,1 L62.6556481,1 L63,1 L62.3112962,3.57186438 C58.3430505,18.1295873 54.3802707,32.6873102 50.4229568,47.2450331 C49.9059251,49.6475124 48.6109997,51.8190203 46.7334721,53.4320653 C44.7747899,55.0888729 42.2790613,55.9984449 39.6988548,55.9958421 C28.9091619,55.9958421 18.119469,55.9958421 7.3215773,55.9958421 C5.41163835,56.0595181 3.55114362,55.3897808 2.13170224,54.127601 C1.01145287,53.1450553 0.284424323,51.7996534 0.0819885476,50.3345054 C0.0595672438,50.2414906 0.0321998947,50.1497039 0,50.0595262 L0,48.3287747 Z"></path><path d="M114,0 C113.739699,0.973037747 113.495668,1.94607549 113.186561,2.91072499 C112.202299,6.44218095 111.201768,9.96524865 110.225641,13.4967046 C110.128028,13.8657879 109.96534,13.9412822 109.63183,13.9412822 C104.604775,13.9412822 99.5804303,13.9412822 94.5587975,13.9412822 L68.5694076,14 L68,14 C68.3823165,12.6243259 68.7564987,11.3073697 69.1225464,9.99041342 C70.0607132,6.75813861 70.9798998,3.52306771 71.8801061,0.285200719 C71.9076663,0.192172078 71.9267296,0.0966894546 71.9370469,0 L114,0 Z"></path><path d="M156.459219,42.4982252 C156.198649,43.4317247 155.954364,44.3246373 155.710079,45.2256673 C155.351795,46.5244492 155.05051,47.8394659 154.627083,49.1138956 C153.38123,52.8722458 150.67781,55.0558229 146.866966,55.8675616 C146.351301,55.9607822 145.827474,56.0015783 145.303543,55.9893224 L116.46164,55.9893224 C114.600622,56.0871239 112.766938,55.5104821 111.299085,54.365845 C109.62844,53.0586186 108.774033,50.9693942 109.051664,48.870374 C109.304392,47.1880879 109.67443,45.5254065 110.159089,43.8944158 C113.416221,31.5072833 116.695067,19.1255624 119.995628,6.74925305 C120.989053,3.04772459 123.62733,0.99402569 127.275318,0.149817446 C127.859827,0.0360948015 128.45515,-0.0129067479 129.050454,0.00370448057 C138.007567,0.00370448057 146.96468,0.00370448057 155.921793,0.00370448057 C159.11621,-0.076964255 162.201881,1.16284922 164.447335,3.42924178 C165.850829,4.73478412 166.357351,6.73866103 165.742045,8.55131296 C165.595474,9.06270833 165.473332,9.59033849 165.310475,10.1017339 C165.269761,10.2072599 165.106905,10.2965512 164.984762,10.3533729 C164.874425,10.3738514 164.761244,10.3738514 164.650906,10.3533729 L141.0367,10.3533729 C139.375324,10.2112622 137.874597,11.3429261 137.559712,12.9752889 L130.060165,40.0792439 C129.750738,41.1913259 130.060165,42.0274168 130.955877,42.3439949 C131.255134,42.4424792 131.569098,42.4891522 131.884159,42.4819905 L156.459219,42.4819905 L156.459219,42.4982252 Z"></path><path d="M56,55.9673964 L65.9484617,21 L108,21 C107.634546,22.2226362 107.269093,23.4452725 106.91176,24.6190033 C106.002186,27.5859339 105.092613,30.5447136 104.207403,33.5197951 C104.109948,33.8458314 103.963767,33.9273405 103.638919,33.9273405 L82.3938779,33.9273405 L81.5817586,37.0735911 C79.8654797,43.2682813 78.1681503,49.4466698 76.4897704,55.6087564 C76.4166797,55.8614346 76.3517101,56 76.0349836,56 C69.4568171,56 62.8867718,56 56.3167265,56 L56,55.9673964 Z"></path></g></g></g></g></svg> 