<?xml version="1.0" encoding="UTF-8"?> <svg xmlns="http://www.w3.org/2000/svg" xmlns:xlink="http://www.w3.org/1999/xlink" width="79px" height="66px" viewBox="0 0 79 66"><!-- Generator: Sketch 55.2 (78181) - https://sketchapp.com --><title>Univsion</title><desc>Created with Sketch.</desc><g id="Page-1" stroke="none" stroke-width="1" fill="none" fill-rule="evenodd"><g id="Rokt-Calendar-1440" transform="translate(-1055.000000, -3752.000000)" fill="#FFFFFF" fill-rule="nonzero"><g id="Group-7" transform="translate(264.000000, 3747.000000)"><g id="Group-6"><g id="Univsion" transform="translate(791.066456, 5.555556)"><path d="M35.8322785,0.354316166 C41.1935443,-0.72835109 57.7364557,0.84374109 60.6392405,2.72728549 L60.6392405,23.9505299 C58.9861443,24.8684537 57.1377283,25.376978 55.2483544,25.4336358 C49.2259099,26.120667 43.1670978,26.4376564 37.1059494,26.3828235 L35.8322785,26.2938371 L35.8322785,0.354316166 Z" id="Shape"></path><path d="M35.8891491,28.6971693 C44.1877092,28.2413942 52.4280337,28.7853838 60.6392405,26.3888889 C60.3041995,31.4935793 58.3720064,36.3588181 55.121426,40.2826786 C50.8411161,45.3403121 45.1340362,47.0604956 38.8009246,47.2222222 C37.8811082,46.3064593 37.2785854,45.1153147 37.082977,43.8259625 C36.5879752,41.0325022 36.1657678,38.2243394 35.9182669,35.4161766 C35.7435603,33.2549204 35.8891491,31.0348545 35.8891491,28.6971693 Z" id="Shape"></path><path d="M17.9161392,3.55418249 C18.8084173,2.83610911 19.9845937,2.59848478 21.0780251,2.91538287 C23.7747874,3.29490951 26.3675906,4.22999071 28.6986073,5.66370684 C30.8671302,6.89253326 32.813666,8.49025873 34.4541139,10.3878529 L34.4541139,23.1341338 C32.7493183,24.5157237 27.7369277,25.407072 24.6333254,24.8128398 C24.5167582,23.6095196 24.4439037,22.3319203 24.2690529,21.0840327 C23.7230399,17.5120219 22.584835,14.0607836 20.9031743,10.8780945 C20.1746292,9.39251396 19.446084,7.99606827 18.7758225,6.49563194 C18.4342616,5.53273854 18.1472278,4.55063807 17.9161392,3.55418249 Z" id="Shape"></path><path d="M37.210443,47.2222222 C27.4124195,46.7757937 17.081573,35.6150794 17.9696114,26.3888889 C23.3126423,28.1894841 28.8776829,28.4126984 34.5463279,28.7103175 C35.0051477,34.9603175 34.4131221,41.3293651 37.210443,47.2222222 Z" id="Shape"></path><path d="M23.4078941,26.3888889 L17.9161392,25.154321 L17.9161392,9.72222222 C20.8418063,14.8712737 23.7020953,20.0504366 23.4078941,26.3888889 Z" id="Shape"></path><g id="_0hrluW" transform="translate(0.000000, 55.555556)"><path d="M62.6215423,9.22222222 C60.8494303,9.31481964 59.1680792,8.47927519 58.2523397,7.05095472 C57.3366002,5.62263424 57.3366002,3.83569909 58.2523397,2.40737862 C59.1680792,0.979058141 60.8494303,0.143513694 62.6215423,0.236111111 C64.3936543,0.143513694 66.0750054,0.979058141 66.9907449,2.40737862 C67.9064844,3.83569909 67.9064844,5.62263424 66.9907449,7.05095472 C66.0750054,8.47927519 64.3936543,9.31481964 62.6215423,9.22222222 Z M65.2826528,4.73611111 C65.3347596,4.05923323 65.074324,3.39401926 64.5677863,2.91017311 C64.0612485,2.42632697 63.3575914,2.17063722 62.6363262,2.20833333 C61.9344172,2.21157339 61.2640345,2.48260347 60.7789798,2.9592429 C60.2939251,3.43588232 60.0358343,4.07721752 60.0639194,4.73611111 C60.043867,5.40983387 60.3158398,6.06233475 60.8175278,6.54412294 C61.3192158,7.02591112 62.0076222,7.29569528 62.7250299,7.29171115 C63.4297366,7.28497797 64.1010422,7.00850571 64.5837868,6.52615134 C65.0665313,6.04379696 65.3189326,5.39730898 65.2826528,4.73611111 L65.2826528,4.73611111 Z" id="Shape"></path><path d="M20.3838055,8.98611111 L18.1218616,8.98611111 C18.1218616,8.59722222 18.1218616,8.27777778 18.1218616,7.95833333 C18.1218616,6.72222222 18.1218616,5.47222222 18.1218616,4.23611111 C18.1720577,3.17470539 17.299923,2.27467999 16.1703806,2.22222222 C15.6150185,2.14717494 15.0507887,2.2841035 14.6035983,2.60245249 C14.156408,2.92080148 13.8634744,3.39407641 13.7901651,3.91666667 C13.7282886,4.2980173 13.7035463,4.68387329 13.7162454,5.06944444 C13.7162454,6.33333333 13.7162454,7.61111111 13.7162454,8.95833333 L11.5430052,8.95833333 C11.5308855,8.75015557 11.5308855,8.5415111 11.5430052,8.33333333 C11.5430052,7.02777778 11.5430052,5.72222222 11.5430052,4.41666667 C11.3963693,2.73177719 12.4590822,1.1604734 14.1449799,0.569444444 C16.0060649,-0.162545349 18.1556849,0.275747624 19.5263366,1.66666667 C20.0707059,2.21256378 20.3949256,2.92000018 20.4429413,3.66666667 C20.4429413,5.40277778 20.3838055,7.15277778 20.3838055,8.98611111 Z" id="Shape"></path><path d="M69.5847814,8.95833333 C69.6587011,7.09722222 69.5847814,5.29166667 69.8065406,3.51388889 C69.9541407,2.48230026 70.5450677,1.55252901 71.4417057,0.941101279 C72.3383437,0.329673545 73.4624305,0.0899572495 74.5521876,0.277777778 C75.725226,0.278853785 76.8422898,0.749097567 77.6238886,1.57085364 C78.4054875,2.39260971 78.7776791,3.48813696 78.6473409,4.58333333 L78.6473409,8.05555556 C78.6473409,8.34722222 78.6473409,8.625 78.6473409,8.97222222 L76.4593167,8.97222222 C76.4593167,8.65277778 76.4593167,8.33333333 76.4593167,8.02777778 C76.4593167,6.75 76.4593167,5.47222222 76.4593167,4.20833333 C76.4555614,3.66686358 76.2198657,3.14962643 75.8054113,2.77333003 C75.3909569,2.39703363 74.8326655,2.19338443 74.2565086,2.20833333 C73.6624511,2.16679516 73.0784398,2.36947879 72.6557999,2.7638662 C72.23316,3.15825362 72.0134868,3.70553002 72.0537005,4.26388889 C72.0537005,5.51388889 72.0537005,6.75 72.0537005,8 L72.0537005,8.95833333 L69.5847814,8.95833333 Z" id="Shape"></path><path d="M0.10023015,0.486111111 L2.28825432,0.486111111 C2.28825432,0.944444444 2.28825432,1.31944444 2.36217405,1.69444444 C2.36217405,2.94444444 2.36217405,4.18055556 2.43609379,5.43055556 C2.49032389,6.07742659 2.8992616,6.65106457 3.51532192,6.94444444 C4.12924278,7.30013112 4.89100809,7.34649251 5.54864696,7.06819353 C6.20628583,6.78989456 6.67410326,6.22319956 6.79735817,5.55555556 C6.79735817,4.31944444 6.79735817,3.08333333 6.79735817,1.83333333 C6.79735817,1.45833333 6.79735817,1.08333333 6.79735817,0.569444444 L8.97059839,0.388888889 C8.97059839,0.763888889 8.97059839,1.02777778 8.97059839,1.27777778 C8.97059839,2.55555556 8.97059839,3.81944444 8.97059839,5.09722222 C9.05599999,6.15541589 8.67570368,7.20020941 7.91848462,7.98770949 C7.16126555,8.77520958 6.09339335,9.2364965 4.96414873,9.26388889 C2.33260616,9.36111111 0.425476985,8.05555556 0.188933832,5.55555556 C0.0115264672,3.94444444 0.10023015,2.25 0.10023015,0.486111111 Z" id="Shape"></path><path d="M43.9198493,8.09722222 L44.8808058,6.77777778 C45.497394,7.01838299 46.129412,7.22248593 46.773151,7.38888889 C47.229803,7.49260974 47.7061901,7.49260974 48.1628421,7.38888889 C48.4569673,7.24437632 48.6680276,6.98508422 48.739416,6.68055556 C48.7278934,6.39637082 48.5745054,6.13390014 48.3254655,5.97222222 C47.8869779,5.73894189 47.4267723,5.54368992 46.9505584,5.38888889 C46.5218239,5.20833333 46.0635216,5.08333333 45.6495711,4.875 C44.8368206,4.52413019 44.3064628,3.77032699 44.2813651,2.93035448 C44.2562675,2.09038197 44.7407797,1.3098159 45.5312995,0.916666667 C47.1810988,0.0709571525 49.1887005,0.129398335 50.7796007,1.06944444 L49.8038602,2.45833333 C49.3238105,2.29258169 48.8290801,2.16709159 48.3254655,2.08333333 C47.8633709,2.04542529 47.3981646,2.10718115 46.9653423,2.26388889 C46.3296326,2.54166667 46.3148487,3.06944444 46.9653423,3.41666667 C47.3856957,3.61630084 47.8204228,3.78801769 48.2663297,3.93055556 C48.8254301,4.12510645 49.3689105,4.35718677 49.8925639,4.625 C50.6700282,5.03207968 51.1519403,5.80271295 51.1519403,6.63888889 C51.1519403,7.47506483 50.6700282,8.2456981 49.8925639,8.65277778 C48.7024461,9.30368709 47.2775857,9.45968884 45.9600339,9.08333333 C45.1974918,8.93419449 44.4923525,8.59336963 43.9198493,8.09722222 Z" id="Shape"></path><path d="M27.2583409,0.472222222 L29.6681243,0.472222222 L32.270099,5.84722222 C32.5214261,5.45833333 32.6544816,5.27777778 32.7579692,5.08333333 C33.3936789,3.79166667 34.0441726,2.51388889 34.6355305,1.19444444 C34.8010942,0.637396113 35.3892701,0.289039148 35.9956536,0.388888889 C36.4240707,0.410806143 36.8534399,0.410806143 37.281857,0.388888889 C36.0252215,3.375 34.502475,6.08333333 33.1867037,8.94444444 L31.427414,8.94444444 L27.2583409,0.472222222 Z" id="Shape"></path><polygon id="Shape" points="39.3516096 0.458333333 41.4952819 0.458333333 41.4952819 8.97222222 39.3516096 8.97222222"></polygon><path d="M25.2329402,8.97222222 L23.1779715,8.97222222 C22.9361773,6.15362978 22.9065357,3.3225153 23.0892678,0.5 L25.2329402,0.5 L25.2329402,8.97222222 Z" id="Shape"></path><polygon id="Shape" points="53.5294148 0.486111111 55.6287353 0.486111111 55.6287353 8.95833333 53.5294148 8.95833333"></polygon></g></g></g></g></g></g></svg> 