<svg width="128" height="20" viewBox="0 0 128 20" xmlns="http://www.w3.org/2000/svg"><title>arista</title><g fill="#1A3767" fill-rule="nonzero"><path d="M46.545.208a5.967 5.967 0 0 1 3.119 1.507 6.093 6.093 0 0 1 1.353 1.651 5.894 5.894 0 0 1-.052 5.472 5.935 5.935 0 0 1-3.557 2.901c-.42.134-.86.2-1.301.196-.798-.052-1.6 0-2.49 0 .051.126.117.246.195.357.633.69 1.3 1.347 2 1.97 1.431 1.193 2.603 2.635 4.008 3.872.594.531 1.18 1.063 1.735 1.63.063.071.118.15.165.234H47c-.034-.113-.034-.261-.112-.33-.248-.236-.542-.436-.785-.659-1.84-1.83-3.648-3.69-5.57-5.436-1.15-1.05-2.138-2.265-3.361-3.241a20.095 20.095 0 0 1-1.623-1.62h10.536c.337.01.67-.077.959-.253a4.385 4.385 0 0 0 1.037-1.007c.274-.338.427-.76.433-1.197A2.677 2.677 0 0 0 47.78 4.2a2.653 2.653 0 0 0-2.015-.817H33.936c-.195 0-.386 0-.573.026v16.588H29.72V.191c3.144 0 14.435-.445 16.825.017zM83.497-.002c-.41.673-.819 1.354-1.232 2.022-.26.413-.533.812-.792 1.203H68.819a2.79 2.79 0 0 0-2.6 1.49 2.405 2.405 0 0 0 .44 2.825c.286.237.493.606.88.69.398.12.808.194 1.223.22h10.612a5.244 5.244 0 0 1 3.52 1.471 5.346 5.346 0 0 1 1.575 2.5c.163.407.248.84.25 1.279-.06.62.08 1.234-.136 1.863a7.47 7.47 0 0 1-2.591 3.633c-1.46 1.041-3.08.773-4.765.773H63.333c.474-.887.998-1.747 1.57-2.574.132-.198.23-.44.357-.655h13.718c1.25 0 2.02-.769 2.482-1.757 0-.83.233-1.688-.476-2.395a2.64 2.64 0 0 0-1.174-.843 2.203 2.203 0 0 0-.652-.093c-3.383 0-6.762.027-10.145 0a6.973 6.973 0 0 1-3.221-.738 5.514 5.514 0 0 1-2.943-4.077 3.892 3.892 0 0 1-.128-1.094 6.347 6.347 0 0 1 .977-3.133c1.729-2.68 5.024-2.61 7.836-2.61h11.963zM127.711 19.836c.03.132-.021.158-.15.158h-3.77c0-.079.03-.175 0-.227a17.276 17.276 0 0 1-1.035-1.553c-.43-.83-.987-1.565-1.457-2.366-.47-.8-.97-1.482-1.402-2.243-.655-1.159-1.419-2.243-2.074-3.402-.656-1.16-1.346-2.134-2.018-3.201-.522-.827-1.031-1.658-1.6-2.567l-4.226 6.682h5.041c.828 0 1.634-.044 2.531.035-.642 1.04-1.233 2.011-1.854 3.021h-6.866a1.055 1.055 0 0 0-1.151.674c-.059.128-.128.25-.207.367-.492.761-1.022 1.5-1.462 2.292-.44.791-1.009 1.661-1.518 2.492h-3.773c.603-.997 1.199-1.994 1.815-2.982.488-.792 1.014-1.561 1.501-2.353.595-.97 1.126-1.98 1.755-2.925.802-1.216 1.535-2.467 2.32-3.691.51-.805 1-1.618 1.51-2.423.43-.704.918-1.395 1.354-2.108.517-.848 1-1.722 1.53-2.562.272-.437 1.726-1.26 2.243-.84.065.048.125.105.194.149.406.242.754.57 1.022.962a121.76 121.76 0 0 1 2.588 4.176c.457.783 1.026 1.496 1.47 2.287.444.792.932 1.544 1.415 2.296.785 1.22 1.548 2.462 2.333 3.682.62.958 1.233 1.92 1.815 2.9.583.979 1.341 2.011 1.893 3.091.044.088.156.123.233.18zM27.711 19.998h-3.765a29.148 29.148 0 0 0-1.194-1.958c-.547-.81-1.008-1.677-1.52-2.505-.431-.717-.914-1.408-1.353-2.121-.694-1.14-1.332-2.315-2.06-3.433-.797-1.22-1.53-2.483-2.313-3.715-.392-.612-.78-1.232-1.237-1.95-1.34 2.306-2.813 4.401-4.149 6.752H17.647l-1.878 3.08H8.233c-.163.225-.301.388-.409.573-.465.805-.973 1.589-1.456 2.386a33.249 33.249 0 0 0-1.723 2.887H.879c-.133 0-.18-.027-.15-.159.159-.13.303-.277.43-.44.336-.545.608-1.13.965-1.659.905-1.347 1.724-2.738 2.547-4.142.456-.792 1.025-1.51 1.469-2.302.443-.792.952-1.536 1.413-2.315.827-1.39 1.684-2.768 2.542-4.146.71-1.131 1.391-2.284 2.115-3.407.396-.611.823-1.219 1.611-1.355a.26.26 0 0 0 0-.07h.9c.022.043.035.123.057.123.507.077.943.407 1.163.88.487.845 1.025 1.664 1.542 2.5.789 1.28 1.599 2.553 2.383 3.838.508.836 1.06 1.646 1.546 2.495.487.85 1.12 1.572 1.573 2.421.625 1.18 1.361 2.293 2.064 3.425.861 1.382 1.654 2.816 2.628 4.124.069.013.034.114.034.193zM104.72-.002v3.158a.283.283 0 0 1-.052.049.163.163 0 0 1-.065.022h-7.597v16.771h-3.634V3.24H84.72c.683-1.03 1.324-1.993 1.955-2.96a.834.834 0 0 0 .056-.282h17.989zM55.72 19.998V.083a.212.212 0 0 1 .044-.058.086.086 0 0 1 .053-.027h2.903v20h-3z"/></g></svg>